<svg width="2475" height="2178"
  xmlns="http://www.w3.org/2000/svg"
  xmlns:xlink="http://www.w3.org/1999/xlink" xml:space="preserve" overflow="hidden">
  <defs>
    <clipPath id="clip0">
      <rect x="963" y="518" width="2475" height="2178"/>
    </clipPath>
  </defs>
  <g clip-path="url(#clip0)" transform="translate(-963 -518)">
    <path d="M1506.92 1822.29C1509.92 1821.67 1512.69 1823.49 1515.46 1824.67 1586.16 1854.93 1660.54 1871.01 1736.12 1883.07 1792.67 1892.08 1849.49 1898.86 1906.44 1903.95 1932.35 1906.26 1958.36 1908.71 1984.4 1910.35 2098.49 1917.54 2212.64 1915.56 2326.75 1913.96 2374.69 1913.29 2422.73 1910.6 2470.65 1905.93 2517.66 1901.35 2564.72 1896.94 2611.64 1891.57 2646.17 1887.62 2680.43 1880.93 2714.63 1874.46 2764.78 1864.97 2814.48 1853.48 2862.17 1834.74 2870.28 1831.56 2878.24 1828.02 2886.34 1824.79 2889.71 1823.45 2893.72 1821.02 2896.58 1824.9 2899.98 1829.52 2895.6 1832.5 2892.93 1835.41 2883.04 1846.2 2871.87 1855.35 2858.73 1862.02 2812.09 1885.73 2762.17 1899.73 2711.44 1910.93 2673.4 1919.33 2635.31 1927.67 2596.48 1932.05 2573.85 1934.6 2551.33 1938.23 2527.68 1941.62 2503.48 1943.7 2480.51 1946.81 2457.34 1948.58 2379.08 1954.55 2300.73 1957.79 2222.32 1956.83 2158.87 1956.06 2095.33 1958.78 2031.93 1953.43 1996.81 1950.47 1961.47 1949.74 1926.47 1945.88 1851.14 1937.55 1775.75 1929.89 1701.56 1912.99 1654.11 1902.18 1607 1890.99 1562.45 1871.13 1543.13 1862.51 1524.25 1852.72 1509.72 1836.59 1506.48 1832.99 1502.29 1829.68 1503.83 1823.84 1504.89 1822.97 1505.92 1822.5 1506.92 1822.29ZM1643.46 1039.25C1642.26 1039.16 1640.97 1039.37 1639.55 1039.98 1634.36 1042.23 1635.02 1047.41 1634.84 1051.89 1633.89 1076.76 1630.13 1101.33 1626.26 1128.03 1619.94 1163.56 1611.64 1198.54 1600.16 1232.83 1592.65 1255.26 1582.96 1276.81 1575.13 1299.08 1569.35 1315.51 1572.06 1318.81 1588.84 1320.24 1612.96 1322.3 1636.76 1320.85 1660.68 1317.2 1730.13 1306.6 1792.76 1279.83 1849.59 1239.01 1864.04 1228.63 1864 1225.3 1849.64 1214.35 1780.61 1161.76 1714.24 1106.09 1652.45 1045.08 1649.76 1042.43 1647.04 1039.51 1643.46 1039.25ZM2758.25 1035.19C2754.5 1036.04 2751.85 1040 2749.07 1042.71 2690.78 1099.58 2628.86 1152.21 2562.54 1202.46 2558.64 1205.55 2554.73 1208.63 2550.84 1211.74 2539.42 1220.85 2539.58 1226.06 2551.68 1234.71 2628.93 1289.94 2714.19 1319.9 2810.04 1316.85 2830.84 1316.18 2833.77 1312.39 2826.28 1292.98 2796 1214.63 2768.56 1135.63 2770.3 1049.9 2770.42 1043.81 2768.49 1037.76 2762.43 1035.54 2760.88 1034.97 2759.51 1034.91 2758.25 1035.19ZM2201.63 518C2247.69 518.088 2287.11 546.691 2296.76 589.14 2307.37 635.865 2290.61 681.997 2245.78 705.062 2225.44 715.519 2223.41 721.232 2230.77 742.899 2266.23 847.395 2310.34 947.866 2371.16 1040.36 2398.55 1082.02 2427.95 1122.25 2463.62 1157.44 2475.43 1169.09 2479.2 1169.21 2492.03 1158.71 2564.36 1099.51 2635.7 1039.22 2698.67 969.826 2722.39 943.686 2744.92 916.518 2765.36 887.708 2775.66 873.198 2774.9 866.755 2762.61 852.509 2717.63 800.385 2742.52 714.986 2809.33 698.365 2864.04 684.755 2913.72 703.734 2929.74 759.822 2945.21 813.996 2927 863.313 2867.19 884.475 2833.91 896.248 2833.52 895.824 2834.48 930.68 2837.79 1050.51 2860.17 1166.14 2911.24 1275.33 2919.95 1293.96 2922.2 1294.79 2941.93 1287.06 3007.29 1261.42 3064.55 1222.83 3117.03 1176.78 3171.57 1128.93 3218.74 1074.3 3262.92 1016.99 3275.02 1001.29 3275.3 996.438 3262.28 981.086 3233.78 947.478 3237.97 877.876 3273.38 848.189 3312.35 815.525 3373.03 815.872 3408.69 851.091 3460.03 901.793 3441.16 989.05 3373.67 1013.37 3365.28 1016.39 3356.69 1017.8 3347.98 1016.9 3331.04 1015.14 3319.43 1022.72 3310.39 1036.23 3275.55 1088.32 3239.94 1139.91 3205.74 1192.42 3126.17 1314.55 3052.8 1440.37 2983.74 1568.72 2974.49 1585.89 2965.52 1603.21 2956.26 1620.37 2954.24 1624.1 2953.14 1629.37 2946.82 1628.52 2942.21 1624.5 2944.88 1620.06 2946.23 1615.96 2973.76 1532.77 3005.49 1451.22 3041.55 1371.35 3049.74 1353.19 3057.85 1335 3065.73 1316.7 3067.38 1312.86 3071.92 1308.18 3067.05 1304.38 3062.68 1300.96 3058.52 1305.49 3054.68 1307.57 3003.75 1335.32 2950.53 1356.89 2893.57 1369 2848.84 1378.5 2803.7 1377.99 2758.43 1376.5 2753.86 1376.35 2749.31 1375.93 2743.6 1375.6 2680.42 1369.03 2622.79 1348.93 2568.42 1318.93 2474.09 1266.88 2399.73 1193.22 2339.08 1105.19 2283.88 1025.07 2240.65 938.889 2211.02 846.059 2209.3 840.688 2208.28 834.62 2201.77 831.551 2193.99 834.618 2193.67 842.462 2191.62 848.769 2161.59 940.901 2120.23 1027.53 2064.68 1107.03 2012.9 1181.13 1951.64 1246.38 1876.21 1296.88 1797.69 1349.45 1711.99 1379.43 1616.01 1381.39 1521.32 1383.31 1434.86 1358.5 1352.83 1313.81 1348.82 1311.63 1344.72 1309.62 1340.57 1307.73 1339.15 1307.09 1337.45 1307.05 1335.89 1306.74 1331.29 1312.59 1335 1317.31 1337.13 1321.96 1377.22 1409.51 1414.16 1498.34 1446.09 1589.21 1451.86 1605.64 1457.58 1622.09 1463.06 1638.62 1464.16 1641.93 1466.64 1645.44 1463.6 1649.82 1456.62 1650.68 1455.44 1644.56 1453.19 1640.2 1426.18 1587.82 1398.86 1535.62 1370.05 1484.19 1335.58 1422.62 1300 1361.71 1263.14 1301.53 1209.16 1213.36 1151.96 1127.31 1093.63 1041.98 1084.46 1028.56 1073.62 1021.6 1056.67 1021.38 999.518 1020.62 968.188 977.548 963.516 930.909 958.009 875.938 997.572 840.215 1034.37 831.182 1104.73 813.916 1160.15 863.166 1159.98 921.999 1159.9 947.999 1153.01 970.167 1135.94 989.291 1128.4 997.731 1127.81 1005.43 1134.82 1014.76 1186.64 1083.69 1242.98 1148.35 1310.82 1202.2 1356.25 1238.26 1405.29 1268.38 1458.87 1290.9 1476.11 1298.15 1484.14 1295.37 1491.69 1278.52 1516.01 1224.22 1535.44 1168.13 1547.81 1110.01 1561.64 1045.04 1568.41 979.118 1567 912.532 1566.68 897.628 1562 892.397 1546.29 889.719 1505.36 882.741 1473.4 851.4 1468.2 813.151 1461.72 765.449 1482.36 724.744 1522.72 705.632 1561.54 687.25 1612.24 698.236 1639.63 730.962 1667.42 764.159 1669.33 816.789 1643.99 851.545 1625.86 876.419 1625.76 876.498 1644.93 902.017 1696.8 971.036 1756.64 1032.54 1822.17 1088.57 1851.2 1113.38 1880.76 1137.59 1910.37 1161.72 1924.61 1173.32 1927.95 1172.91 1940.59 1159.55 1996.32 1100.61 2041.24 1033.95 2079.49 962.724 2118.46 890.142 2148.9 813.884 2174.98 735.84 2179.37 722.709 2176.61 715.94 2162.99 710.363 2113.37 690.048 2094.33 639.551 2105.36 592.677 2115.11 551.229 2158.15 517.917 2201.63 518Z" fill="#FFFFFF" fill-rule="evenodd"/>
    <path d="M2073.4 2538.89C2072.27 2546.97 2069.01 2556.17 2063.62 2566.51 2058.24 2576.84 2053.63 2587.05 2049.8 2597.12 2045.96 2607.2 2042.98 2616.88 2040.83 2626.16 2038.69 2635.44 2037.62 2643.67 2037.62 2650.84 2037.62 2657.74 2038.53 2662.77 2040.35 2665.93 2042.17 2669.09 2044.87 2670.66 2048.47 2670.66 2051.83 2670.66 2055.05 2668.69 2058.15 2664.75 2061.25 2660.8 2064.01 2654.66 2066.45 2646.3 2068.89 2637.95 2070.75 2627.61 2072.05 2615.29 2073.35 2602.96 2074 2589.21 2074 2574.03 2074 2567.9 2073.89 2561.65 2073.67 2555.29 2073.45 2548.93 2073.36 2543.46 2073.4 2538.89ZM1886.93 2401.29 1886.64 2402.02C1884.39 2403.83 1881.94 2405.41 1879.27 2406.74 1877.27 2407.75 1875.11 2409.18 1872.79 2411.04 1870.48 2412.9 1868.31 2415.27 1866.29 2418.13 1864.28 2421 1862.61 2424.38 1861.31 2428.28 1860.01 2432.19 1859.36 2436.64 1859.36 2441.64 1859.36 2446.04 1860 2450.06 1861.28 2453.71 1862.57 2457.36 1864.37 2460.44 1866.69 2462.94 1869.01 2465.44 1871.74 2467.39 1874.9 2468.79 1878.06 2470.18 1881.68 2470.88 1885.76 2470.88 1893.15 2470.88 1899.22 2469.2 1903.96 2465.85 1908.71 2462.5 1912.25 2459.45 1914.57 2456.72 1906.82 2453.18 1899.96 2446.92 1893.98 2437.96 1888 2429 1885.02 2418.84 1885.02 2407.51ZM1911.37 2399.72C1911.72 2399.72 1911.64 2399.95 1911.13 2400.41 1910.62 2400.86 1910.37 2402.65 1910.37 2405.76 1910.37 2408.29 1910.7 2410.93 1911.35 2413.67 1912.01 2416.41 1912.99 2419.07 1914.3 2421.63 1915.61 2424.2 1917.31 2426.72 1919.4 2429.21 1921.48 2431.7 1921.8 2433.48 1920.36 2434.56 1920.15 2434.05 1920.04 2432.55 1920.04 2430.05 1920.04 2426.57 1919.75 2422.81 1919.17 2418.75 1918.59 2414.7 1917.83 2411.17 1916.87 2408.18 1915.91 2405.19 1914.93 2403.03 1913.93 2401.71 1912.92 2400.38 1912.07 2399.72 1911.37 2399.72ZM2929.03 2398.19C2926.23 2398.19 2923.78 2399.01 2921.7 2400.66 2919.61 2402.31 2917.8 2404.67 2916.26 2407.74 2914.72 2410.82 2913.6 2414.25 2912.89 2418.06 2912.18 2421.86 2911.83 2425.86 2911.83 2430.05 2911.83 2432.44 2912.08 2435.08 2912.58 2437.95 2913.08 2440.83 2913.18 2442.25 2912.85 2442.22 2913.8 2440.7 2915.96 2438.62 2919.35 2435.97 2922.73 2433.32 2925.63 2430.38 2928.06 2427.14 2930.48 2423.91 2932.33 2420.61 2933.6 2417.24 2934.87 2413.87 2935.51 2410.48 2935.51 2407.07 2935.51 2403.92 2934.84 2401.66 2933.49 2400.27 2932.15 2398.88 2930.66 2398.19 2929.03 2398.19ZM2471.78 2398.19C2468.98 2398.19 2466.53 2399.01 2464.45 2400.66 2462.36 2402.31 2460.55 2404.67 2459.01 2407.74 2457.47 2410.82 2456.35 2414.25 2455.64 2418.06 2454.93 2421.86 2454.58 2425.86 2454.58 2430.05 2454.58 2432.44 2454.83 2435.08 2455.33 2437.95 2455.83 2440.83 2455.93 2442.25 2455.6 2442.22 2456.55 2440.7 2458.71 2438.62 2462.1 2435.97 2465.48 2433.32 2468.38 2430.38 2470.8 2427.14 2473.23 2423.91 2475.08 2420.61 2476.35 2417.24 2477.62 2413.87 2478.26 2410.48 2478.26 2407.07 2478.26 2403.92 2477.59 2401.66 2476.24 2400.27 2474.9 2398.88 2473.41 2398.19 2471.78 2398.19ZM1625.3 2337.57C1617.99 2337.57 1613.35 2337.75 1611.38 2338.11L1611.38 2340.68C1617.26 2340.68 1624.69 2340.2 1633.68 2339.22L1642.49 2339.03 1636.12 2338.12C1632.76 2337.76 1629.15 2337.57 1625.3 2337.57ZM2366.66 2186.81C2365.31 2186.81 2363.48 2188.52 2361.18 2191.94 2358.88 2195.36 2356.53 2200.59 2354.14 2207.61 2351.75 2214.63 2349.56 2222.98 2347.56 2232.69 2345.56 2242.39 2343.87 2252.96 2342.47 2264.41 2341.08 2275.87 2340 2287.53 2339.23 2299.4 2338.46 2311.27 2338.07 2323.6 2338.07 2336.4 2338.07 2346.56 2338.28 2355.65 2338.69 2363.67 2339.09 2371.69 2339.19 2378.33 2338.97 2383.57 2340.12 2373.8 2343.47 2362.2 2349.04 2348.8 2354.61 2335.39 2359.51 2321.89 2363.73 2308.3 2367.94 2294.71 2371.3 2281.34 2373.78 2268.19 2376.27 2255.04 2377.52 2242.47 2377.52 2230.49 2377.52 2213.84 2376.35 2202.4 2374.03 2196.16 2371.71 2189.93 2369.25 2186.81 2366.66 2186.81ZM2367.32 2161.47C2372.98 2161.47 2378.12 2162.82 2382.74 2165.52 2387.35 2168.22 2391.15 2172.46 2394.11 2178.22 2397.08 2183.99 2399.32 2191.09 2400.83 2199.53 2402.33 2207.97 2403.09 2218.22 2403.09 2230.27 2403.09 2244.96 2401.52 2260.26 2398.39 2276.14 2395.25 2292.03 2391.02 2307.95 2385.7 2323.91 2380.38 2339.87 2374.13 2355.71 2366.97 2371.43 2359.8 2387.15 2352.28 2402.06 2344.42 2416.17 2347.87 2433.1 2352.38 2446.38 2357.96 2456.01 2363.54 2465.63 2369.72 2470.44 2376.51 2470.44 2381.27 2470.44 2386.07 2468.38 2390.9 2464.27 2395.74 2460.15 2400.33 2455.08 2404.68 2449.05 2409.03 2443.02 2412.89 2436.82 2416.26 2430.44 2419.63 2424.06 2422.25 2418.92 2424.12 2415 2425.23 2412.76 2426.82 2411.01 2428.88 2409.75L2431.47 2409.03 2431.7 2407.29C2433.64 2400.61 2436.5 2394.7 2440.29 2389.54 2444.08 2384.38 2448.67 2380.31 2454.06 2377.32 2459.45 2374.34 2465.36 2372.85 2471.78 2372.85 2475.64 2372.85 2479.54 2373.68 2483.47 2375.33 2487.39 2376.99 2490.88 2379.3 2493.92 2382.25 2496.96 2385.21 2499.41 2388.8 2501.27 2393.01 2503.12 2397.22 2504.05 2401.91 2504.05 2407.07 2504.05 2413.54 2502.93 2419.65 2500.69 2425.4 2498.46 2431.15 2495.45 2436.42 2491.66 2441.21 2487.87 2446 2483.3 2450.44 2477.96 2454.53 2472.61 2458.62 2467.88 2461.31 2463.77 2462.61 2465.83 2463.47 2468.91 2464.99 2473.03 2467.17 2477.14 2469.35 2482.34 2470.44 2488.63 2470.44 2494.96 2470.44 2500.78 2468.89 2506.07 2465.77 2511.37 2462.66 2516.31 2458.48 2520.87 2453.22 2525.44 2447.96 2529.5 2442.13 2533.04 2435.73L2542.52 2416.66 2542.63 2416.06C2549.5 2399.72 2556.09 2387.52 2562.4 2379.47 2568.7 2371.41 2575.43 2367.38 2582.59 2367.38 2586.91 2367.38 2590.62 2368.49 2593.72 2370.72 2596.82 2372.95 2599.18 2375.67 2600.79 2378.89 2602.4 2382.11 2603.58 2385.63 2604.33 2389.44 2605.07 2393.26 2605.44 2396.94 2605.44 2400.51 2605.44 2402.62 2605.25 2406.67 2604.86 2412.65 2604.46 2418.64 2603.98 2424.78 2603.4 2431.08L2602.38 2442.8 2609.79 2429.64C2613.28 2423.75 2616.98 2417.85 2620.9 2411.95 2624.81 2406.05 2628.97 2400.35 2633.39 2394.88 2637.99 2389.32 2642.77 2385.24 2647.7 2382.65 2652.64 2380.05 2657.35 2378.76 2661.83 2378.76 2671.12 2378.76 2677.95 2382.07 2682.31 2388.7 2686.67 2395.32 2688.85 2403.13 2688.85 2412.1 2688.85 2413.68 2688.72 2416.08 2688.46 2419.3 2688.2 2422.52 2687.97 2425.54 2687.76 2428.36 2687.56 2431.18 2687.36 2433.98 2687.17 2436.77 2686.97 2439.56 2686.88 2442.57 2686.88 2445.8 2686.88 2449.41 2687.04 2452.62 2687.36 2455.44 2687.68 2458.25 2688.22 2460.58 2689 2462.41 2689.78 2464.25 2690.73 2465.57 2691.84 2466.38 2692.95 2467.19 2694.55 2467.6 2696.64 2467.6 2701.13 2467.6 2705.7 2465.69 2710.37 2461.87 2715.03 2458.04 2719.51 2453.28 2723.82 2447.57 2728.12 2441.85 2731.92 2435.94 2735.2 2429.81 2738.48 2423.69 2741.1 2418.32 2743.06 2413.68 2743.61 2412.48 2744.94 2411.21 2747.06 2409.87 2749.19 2408.53 2751.49 2407.86 2753.99 2407.86L2756.57 2409 2756.64 2408.59C2759.28 2400.43 2762.9 2393.32 2767.49 2387.25 2772.08 2381.18 2777.55 2376.31 2783.9 2372.65 2790.25 2368.99 2797.01 2367.16 2804.2 2367.16 2809.58 2367.16 2814.55 2368.13 2819.11 2370.07 2823.68 2372.02 2827.52 2374.59 2830.66 2377.81 2833.79 2381.03 2836.24 2384.56 2837.99 2388.42 2839.75 2392.27 2840.63 2396.15 2840.63 2400.07 2840.63 2403.61 2840.16 2406.99 2839.23 2410.21 2838.3 2413.43 2837.1 2416.28 2835.65 2418.77 2834.19 2421.25 2832.33 2423.36 2830.07 2425.11 2827.81 2426.85 2825.32 2427.73 2822.59 2427.73 2818.77 2427.73 2815.68 2426.5 2813.33 2424.04 2810.98 2421.58 2809.8 2418.55 2809.8 2414.95 2809.8 2412.93 2810.14 2411.35 2810.81 2410.2 2811.48 2409.05 2812.12 2408.04 2812.73 2407.15 2813.35 2406.27 2813.85 2405.29 2814.25 2404.22 2814.64 2403.14 2814.84 2401.83 2814.84 2400.29 2814.84 2398.65 2813.86 2396.98 2811.9 2395.28 2809.95 2393.57 2807.38 2392.72 2804.2 2392.72 2801.13 2392.72 2798.04 2393.74 2794.96 2395.8 2791.88 2397.85 2789.09 2400.74 2786.61 2404.47 2784.13 2408.19 2782.12 2412.64 2780.56 2417.83 2779.01 2423.02 2778.24 2428.55 2778.24 2434.43 2778.24 2440.2 2778.9 2445.53 2780.22 2450.41 2781.54 2455.29 2783.49 2459.58 2786.08 2463.26 2788.66 2466.94 2791.83 2469.82 2795.57 2471.91 2799.31 2473.99 2803.87 2475.04 2809.24 2475.04 2816.61 2475.04 2823.37 2473.74 2829.51 2471.14 2835.65 2468.53 2841.38 2465.13 2846.7 2460.94 2852.02 2456.74 2856.74 2452.12 2860.84 2447.1 2864.95 2442.07 2868.41 2437.4 2871.22 2433.08 2874.03 2428.76 2876.27 2424.91 2877.93 2421.52 2879.59 2418.13 2880.54 2416.06 2880.79 2415.32 2881.77 2412.87 2883.35 2411.01 2885.52 2409.75L2888.74 2408.87 2888.95 2407.29C2890.89 2400.61 2893.76 2394.7 2897.54 2389.54 2901.33 2384.38 2905.92 2380.31 2911.31 2377.32 2916.7 2374.34 2922.61 2372.85 2929.03 2372.85 2932.89 2372.85 2936.79 2373.68 2940.72 2375.33 2944.65 2376.99 2948.13 2379.3 2951.17 2382.25 2954.21 2385.21 2956.66 2388.8 2958.52 2393.01 2960.37 2397.22 2961.3 2401.91 2961.3 2407.07 2961.3 2413.54 2960.18 2419.65 2957.94 2425.4 2955.71 2431.15 2952.7 2436.42 2948.91 2441.21 2945.12 2446 2940.55 2450.44 2935.21 2454.53 2929.86 2458.62 2925.13 2461.31 2921.02 2462.61 2923.08 2463.47 2926.17 2464.99 2930.28 2467.17 2934.39 2469.35 2939.59 2470.44 2945.88 2470.44 2952.21 2470.44 2958.03 2468.89 2963.33 2465.77 2968.62 2462.66 2973.56 2458.48 2978.12 2453.22 2982.69 2447.96 2986.75 2442.13 2990.29 2435.73 2993.83 2429.33 2997.21 2422.53 3000.43 2415.32 3001.54 2412.9 3003.14 2411.05 3005.22 2409.77 3007.31 2408.5 3009.57 2407.86 3011.99 2407.86 3015.92 2407.86 3019.07 2409.22 3021.44 2411.92 3023.82 2414.63 3025 2417.54 3025 2420.64 3025 2421.69 3024.87 2422.68 3024.61 2423.58 3024.35 2424.49 3024.06 2425.27 3023.72 2425.94 3013.44 2448.59 3002.01 2465.85 2989.44 2477.72 2976.87 2489.59 2962.42 2495.68 2946.1 2496 2935.64 2496 2926.64 2493.99 2919.08 2489.98 2911.53 2485.97 2905.28 2480.74 2900.34 2474.29 2895.4 2467.84 2891.78 2460.71 2889.48 2452.9L2889.32 2451.77 2877.52 2466.99C2872.44 2472.82 2866.53 2478.22 2859.81 2483.19 2853.09 2488.15 2845.51 2492.25 2837.08 2495.5 2828.64 2498.75 2819.43 2500.37 2809.45 2500.37 2800.33 2500.37 2792.3 2498.76 2785.36 2495.53 2778.42 2492.3 2772.47 2487.68 2767.5 2481.67 2762.52 2475.66 2758.81 2468.74 2756.35 2460.91L2754.44 2447.23 2744.83 2461.86C2741.11 2467.07 2736.83 2471.99 2731.98 2476.61 2727.12 2481.23 2721.77 2485.14 2715.92 2488.35 2710.06 2491.55 2703.78 2493.16 2697.07 2493.16 2689.6 2493.16 2683.48 2491.67 2678.74 2488.71 2673.99 2485.74 2670.28 2481.88 2667.61 2477.12 2664.94 2472.37 2663.18 2467.36 2662.34 2462.11 2661.51 2456.86 2661.09 2451.42 2661.09 2445.8 2661.09 2443.38 2661.2 2440.72 2661.43 2437.81 2661.66 2434.91 2661.96 2431.91 2662.33 2428.84 2662.69 2425.76 2662.98 2422.77 2663.19 2419.87 2663.39 2416.98 2663.5 2414.25 2663.5 2411.67 2663.5 2408.15 2663.16 2406.01 2662.5 2405.24 2661.83 2404.48 2661.61 2404.09 2661.83 2404.09 2660.72 2404.09 2658.98 2405.17 2656.59 2407.32 2654.21 2409.47 2651.39 2412.72 2648.13 2417.06 2644.87 2421.4 2641.56 2426.25 2638.19 2431.63 2634.82 2437 2631.66 2442.35 2628.71 2447.68 2625.76 2453 2623.08 2457.96 2620.68 2462.55 2618.29 2467.14 2616.42 2470.61 2615.07 2472.96 2611.52 2480.99 2607.92 2486.33 2604.27 2488.98 2600.63 2491.62 2596.76 2492.94 2592.66 2492.94 2587.12 2492.94 2582.66 2491.24 2579.27 2487.85 2575.88 2484.46 2574.18 2479.78 2574.18 2473.81 2574.18 2472.51 2574.33 2470.37 2574.62 2467.38 2574.91 2464.39 2575.28 2460.74 2575.74 2456.44 2576.19 2452.14 2576.63 2447.67 2577.05 2443.02 2577.47 2438.37 2577.91 2433.63 2578.35 2428.8 2578.8 2423.97 2579.16 2419.57 2579.45 2415.59 2579.73 2411.61 2579.87 2408.34 2579.87 2405.76L2579.57 2397.99 2578.79 2400.21C2577.29 2402.45 2575.54 2405.67 2573.51 2409.87L2566.76 2425.18 2566.47 2425.94C2556.19 2448.59 2544.76 2465.85 2532.19 2477.72 2519.62 2489.59 2505.17 2495.68 2488.85 2496 2478.39 2496 2469.38 2493.99 2461.83 2489.98 2454.27 2485.97 2448.03 2480.74 2443.09 2474.29L2432.49 2453.42 2422.22 2468.15C2418.33 2473.17 2414.01 2477.74 2409.26 2481.86 2404.52 2485.98 2399.37 2489.37 2393.82 2492.02 2388.27 2494.67 2382.28 2496 2375.85 2496 2365.95 2496 2357.54 2493.02 2350.62 2487.06 2343.69 2481.11 2337.94 2473.54 2333.35 2464.37L2327.53 2448.11 2318.61 2461.59C2314.6 2467.14 2310.12 2472.23 2305.19 2476.86 2300.25 2481.48 2294.83 2485.35 2288.9 2488.47 2282.98 2491.6 2276.63 2493.16 2269.84 2493.16 2260.18 2493.16 2252.11 2490.13 2245.65 2484.08 2239.19 2478.03 2235.54 2471.57 2234.72 2464.71 2232.84 2472.17 2228.17 2478.56 2220.71 2483.87 2213.26 2489.19 2205.56 2491.84 2197.61 2491.84 2191.47 2491.84 2185.94 2490.74 2181.02 2488.52 2176.1 2486.31 2171.9 2483.17 2168.41 2479.1 2164.91 2475.02 2162.25 2470.36 2160.42 2465.11L2157.69 2447.85 2154.85 2452.64C2149 2460.53 2142.68 2468.22 2135.89 2475.71 2129.09 2483.19 2122.43 2490.24 2115.9 2496.84 2109.37 2503.44 2103.65 2509.48 2098.75 2514.98 2098.24 2523.88 2098.28 2533.57 2098.88 2544.07 2099.49 2554.56 2099.79 2565.13 2099.79 2575.78 2099.79 2584.52 2099.48 2593.88 2098.85 2603.85 2098.23 2613.81 2097.26 2623.07 2095.95 2631.6 2094.63 2640.13 2092.81 2648.24 2090.47 2655.91 2088.14 2663.58 2085.06 2670.41 2081.24 2676.38 2077.42 2682.35 2072.86 2687.12 2067.57 2690.67 2062.28 2694.22 2055.99 2696 2048.69 2696 2036.82 2696 2027.75 2691.95 2021.47 2683.86 2015.18 2675.76 2012.04 2664.75 2012.04 2650.84 2012.04 2643.52 2012.83 2635.76 2014.39 2627.57 2015.96 2619.37 2018.17 2610.89 2021.02 2602.11 2023.87 2593.34 2027.27 2584.49 2031.21 2575.56 2035.15 2566.64 2039.35 2558.09 2043.79 2549.93 2048.23 2541.77 2053.13 2533.74 2058.5 2525.85 2063.86 2517.97 2068.83 2511.35 2073.41 2506.01 2073.67 2499.67 2073.98 2492.79 2074.34 2485.37 2074.7 2477.94 2075.1 2472.66 2075.53 2469.52 2077.12 2475.24 2074.76 2480.39 2068.46 2484.97 2062.16 2489.55 2055.13 2491.84 2047.38 2491.84 2034.87 2491.84 2025.09 2487.66 2018.03 2479.29 2010.98 2470.93 2007.45 2459.69 2007.45 2445.58 2007.45 2435.65 2008.37 2426.73 2010.22 2418.83 2012.07 2410.93 2014.12 2403.97 2016.38 2397.96 2018.65 2391.95 2022.1 2387.07 2026.73 2383.31 2031.36 2379.54 2033.68 2377.74 2033.68 2377.88 2030.55 2375.4 2031.25 2374.16 2035.77 2374.16 2039.66 2374.16 2042.8 2375.47 2045.19 2378.09 2047.59 2380.71 2048.78 2383.66 2048.78 2386.94 2048.78 2389.41 2048.34 2389.39 2047.47 2386.85 2047.61 2386.71 2046.84 2388.96 2045.16 2393.62 2043.47 2398.27 2041.77 2402.86 2040.06 2407.4 2038.34 2411.93 2036.74 2417.45 2035.25 2423.96 2033.76 2430.47 2033.02 2437.61 2033.02 2445.36 2033.02 2452.64 2034.12 2457.98 2036.32 2461.39 2038.52 2464.8 2042.06 2466.5 2046.94 2466.5 2053.47 2466.5 2059.83 2460.82 2066.02 2449.44 2072.21 2438.07 2077.57 2421.18 2082.09 2398.76 2082.56 2395.36 2083.95 2392.67 2086.27 2390.69 2088.6 2388.72 2091.32 2387.73 2094.44 2387.73 2098.09 2387.73 2101.17 2388.98 2103.68 2391.49 2106.19 2394 2107.45 2397.01 2107.45 2400.51 2107.45 2400.92 2107.14 2403.64 2106.52 2408.67 2105.9 2413.69 2105.19 2420.14 2104.39 2428.01 2103.59 2435.89 2102.75 2445 2101.88 2455.36 2101.01 2465.72 2100.31 2475.12 2099.79 2483.57 2102.97 2478.47 2106.31 2473.52 2109.82 2468.74 2113.33 2463.96 2117.57 2458.64 2122.55 2452.79 2127.52 2446.94 2132.07 2440.98 2136.18 2434.92 2140.29 2428.86 2143.99 2422.31 2147.28 2415.29 2148.36 2412.89 2149.94 2411.05 2152.03 2409.77 2154.12 2408.5 2156.38 2407.86 2158.8 2407.86L2166.92 2411.35 2179.57 2392.78C2186.01 2386.51 2193.11 2381.8 2200.89 2378.66 2208.67 2375.51 2216.18 2373.95 2223.44 2373.95 2228.32 2373.95 2232.92 2374.65 2237.24 2376.06 2241.56 2377.47 2245.15 2378.95 2248.02 2380.5 2250.88 2382.04 2253.13 2383.51 2254.77 2384.9 2256.41 2386.29 2257.32 2387.05 2257.49 2387.2 2260.1 2390.28 2261.4 2393.33 2261.4 2396.35 2261.4 2399.71 2260.16 2402.68 2257.7 2405.26 2255.23 2407.84 2252.2 2409.13 2248.61 2409.13 2244.97 2409.13 2241.93 2407.91 2239.49 2405.47 2239.26 2405.24 2238.75 2404.81 2237.96 2404.19 2237.17 2403.57 2236 2402.87 2234.45 2402.1 2232.91 2401.33 2231.13 2400.67 2229.09 2400.11 2227.06 2399.56 2224.74 2399.28 2222.12 2399.28 2218.25 2399.28 2214.04 2400.19 2209.49 2402.02 2204.94 2403.84 2200.77 2406.68 2196.97 2410.53 2193.18 2414.39 2189.98 2419.29 2187.37 2425.23 2184.77 2431.17 2183.47 2438.32 2183.47 2446.68 2183.47 2449.37 2183.71 2451.89 2184.19 2454.23 2184.67 2456.58 2185.47 2458.65 2186.6 2460.45 2187.72 2462.24 2189.18 2463.67 2190.96 2464.71 2192.74 2465.76 2195.03 2466.28 2197.82 2466.28 2199.78 2466.28 2202.17 2465.57 2204.98 2464.13 2207.8 2462.7 2210.6 2460.35 2213.39 2457.11 2216.18 2453.86 2218.78 2449.64 2221.17 2444.45 2223.56 2439.26 2225.24 2433.1 2226.19 2425.96 2226.64 2422.83 2228.09 2420.2 2230.57 2418.06 2233.04 2415.93 2235.92 2414.86 2239.2 2414.86 2242.6 2414.86 2245.48 2416.09 2247.83 2418.56 2250.18 2421.02 2251.47 2423.77 2251.68 2426.81 2251.82 2429.47 2252.11 2433.26 2252.53 2438.16 2252.96 2443.06 2253.88 2447.81 2255.31 2452.42 2256.73 2457.04 2258.63 2460.75 2261.01 2463.58 2263.38 2466.4 2266.55 2467.82 2270.5 2467.82 2273.23 2467.82 2276.05 2467.01 2278.95 2465.41 2281.85 2463.81 2284.83 2461.55 2287.9 2458.61 2290.97 2455.68 2293.96 2452.26 2296.88 2448.34 2299.8 2444.42 2302.43 2440.54 2304.77 2436.69 2307.11 2432.83 2309.33 2428.8 2311.44 2424.6 2313.54 2420.39 2315.03 2417.36 2315.89 2415.51L2318.49 2412.47 2316.06 2399.17C2314.58 2387.45 2313.58 2376.03 2313.06 2364.9 2312.54 2353.78 2312.28 2343.91 2312.28 2335.3 2312.28 2322.91 2312.69 2310.04 2313.51 2296.71 2314.32 2283.38 2315.61 2270.43 2317.36 2257.87 2319.11 2245.3 2321.36 2233.34 2324.09 2221.97 2326.82 2210.61 2330.13 2200.5 2334.03 2191.64 2337.92 2182.78 2342.6 2175.54 2348.07 2169.91 2353.53 2164.28 2359.95 2161.47 2367.32 2161.47ZM1615.23 2149C1637.26 2149 1657.6 2151.21 1676.23 2155.62 1694.86 2160.03 1711.01 2166.45 1724.68 2174.88 1738.35 2183.31 1749.05 2193.73 1756.76 2206.15 1764.48 2218.56 1768.33 2232.58 1768.33 2248.21 1768.33 2268.79 1762.42 2287.47 1750.6 2304.24 1738.78 2321.01 1722.44 2333.91 1701.57 2342.93 1709.02 2347.31 1715.15 2354.27 1719.96 2363.81 1724.76 2373.34 1728.32 2382.85 1730.61 2392.33 1732.91 2401.81 1734.39 2410.86 1735.06 2419.48 1735.73 2428.1 1736.22 2435.3 1736.51 2441.08 1736.8 2449.12 1737.51 2455.55 1738.67 2460.36 1739.82 2465.17 1741.29 2468.73 1743.07 2471.03 1744.86 2473.33 1747.01 2474.9 1749.54 2475.75 1752.07 2476.59 1755.46 2477.01 1759.71 2477.01 1765.53 2477.01 1770.91 2475.61 1775.85 2472.81 1780.8 2470.02 1785.4 2466.38 1789.66 2461.92 1793.92 2457.46 1797.67 2452.62 1800.94 2447.42 1804.2 2442.22 1806.99 2437.26 1809.31 2432.56 1811.62 2427.85 1813.33 2424.1 1814.44 2421.3 1815.54 2418.49 1816.09 2417.02 1816.09 2416.89 1818.5 2410.87 1822.55 2407.86 1828.23 2407.86 1832.11 2407.86 1835.24 2409.17 1837.64 2411.79L1839.19 2415.6 1839.22 2415.41C1842.85 2407.93 1846.98 2401.75 1851.63 2396.87 1856.28 2392 1861.1 2388.27 1866.1 2385.69 1871.09 2383.11 1875.02 2381.82 1877.88 2381.82 1881.68 2381.82 1884.66 2382.95 1886.8 2385.22L1889.62 2392.52 1892.18 2384.2C1896.96 2377.95 1903.36 2374.82 1911.37 2374.82 1916.09 2374.82 1920.56 2375.96 1924.78 2378.25 1929 2380.53 1932.63 2383.98 1935.69 2388.61 1938.74 2393.23 1941.12 2398.95 1942.83 2405.78 1944.54 2412.61 1945.39 2420.62 1945.39 2429.83L1943.75 2440.25 1944.43 2440.25C1948.98 2440.25 1953 2439.73 1956.5 2438.69 1959.99 2437.66 1963.12 2436.14 1965.89 2434.13 1968.65 2432.12 1971.22 2429.42 1973.59 2426.04 1975.96 2422.65 1978.24 2418.68 1980.44 2414.13 1981.29 2412.39 1982.83 2410.91 1985.05 2409.69 1987.26 2408.47 1989.48 2407.86 1991.71 2407.86 1994.84 2407.86 1997.72 2409.06 2000.34 2411.45 2002.97 2413.85 2004.28 2416.91 2004.28 2420.64 2004.28 2422.27 2003.85 2424.1 2003 2426.11 2002.15 2428.13 2001.6 2429.4 2001.35 2429.91 1998.52 2434.89 1995.35 2439.53 1991.84 2443.81 1988.34 2448.1 1984.16 2451.86 1979.33 2455.12 1974.49 2458.36 1969.11 2460.92 1963.18 2462.79 1957.25 2464.65 1950.51 2465.51 1942.94 2465.36 1938.98 2465.36 1936.69 2465.07 1936.09 2464.49 1934.84 2467.45 1932.55 2470.95 1929.23 2474.98 1925.91 2479.01 1922.07 2482.53 1917.71 2485.54 1913.36 2488.55 1908.45 2490.94 1903 2492.7 1897.55 2494.46 1891.65 2495.34 1885.32 2495.34 1877.85 2495.34 1870.98 2494.02 1864.73 2491.38 1858.48 2488.73 1853.02 2485.04 1848.36 2480.3 1843.7 2475.57 1840.11 2469.92 1837.58 2463.37 1835.05 2456.81 1833.79 2449.57 1833.79 2441.64L1834.22 2439.59 1831.07 2446.22C1828.11 2451.75 1824.35 2457.8 1819.77 2464.36 1815.19 2470.93 1809.91 2476.97 1803.93 2482.49 1797.95 2488.02 1791.05 2492.67 1783.25 2496.45 1775.45 2500.23 1766.8 2502.13 1757.3 2502.13 1748.85 2502.13 1741.7 2500.73 1735.86 2497.94 1730.03 2495.15 1725.27 2491.1 1721.6 2485.79 1717.92 2480.48 1715.28 2474.27 1713.67 2467.15 1712.07 2460.03 1711.11 2451.89 1710.81 2442.73 1710.67 2439.26 1710.45 2435.09 1710.17 2430.23 1709.89 2425.37 1709.35 2420.13 1708.55 2414.53 1707.75 2408.92 1706.64 2403.2 1705.21 2397.37 1703.79 2391.54 1701.83 2385.93 1699.34 2380.53 1696.85 2375.13 1693.76 2370.05 1690.09 2365.29 1686.41 2360.52 1682.53 2356.61 1678.46 2353.55 1668.28 2357.33 1657.16 2360.28 1645.12 2362.4 1633.07 2364.51 1621.9 2365.63 1611.6 2365.75L1611.6 2367.91C1611.6 2386.12 1609.76 2403.29 1606.08 2419.42 1602.41 2435.55 1596.36 2449.69 1587.96 2461.83 1579.56 2473.97 1568.66 2483.54 1555.28 2490.54 1541.9 2497.54 1525.69 2501.03 1506.65 2501.03 1497.15 2501.03 1487.79 2499.78 1478.57 2497.26 1469.34 2494.75 1460.75 2491.29 1452.79 2486.9 1444.84 2482.5 1437.69 2477.3 1431.36 2471.27 1425.03 2465.25 1420.04 2458.74 1416.39 2451.74 1415.21 2449.86 1414.62 2447.74 1414.62 2445.36 1414.62 2442.14 1415.8 2439.24 1418.15 2436.67 1420.5 2434.09 1423.58 2432.8 1427.41 2432.8 1432.44 2432.8 1435.63 2434.19 1436.96 2436.97 1441.13 2443.88 1445.59 2449.57 1450.34 2454.05 1455.09 2458.53 1460.51 2462.41 1466.59 2465.7 1472.68 2468.99 1479.08 2471.51 1485.79 2473.27 1492.51 2475.03 1499.46 2475.91 1506.65 2475.91 1520.98 2475.91 1533.14 2473.42 1543.13 2468.43 1553.12 2463.44 1561.27 2456.3 1567.6 2447.02 1573.93 2437.74 1578.58 2426.4 1581.56 2413 1584.54 2399.61 1586.03 2384.57 1586.03 2367.91L1586.03 2362.62C1582.51 2361.45 1578.97 2359.08 1575.4 2355.51 1571.83 2351.95 1570.05 2347.4 1570.05 2341.86 1570.05 2336.53 1571.73 2331.92 1575.1 2328.03 1578.46 2324.13 1582.11 2321.4 1586.03 2319.83 1586.03 2318.38 1586.1 2315.94 1586.26 2312.51 1586.41 2309.08 1586.63 2305.84 1586.9 2302.79 1587.81 2291.95 1589.5 2282.26 1591.97 2273.7 1594.45 2265.15 1597.39 2257.61 1600.8 2251.1 1604.21 2244.59 1607.78 2239.01 1611.5 2234.36 1615.22 2229.71 1618.68 2225.89 1621.89 2222.92 1625.09 2219.95 1627.85 2217.72 1630.16 2216.23 1632.48 2214.75 1633.86 2213.89 1634.3 2213.67 1635.71 2212.86 1637.53 2212.46 1639.75 2212.46 1643.17 2212.46 1646.19 2213.65 1648.82 2216.05 1651.44 2218.44 1652.75 2221.51 1652.75 2225.24 1652.75 2230.14 1650.61 2233.84 1646.32 2236.32 1645.55 2236.83 1643.7 2238.15 1640.75 2240.28 1637.8 2242.42 1634.42 2246.06 1630.62 2251.22 1626.82 2256.39 1623.08 2263.39 1619.39 2272.23 1615.71 2281.08 1613.37 2292.13 1612.35 2305.37 1612.08 2307.53 1611.91 2309.74 1611.84 2312.01 1611.77 2314.28 1611.69 2314.94 1611.6 2313.99 1610.38 2313.78 1611.46 2313.55 1614.85 2313.28 1618.23 2313.02 1621.35 2312.89 1624.21 2312.89 1635.01 2312.89 1645.51 2314.11 1655.72 2316.55 1665.92 2318.98 1674.64 2322.29 1681.88 2326.46 1700.97 2318.53 1715.86 2307.91 1726.53 2294.6 1737.21 2281.3 1742.54 2266.56 1742.54 2250.4 1742.54 2238.47 1739.55 2227.84 1733.57 2218.53 1727.59 2209.22 1719.03 2201.28 1707.9 2194.7 1696.76 2188.12 1683.3 2183.05 1667.51 2179.48 1651.72 2175.9 1634.43 2174.12 1615.66 2174.12 1599.32 2174.12 1582.52 2175.38 1565.26 2177.91 1548.01 2180.43 1531.3 2184.23 1515.16 2189.29 1499.01 2194.36 1483.98 2200.58 1470.07 2207.96 1456.17 2215.34 1444.07 2223.77 1433.79 2233.28 1423.51 2242.78 1415.44 2253.31 1409.58 2264.89 1403.72 2276.47 1400.79 2289 1400.79 2302.48 1400.79 2312.41 1402.48 2321.05 1405.85 2328.4 1409.23 2335.75 1413.72 2341.89 1419.34 2346.83 1424.95 2351.77 1431.39 2355.48 1438.64 2357.97 1445.89 2360.45 1453.6 2361.69 1461.77 2361.69 1471.73 2361.69 1480.35 2360.73 1487.62 2358.81 1494.9 2356.88 1501.07 2354.76 1506.13 2352.45 1511.18 2350.13 1514.94 2348.01 1517.38 2346.1 1519.83 2344.18 1521.27 2343.01 1521.7 2342.57 1522.89 2341.75 1524.35 2340.72 1526.08 2339.48 1527.81 2338.24 1529.87 2337.62 1532.26 2337.62 1535.72 2337.62 1538.72 2338.83 1541.25 2341.24 1543.78 2343.66 1545.05 2346.64 1545.05 2350.18 1545.05 2353.81 1543.76 2356.8 1541.18 2359.15 1541.03 2359.29 1539.1 2360.91 1535.38 2364 1531.66 2367.08 1526.46 2370.29 1519.79 2373.63 1513.12 2376.96 1504.97 2379.99 1495.35 2382.72 1485.72 2385.45 1474.68 2386.81 1462.21 2386.81 1450.48 2386.81 1439.39 2384.9 1428.95 2381.09 1418.5 2377.28 1409.24 2371.73 1401.16 2364.43 1393.09 2357.14 1386.71 2348.31 1382.03 2337.95 1377.34 2327.59 1375 2315.76 1375 2302.48 1375 2287.93 1377.95 2274.05 1383.84 2260.84 1389.73 2247.63 1398.03 2235.3 1408.74 2223.84 1419.45 2212.38 1432.19 2202.06 1446.97 2192.89 1461.74 2183.71 1477.96 2175.88 1495.6 2169.38 1513.25 2162.89 1532.2 2157.87 1552.45 2154.32 1572.7 2150.77 1593.63 2149 1615.23 2149Z" fill="#FFFFFF" fill-rule="evenodd"/>
    <path d="M2602.77 2632.23C2602.55 2633.81 2601.91 2635.61 2600.85 2637.64 2599.8 2639.66 2598.89 2641.66 2598.14 2643.63 2597.39 2645.61 2596.81 2647.5 2596.39 2649.32 2595.97 2651.14 2595.76 2652.75 2595.76 2654.15 2595.76 2655.51 2595.94 2656.49 2596.29 2657.11 2596.65 2657.73 2597.18 2658.04 2597.88 2658.04 2598.54 2658.04 2599.17 2657.65 2599.78 2656.88 2600.39 2656.11 2600.93 2654.9 2601.41 2653.27 2601.88 2651.63 2602.25 2649.61 2602.5 2647.19 2602.76 2644.78 2602.88 2642.08 2602.88 2639.11 2602.88 2637.91 2602.86 2636.69 2602.82 2635.44 2602.78 2634.2 2602.76 2633.13 2602.77 2632.23ZM2796.46 2608.75 2796.45 2608.82 2796.55 2609.07C2796.55 2609.28 2796.52 2609.18 2796.46 2608.75ZM2380.88 2605.28 2380.82 2605.42C2380.38 2605.78 2379.9 2606.09 2379.38 2606.35 2378.99 2606.55 2378.56 2606.83 2378.11 2607.19 2377.66 2607.56 2377.23 2608.02 2376.84 2608.58L2376.83 2608.6 2377.01 2609.07C2377.01 2609.4 2376.93 2609.76 2376.76 2610.16 2376.68 2610.33 2376.47 2610.77 2376.14 2611.49L2375.56 2612.61 2375.48 2613.19C2375.48 2614.05 2375.61 2614.83 2375.86 2615.55 2376.11 2616.26 2376.46 2616.87 2376.91 2617.36 2377.37 2617.85 2377.91 2618.23 2378.52 2618.5 2379.14 2618.77 2379.85 2618.91 2380.65 2618.91 2382.1 2618.91 2383.29 2618.58 2384.22 2617.93 2385.15 2617.27 2385.84 2616.67 2386.29 2616.14 2384.78 2615.44 2383.43 2614.22 2382.26 2612.46 2381.09 2610.71 2380.51 2608.72 2380.51 2606.5ZM2569.97 2605.28 2569.92 2605.42C2569.48 2605.78 2568.99 2606.09 2568.47 2606.35 2568.08 2606.55 2567.66 2606.83 2567.2 2607.19 2566.75 2607.56 2566.33 2608.02 2565.93 2608.58 2565.53 2609.14 2565.21 2609.8 2564.95 2610.57 2564.7 2611.33 2564.57 2612.2 2564.57 2613.19 2564.57 2614.05 2564.7 2614.83 2564.95 2615.55 2565.2 2616.26 2565.55 2616.87 2566.01 2617.36 2566.46 2617.85 2567 2618.23 2567.62 2618.5 2568.23 2618.77 2568.94 2618.91 2569.74 2618.91 2571.19 2618.91 2572.38 2618.58 2573.31 2617.93 2574.24 2617.27 2574.93 2616.67 2575.39 2616.14 2573.87 2615.44 2572.52 2614.22 2571.35 2612.46 2570.18 2610.71 2569.6 2608.72 2569.6 2606.5ZM2574.76 2604.97C2574.83 2604.97 2574.81 2605.02 2574.71 2605.11 2574.61 2605.2 2574.56 2605.55 2574.56 2606.16 2574.56 2606.65 2574.63 2607.17 2574.76 2607.71 2574.88 2608.24 2575.08 2608.76 2575.33 2609.27 2575.59 2609.77 2575.92 2610.26 2576.33 2610.75 2576.74 2611.24 2576.8 2611.59 2576.52 2611.8 2576.48 2611.7 2576.46 2611.4 2576.46 2610.91 2576.46 2610.23 2576.4 2609.5 2576.29 2608.7 2576.17 2607.91 2576.02 2607.22 2575.84 2606.63 2575.65 2606.05 2575.46 2605.62 2575.26 2605.36 2575.06 2605.1 2574.9 2604.97 2574.76 2604.97ZM2385.67 2604.97C2385.74 2604.97 2385.72 2605.02 2385.62 2605.11 2385.52 2605.2 2385.47 2605.55 2385.47 2606.16 2385.47 2606.65 2385.54 2607.17 2385.66 2607.71 2385.79 2608.24 2385.98 2608.76 2386.24 2609.27 2386.5 2609.77 2386.83 2610.26 2387.24 2610.75 2387.65 2611.24 2387.71 2611.59 2387.43 2611.8 2387.39 2611.7 2387.37 2611.4 2387.37 2610.91 2387.37 2610.23 2387.31 2609.5 2387.2 2608.7 2387.08 2607.91 2386.93 2607.22 2386.75 2606.63 2386.56 2606.05 2386.37 2605.62 2386.17 2605.36 2385.97 2605.1 2385.8 2604.97 2385.67 2604.97ZM2980.2 2604.67C2979.65 2604.67 2979.17 2604.84 2978.76 2605.16 2978.35 2605.48 2978 2605.94 2977.7 2606.55L2977.47 2607.23 2977.78 2607.36C2978.25 2607.89 2978.48 2608.48 2978.48 2609.11 2978.48 2609.38 2978.39 2609.74 2978.21 2610.19 2978.03 2610.52 2977.73 2611.1 2977.31 2611.94L2976.98 2612.5 2977.03 2613.3C2977.22 2613 2977.64 2612.59 2978.3 2612.07 2978.97 2611.55 2979.53 2610.98 2980.01 2610.34 2980.48 2609.71 2980.85 2609.07 2981.1 2608.41 2981.34 2607.75 2981.47 2607.08 2981.47 2606.41 2981.47 2605.8 2981.34 2605.35 2981.07 2605.08 2980.81 2604.81 2980.52 2604.67 2980.2 2604.67ZM2893.95 2604.67C2893.4 2604.67 2892.92 2604.84 2892.51 2605.16 2892.1 2605.48 2891.75 2605.94 2891.45 2606.55L2891.18 2607.35 2891.2 2607.36C2891.67 2607.89 2891.9 2608.48 2891.9 2609.11 2891.9 2609.38 2891.82 2609.71 2891.67 2610.09L2890.69 2612.04 2890.73 2612.46C2890.82 2613.03 2890.84 2613.3 2890.78 2613.3 2890.96 2613 2891.39 2612.59 2892.05 2612.07 2892.71 2611.55 2893.28 2610.98 2893.76 2610.34 2894.23 2609.71 2894.59 2609.07 2894.84 2608.41 2895.09 2607.75 2895.22 2607.08 2895.22 2606.41 2895.22 2605.8 2895.09 2605.35 2894.82 2605.08 2894.56 2604.81 2894.27 2604.67 2893.95 2604.67ZM2827.6 2604.67C2827.05 2604.67 2826.57 2604.84 2826.16 2605.16 2825.75 2605.48 2825.4 2605.94 2825.1 2606.55 2824.8 2607.15 2824.58 2607.82 2824.44 2608.56 2824.3 2609.31 2824.23 2610.09 2824.23 2610.91 2824.23 2611.38 2824.28 2611.9 2824.38 2612.46 2824.48 2613.03 2824.49 2613.3 2824.43 2613.3 2824.62 2613 2825.04 2612.59 2825.7 2612.07 2826.37 2611.55 2826.93 2610.98 2827.41 2610.34 2827.88 2609.71 2828.25 2609.07 2828.5 2608.41 2828.74 2607.75 2828.87 2607.08 2828.87 2606.41 2828.87 2605.8 2828.74 2605.35 2828.47 2605.08 2828.21 2604.81 2827.92 2604.67 2827.6 2604.67ZM2519.14 2592.8C2517.7 2592.8 2516.8 2592.84 2516.41 2592.91L2516.41 2593.41C2517.56 2593.41 2519.02 2593.32 2520.78 2593.13L2522.5 2593.09 2521.26 2592.91C2520.6 2592.84 2519.89 2592.8 2519.14 2592.8ZM2272.37 2587.4C2272.24 2587.4 2272.12 2587.47 2272 2587.59 2271.88 2587.71 2271.83 2587.86 2271.83 2588.03 2271.83 2588.2 2271.88 2588.34 2271.99 2588.45 2272.1 2588.56 2272.22 2588.61 2272.37 2588.61 2272.53 2588.61 2272.67 2588.55 2272.8 2588.43 2272.93 2588.31 2272.99 2588.18 2272.99 2588.03 2272.99 2587.88 2272.92 2587.74 2272.79 2587.61 2272.65 2587.47 2272.51 2587.4 2272.37 2587.4ZM2716.5 2586.97C2714.85 2586.97 2713.28 2587.02 2711.79 2587.12 2710.29 2587.22 2708.84 2587.26 2707.43 2587.23 2708.45 2587.03 2709.9 2587.09 2711.78 2587.41 2713.65 2587.72 2715.56 2587.88 2717.49 2587.88 2719.2 2587.88 2720.37 2587.78 2720.98 2587.58L2721.5 2587.47 2720.53 2587.24C2719.97 2587.14 2719.34 2587.08 2718.64 2587.03 2717.95 2586.99 2717.23 2586.97 2716.5 2586.97ZM2272.37 2583.26C2273.01 2583.26 2273.64 2583.38 2274.24 2583.64 2274.85 2583.9 2275.37 2584.24 2275.79 2584.67 2276.22 2585.09 2276.56 2585.6 2276.81 2586.19 2277.06 2586.78 2277.19 2587.39 2277.19 2588.03 2277.19 2589.35 2276.72 2590.48 2275.79 2591.41 2274.86 2592.34 2273.72 2592.8 2272.37 2592.8 2271.02 2592.8 2269.89 2592.34 2268.97 2591.42 2268.05 2590.5 2267.59 2589.37 2267.59 2588.03 2267.59 2587.37 2267.71 2586.74 2267.96 2586.16 2268.21 2585.58 2268.54 2585.08 2268.97 2584.65 2269.39 2584.23 2269.9 2583.89 2270.5 2583.64 2271.1 2583.38 2271.72 2583.26 2272.37 2583.26ZM2322.87 2581.15C2322.57 2582.46 2322.3 2584.38 2322.07 2586.91 2321.83 2589.43 2321.72 2592.59 2321.72 2596.39 2321.72 2598.54 2321.77 2600.29 2321.88 2601.64 2321.99 2602.98 2321.97 2603.97 2321.83 2604.6 2321.93 2603.04 2322.31 2601.21 2322.99 2599.11 2323.66 2597 2324.25 2594.83 2324.75 2592.6 2325.25 2590.36 2325.64 2588.18 2325.91 2586.05 2326.18 2583.93 2326.31 2582.29 2326.31 2581.15ZM2325.47 2574.29C2325.51 2574.29 2325.34 2574.5 2324.98 2574.92 2324.61 2575.33 2324.23 2575.83 2323.82 2576.4L2326.14 2576.4C2326.01 2575.93 2325.85 2575.46 2325.66 2574.99 2325.48 2574.52 2325.41 2574.29 2325.47 2574.29ZM2325.64 2569.33C2326.54 2569.33 2327.33 2569.55 2328 2570 2328.67 2570.46 2329.21 2571.04 2329.64 2571.76 2330.07 2572.49 2330.39 2573.29 2330.62 2574.19 2330.84 2575.09 2330.98 2575.83 2331.05 2576.4L2352.14 2576.4C2352.82 2576.4 2353.42 2576.62 2353.93 2577.06 2354.44 2577.5 2354.69 2578.07 2354.69 2578.77 2354.69 2579.49 2354.44 2580.06 2353.94 2580.49 2353.43 2580.93 2352.83 2581.15 2352.14 2581.15L2331.32 2581.15 2331.32 2580.74C2331.32 2582.5 2331.19 2584.38 2330.92 2586.41 2330.66 2588.43 2330.3 2590.43 2329.86 2592.41 2329.41 2594.39 2328.91 2596.29 2328.36 2598.12 2327.81 2599.94 2327.23 2601.69 2326.61 2603.35 2325.99 2605.01 2325.39 2606.42 2324.82 2607.58 2324.25 2608.74 2323.77 2609.52 2323.39 2609.94 2323.72 2610.93 2324.13 2611.97 2324.63 2613.07 2325.14 2614.17 2325.68 2615.1 2326.25 2615.86 2326.83 2616.62 2327.43 2617.2 2328.06 2617.61 2328.69 2618.02 2329.34 2618.23 2330.02 2618.23 2330.8 2618.23 2331.64 2617.85 2332.52 2617.1 2333.39 2616.35 2334.23 2615.43 2335.03 2614.33 2335.83 2613.23 2336.55 2612.09 2337.19 2610.92 2337.83 2609.74 2338.32 2608.71 2338.68 2607.83 2339.03 2606.99 2339.76 2606.57 2340.87 2606.57L2342.02 2607.06 2342.95 2604.22C2343.44 2603.11 2343.91 2602.24 2344.38 2601.61 2344.84 2600.98 2345.08 2600.67 2345.08 2600.67 2345.23 2600.48 2345.48 2600.31 2345.83 2600.18 2346.18 2600.04 2346.52 2599.97 2346.85 2599.97 2347.58 2599.97 2348.18 2600.23 2348.65 2600.74 2349.12 2601.25 2349.35 2601.83 2349.35 2602.47 2349.35 2602.76 2349.31 2603.01 2349.22 2603.23 2349.12 2603.45 2349.04 2603.64 2348.96 2603.79 2348.69 2604.28 2348.42 2604.75 2348.15 2605.2 2347.88 2605.65 2347.59 2606.28 2347.27 2607.09 2346.94 2607.9 2346.66 2608.85 2346.42 2609.94 2346.17 2611.03 2346.05 2612.3 2346.05 2613.74 2346.05 2615.25 2346.31 2616.33 2346.83 2617 2347.35 2617.68 2348.07 2618.01 2348.99 2618.01 2349.37 2618.01 2349.85 2617.87 2350.41 2617.6 2350.98 2617.32 2351.54 2616.88 2352.11 2616.28 2352.67 2615.68 2353.18 2614.88 2353.63 2613.9 2354.08 2612.92 2354.38 2611.74 2354.52 2610.35L2355.16 2602.97C2355.24 2602.38 2355.52 2601.87 2355.99 2601.43 2356.47 2601 2357.04 2600.78 2357.7 2600.78 2358.47 2600.78 2359.08 2601.06 2359.53 2601.62 2359.98 2602.18 2360.2 2602.74 2360.2 2603.3L2359.62 2610.74C2359.58 2611.2 2359.6 2611.89 2359.7 2612.8 2359.79 2613.71 2359.98 2614.6 2360.27 2615.46 2360.55 2616.31 2360.94 2617 2361.43 2617.53 2361.92 2618.05 2362.55 2618.31 2363.32 2618.31 2363.91 2618.31 2364.51 2618.15 2365.12 2617.82 2365.74 2617.49 2366.34 2617.03 2366.95 2616.45 2367.56 2615.87 2368.13 2615.2 2368.68 2614.43 2369.22 2613.67 2369.72 2612.89 2370.19 2612.1L2371.02 2610.56 2371.54 2608.05C2372.24 2606.58 2373.05 2605.37 2373.97 2604.42 2374.88 2603.46 2375.82 2602.73 2376.8 2602.23 2377.78 2601.72 2378.55 2601.47 2379.11 2601.47 2379.85 2601.47 2380.44 2601.69 2380.85 2602.13L2381.41 2603.56 2381.91 2601.93C2382.84 2600.71 2384.1 2600.1 2385.67 2600.1 2386.59 2600.1 2387.47 2600.32 2388.29 2600.77 2389.12 2601.22 2389.83 2601.89 2390.43 2602.8 2391.03 2603.7 2391.5 2604.82 2391.83 2606.16 2392.17 2607.5 2392.33 2609.07 2392.33 2610.87L2392.01 2612.91 2392.14 2612.91C2393.03 2612.91 2393.82 2612.81 2394.51 2612.61 2395.19 2612.4 2395.81 2612.11 2396.35 2611.71L2397.82 2610.16 2398.03 2608.24C2398.42 2606.67 2398.86 2605.33 2399.35 2604.22 2399.83 2603.11 2400.31 2602.24 2400.77 2601.61 2401.24 2600.98 2401.47 2600.67 2401.47 2600.67 2401.63 2600.48 2401.88 2600.31 2402.23 2600.18 2402.57 2600.04 2402.91 2599.97 2403.25 2599.97 2403.98 2599.97 2404.58 2600.23 2405.05 2600.74 2405.52 2601.25 2405.75 2601.83 2405.75 2602.47 2405.75 2602.76 2405.7 2603.01 2405.61 2603.23 2405.52 2603.45 2405.43 2603.64 2405.36 2603.79 2405.09 2604.28 2404.82 2604.75 2404.55 2605.2 2404.28 2605.65 2403.98 2606.28 2403.66 2607.09L2403.4 2607.97 2403.87 2609.07C2403.87 2609.39 2403.78 2609.75 2403.62 2610.14 2403.45 2610.54 2403.34 2610.79 2403.29 2610.89L2402.63 2611.86 2402.45 2613.74C2402.45 2615.25 2402.71 2616.33 2403.22 2617 2403.74 2617.68 2404.46 2618.01 2405.39 2618.01 2405.77 2618.01 2406.24 2617.87 2406.81 2617.6 2407.37 2617.32 2407.94 2616.88 2408.5 2616.28 2409.07 2615.68 2409.58 2614.88 2410.03 2613.9 2410.48 2612.92 2410.77 2611.74 2410.91 2610.35L2411.56 2602.97C2411.64 2602.38 2411.91 2601.87 2412.39 2601.43 2412.87 2601 2413.43 2600.78 2414.09 2600.78 2414.87 2600.78 2415.48 2601.06 2415.93 2601.62 2416.37 2602.18 2416.6 2602.74 2416.6 2603.3L2416.02 2610.74C2415.97 2611.2 2416 2611.89 2416.09 2612.8 2416.19 2613.71 2416.37 2614.6 2416.66 2615.46 2416.95 2616.31 2417.34 2617 2417.82 2617.53 2418.31 2618.05 2418.94 2618.31 2419.71 2618.31 2420.31 2618.31 2420.91 2618.15 2421.52 2617.82 2422.13 2617.49 2422.74 2617.03 2423.35 2616.45 2423.96 2615.87 2424.53 2615.2 2425.07 2614.43 2425.62 2613.67 2426.12 2612.89 2426.59 2612.1 2427.05 2611.3 2427.45 2610.57 2427.77 2609.9 2428.08 2609.22 2428.36 2608.62 2428.6 2608.08 2428.81 2607.61 2429.12 2607.24 2429.52 2606.97 2429.92 2606.7 2430.37 2606.57 2430.86 2606.57L2431.67 2606.92 2432.78 2604.32C2433.12 2603.28 2433.4 2602.27 2433.61 2601.3 2433.44 2600.79 2433.3 2600.28 2433.21 2599.75 2433.11 2599.23 2433.06 2598.69 2433.06 2598.14 2433.06 2597.02 2433.33 2596.06 2433.86 2595.28 2434.4 2594.49 2435.18 2594.1 2436.2 2594.1 2437.19 2594.1 2437.95 2594.49 2438.48 2595.27 2439 2596.05 2439.27 2596.94 2439.27 2597.93 2439.27 2598.39 2439.21 2598.93 2439.1 2599.53 2438.98 2600.14 2438.88 2600.61 2438.8 2600.94 2439.41 2602.41 2440.05 2603.81 2440.73 2605.12 2441.41 2606.44 2442 2607.59 2442.49 2608.57 2442.98 2609.55 2443.41 2610.53 2443.76 2611.51 2444.11 2612.48 2444.28 2613.47 2444.28 2614.47 2444.28 2615.79 2444.01 2617.06 2443.46 2618.28L2442.66 2619.42 2445.22 2618.78C2446.49 2618.09 2447.64 2617.19 2448.67 2616.08 2449.7 2614.97 2450.64 2613.7 2451.49 2612.27 2452.34 2610.84 2453.07 2609.45 2453.67 2608.09 2454.11 2607.07 2454.77 2606.57 2455.67 2606.57 2456.46 2606.57 2457.06 2606.84 2457.49 2607.38 2457.92 2607.92 2458.14 2608.48 2458.14 2609.07 2458.14 2609.4 2458.09 2609.61 2458.01 2609.69 2457.65 2610.7 2457.21 2611.72 2456.69 2612.74 2456.17 2613.76 2455.55 2614.81 2454.82 2615.89 2454.1 2616.96 2453.27 2618.02 2452.32 2619.05 2451.38 2620.08 2450.31 2621.01 2449.11 2621.85 2447.9 2622.69 2446.59 2623.35 2445.17 2623.85 2443.75 2624.35 2442.17 2624.6 2440.45 2624.6 2438.4 2624.6 2436.48 2624.24 2434.71 2623.52 2432.94 2622.79 2431.49 2621.59 2430.36 2619.89 2430.1 2619.5 2429.97 2619.06 2429.97 2618.58 2429.97 2617.91 2430.22 2617.32 2430.72 2616.83 2431.21 2616.33 2431.8 2616.08 2432.47 2616.08 2433.19 2616.08 2433.83 2616.36 2434.39 2616.92 2434.4 2616.94 2434.47 2617.01 2434.62 2617.11 2434.76 2617.22 2434.91 2617.32 2435.07 2617.43 2435.23 2617.53 2435.43 2617.62 2435.68 2617.71 2435.92 2617.8 2436.17 2617.84 2436.42 2617.84 2436.95 2617.84 2437.38 2617.73 2437.73 2617.53 2438.07 2617.32 2438.36 2617.05 2438.58 2616.72 2438.8 2616.4 2438.97 2616.04 2439.07 2615.66 2439.18 2615.27 2439.23 2614.95 2439.23 2614.69 2439.23 2614.07 2439.13 2613.44 2438.93 2612.81 2438.72 2612.18 2438.45 2611.51 2438.1 2610.81 2437.75 2610.1 2437.36 2609.36 2436.93 2608.59 2436.51 2607.82 2436.41 2607.18 2436.64 2606.69 2436.98 2606.82 2437.03 2607.18 2436.78 2607.76 2436.53 2608.35 2436.29 2608.86 2436.05 2609.3 2435.67 2610.05 2435.29 2610.62 2434.91 2611 2434.52 2611.38 2433.98 2611.57 2433.29 2611.57L2432.62 2611.31 2432.54 2611.49C2432.22 2612.22 2431.78 2613.06 2431.23 2614.03 2430.68 2614.99 2430.01 2616.02 2429.23 2617.1 2428.45 2618.18 2427.58 2619.17 2426.64 2620.07 2425.69 2620.97 2424.62 2621.73 2423.44 2622.35 2422.25 2622.97 2420.97 2623.27 2419.58 2623.27 2417.67 2623.27 2416.09 2622.73 2414.82 2621.65 2413.56 2620.57 2412.83 2619.26 2412.63 2617.75 2412.26 2619.2 2411.35 2620.45 2409.9 2621.47 2408.45 2622.5 2406.95 2623.02 2405.39 2623.02 2404.16 2623.02 2403.07 2622.79 2402.1 2622.34 2401.12 2621.88 2400.29 2621.25 2399.58 2620.43 2398.88 2619.61 2398.34 2618.64 2397.98 2617.51L2397.82 2616.38 2395.82 2617.33C2394.66 2617.69 2393.33 2617.86 2391.85 2617.83 2391.08 2617.83 2390.63 2617.77 2390.51 2617.66 2390.26 2618.24 2389.82 2618.92 2389.17 2619.71 2388.52 2620.5 2387.76 2621.19 2386.91 2621.78 2386.06 2622.37 2385.1 2622.84 2384.03 2623.18 2382.96 2623.53 2381.81 2623.7 2380.56 2623.7 2379.1 2623.7 2377.76 2623.44 2376.53 2622.92 2375.31 2622.41 2374.24 2621.68 2373.33 2620.76L2371.77 2618.32 2370.24 2620.07C2369.29 2620.97 2368.23 2621.73 2367.04 2622.35 2365.86 2622.97 2364.57 2623.27 2363.19 2623.27 2361.28 2623.27 2359.69 2622.73 2358.43 2621.65 2357.17 2620.57 2356.44 2619.26 2356.23 2617.75 2355.86 2619.2 2354.95 2620.45 2353.5 2621.47 2352.05 2622.5 2350.55 2623.02 2348.99 2623.02 2347.77 2623.02 2346.67 2622.79 2345.7 2622.34 2344.73 2621.88 2343.89 2621.25 2343.19 2620.43 2342.48 2619.61 2341.95 2618.64 2341.58 2617.51L2341.11 2614.19 2339.36 2617.02C2338.66 2618.07 2337.84 2619.05 2336.91 2619.97 2335.97 2620.88 2334.96 2621.66 2333.85 2622.29 2332.75 2622.92 2331.56 2623.23 2330.27 2623.23 2328.08 2623.23 2326.14 2622.54 2324.44 2621.15 2322.74 2619.76 2321.32 2617.86 2320.17 2615.45L2320.01 2615.01 2317.47 2618.51C2316.3 2619.85 2314.97 2621 2313.47 2621.96 2311.96 2622.92 2310.29 2623.4 2308.45 2623.4 2307.3 2623.4 2306.21 2623.18 2305.17 2622.75 2304.14 2622.31 2303.25 2621.69 2302.51 2620.89 2301.77 2620.08 2301.18 2619.09 2300.73 2617.91 2300.29 2616.73 2300.07 2615.41 2300.07 2613.96 2300.07 2612.46 2300.22 2611.01 2300.5 2609.6 2300.79 2608.18 2300.93 2606.87 2300.93 2605.64 2300.93 2605.33 2300.89 2605.12 2300.8 2605.03 2300.72 2604.94 2300.4 2604.89 2299.83 2604.89 2299.43 2604.89 2299 2604.89 2298.55 2604.89 2298.09 2604.89 2297.84 2604.89 2297.8 2604.89 2297.75 2605.24 2297.64 2605.76 2297.46 2606.45 2297.28 2607.14 2297.12 2607.73 2296.97 2608.2 2296.82 2608.68 2296.67 2609.12 2296.52 2609.53 2296.37 2609.94 2296.27 2610.17 2296.22 2610.22 2295.83 2611.12 2295.08 2611.57 2293.96 2611.57 2293.32 2611.57 2292.75 2611.35 2292.23 2610.9L2291.62 2609.49 2291.42 2610.24C2290.98 2611.08 2290.53 2611.92 2290.07 2612.78 2289.6 2613.63 2289.03 2614.57 2288.36 2615.58 2287.69 2616.6 2286.96 2617.62 2286.15 2618.63 2285.34 2619.64 2284.47 2620.56 2283.52 2621.4 2282.57 2622.25 2281.56 2622.93 2280.5 2623.46 2279.44 2623.99 2278.33 2624.26 2277.17 2624.26 2275.72 2624.26 2274.45 2623.95 2273.36 2623.35 2272.27 2622.74 2271.36 2621.93 2270.61 2620.92 2269.87 2619.91 2269.33 2618.74 2268.97 2617.41 2268.62 2616.08 2268.45 2614.66 2268.45 2613.14 2268.45 2608.96 2268.7 2604.83 2269.22 2600.73 2269.3 2600.13 2269.57 2599.61 2270.03 2599.15 2270.48 2598.7 2271.08 2598.47 2271.81 2598.47 2272.52 2598.47 2273.1 2598.73 2273.55 2599.24 2274 2599.76 2274.23 2600.34 2274.23 2600.97 2274.23 2601.08 2274.19 2601.6 2274.11 2602.51 2274.04 2603.42 2273.95 2604.48 2273.85 2605.68 2273.75 2606.88 2273.66 2608.09 2273.6 2609.3 2273.53 2610.52 2273.5 2611.76 2273.5 2613.01 2273.5 2614.47 2273.63 2615.61 2273.89 2616.41 2274.15 2617.22 2274.47 2617.83 2274.86 2618.25 2275.24 2618.67 2275.63 2618.94 2276.01 2619.07 2276.39 2619.19 2276.79 2619.25 2277.21 2619.25 2277.83 2619.25 2278.52 2619.01 2279.26 2618.51 2280.01 2618.01 2280.81 2617.27 2281.68 2616.28 2282.54 2615.3 2283.42 2614.09 2284.32 2612.67 2285.23 2611.25 2286.11 2609.68 2286.97 2607.96 2287.18 2607.53 2287.5 2607.19 2287.9 2606.94 2288.3 2606.69 2288.74 2606.57 2289.22 2606.57 2289.96 2606.57 2290.56 2606.83 2291.03 2607.36L2291.54 2608.63 2291.59 2608.38C2291.68 2608.25 2291.77 2608.07 2291.87 2607.85 2291.97 2607.62 2292.1 2607.22 2292.27 2606.65 2292.43 2606.08 2292.63 2605.53 2292.87 2605.02 2292.93 2605.02 2292.68 2605 2292.11 2604.97 2291.55 2604.94 2290.98 2604.82 2290.42 2604.6 2289.87 2604.38 2289.39 2604.02 2289 2603.51 2288.61 2603 2288.41 2602.31 2288.41 2601.44 2288.41 2600.87 2288.56 2600.13 2288.85 2599.22 2289.15 2598.32 2289.54 2597.44 2290.03 2596.59 2290.52 2595.74 2291.1 2594.96 2291.79 2594.26 2292.48 2593.55 2293.23 2593.2 2294.04 2593.2 2294.98 2593.2 2295.72 2593.52 2296.27 2594.15 2296.81 2594.79 2297.21 2595.51 2297.47 2596.3 2297.73 2597.09 2297.91 2597.9 2298.02 2598.72 2298.13 2599.53 2298.18 2599.94 2298.18 2599.93 2298.33 2599.93 2298.65 2599.92 2299.12 2599.9 2299.59 2599.89 2299.9 2599.88 2300.05 2599.88 2301.9 2599.88 2303.35 2600.32 2304.4 2601.2 2305.46 2602.08 2305.98 2603.46 2305.98 2605.34 2305.98 2605.99 2305.93 2606.72 2305.84 2607.52 2305.74 2608.32 2305.64 2609.09 2305.52 2609.84 2305.41 2610.59 2305.32 2611.3 2305.24 2611.96 2305.16 2612.62 2305.12 2613.32 2305.12 2614.04 2305.12 2614.98 2305.24 2615.72 2305.48 2616.28 2305.72 2616.84 2306 2617.27 2306.34 2617.58 2306.67 2617.89 2307.02 2618.11 2307.37 2618.22 2307.73 2618.34 2308.08 2618.4 2308.41 2618.4 2309.45 2618.4 2310.46 2618.04 2311.43 2617.32 2312.4 2616.61 2313.32 2615.71 2314.2 2614.64 2315.07 2613.56 2315.88 2612.38 2316.63 2611.09L2317.98 2608.65 2317.58 2606.99C2317 2603.75 2316.71 2600.22 2316.71 2596.39 2316.71 2595.43 2316.72 2594.31 2316.75 2593.03 2316.78 2591.74 2316.84 2590.38 2316.93 2588.93 2317.01 2587.48 2317.14 2586.02 2317.31 2584.54 2317.48 2583.06 2317.71 2581.93 2317.99 2581.15L2303.47 2581.15C2302.79 2581.15 2302.2 2580.93 2301.71 2580.51 2301.22 2580.08 2300.97 2579.5 2300.97 2578.77 2300.97 2578.05 2301.22 2577.48 2301.72 2577.04 2302.22 2576.61 2302.8 2576.4 2303.47 2576.4L2318.93 2576.4C2319.11 2575.74 2319.4 2574.96 2319.81 2574.06 2320.22 2573.16 2320.7 2572.36 2321.26 2571.66 2321.82 2570.95 2322.46 2570.39 2323.19 2569.96 2323.92 2569.54 2324.74 2569.33 2325.64 2569.33ZM2875.84 2563.28C2875.58 2563.28 2875.22 2563.61 2874.77 2564.28 2874.32 2564.95 2873.86 2565.97 2873.39 2567.35 2872.92 2568.72 2872.49 2570.36 2872.1 2572.26 2871.71 2574.16 2871.38 2576.23 2871.11 2578.47 2870.83 2580.72 2870.62 2583 2870.47 2585.33 2870.32 2587.65 2870.24 2590.07 2870.24 2592.57 2870.24 2594.56 2870.28 2596.34 2870.36 2597.91 2870.44 2599.48 2870.46 2600.78 2870.42 2601.81 2870.64 2599.9 2871.3 2597.63 2872.39 2595 2873.48 2592.37 2874.44 2589.73 2875.27 2587.07 2876.1 2584.41 2876.75 2581.79 2877.24 2579.21 2877.73 2576.64 2877.97 2574.18 2877.97 2571.83 2877.97 2568.57 2877.74 2566.33 2877.29 2565.11 2876.83 2563.89 2876.35 2563.28 2875.84 2563.28ZM2852.62 2563.28C2852.36 2563.28 2852 2563.61 2851.55 2564.28 2851.1 2564.95 2850.64 2565.97 2850.17 2567.35 2849.7 2568.72 2849.27 2570.36 2848.88 2572.26 2848.49 2574.16 2848.16 2576.23 2847.88 2578.47 2847.61 2580.72 2847.4 2583 2847.25 2585.33 2847.1 2587.65 2847.02 2590.07 2847.02 2592.57 2847.02 2594.56 2847.06 2596.34 2847.14 2597.91 2847.22 2599.48 2847.24 2600.78 2847.2 2601.81 2847.42 2599.9 2848.08 2597.63 2849.17 2595 2850.26 2592.37 2851.22 2589.73 2852.05 2587.07 2852.87 2584.41 2853.53 2581.79 2854.02 2579.21 2854.51 2576.64 2854.75 2574.18 2854.75 2571.83 2854.75 2568.57 2854.52 2566.33 2854.07 2565.11 2853.61 2563.89 2853.13 2563.28 2852.62 2563.28ZM2656.9 2563.28C2656.63 2563.28 2656.27 2563.61 2655.82 2564.28 2655.37 2564.95 2654.91 2565.97 2654.44 2567.35 2653.98 2568.72 2653.55 2570.36 2653.16 2572.26 2652.76 2574.16 2652.43 2576.23 2652.16 2578.47 2651.88 2580.72 2651.67 2583 2651.52 2585.33 2651.37 2587.65 2651.3 2590.07 2651.3 2592.57 2651.3 2594.56 2651.34 2596.34 2651.42 2597.91 2651.5 2599.48 2651.51 2600.78 2651.47 2601.81 2651.7 2599.9 2652.35 2597.63 2653.44 2595 2654.54 2592.37 2655.49 2589.73 2656.32 2587.07 2657.15 2584.41 2657.8 2581.79 2658.29 2579.21 2658.78 2576.64 2659.02 2574.18 2659.02 2571.83 2659.02 2568.57 2658.79 2566.33 2658.34 2565.11 2657.88 2563.89 2657.4 2563.28 2656.9 2563.28ZM2852.75 2558.31C2853.86 2558.31 2854.87 2558.58 2855.77 2559.11 2856.68 2559.64 2857.42 2560.47 2858 2561.59 2858.58 2562.72 2859.02 2564.12 2859.32 2565.77 2859.61 2567.42 2859.76 2569.43 2859.76 2571.79 2859.76 2574.67 2859.45 2577.66 2858.84 2580.77 2858.22 2583.88 2857.4 2587 2856.35 2590.13 2855.31 2593.25 2854.09 2596.35 2852.68 2599.43 2851.28 2602.51 2849.81 2605.43 2848.27 2608.2 2848.94 2611.51 2849.83 2614.11 2850.92 2616 2852.01 2617.88 2853.22 2618.82 2854.55 2618.82 2855.48 2618.82 2856.42 2618.42 2857.37 2617.62 2858.32 2616.81 2859.22 2615.82 2860.07 2614.64 2860.92 2613.45 2861.68 2612.24 2862.34 2610.99 2863 2609.74 2863.51 2608.73 2863.88 2607.97 2864.1 2607.53 2864.41 2607.18 2864.81 2606.94 2865.22 2606.69 2865.66 2606.57 2866.13 2606.57L2866.25 2606.62 2865.93 2604.87C2865.64 2602.57 2865.45 2600.33 2865.35 2598.16 2865.24 2595.98 2865.19 2594.04 2865.19 2592.36 2865.19 2589.93 2865.27 2587.41 2865.43 2584.8 2865.59 2582.19 2865.84 2579.65 2866.19 2577.19 2866.53 2574.73 2866.97 2572.39 2867.5 2570.16 2868.04 2567.94 2868.69 2565.96 2869.45 2564.22 2870.22 2562.49 2871.13 2561.07 2872.2 2559.97 2873.27 2558.86 2874.53 2558.31 2875.97 2558.31 2877.08 2558.31 2878.09 2558.58 2878.99 2559.11 2879.9 2559.64 2880.64 2560.47 2881.22 2561.59 2881.8 2562.72 2882.24 2564.12 2882.54 2565.77 2882.83 2567.42 2882.98 2569.43 2882.98 2571.79 2882.98 2574.67 2882.67 2577.66 2882.06 2580.77 2881.45 2583.88 2880.62 2587 2879.57 2590.13 2878.53 2593.25 2877.31 2596.35 2875.9 2599.43 2874.5 2602.51 2873.03 2605.43 2871.49 2608.2 2872.16 2611.51 2873.05 2614.11 2874.14 2616 2875.23 2617.88 2876.44 2618.82 2877.77 2618.82 2878.71 2618.82 2879.65 2618.42 2880.59 2617.62 2881.54 2616.81 2882.44 2615.82 2883.29 2614.64 2884.14 2613.45 2884.9 2612.24 2885.56 2610.99L2885.56 2610.99 2885.53 2610.74C2885.53 2609.19 2885.72 2607.76 2886.1 2606.46 2886.48 2605.15 2887.04 2603.99 2887.78 2602.98 2888.52 2601.97 2889.42 2601.17 2890.48 2600.59 2891.53 2600 2892.69 2599.71 2893.95 2599.71 2894.7 2599.71 2895.47 2599.87 2896.24 2600.2 2897.01 2600.52 2897.69 2600.97 2898.29 2601.55 2898.88 2602.13 2899.36 2602.83 2899.72 2603.66 2900.09 2604.48 2900.27 2605.4 2900.27 2606.41 2900.27 2607.68 2900.05 2608.88 2899.61 2610 2899.17 2611.13 2898.58 2612.16 2897.84 2613.1 2897.1 2614.04 2896.2 2614.91 2895.16 2615.71 2894.11 2616.51 2893.18 2617.04 2892.38 2617.29 2892.78 2617.46 2893.39 2617.76 2894.19 2618.18 2895 2618.61 2896.02 2618.82 2897.25 2618.82 2898.49 2618.82 2899.63 2618.52 2900.67 2617.91 2901.7 2617.3 2902.67 2616.48 2903.56 2615.45 2904.46 2614.42 2905.25 2613.28 2905.95 2612.03 2906.64 2610.77 2907.3 2609.44 2907.94 2608.03 2908.15 2607.56 2908.46 2607.19 2908.87 2606.94L2909.29 2606.82 2910.63 2603.98C2911.28 2602.79 2911.91 2601.8 2912.53 2601.01 2913.76 2599.43 2915.08 2598.64 2916.48 2598.64 2917.33 2598.64 2918.06 2598.86 2918.66 2599.29 2919.27 2599.73 2919.73 2600.26 2920.05 2600.9 2920.36 2601.53 2920.6 2602.22 2920.74 2602.96 2920.89 2603.71 2920.96 2604.43 2920.96 2605.13 2920.96 2605.54 2920.92 2606.34 2920.85 2607.51 2920.77 2608.68 2920.67 2609.88 2920.56 2611.12L2920.36 2613.41 2921.81 2610.83C2922.5 2609.68 2923.22 2608.53 2923.99 2607.37 2924.75 2606.21 2925.57 2605.1 2926.43 2604.03 2927.34 2602.94 2928.27 2602.14 2929.24 2601.63 2930.21 2601.12 2931.13 2600.87 2932.01 2600.87 2933.83 2600.87 2935.16 2601.52 2936.02 2602.82 2936.87 2604.11 2937.3 2605.64 2937.3 2607.4 2937.3 2607.71 2937.27 2608.18 2937.22 2608.81 2937.17 2609.44 2937.13 2610.03 2937.09 2610.58 2937.05 2611.13 2937.01 2611.68 2936.97 2612.23 2936.93 2612.78 2936.91 2613.37 2936.91 2614 2936.91 2614.71 2936.94 2615.33 2937.01 2615.89 2937.07 2616.44 2937.18 2616.89 2937.33 2617.25 2937.48 2617.61 2937.67 2617.87 2937.88 2618.03 2938.1 2618.19 2938.42 2618.27 2938.82 2618.27 2939.7 2618.27 2940.6 2617.89 2941.51 2617.15 2942.43 2616.4 2943.31 2615.46 2944.15 2614.34 2944.99 2613.23 2945.73 2612.07 2946.38 2610.87 2947.02 2609.67 2947.53 2608.62 2947.92 2607.71 2948.02 2607.47 2948.29 2607.22 2948.7 2606.96L2949.32 2606.78 2949.33 2606.71C2949.85 2605.11 2950.56 2603.72 2951.46 2602.53 2952.36 2601.34 2953.43 2600.39 2954.67 2599.67 2955.92 2598.96 2957.24 2598.6 2958.65 2598.6 2959.7 2598.6 2960.68 2598.79 2961.57 2599.17 2962.47 2599.55 2963.22 2600.05 2963.83 2600.68 2964.45 2601.31 2964.93 2602.01 2965.27 2602.76 2965.61 2603.51 2965.79 2604.27 2965.79 2605.04 2965.79 2605.74 2965.7 2606.4 2965.51 2607.03 2965.33 2607.66 2965.1 2608.22 2964.81 2608.7 2964.53 2609.19 2964.16 2609.6 2963.72 2609.95 2963.28 2610.29 2962.79 2610.46 2962.25 2610.46 2961.5 2610.46 2960.9 2610.22 2960.44 2609.74 2959.98 2609.25 2959.75 2608.66 2959.75 2607.96 2959.75 2607.56 2959.81 2607.25 2959.94 2607.03 2960.08 2606.8 2960.2 2606.6 2960.32 2606.43 2960.44 2606.26 2960.54 2606.07 2960.62 2605.85 2960.7 2605.64 2960.73 2605.39 2960.73 2605.09 2960.73 2604.77 2960.54 2604.44 2960.16 2604.1 2959.78 2603.77 2959.27 2603.6 2958.65 2603.6 2958.05 2603.6 2957.44 2603.8 2956.84 2604.21 2956.24 2604.61 2955.69 2605.17 2955.21 2605.9 2954.72 2606.63 2954.32 2607.51 2954.02 2608.52 2953.72 2609.54 2953.57 2610.62 2953.57 2611.77 2953.57 2612.9 2953.69 2613.95 2953.95 2614.9 2954.21 2615.86 2954.59 2616.7 2955.1 2617.42 2955.61 2618.14 2956.23 2618.7 2956.96 2619.11 2957.69 2619.52 2958.59 2619.72 2959.64 2619.72 2961.08 2619.72 2962.41 2619.47 2963.61 2618.96 2964.81 2618.45 2965.93 2617.79 2966.98 2616.96 2968.02 2616.14 2968.94 2615.24 2969.75 2614.25 2970.55 2613.27 2971.23 2612.35 2971.78 2611.51L2971.87 2611.36 2971.78 2610.74C2971.78 2609.19 2971.97 2607.76 2972.35 2606.46 2972.73 2605.15 2973.29 2603.99 2974.03 2602.98 2974.77 2601.97 2975.67 2601.17 2976.73 2600.59 2977.79 2600 2978.94 2599.71 2980.2 2599.71 2980.96 2599.71 2981.72 2599.87 2982.49 2600.2 2983.26 2600.52 2983.94 2600.97 2984.54 2601.55 2985.13 2602.13 2985.61 2602.83 2985.98 2603.66 2986.34 2604.48 2986.52 2605.4 2986.52 2606.41 2986.52 2607.68 2986.3 2608.88 2985.86 2610 2985.43 2611.13 2984.84 2612.16 2984.09 2613.1 2983.35 2614.04 2982.46 2614.91 2981.41 2615.71 2980.36 2616.51 2979.44 2617.04 2978.63 2617.29 2979.03 2617.46 2979.64 2617.76 2980.44 2618.18 2981.25 2618.61 2982.27 2618.82 2983.5 2618.82 2984.74 2618.82 2985.88 2618.52 2986.92 2617.91 2987.96 2617.3 2988.92 2616.48 2989.82 2615.45 2990.71 2614.42 2991.51 2613.28 2992.2 2612.03 2992.89 2610.77 2993.56 2609.44 2994.19 2608.03 2994.4 2607.56 2994.72 2607.19 2995.13 2606.94 2995.53 2606.69 2995.98 2606.57 2996.45 2606.57 2997.22 2606.57 2997.84 2606.83 2998.3 2607.36 2998.77 2607.89 2999 2608.46 2999 2609.07 2999 2609.28 2998.97 2609.47 2998.92 2609.65 2998.87 2609.82 2998.81 2609.98 2998.75 2610.11 2996.73 2614.54 2994.5 2617.92 2992.03 2620.25 2989.57 2622.58 2986.74 2623.77 2983.54 2623.83 2981.5 2623.83 2979.73 2623.44 2978.25 2622.65 2976.77 2621.87 2975.55 2620.84 2974.58 2619.58L2973.52 2617.49 2973.01 2618.15C2972.02 2619.29 2970.86 2620.35 2969.54 2621.32 2968.23 2622.29 2966.74 2623.1 2965.09 2623.73 2963.44 2624.37 2961.63 2624.69 2959.68 2624.69 2957.89 2624.69 2956.32 2624.37 2954.96 2623.74 2953.6 2623.1 2952.43 2622.2 2951.46 2621.02 2950.49 2619.85 2949.76 2618.49 2949.28 2616.96L2949.12 2615.84 2948.26 2617.14C2947.54 2618.16 2946.7 2619.13 2945.75 2620.03 2944.8 2620.94 2943.75 2621.7 2942.6 2622.33 2941.45 2622.96 2940.22 2623.27 2938.91 2623.27 2937.44 2623.27 2936.25 2622.98 2935.32 2622.4 2934.39 2621.82 2933.66 2621.06 2933.14 2620.13 2932.61 2619.2 2932.27 2618.22 2932.11 2617.19 2931.94 2616.16 2931.86 2615.1 2931.86 2614 2931.86 2613.53 2931.88 2613 2931.93 2612.43 2931.97 2611.86 2932.03 2611.28 2932.1 2610.68 2932.17 2610.07 2932.23 2609.49 2932.27 2608.92 2932.31 2608.35 2932.33 2607.82 2932.33 2607.31 2932.33 2606.63 2932.27 2606.21 2932.14 2606.06 2932.01 2605.91 2931.96 2605.83 2932.01 2605.83 2931.79 2605.83 2931.45 2606.04 2930.98 2606.46 2930.51 2606.88 2929.96 2607.52 2929.32 2608.37 2928.68 2609.22 2928.04 2610.17 2927.38 2611.22 2926.71 2612.28 2926.1 2613.32 2925.52 2614.37 2924.94 2615.41 2924.42 2616.38 2923.95 2617.28 2923.48 2618.18 2923.11 2618.86 2922.85 2619.32 2922.15 2620.89 2921.44 2621.94 2920.73 2622.45 2920.02 2622.97 2919.26 2623.23 2918.46 2623.23 2917.37 2623.23 2916.5 2622.9 2915.83 2622.23 2915.17 2621.57 2914.84 2620.65 2914.84 2619.49 2914.84 2619.23 2914.87 2618.81 2914.92 2618.22 2914.98 2617.64 2915.05 2616.93 2915.14 2616.08 2915.23 2615.24 2915.32 2614.36 2915.4 2613.45 2915.48 2612.54 2915.57 2611.62 2915.65 2610.67 2915.74 2609.72 2915.81 2608.86 2915.87 2608.08 2915.92 2607.3 2915.95 2606.66 2915.95 2606.16L2915.9 2604.79 2915.74 2605.07C2915.15 2605.95 2914.36 2607.59 2913.36 2610.02 2913.13 2610.52 2912.79 2610.91 2912.35 2611.17L2911.84 2611.32 2909.31 2615.97C2908.19 2617.66 2907.01 2619.09 2905.78 2620.25 2903.32 2622.58 2900.49 2623.77 2897.29 2623.83 2895.24 2623.83 2893.48 2623.44 2892 2622.65 2890.52 2621.87 2889.29 2620.84 2888.33 2619.58L2887.3 2617.56 2886.73 2618.38C2885.97 2619.36 2885.12 2620.25 2884.19 2621.06 2883.26 2621.87 2882.25 2622.53 2881.16 2623.05 2880.08 2623.57 2878.9 2623.83 2877.65 2623.83 2875.71 2623.83 2874.06 2623.25 2872.7 2622.08 2871.35 2620.91 2870.22 2619.43 2869.32 2617.64L2867.38 2612.21 2867.21 2612.56C2866.72 2613.49 2866.17 2614.44 2865.56 2615.43 2864.96 2616.41 2864.27 2617.39 2863.51 2618.38 2862.74 2619.36 2861.9 2620.25 2860.97 2621.06 2860.04 2621.87 2859.03 2622.53 2857.94 2623.05 2856.85 2623.57 2855.68 2623.83 2854.42 2623.83 2852.48 2623.83 2850.84 2623.25 2849.48 2622.08 2848.12 2620.91 2847 2619.43 2846.1 2617.64L2844.49 2613.15 2842.96 2615.97C2841.84 2617.66 2840.66 2619.09 2839.43 2620.25 2836.97 2622.58 2834.14 2623.77 2830.94 2623.83 2828.9 2623.83 2827.13 2623.44 2825.65 2622.65 2824.17 2621.87 2822.95 2620.84 2821.98 2619.58 2821.01 2618.32 2820.3 2616.92 2819.85 2615.39L2819.75 2614.69 2819.68 2614.81C2818.95 2615.89 2818.09 2617.01 2817.1 2618.15 2816.1 2619.29 2814.94 2620.35 2813.63 2621.32 2812.31 2622.29 2810.83 2623.1 2809.17 2623.73 2807.52 2624.37 2805.72 2624.69 2803.76 2624.69 2801.98 2624.69 2800.4 2624.37 2799.04 2623.74 2797.68 2623.1 2796.52 2622.2 2795.54 2621.02 2794.57 2619.85 2793.84 2618.49 2793.36 2616.96L2793.18 2615.64 2792.52 2616.64C2791.65 2617.87 2790.66 2619.01 2789.55 2620.07 2788.44 2621.12 2787.17 2622.01 2785.74 2622.74 2784.31 2623.47 2782.76 2623.83 2781.09 2623.83 2779.02 2623.83 2777.17 2623.29 2775.56 2622.22 2773.96 2621.15 2772.8 2619.92 2772.09 2618.52 2772.13 2618.93 2771.9 2619.61 2771.4 2620.53 2770.91 2621.46 2770.43 2622.35 2769.98 2623.2 2769.5 2624.11 2768.75 2624.56 2767.71 2624.56 2766.95 2624.56 2766.34 2624.3 2765.89 2623.78 2765.44 2623.27 2765.21 2622.69 2765.21 2622.06 2765.21 2621.68 2765.28 2621.45 2765.42 2621.37 2766.16 2619.75 2766.79 2618.43 2767.34 2617.42 2767.88 2616.41 2768.46 2615.48 2769.07 2614.64 2768.15 2613.2 2767.34 2611.6 2766.64 2609.82 2765.95 2608.04 2765.6 2606.57 2765.59 2605.4L2763.9 2610.58C2763.57 2611.24 2762.88 2611.57 2761.84 2611.57 2761.08 2611.57 2760.47 2611.32 2760.01 2610.8 2759.56 2610.28 2759.34 2609.71 2759.34 2609.07 2759.34 2608.66 2759.43 2608.29 2759.61 2607.97L2764.28 2598.21C2764.5 2597.81 2764.8 2597.49 2765.19 2597.23 2765.58 2596.97 2766.02 2596.84 2766.51 2596.84 2767.24 2596.84 2767.82 2597.07 2768.26 2597.54 2768.7 2598 2768.96 2598.51 2769.04 2599.08 2769.07 2599.51 2769.17 2600.13 2769.35 2600.95 2769.53 2601.76 2769.78 2602.73 2770.11 2603.83 2770.44 2604.93 2770.82 2606.1 2771.26 2607.33 2771.69 2608.57 2771.96 2609.61 2772.06 2610.47 2774.94 2605.15 2778.45 2599.95 2782.58 2594.89 2783.07 2594.25 2783.73 2593.93 2784.57 2593.93 2785.28 2593.93 2785.89 2594.17 2786.38 2594.66 2786.87 2595.16 2787.11 2595.73 2787.11 2596.39 2787.11 2597 2786.93 2597.51 2786.55 2597.93 2782.16 2603.34 2778.2 2608.88 2774.68 2614.54 2775.54 2615.66 2776.5 2616.65 2777.57 2617.52 2778.65 2618.39 2779.83 2618.82 2781.14 2618.82 2782.32 2618.82 2783.45 2618.48 2784.52 2617.79 2785.6 2617.1 2786.62 2616.2 2787.57 2615.11 2788.53 2614.01 2789.36 2612.84 2790.06 2611.59 2790.76 2610.34 2791.33 2609.13 2791.78 2607.94 2791.97 2607.48 2792.24 2607.14 2792.61 2606.91L2793.42 2606.71 2793.42 2606.71C2793.93 2605.11 2794.64 2603.72 2795.54 2602.53 2796.44 2601.34 2797.51 2600.39 2798.76 2599.67 2800 2598.96 2801.32 2598.6 2802.73 2598.6 2803.79 2598.6 2804.76 2598.79 2805.65 2599.17 2806.55 2599.55 2807.3 2600.05 2807.92 2600.68 2808.53 2601.31 2809.01 2602.01 2809.35 2602.76 2809.7 2603.51 2809.87 2604.27 2809.87 2605.04 2809.87 2605.74 2809.78 2606.4 2809.59 2607.03 2809.41 2607.66 2809.18 2608.22 2808.89 2608.7 2808.61 2609.19 2808.24 2609.6 2807.8 2609.95 2807.36 2610.29 2806.87 2610.46 2806.33 2610.46 2805.59 2610.46 2804.98 2610.22 2804.52 2609.74 2804.06 2609.25 2803.83 2608.66 2803.83 2607.96 2803.83 2607.56 2803.9 2607.25 2804.03 2607.03 2804.16 2606.8 2804.28 2606.6 2804.4 2606.43 2804.52 2606.26 2804.62 2606.07 2804.7 2605.85 2804.78 2605.64 2804.82 2605.39 2804.82 2605.09 2804.82 2604.77 2804.62 2604.44 2804.24 2604.1 2803.86 2603.77 2803.35 2603.6 2802.73 2603.6 2802.13 2603.6 2801.53 2603.8 2800.92 2604.21 2800.32 2604.61 2799.77 2605.17 2799.29 2605.9 2798.8 2606.63 2798.41 2607.51 2798.1 2608.52 2797.8 2609.54 2797.65 2610.62 2797.65 2611.77 2797.65 2612.9 2797.78 2613.95 2798.04 2614.9 2798.29 2615.86 2798.68 2616.7 2799.18 2617.42 2799.69 2618.14 2800.31 2618.7 2801.04 2619.11 2801.78 2619.52 2802.67 2619.72 2803.72 2619.72 2805.16 2619.72 2806.49 2619.47 2807.69 2618.96 2808.89 2618.45 2810.02 2617.79 2811.06 2616.96 2812.1 2616.14 2813.02 2615.24 2813.83 2614.25 2814.63 2613.27 2815.31 2612.35 2815.86 2611.51 2816.41 2610.66 2816.85 2609.91 2817.17 2609.24 2817.5 2608.58 2817.69 2608.17 2817.74 2608.03 2817.93 2607.55 2818.24 2607.19 2818.66 2606.94L2819.72 2606.65 2819.75 2606.46C2820.13 2605.15 2820.69 2603.99 2821.43 2602.98 2822.17 2601.97 2823.07 2601.17 2824.13 2600.59 2825.18 2600 2826.34 2599.71 2827.6 2599.71 2828.36 2599.71 2829.12 2599.87 2829.89 2600.2 2830.66 2600.52 2831.34 2600.97 2831.94 2601.55 2832.53 2602.13 2833.01 2602.83 2833.38 2603.66 2833.74 2604.48 2833.92 2605.4 2833.92 2606.41 2833.92 2607.68 2833.7 2608.88 2833.26 2610 2832.83 2611.13 2832.24 2612.16 2831.49 2613.1 2830.75 2614.04 2829.86 2614.91 2828.81 2615.71 2827.76 2616.51 2826.84 2617.04 2826.03 2617.29 2826.43 2617.46 2827.04 2617.76 2827.84 2618.18 2828.65 2618.61 2829.67 2618.82 2830.9 2618.82 2832.14 2618.82 2833.28 2618.52 2834.32 2617.91 2835.36 2617.3 2836.32 2616.48 2837.22 2615.45 2838.11 2614.42 2838.91 2613.28 2839.6 2612.03 2840.29 2610.77 2840.96 2609.44 2841.59 2608.03 2841.8 2607.56 2842.12 2607.19 2842.52 2606.94L2843.06 2606.79 2842.71 2604.87C2842.42 2602.57 2842.23 2600.33 2842.12 2598.16 2842.02 2595.98 2841.97 2594.04 2841.97 2592.36 2841.97 2589.93 2842.05 2587.41 2842.21 2584.8 2842.37 2582.19 2842.62 2579.65 2842.97 2577.19 2843.31 2574.73 2843.75 2572.39 2844.28 2570.16 2844.82 2567.94 2845.47 2565.96 2846.23 2564.22 2846.99 2562.49 2847.91 2561.07 2848.98 2559.97 2850.05 2558.86 2851.31 2558.31 2852.75 2558.31ZM2716.5 2557.33C2719.89 2557.33 2722.86 2557.65 2725.4 2558.3 2727.95 2558.95 2730.14 2559.76 2731.97 2560.74 2733.79 2561.72 2735.3 2562.8 2736.5 2563.98 2737.7 2565.16 2738.64 2566.25 2739.31 2567.26 2739.99 2568.26 2740.47 2569.11 2740.74 2569.83 2741.02 2570.54 2741.19 2571 2741.25 2571.18 2741.29 2571.33 2741.3 2571.53 2741.3 2571.79 2741.3 2572.41 2741.07 2572.98 2740.61 2573.48 2740.14 2573.99 2739.52 2574.25 2738.75 2574.25 2738.2 2574.25 2737.71 2574.08 2737.29 2573.75 2736.87 2573.42 2736.57 2572.95 2736.38 2572.34 2736.38 2572.31 2736.28 2572.06 2736.08 2571.58 2735.89 2571.1 2735.52 2570.48 2734.98 2569.73 2734.45 2568.98 2733.71 2568.18 2732.78 2567.33 2731.85 2566.48 2730.64 2565.68 2729.16 2564.92 2727.67 2564.17 2725.88 2563.54 2723.8 2563.04 2721.72 2562.54 2719.29 2562.29 2716.5 2562.29 2713.29 2562.29 2710.52 2562.69 2708.19 2563.48 2705.85 2564.27 2703.93 2565.3 2702.43 2566.56 2700.92 2567.82 2699.81 2569.2 2699.1 2570.7 2698.39 2572.19 2698.04 2573.67 2698.04 2575.13 2698.04 2576.85 2698.46 2578.5 2699.31 2580.06 2700.15 2581.62 2701.26 2582.9 2702.62 2583.9 2703.97 2583.5 2705.37 2583.2 2706.82 2582.97 2708.28 2582.75 2709.67 2582.57 2711.01 2582.44 2712.35 2582.31 2713.63 2582.22 2714.85 2582.17 2716.07 2582.12 2716.92 2582.1 2717.4 2582.1 2718.71 2582.1 2719.92 2582.2 2721.04 2582.39 2722.15 2582.59 2723.15 2582.89 2724.02 2583.31 2724.9 2583.72 2725.61 2584.27 2726.14 2584.96 2726.67 2585.65 2726.94 2586.45 2726.94 2587.34 2726.94 2588.25 2726.68 2589.05 2726.15 2589.75 2725.63 2590.44 2724.94 2591.02 2724.07 2591.48 2723.21 2591.93 2722.21 2592.27 2721.08 2592.5 2719.96 2592.73 2718.73 2592.85 2717.4 2592.85 2715.96 2592.85 2714.52 2592.76 2713.09 2592.58 2711.67 2592.41 2710.28 2592.16 2708.95 2591.85 2707.61 2591.53 2706.3 2591.13 2705.01 2590.63 2703.73 2590.14 2702.68 2589.62 2701.86 2589.07 2697.72 2590.38 2694.55 2592.25 2692.34 2594.68 2690.13 2597.12 2689.03 2600.13 2689.03 2603.71 2689.03 2605.67 2689.37 2607.42 2690.05 2608.95 2690.73 2610.48 2691.68 2611.84 2692.89 2613.03 2694.1 2614.21 2695.54 2615.23 2697.19 2616.1 2698.85 2616.96 2700.64 2617.67 2702.56 2618.23 2704.48 2618.78 2706.49 2619.19 2708.57 2619.46 2710.66 2619.72 2712.76 2619.85 2714.87 2619.85 2716.31 2619.85 2717.62 2619.81 2718.8 2619.72 2719.98 2619.62 2721.19 2619.47 2722.44 2619.27 2725.99 2618.7 2729.1 2617.89 2731.76 2616.81 2734.42 2615.74 2736.73 2614.57 2738.68 2613.29 2740.63 2612.02 2742.23 2610.73 2743.5 2609.42 2744.76 2608.12 2745.77 2606.93 2746.53 2605.84 2747.29 2604.75 2747.81 2603.88 2748.11 2603.23 2748.41 2602.59 2748.56 2602.27 2748.56 2602.28 2748.76 2601.67 2749.08 2601.22 2749.51 2600.92 2749.94 2600.63 2750.41 2600.48 2750.93 2600.48 2751.65 2600.48 2752.25 2600.73 2752.74 2601.22 2753.24 2601.71 2753.48 2602.29 2753.48 2602.94 2753.48 2603.13 2753.44 2603.37 2753.37 2603.68 2753.34 2603.8 2753.12 2604.32 2752.72 2605.24 2752.32 2606.16 2751.67 2607.27 2750.78 2608.56 2749.89 2609.85 2748.7 2611.28 2747.22 2612.85 2745.74 2614.42 2743.89 2615.94 2741.67 2617.41 2739.46 2618.88 2736.82 2620.22 2733.78 2621.44 2730.73 2622.65 2727.22 2623.58 2723.25 2624.22 2720.62 2624.64 2717.81 2624.86 2714.83 2624.86 2712.34 2624.86 2709.88 2624.69 2707.42 2624.36 2704.97 2624.02 2702.62 2623.5 2700.38 2622.79 2698.14 2622.09 2696.01 2621.16 2694.01 2620.03 2692.01 2618.9 2690.28 2617.56 2688.81 2616.02 2687.34 2614.48 2686.18 2612.69 2685.32 2610.64 2684.45 2608.6 2684.02 2606.33 2684.02 2603.84 2684.02 2599.44 2685.24 2595.65 2687.68 2592.48 2690.12 2589.31 2693.52 2587.01 2697.87 2585.6 2696.34 2584.65 2695.14 2583.21 2694.3 2581.27 2693.45 2579.34 2693.03 2577.32 2693.03 2575.22 2693.03 2572.6 2693.62 2570.2 2694.81 2568 2696.01 2565.79 2697.65 2563.9 2699.74 2562.32 2701.83 2560.74 2704.3 2559.51 2707.16 2558.64 2710.02 2557.76 2713.13 2557.33 2716.5 2557.33ZM2517.16 2555.87C2521.48 2555.87 2525.46 2556.3 2529.11 2557.17 2532.76 2558.03 2535.93 2559.29 2538.6 2560.94 2541.28 2562.59 2543.38 2564.63 2544.89 2567.06 2546.4 2569.49 2547.16 2572.24 2547.16 2575.3 2547.16 2579.33 2546 2582.99 2543.68 2586.27 2541.37 2589.56 2538.17 2592.09 2534.08 2593.85 2535.54 2594.71 2536.74 2596.07 2537.68 2597.94 2538.62 2599.81 2539.32 2601.67 2539.77 2603.53 2540.22 2605.38 2540.51 2607.16 2540.64 2608.84 2540.77 2610.53 2540.86 2611.94 2540.92 2613.07 2540.98 2614.65 2541.12 2615.91 2541.34 2616.85 2541.57 2617.79 2541.86 2618.49 2542.21 2618.94 2542.56 2619.39 2542.98 2619.7 2543.47 2619.86 2543.97 2620.03 2544.63 2620.11 2545.47 2620.11 2546.6 2620.11 2547.66 2619.84 2548.63 2619.29 2549.6 2618.74 2550.5 2618.03 2551.33 2617.16 2552.17 2616.28 2552.9 2615.33 2553.54 2614.32 2554.18 2613.3 2554.73 2612.33 2555.18 2611.41 2555.63 2610.48 2555.97 2609.75 2556.19 2609.2 2556.4 2608.65 2556.51 2608.36 2556.51 2608.34 2556.98 2607.16 2557.78 2606.57 2558.89 2606.57 2559.65 2606.57 2560.26 2606.82 2560.73 2607.34L2560.87 2607.68 2563.06 2604.42C2563.97 2603.46 2564.91 2602.73 2565.89 2602.23 2566.87 2601.72 2567.64 2601.47 2568.2 2601.47 2568.94 2601.47 2569.53 2601.69 2569.95 2602.13L2570.5 2603.56 2571 2601.93C2571.94 2600.71 2573.19 2600.1 2574.76 2600.1 2575.68 2600.1 2576.56 2600.32 2577.39 2600.77 2578.21 2601.22 2578.92 2601.89 2579.52 2602.8 2580.12 2603.7 2580.59 2604.82 2580.92 2606.16 2581.26 2607.5 2581.42 2609.07 2581.42 2610.87L2581.1 2612.91 2581.23 2612.91C2582.13 2612.91 2582.91 2612.81 2583.6 2612.61 2584.28 2612.4 2584.9 2612.11 2585.44 2611.71 2585.98 2611.32 2586.48 2610.79 2586.95 2610.13 2587.41 2609.47 2587.86 2608.69 2588.29 2607.8 2588.46 2607.45 2588.76 2607.17 2589.19 2606.93 2589.63 2606.69 2590.06 2606.57 2590.5 2606.57L2590.97 2606.76 2591.6 2604.63C2592.04 2603.45 2592.72 2602.5 2593.62 2601.76 2594.53 2601.02 2594.99 2600.67 2594.99 2600.7 2594.37 2600.21 2594.51 2599.97 2595.4 2599.97 2596.16 2599.97 2596.77 2600.23 2597.24 2600.74 2597.71 2601.25 2597.95 2601.83 2597.95 2602.47 2597.95 2602.96 2597.86 2602.95 2597.69 2602.45 2597.72 2602.43 2597.57 2602.87 2597.24 2603.78 2596.91 2604.69 2596.57 2605.59 2596.24 2606.48 2595.9 2607.37 2595.59 2608.45 2595.29 2609.72 2595 2611 2594.86 2612.39 2594.86 2613.91 2594.86 2615.34 2595.07 2616.38 2595.5 2617.05 2595.93 2617.72 2596.63 2618.05 2597.58 2618.05 2598.86 2618.05 2600.11 2616.94 2601.32 2614.71 2602.54 2612.48 2603.58 2609.18 2604.47 2604.79 2604.56 2604.12 2604.83 2603.59 2605.29 2603.21 2605.74 2602.82 2606.28 2602.63 2606.89 2602.63 2607.6 2602.63 2608.21 2602.87 2608.7 2603.36 2609.19 2603.85 2609.44 2604.44 2609.44 2605.13 2609.44 2605.21 2609.38 2605.74 2609.25 2606.73 2609.13 2607.71 2608.99 2608.97 2608.84 2610.52 2608.68 2612.06 2608.52 2613.84 2608.35 2615.87 2608.18 2617.9 2608.04 2619.74 2607.94 2621.4 2608.56 2620.4 2609.21 2619.43 2609.9 2618.49 2610.59 2617.55 2611.42 2616.51 2612.39 2615.37 2613.37 2614.22 2614.26 2613.05 2615.06 2611.87L2617.15 2608.17 2617.16 2608.15 2617.21 2608.08 2617.24 2608.02 2617.27 2607.99 2620.25 2603.62C2621.51 2602.39 2622.9 2601.46 2624.42 2600.85 2625.95 2600.23 2627.42 2599.93 2628.84 2599.93 2629.8 2599.93 2630.7 2600.06 2631.54 2600.34 2632.39 2600.62 2633.09 2600.91 2633.66 2601.21 2634.22 2601.51 2634.66 2601.8 2634.98 2602.07 2635.3 2602.34 2635.48 2602.49 2635.51 2602.52 2636.02 2603.12 2636.28 2603.72 2636.28 2604.31 2636.28 2604.97 2636.03 2605.55 2635.55 2606.06 2635.07 2606.56 2634.48 2606.82 2633.77 2606.82 2633.06 2606.82 2632.46 2606.58 2631.98 2606.1 2631.94 2606.05 2631.84 2605.97 2631.68 2605.85 2631.53 2605.73 2631.3 2605.59 2631 2605.44 2630.7 2605.29 2630.35 2605.16 2629.95 2605.05 2629.55 2604.94 2629.09 2604.89 2628.58 2604.89 2627.83 2604.89 2627 2605.07 2626.11 2605.42 2625.22 2605.78 2624.4 2606.34 2623.66 2607.09L2621.91 2609.77 2621.84 2610.08 2621.72 2610.29 2621.01 2614.17C2621.01 2614.7 2621.06 2615.19 2621.15 2615.65 2621.25 2616.11 2621.4 2616.51 2621.62 2616.87 2621.84 2617.22 2622.13 2617.5 2622.48 2617.7 2622.83 2617.91 2623.27 2618.01 2623.82 2618.01 2624.21 2618.01 2624.67 2617.87 2625.23 2617.59 2625.78 2617.31 2626.33 2616.85 2626.87 2616.21 2627.42 2615.58 2627.93 2614.75 2628.4 2613.73 2628.86 2612.72 2629.19 2611.51 2629.38 2610.11 2629.47 2609.5 2629.75 2608.98 2630.24 2608.57 2630.72 2608.15 2631.28 2607.94 2631.93 2607.94 2632.59 2607.94 2633.16 2608.18 2633.62 2608.66 2634.08 2609.15 2634.33 2609.68 2634.37 2610.28 2634.4 2610.8 2634.46 2611.54 2634.54 2612.5 2634.62 2613.46 2634.8 2614.39 2635.08 2615.3 2635.36 2616.2 2635.73 2616.93 2636.2 2617.48 2636.66 2618.03 2637.28 2618.31 2638.06 2618.31 2638.59 2618.31 2639.15 2618.15 2639.71 2617.84 2640.28 2617.53 2640.87 2617.08 2641.47 2616.51 2642.07 2615.93 2642.65 2615.26 2643.23 2614.5 2643.8 2613.73 2644.31 2612.97 2644.77 2612.21 2645.23 2611.46 2645.67 2610.67 2646.08 2609.85 2646.49 2609.02 2646.78 2608.43 2646.95 2608.07L2647.46 2607.47 2646.98 2604.87C2646.69 2602.57 2646.5 2600.33 2646.4 2598.16 2646.3 2595.98 2646.24 2594.04 2646.24 2592.36 2646.24 2589.93 2646.32 2587.41 2646.48 2584.8 2646.64 2582.19 2646.9 2579.65 2647.24 2577.19 2647.58 2574.73 2648.02 2572.39 2648.56 2570.16 2649.09 2567.94 2649.74 2565.96 2650.5 2564.22 2651.27 2562.49 2652.18 2561.07 2653.25 2559.97 2654.32 2558.86 2655.58 2558.31 2657.02 2558.31 2658.13 2558.31 2659.14 2558.58 2660.04 2559.11 2660.95 2559.64 2661.69 2560.47 2662.27 2561.59 2662.86 2562.72 2663.29 2564.12 2663.59 2565.77 2663.88 2567.42 2664.03 2569.43 2664.03 2571.79 2664.03 2574.67 2663.72 2577.66 2663.11 2580.77 2662.5 2583.88 2661.67 2587 2660.63 2590.13 2659.58 2593.25 2658.36 2596.35 2656.96 2599.43 2655.55 2602.51 2654.08 2605.43 2652.54 2608.2 2653.21 2611.51 2654.1 2614.11 2655.19 2616 2656.28 2617.88 2657.5 2618.82 2658.82 2618.82 2659.76 2618.82 2660.7 2618.42 2661.64 2617.62 2662.59 2616.81 2663.49 2615.82 2664.34 2614.64 2665.2 2613.45 2665.95 2612.24 2666.61 2610.99 2667.27 2609.74 2667.79 2608.73 2668.15 2607.97 2668.37 2607.53 2668.68 2607.18 2669.08 2606.94 2669.49 2606.69 2669.93 2606.57 2670.4 2606.57 2671.17 2606.57 2671.79 2606.83 2672.25 2607.36 2672.72 2607.89 2672.95 2608.48 2672.95 2609.11 2672.95 2609.38 2672.87 2609.71 2672.72 2610.09 2672.38 2610.81 2671.97 2611.63 2671.48 2612.56 2670.99 2613.49 2670.44 2614.44 2669.84 2615.43 2669.23 2616.41 2668.54 2617.39 2667.78 2618.38 2667.02 2619.36 2666.17 2620.25 2665.24 2621.06 2664.31 2621.87 2663.3 2622.53 2662.22 2623.05 2661.13 2623.57 2659.96 2623.83 2658.7 2623.83 2656.76 2623.83 2655.11 2623.25 2653.75 2622.08 2652.4 2620.91 2651.27 2619.43 2650.37 2617.64L2649.23 2614.45 2647.48 2617.09C2646.7 2618.18 2645.82 2619.18 2644.85 2620.08 2643.89 2620.99 2642.82 2621.74 2641.66 2622.36 2640.5 2622.97 2639.26 2623.27 2637.93 2623.27 2636.04 2623.27 2634.46 2622.68 2633.19 2621.5 2631.93 2620.31 2631.21 2619.05 2631.05 2617.7 2630.68 2619.16 2629.77 2620.42 2628.31 2621.46 2626.85 2622.5 2625.34 2623.02 2623.78 2623.02 2622.58 2623.02 2621.49 2622.8 2620.53 2622.37 2619.57 2621.93 2618.74 2621.32 2618.06 2620.52L2616.59 2617.94 2615.01 2619.86C2613.68 2621.32 2612.37 2622.7 2611.09 2623.99 2609.81 2625.29 2608.69 2626.47 2607.73 2627.55 2607.63 2629.29 2607.64 2631.19 2607.76 2633.24 2607.88 2635.3 2607.94 2637.37 2607.94 2639.46 2607.94 2641.17 2607.88 2643 2607.75 2644.95 2607.63 2646.9 2607.44 2648.72 2607.18 2650.39 2606.93 2652.06 2606.57 2653.65 2606.11 2655.15 2605.66 2656.65 2605.05 2657.99 2604.3 2659.16 2603.55 2660.33 2602.66 2661.26 2601.62 2661.96 2600.59 2662.65 2599.36 2663 2597.93 2663 2595.6 2663 2593.82 2662.21 2592.59 2660.62 2591.36 2659.04 2590.75 2656.88 2590.75 2654.15 2590.75 2652.72 2590.9 2651.2 2591.21 2649.6 2591.52 2647.99 2591.95 2646.33 2592.51 2644.61 2593.07 2642.89 2593.73 2641.16 2594.5 2639.41 2595.28 2637.66 2596.1 2635.99 2596.97 2634.39 2597.84 2632.79 2598.8 2631.22 2599.85 2629.68 2600.9 2628.13 2601.87 2626.84 2602.77 2625.79 2602.82 2624.55 2602.88 2623.2 2602.95 2621.75 2603.02 2620.29 2603.1 2619.26 2603.18 2618.65 2603.5 2619.76 2603.03 2620.77 2601.8 2621.67 2600.57 2622.57 2599.19 2623.02 2597.67 2623.02 2595.22 2623.02 2593.3 2622.2 2591.92 2620.56 2591.23 2619.74 2590.71 2618.78 2590.37 2617.68L2589.88 2614.19 2588.07 2615.82C2587.12 2616.46 2586.07 2616.96 2584.91 2617.33 2583.75 2617.69 2582.43 2617.86 2580.94 2617.83 2580.17 2617.83 2579.72 2617.77 2579.6 2617.66 2579.36 2618.24 2578.91 2618.92 2578.26 2619.71 2577.61 2620.5 2576.86 2621.19 2576 2621.78 2575.15 2622.37 2574.19 2622.84 2573.12 2623.18 2572.05 2623.53 2570.9 2623.7 2569.66 2623.7 2568.19 2623.7 2566.85 2623.44 2565.62 2622.92 2564.4 2622.41 2563.33 2621.68 2562.42 2620.76 2561.5 2619.83 2560.8 2618.72 2560.31 2617.44L2559.65 2613.66 2559.44 2614.08C2558.87 2615.17 2558.13 2616.35 2557.23 2617.63 2556.33 2618.92 2555.3 2620.1 2554.13 2621.19 2552.96 2622.27 2551.61 2623.18 2550.08 2623.92 2548.55 2624.66 2546.85 2625.03 2544.99 2625.03 2543.34 2625.03 2541.94 2624.76 2540.79 2624.21 2539.65 2623.66 2538.72 2622.87 2538 2621.83 2537.28 2620.79 2536.76 2619.57 2536.45 2618.18 2536.13 2616.79 2535.95 2615.19 2535.89 2613.4 2535.86 2612.72 2535.82 2611.9 2535.76 2610.95 2535.71 2610 2535.6 2608.97 2535.44 2607.87 2535.29 2606.78 2535.07 2605.66 2534.79 2604.51 2534.51 2603.37 2534.13 2602.27 2533.64 2601.22 2533.15 2600.16 2532.55 2599.16 2531.83 2598.23 2531.11 2597.3 2530.35 2596.53 2529.55 2595.93 2527.56 2596.67 2525.38 2597.25 2523.02 2597.66 2520.66 2598.08 2518.47 2598.3 2516.45 2598.32L2516.45 2598.74C2516.45 2602.31 2516.09 2605.67 2515.37 2608.83 2514.65 2611.99 2513.47 2614.76 2511.82 2617.14 2510.18 2619.52 2508.04 2621.39 2505.42 2622.76 2502.8 2624.13 2499.62 2624.82 2495.89 2624.82 2494.03 2624.82 2492.2 2624.57 2490.39 2624.08 2488.59 2623.58 2486.9 2622.91 2485.34 2622.05 2483.79 2621.19 2482.39 2620.17 2481.15 2618.99 2479.91 2617.81 2478.93 2616.53 2478.21 2615.16 2477.98 2614.79 2477.87 2614.38 2477.87 2613.91 2477.87 2613.28 2478.1 2612.71 2478.56 2612.21 2479.02 2611.71 2479.62 2611.45 2480.37 2611.45 2481.36 2611.45 2481.98 2611.73 2482.24 2612.27 2483.06 2613.62 2483.93 2614.74 2484.86 2615.61 2485.79 2616.49 2486.86 2617.25 2488.05 2617.9 2489.24 2618.54 2490.49 2619.03 2491.81 2619.38 2493.12 2619.72 2494.49 2619.9 2495.89 2619.9 2498.7 2619.9 2501.08 2619.41 2503.04 2618.43 2505 2617.45 2506.59 2616.05 2507.83 2614.24 2509.07 2612.42 2509.99 2610.2 2510.57 2607.58 2511.15 2604.95 2511.44 2602.01 2511.44 2598.74L2511.44 2597.71C2510.75 2597.48 2510.06 2597.01 2509.36 2596.32 2508.66 2595.62 2508.31 2594.73 2508.31 2593.64 2508.31 2592.6 2508.64 2591.7 2509.3 2590.93 2509.96 2590.17 2510.68 2589.63 2511.44 2589.33 2511.44 2589.04 2511.46 2588.57 2511.49 2587.89 2511.52 2587.22 2511.56 2586.59 2511.61 2585.99 2511.79 2583.87 2512.12 2581.97 2512.61 2580.29 2513.09 2578.62 2513.67 2577.14 2514.34 2575.87 2515.01 2574.59 2515.7 2573.5 2516.43 2572.59 2517.16 2571.68 2517.84 2570.93 2518.47 2570.35 2519.09 2569.77 2519.64 2569.33 2520.09 2569.04 2520.54 2568.75 2520.81 2568.58 2520.9 2568.54 2521.18 2568.38 2521.53 2568.3 2521.97 2568.3 2522.64 2568.3 2523.23 2568.53 2523.74 2569 2524.26 2569.47 2524.51 2570.07 2524.51 2570.8 2524.51 2571.76 2524.09 2572.49 2523.25 2572.97 2523.1 2573.07 2522.74 2573.33 2522.16 2573.75 2521.59 2574.17 2520.92 2574.88 2520.18 2575.89 2519.43 2576.9 2518.7 2578.27 2517.98 2580.01 2517.26 2581.74 2516.8 2583.9 2516.6 2586.5 2516.55 2586.92 2516.51 2587.35 2516.5 2587.8 2516.49 2588.24 2516.47 2588.37 2516.45 2588.18 2516.21 2588.14 2516.43 2588.1 2517.09 2588.05 2517.75 2587.99 2518.36 2587.97 2518.92 2587.97 2521.04 2587.97 2523.1 2588.21 2525.09 2588.68 2527.09 2589.16 2528.8 2589.81 2530.22 2590.63 2533.96 2589.07 2536.88 2586.99 2538.97 2584.39 2541.06 2581.78 2542.1 2578.9 2542.1 2575.73 2542.1 2573.39 2541.52 2571.31 2540.35 2569.49 2539.17 2567.67 2537.5 2566.11 2535.32 2564.82 2533.14 2563.53 2530.5 2562.54 2527.4 2561.84 2524.31 2561.14 2520.93 2560.79 2517.25 2560.79 2514.05 2560.79 2510.76 2561.04 2507.38 2561.53 2504 2562.03 2500.72 2562.77 2497.56 2563.76 2494.4 2564.76 2491.45 2565.97 2488.73 2567.42 2486.01 2568.86 2483.64 2570.52 2481.62 2572.38 2479.61 2574.24 2478.03 2576.3 2476.88 2578.57 2475.73 2580.84 2475.16 2583.29 2475.16 2585.93 2475.16 2587.87 2475.49 2589.57 2476.15 2591.01 2476.81 2592.45 2477.69 2593.65 2478.79 2594.62 2479.89 2595.58 2481.15 2596.31 2482.57 2596.8 2483.99 2597.28 2485.5 2597.53 2487.1 2597.53 2489.05 2597.53 2490.74 2597.34 2492.17 2596.96 2493.59 2596.58 2494.8 2596.17 2495.79 2595.72 2496.78 2595.26 2497.52 2594.85 2498 2594.47 2498.48 2594.1 2498.76 2593.87 2498.84 2593.78 2499.08 2593.62 2499.36 2593.42 2499.7 2593.18 2500.04 2592.93 2500.44 2592.81 2500.91 2592.81 2501.59 2592.81 2502.18 2593.05 2502.67 2593.52 2503.17 2594 2503.42 2594.58 2503.42 2595.27 2503.42 2595.98 2503.16 2596.57 2502.66 2597.03 2502.63 2597.06 2502.25 2597.37 2501.52 2597.98 2500.79 2598.58 2499.78 2599.21 2498.47 2599.86 2497.16 2600.52 2495.57 2601.11 2493.68 2601.64 2491.8 2602.18 2489.63 2602.45 2487.19 2602.45 2484.89 2602.45 2482.72 2602.07 2480.67 2601.33 2478.63 2600.58 2476.81 2599.49 2475.23 2598.06 2473.65 2596.63 2472.4 2594.91 2471.48 2592.88 2470.56 2590.85 2470.11 2588.53 2470.11 2585.93 2470.11 2583.08 2470.68 2580.36 2471.84 2577.77 2472.99 2575.19 2474.62 2572.77 2476.72 2570.53 2478.81 2568.28 2481.31 2566.26 2484.2 2564.47 2487.1 2562.67 2490.27 2561.14 2493.73 2559.86 2497.19 2558.59 2500.9 2557.61 2504.87 2556.91 2508.83 2556.22 2512.93 2555.87 2517.16 2555.87ZM2249.92 2547C2252.15 2547 2254.21 2547.52 2256.09 2548.57 2257.98 2549.62 2259.57 2551.06 2260.86 2552.9 2262.16 2554.74 2263.16 2556.89 2263.87 2559.35 2264.59 2561.82 2264.94 2564.46 2264.94 2567.29 2264.94 2571.87 2264.15 2576.59 2262.55 2581.45 2260.96 2586.31 2258.64 2591.16 2255.58 2596 2252.52 2600.84 2248.71 2605.67 2244.15 2610.5 2239.59 2615.34 2234.36 2620.03 2228.48 2624.59 2228.28 2624.74 2228.03 2624.91 2227.74 2625.1 2227.44 2625.28 2227.05 2625.37 2226.55 2625.37 2225.7 2625.37 2225.08 2625.1 2224.68 2624.55 2224.28 2624 2224.08 2623.38 2224.08 2622.7 2224.08 2622.46 2224.11 2622.01 2224.15 2621.35 2224.2 2620.68 2224.25 2619.9 2224.3 2619.01 2224.36 2618.12 2224.43 2617.12 2224.52 2616.03 2224.6 2614.93 2224.67 2613.81 2224.73 2612.69 2224.79 2611.56 2224.84 2610.47 2224.88 2609.44 2224.92 2608.4 2224.94 2607.48 2224.94 2606.67 2224.97 2600.47 2224.51 2594.76 2223.55 2589.54 2222.59 2584.32 2221.08 2579.82 2219.02 2576.03 2216.96 2572.24 2214.32 2569.3 2211.12 2567.2 2207.92 2565.1 2204.06 2564.05 2199.53 2564.05 2196.14 2564.05 2193.16 2564.51 2190.59 2565.43 2188.02 2566.35 2185.88 2567.56 2184.16 2569.05 2182.45 2570.55 2181.16 2572.23 2180.3 2574.1 2179.44 2575.96 2179.01 2577.87 2179.01 2579.8 2179.01 2581.54 2179.29 2583.06 2179.85 2584.39 2180.42 2585.71 2181.19 2586.84 2182.18 2587.77 2183.17 2588.7 2184.33 2589.41 2185.67 2589.9 2187.01 2590.38 2188.47 2590.63 2190.05 2590.63 2191.43 2590.63 2192.66 2590.48 2193.73 2590.2 2194.8 2589.91 2195.75 2589.57 2196.57 2589.19 2197.39 2588.81 2198.01 2588.47 2198.41 2588.19 2198.82 2587.91 2199.04 2587.75 2199.07 2587.71 2199.33 2587.46 2199.62 2587.29 2199.93 2587.22 2200.23 2587.15 2200.5 2587.11 2200.73 2587.11 2201.38 2587.11 2201.97 2587.33 2202.47 2587.77 2202.98 2588.21 2203.24 2588.78 2203.24 2589.49 2203.24 2590.3 2202.97 2590.91 2202.44 2591.32 2202.36 2591.4 2202.01 2591.67 2201.36 2592.13 2200.72 2592.6 2199.88 2593.07 2198.83 2593.56 2197.79 2594.05 2196.52 2594.5 2195.02 2594.92 2193.52 2595.34 2191.85 2595.55 2190.01 2595.55 2187.75 2595.55 2185.64 2595.17 2183.68 2594.41 2181.72 2593.66 2180.02 2592.58 2178.59 2591.19 2177.16 2589.79 2176.04 2588.13 2175.22 2586.21 2174.41 2584.3 2174 2582.17 2174 2579.84 2174 2577.25 2174.55 2574.72 2175.65 2572.25 2176.76 2569.77 2178.39 2567.57 2180.57 2565.62 2182.74 2563.67 2185.39 2562.12 2188.53 2560.96 2191.66 2559.79 2195.29 2559.21 2199.4 2559.21 2204.73 2559.21 2209.34 2560.38 2213.22 2562.72 2217.11 2565.05 2220.29 2568.31 2222.76 2572.49 2225.23 2576.66 2227.05 2581.68 2228.23 2587.54 2229.41 2593.39 2229.99 2599.84 2229.99 2606.89 2229.99 2608.65 2229.95 2610.65 2229.86 2612.9 2229.77 2615.14 2229.64 2617.01 2229.48 2618.52 2233.43 2614.81 2237.38 2610.77 2241.35 2606.43 2245.31 2602.08 2248.67 2597.7 2251.42 2593.29 2254.17 2588.88 2256.28 2584.49 2257.74 2580.12 2259.2 2575.75 2259.93 2571.6 2259.93 2567.67 2259.93 2565.44 2259.69 2563.34 2259.2 2561.36 2258.72 2559.39 2258.04 2557.72 2257.16 2556.36 2256.29 2555 2255.25 2553.93 2254.03 2553.16 2252.81 2552.39 2251.47 2552.01 2250 2552.01L2249.19 2552.01C2248.48 2552.01 2247.87 2551.78 2247.36 2551.34 2246.85 2550.9 2246.6 2550.3 2246.6 2549.55 2246.6 2548.48 2246.97 2547.79 2247.7 2547.47 2248.44 2547.16 2249.18 2547 2249.92 2547Z" fill="#FFFFFF" fill-rule="evenodd"/>
  </g>
</svg>