<svg width="1650" height="548"
  xmlns="http://www.w3.org/2000/svg"
  xmlns:xlink="http://www.w3.org/1999/xlink" xml:space="preserve" overflow="hidden">
  <defs>
    <clipPath id="clip0">
      <rect x="1375" y="867" width="1650" height="548"/>
    </clipPath>
  </defs>
  <g clip-path="url(#clip0)" transform="translate(-1375 -867)">
    <path d="M2073.4 1257.6C2072.27 1265.69 2069.01 1274.92 2063.62 1285.27 2058.24 1295.62 2053.63 1305.85 2049.8 1315.94 2045.96 1326.03 2042.98 1335.73 2040.83 1345.03 2038.69 1354.33 2037.62 1362.57 2037.62 1369.75 2037.62 1376.67 2038.53 1381.71 2040.35 1384.87 2042.17 1388.04 2044.87 1389.62 2048.47 1389.62 2051.83 1389.62 2055.05 1387.64 2058.15 1383.69 2061.25 1379.74 2064.01 1373.58 2066.45 1365.21 2068.89 1356.85 2070.75 1346.49 2072.05 1334.14 2073.35 1321.79 2074 1308.01 2074 1292.81 2074 1286.66 2073.89 1280.41 2073.67 1274.03 2073.45 1267.66 2073.36 1262.18 2073.4 1257.6ZM1886.93 1119.75 1886.64 1120.48C1884.39 1122.3 1881.94 1123.88 1879.27 1125.21 1877.27 1126.22 1875.11 1127.65 1872.79 1129.52 1870.48 1131.39 1868.31 1133.75 1866.29 1136.62 1864.28 1139.49 1862.61 1142.88 1861.31 1146.79 1860.01 1150.7 1859.36 1155.16 1859.36 1160.18 1859.36 1164.58 1860 1168.61 1861.28 1172.27 1862.57 1175.93 1864.37 1179.01 1866.69 1181.52 1869.01 1184.02 1871.74 1185.97 1874.9 1187.37 1878.06 1188.77 1881.68 1189.47 1885.76 1189.47 1893.15 1189.47 1899.22 1187.79 1903.96 1184.43 1908.71 1181.07 1912.25 1178.02 1914.57 1175.29 1906.82 1171.73 1899.96 1165.47 1893.98 1156.49 1888 1147.51 1885.02 1137.34 1885.02 1125.98ZM1911.37 1118.18C1911.72 1118.18 1911.64 1118.41 1911.13 1118.86 1910.62 1119.32 1910.37 1121.11 1910.37 1124.23 1910.37 1126.76 1910.7 1129.41 1911.35 1132.15 1912.01 1134.9 1912.99 1137.56 1914.3 1140.13 1915.61 1142.7 1917.31 1145.23 1919.4 1147.72 1921.48 1150.21 1921.8 1152 1920.36 1153.08 1920.15 1152.57 1920.04 1151.06 1920.04 1148.56 1920.04 1145.08 1919.75 1141.31 1919.17 1137.25 1918.59 1133.18 1917.83 1129.65 1916.87 1126.65 1915.91 1123.66 1914.93 1121.49 1913.93 1120.17 1912.92 1118.84 1912.07 1118.18 1911.37 1118.18ZM2929.03 1116.64C2926.23 1116.64 2923.78 1117.47 2921.7 1119.12 2919.61 1120.77 2917.8 1123.14 2916.26 1126.22 2914.72 1129.29 2913.6 1132.74 2912.89 1136.55 2912.18 1140.36 2911.83 1144.36 2911.83 1148.56 2911.83 1150.96 2912.08 1153.6 2912.58 1156.48 2913.08 1159.36 2913.18 1160.79 2912.85 1160.75 2913.8 1159.23 2915.96 1157.15 2919.35 1154.49 2922.73 1151.84 2925.63 1148.89 2928.06 1145.65 2930.48 1142.41 2932.33 1139.11 2933.6 1135.73 2934.87 1132.35 2935.51 1128.96 2935.51 1125.55 2935.51 1122.39 2934.84 1120.12 2933.49 1118.73 2932.15 1117.34 2930.66 1116.64 2929.03 1116.64ZM2471.78 1116.64C2468.98 1116.64 2466.53 1117.47 2464.45 1119.12 2462.36 1120.77 2460.55 1123.14 2459.01 1126.22 2457.47 1129.29 2456.35 1132.74 2455.64 1136.55 2454.93 1140.36 2454.58 1144.36 2454.58 1148.56 2454.58 1150.96 2454.83 1153.6 2455.33 1156.48 2455.83 1159.36 2455.93 1160.79 2455.6 1160.75 2456.55 1159.23 2458.71 1157.15 2462.1 1154.49 2465.48 1151.84 2468.38 1148.89 2470.8 1145.65 2473.23 1142.41 2475.08 1139.11 2476.35 1135.73 2477.62 1132.35 2478.26 1128.96 2478.26 1125.55 2478.26 1122.39 2477.59 1120.12 2476.24 1118.73 2474.9 1117.34 2473.41 1116.64 2471.78 1116.64ZM1625.3 1055.92C1617.99 1055.92 1613.35 1056.1 1611.38 1056.46L1611.38 1059.03C1617.26 1059.03 1624.69 1058.55 1633.68 1057.57L1642.49 1057.37 1636.12 1056.47C1632.76 1056.1 1629.15 1055.92 1625.3 1055.92ZM2366.66 904.88C2365.31 904.88 2363.48 906.593 2361.18 910.022 2358.88 913.449 2356.53 918.681 2354.14 925.712 2351.75 932.745 2349.56 941.12 2347.56 950.839 2345.56 960.556 2343.87 971.152 2342.47 982.624 2341.08 994.097 2340 1005.78 2339.23 1017.67 2338.46 1029.57 2338.07 1041.92 2338.07 1054.74 2338.07 1064.92 2338.28 1074.02 2338.69 1082.06 2339.09 1090.1 2339.19 1096.74 2338.97 1102 2340.12 1092.21 2343.47 1080.59 2349.04 1067.16 2354.61 1053.73 2359.51 1040.2 2363.73 1026.59 2367.94 1012.98 2371.3 999.584 2373.78 986.407 2376.27 973.233 2377.52 960.642 2377.52 948.635 2377.52 931.96 2376.35 920.498 2374.03 914.251 2371.71 908.003 2369.25 904.88 2366.66 904.88ZM2367.32 879.491C2372.98 879.491 2378.12 880.845 2382.74 883.551 2387.35 886.258 2391.15 890.5 2394.11 896.277 2397.08 902.054 2399.32 909.169 2400.83 917.624 2402.33 926.079 2403.09 936.342 2403.09 948.415 2403.09 963.14 2401.52 978.459 2398.39 994.374 2395.25 1010.29 2391.02 1026.24 2385.7 1042.23 2380.38 1058.22 2374.13 1074.09 2366.97 1089.84 2359.8 1105.58 2352.28 1120.52 2344.42 1134.66 2347.87 1151.62 2352.38 1164.92 2357.96 1174.57 2363.54 1184.21 2369.72 1189.03 2376.51 1189.03 2381.27 1189.03 2386.07 1186.97 2390.9 1182.84 2395.74 1178.72 2400.33 1173.64 2404.68 1167.6 2409.03 1161.56 2412.89 1155.34 2416.26 1148.96 2419.63 1142.56 2422.25 1137.41 2424.12 1133.49 2425.23 1131.24 2426.82 1129.49 2428.88 1128.23L2431.47 1127.5 2431.7 1125.76C2433.64 1119.07 2436.5 1113.14 2440.29 1107.98 2444.08 1102.81 2448.67 1098.73 2454.06 1095.74 2459.45 1092.75 2465.36 1091.26 2471.78 1091.26 2475.64 1091.26 2479.54 1092.09 2483.47 1093.75 2487.39 1095.41 2490.88 1097.72 2493.92 1100.68 2496.96 1103.64 2499.41 1107.24 2501.27 1111.45 2503.12 1115.67 2504.05 1120.37 2504.05 1125.55 2504.05 1132.03 2502.93 1138.15 2500.69 1143.91 2498.46 1149.67 2495.45 1154.95 2491.66 1159.74 2487.87 1164.54 2483.3 1168.99 2477.96 1173.09 2472.61 1177.18 2467.88 1179.88 2463.77 1181.19 2465.83 1182.05 2468.91 1183.57 2473.03 1185.75 2477.14 1187.94 2482.34 1189.03 2488.63 1189.03 2494.96 1189.03 2500.78 1187.47 2506.07 1184.35 2511.37 1181.23 2516.31 1177.04 2520.87 1171.78 2525.44 1166.51 2529.5 1160.67 2533.04 1154.26L2542.52 1135.15 2542.63 1134.55C2549.5 1118.18 2556.09 1105.96 2562.4 1097.89 2568.7 1089.81 2575.43 1085.78 2582.59 1085.78 2586.91 1085.78 2590.62 1086.89 2593.72 1089.13 2596.82 1091.36 2599.18 1094.08 2600.79 1097.31 2602.4 1100.54 2603.58 1104.06 2604.33 1107.88 2605.07 1111.7 2605.44 1115.4 2605.44 1118.97 2605.44 1121.09 2605.25 1125.14 2604.86 1131.14 2604.46 1137.13 2603.98 1143.28 2603.4 1149.6L2602.38 1161.33 2609.79 1148.16C2613.28 1142.25 2616.98 1136.34 2620.9 1130.43 2624.81 1124.52 2628.97 1118.81 2633.39 1113.32 2637.99 1107.76 2642.77 1103.67 2647.7 1101.07 2652.64 1098.48 2657.35 1097.18 2661.83 1097.18 2671.12 1097.18 2677.95 1100.5 2682.31 1107.13 2686.67 1113.78 2688.85 1121.59 2688.85 1130.58 2688.85 1132.16 2688.72 1134.56 2688.46 1137.79 2688.2 1141.02 2687.97 1144.05 2687.76 1146.87 2687.56 1149.69 2687.36 1152.5 2687.17 1155.29 2686.97 1158.09 2686.88 1161.11 2686.88 1164.35 2686.88 1167.96 2687.04 1171.18 2687.36 1174 2687.68 1176.82 2688.22 1179.15 2689 1180.98 2689.78 1182.82 2690.73 1184.15 2691.84 1184.96 2692.95 1185.77 2694.55 1186.18 2696.64 1186.18 2701.13 1186.18 2705.7 1184.27 2710.37 1180.44 2715.03 1176.61 2719.51 1171.83 2723.82 1166.11 2728.12 1160.39 2731.92 1154.46 2735.2 1148.33 2738.48 1142.19 2741.1 1136.81 2743.06 1132.17 2743.61 1130.96 2744.94 1129.69 2747.06 1128.35 2749.19 1127.01 2751.49 1126.33 2753.99 1126.33L2756.57 1127.48 2756.64 1127.07C2759.28 1118.89 2762.9 1111.76 2767.49 1105.68 2772.08 1099.6 2777.55 1094.73 2783.9 1091.06 2790.25 1087.39 2797.01 1085.56 2804.2 1085.56 2809.58 1085.56 2814.55 1086.53 2819.11 1088.48 2823.68 1090.42 2827.52 1093.01 2830.66 1096.23 2833.79 1099.45 2836.24 1102.99 2837.99 1106.85 2839.75 1110.71 2840.63 1114.6 2840.63 1118.53 2840.63 1122.07 2840.16 1125.46 2839.23 1128.69 2838.3 1131.92 2837.1 1134.77 2835.65 1137.26 2834.19 1139.75 2832.33 1141.86 2830.07 1143.61 2827.81 1145.36 2825.32 1146.24 2822.59 1146.24 2818.77 1146.24 2815.68 1145.01 2813.33 1142.54 2810.98 1140.08 2809.8 1137.04 2809.8 1133.44 2809.8 1131.41 2810.14 1129.83 2810.81 1128.68 2811.48 1127.53 2812.12 1126.51 2812.73 1125.63 2813.35 1124.74 2813.85 1123.76 2814.25 1122.68 2814.64 1121.61 2814.84 1120.3 2814.84 1118.75 2814.84 1117.11 2813.86 1115.44 2811.9 1113.72 2809.95 1112.02 2807.38 1111.16 2804.2 1111.16 2801.13 1111.16 2798.04 1112.19 2794.96 1114.25 2791.88 1116.31 2789.09 1119.2 2786.61 1122.93 2784.13 1126.66 2782.12 1131.13 2780.56 1136.32 2779.01 1141.52 2778.24 1147.06 2778.24 1152.95 2778.24 1158.74 2778.9 1164.07 2780.22 1168.96 2781.54 1173.85 2783.49 1178.14 2786.08 1181.83 2788.66 1185.52 2791.83 1188.41 2795.57 1190.5 2799.31 1192.59 2803.87 1193.63 2809.24 1193.63 2816.61 1193.63 2823.37 1192.33 2829.51 1189.72 2835.65 1187.12 2841.38 1183.71 2846.7 1179.51 2852.02 1175.3 2856.74 1170.68 2860.84 1165.64 2864.95 1160.6 2868.41 1155.92 2871.22 1151.6 2874.03 1147.27 2876.27 1143.41 2877.93 1140.02 2879.59 1136.62 2880.54 1134.55 2880.79 1133.8 2881.77 1131.35 2883.35 1129.49 2885.52 1128.23L2888.74 1127.35 2888.95 1125.76C2890.89 1119.07 2893.76 1113.14 2897.54 1107.98 2901.33 1102.81 2905.92 1098.73 2911.31 1095.74 2916.7 1092.75 2922.61 1091.26 2929.03 1091.26 2932.89 1091.26 2936.79 1092.09 2940.72 1093.75 2944.65 1095.41 2948.13 1097.72 2951.17 1100.68 2954.21 1103.64 2956.66 1107.24 2958.52 1111.45 2960.37 1115.67 2961.3 1120.37 2961.3 1125.55 2961.3 1132.03 2960.18 1138.15 2957.94 1143.91 2955.71 1149.67 2952.7 1154.95 2948.91 1159.74 2945.12 1164.54 2940.55 1168.99 2935.21 1173.09 2929.86 1177.18 2925.13 1179.88 2921.02 1181.19 2923.08 1182.05 2926.17 1183.57 2930.28 1185.75 2934.39 1187.94 2939.59 1189.03 2945.88 1189.03 2952.21 1189.03 2958.03 1187.47 2963.33 1184.35 2968.62 1181.23 2973.56 1177.04 2978.12 1171.78 2982.69 1166.51 2986.75 1160.67 2990.29 1154.26 2993.83 1147.85 2997.21 1141.03 3000.43 1133.81 3001.54 1131.38 3003.14 1129.53 3005.22 1128.25 3007.31 1126.97 3009.57 1126.33 3011.99 1126.33 3015.92 1126.33 3019.07 1127.69 3021.44 1130.4 3023.82 1133.12 3025 1136.03 3025 1139.13 3025 1140.19 3024.87 1141.18 3024.61 1142.08 3024.35 1142.99 3024.06 1143.78 3023.72 1144.45 3013.44 1167.14 3002.01 1184.43 2989.44 1196.32 2976.87 1208.21 2962.42 1214.32 2946.1 1214.63 2935.64 1214.63 2926.64 1212.62 2919.08 1208.6 2911.53 1204.59 2905.28 1199.35 2900.34 1192.88 2895.4 1186.42 2891.78 1179.28 2889.48 1171.46L2889.32 1170.32 2877.52 1185.57C2872.44 1191.42 2866.53 1196.82 2859.81 1201.8 2853.09 1206.77 2845.51 1210.88 2837.08 1214.14 2828.64 1217.39 2819.43 1219.02 2809.45 1219.02 2800.33 1219.02 2792.3 1217.4 2785.36 1214.16 2778.42 1210.92 2772.47 1206.3 2767.5 1200.27 2762.52 1194.25 2758.81 1187.32 2756.35 1179.48L2754.44 1165.77 2744.83 1180.43C2741.11 1185.65 2736.83 1190.58 2731.98 1195.21 2727.12 1199.84 2721.77 1203.76 2715.92 1206.97 2710.06 1210.18 2703.78 1211.79 2697.07 1211.79 2689.6 1211.79 2683.48 1210.3 2678.74 1207.33 2673.99 1204.36 2670.28 1200.49 2667.61 1195.72 2664.94 1190.96 2663.18 1185.94 2662.34 1180.68 2661.51 1175.42 2661.09 1169.97 2661.09 1164.35 2661.09 1161.92 2661.2 1159.25 2661.43 1156.34 2661.66 1153.43 2661.96 1150.43 2662.33 1147.35 2662.69 1144.26 2662.98 1141.27 2663.19 1138.37 2663.39 1135.47 2663.5 1132.73 2663.5 1130.15 2663.5 1126.62 2663.16 1124.48 2662.5 1123.71 2661.83 1122.95 2661.61 1122.56 2661.83 1122.56 2660.72 1122.56 2658.98 1123.64 2656.59 1125.79 2654.21 1127.95 2651.39 1131.2 2648.13 1135.55 2644.87 1139.9 2641.56 1144.76 2638.19 1150.15 2634.82 1155.53 2631.66 1160.89 2628.71 1166.23 2625.76 1171.56 2623.08 1176.53 2620.68 1181.12 2618.29 1185.72 2616.42 1189.2 2615.07 1191.55 2611.52 1199.6 2607.92 1204.95 2604.27 1207.6 2600.63 1210.24 2596.76 1211.57 2592.66 1211.57 2587.12 1211.57 2582.66 1209.87 2579.27 1206.47 2575.88 1203.08 2574.18 1198.39 2574.18 1192.41 2574.18 1191.1 2574.33 1188.95 2574.62 1185.96 2574.91 1182.96 2575.28 1179.31 2575.74 1175 2576.19 1170.69 2576.63 1166.21 2577.05 1161.55 2577.47 1156.9 2577.91 1152.15 2578.35 1147.31 2578.8 1142.48 2579.16 1138.06 2579.45 1134.08 2579.73 1130.09 2579.87 1126.81 2579.87 1124.23L2579.57 1116.45 2578.79 1118.67C2577.29 1120.91 2575.54 1124.14 2573.51 1128.35L2566.76 1143.69 2566.47 1144.45C2556.19 1167.14 2544.76 1184.43 2532.19 1196.32 2519.62 1208.21 2505.17 1214.32 2488.85 1214.63 2478.39 1214.63 2469.38 1212.62 2461.83 1208.6 2454.27 1204.59 2448.03 1199.35 2443.09 1192.88L2432.49 1171.97 2422.22 1186.74C2418.33 1191.76 2414.01 1196.34 2409.26 1200.47 2404.52 1204.6 2399.37 1207.99 2393.82 1210.65 2388.27 1213.3 2382.28 1214.63 2375.85 1214.63 2365.95 1214.63 2357.54 1211.65 2350.62 1205.68 2343.69 1199.72 2337.94 1192.14 2333.35 1182.95L2327.53 1166.66 2318.61 1180.16C2314.6 1185.73 2310.12 1190.82 2305.19 1195.45 2300.25 1200.09 2294.83 1203.97 2288.9 1207.09 2282.98 1210.22 2276.63 1211.79 2269.84 1211.79 2260.18 1211.79 2252.11 1208.76 2245.65 1202.69 2239.19 1196.63 2235.54 1190.16 2234.72 1183.29 2232.84 1190.76 2228.17 1197.16 2220.71 1202.49 2213.26 1207.81 2205.56 1210.47 2197.61 1210.47 2191.47 1210.47 2185.94 1209.36 2181.02 1207.14 2176.1 1204.93 2171.9 1201.78 2168.41 1197.7 2164.91 1193.62 2162.25 1188.95 2160.42 1183.69L2157.69 1166.4 2154.85 1171.19C2149 1179.1 2142.68 1186.8 2135.89 1194.3 2129.09 1201.8 2122.43 1208.86 2115.9 1215.47 2109.37 1222.08 2103.65 1228.14 2098.75 1233.65 2098.24 1242.56 2098.28 1252.28 2098.88 1262.79 2099.49 1273.3 2099.79 1283.89 2099.79 1294.56 2099.79 1303.32 2099.48 1312.69 2098.85 1322.68 2098.23 1332.66 2097.26 1341.93 2095.95 1350.48 2094.63 1359.03 2092.81 1367.15 2090.47 1374.84 2088.14 1382.52 2085.06 1389.36 2081.24 1395.34 2077.42 1401.33 2072.86 1406.1 2067.57 1409.66 2062.28 1413.22 2055.99 1415 2048.69 1415 2036.82 1415 2027.75 1410.94 2021.47 1402.83 2015.18 1394.72 2012.04 1383.69 2012.04 1369.75 2012.04 1362.42 2012.83 1354.65 2014.39 1346.44 2015.96 1338.23 2018.17 1329.73 2021.02 1320.94 2023.87 1312.15 2027.27 1303.28 2031.21 1294.34 2035.15 1285.4 2039.35 1276.84 2043.79 1268.66 2048.23 1260.49 2053.13 1252.45 2058.5 1244.54 2063.86 1236.64 2068.83 1230.01 2073.41 1224.66 2073.67 1218.31 2073.98 1211.42 2074.34 1203.98 2074.7 1196.54 2075.1 1191.25 2075.53 1188.11 2077.12 1193.83 2074.76 1198.99 2068.46 1203.58 2062.16 1208.17 2055.13 1210.47 2047.38 1210.47 2034.87 1210.47 2025.09 1206.28 2018.03 1197.9 2010.98 1189.52 2007.45 1178.26 2007.45 1164.13 2007.45 1154.18 2008.37 1145.24 2010.22 1137.32 2012.07 1129.41 2014.12 1122.44 2016.38 1116.42 2018.65 1110.4 2022.1 1105.5 2026.73 1101.73 2031.36 1097.96 2033.68 1096.15 2033.68 1096.3 2030.55 1093.81 2031.25 1092.57 2035.77 1092.57 2039.66 1092.57 2042.8 1093.89 2045.19 1096.51 2047.59 1099.14 2048.78 1102.09 2048.78 1105.38 2048.78 1107.85 2048.34 1107.83 2047.47 1105.29 2047.61 1105.14 2046.84 1107.4 2045.16 1112.06 2043.47 1116.73 2041.77 1121.33 2040.06 1125.87 2038.34 1130.41 2036.74 1135.95 2035.25 1142.47 2033.76 1148.99 2033.02 1156.13 2033.02 1163.91 2033.02 1171.2 2034.12 1176.55 2036.32 1179.96 2038.52 1183.38 2042.06 1185.08 2046.94 1185.08 2053.47 1185.08 2059.83 1179.39 2066.02 1167.99 2072.21 1156.6 2077.57 1139.67 2082.09 1117.22 2082.56 1113.81 2083.95 1111.11 2086.27 1109.13 2088.6 1107.15 2091.32 1106.17 2094.44 1106.17 2098.09 1106.17 2101.17 1107.42 2103.68 1109.94 2106.19 1112.45 2107.45 1115.46 2107.45 1118.97 2107.45 1119.38 2107.14 1122.11 2106.52 1127.14 2105.9 1132.17 2105.19 1138.64 2104.39 1146.52 2103.59 1154.41 2102.75 1163.54 2101.88 1173.92 2101.01 1184.3 2100.31 1193.72 2099.79 1202.18 2102.97 1197.07 2106.31 1192.12 2109.82 1187.32 2113.33 1182.53 2117.57 1177.21 2122.55 1171.34 2127.52 1165.48 2132.07 1159.51 2136.18 1153.44 2140.29 1147.37 2143.99 1140.81 2147.28 1133.78 2148.36 1131.37 2149.94 1129.53 2152.03 1128.25 2154.12 1126.97 2156.38 1126.33 2158.8 1126.33L2166.92 1129.83 2179.57 1111.23C2186.01 1104.94 2193.11 1100.22 2200.89 1097.08 2208.67 1093.93 2216.18 1092.36 2223.44 1092.36 2228.32 1092.36 2232.92 1093.06 2237.24 1094.48 2241.56 1095.89 2245.15 1097.37 2248.02 1098.92 2250.88 1100.47 2253.13 1101.94 2254.77 1103.33 2256.41 1104.72 2257.32 1105.49 2257.49 1105.63 2260.1 1108.72 2261.4 1111.77 2261.4 1114.8 2261.4 1118.17 2260.16 1121.14 2257.7 1123.73 2255.23 1126.31 2252.2 1127.61 2248.61 1127.61 2244.97 1127.61 2241.93 1126.38 2239.49 1123.93 2239.26 1123.71 2238.75 1123.28 2237.96 1122.66 2237.17 1122.03 2236 1121.34 2234.45 1120.56 2232.91 1119.79 2231.13 1119.13 2229.09 1118.57 2227.06 1118.02 2224.74 1117.74 2222.12 1117.74 2218.25 1117.74 2214.04 1118.65 2209.49 1120.48 2204.94 1122.3 2200.77 1125.15 2196.97 1129.01 2193.18 1132.87 2189.98 1137.78 2187.37 1143.73 2184.77 1149.69 2183.47 1156.85 2183.47 1165.22 2183.47 1167.92 2183.71 1170.44 2184.19 1172.79 2184.67 1175.14 2185.47 1177.21 2186.6 1179.02 2187.72 1180.82 2189.18 1182.24 2190.96 1183.29 2192.74 1184.34 2195.03 1184.86 2197.82 1184.86 2199.78 1184.86 2202.17 1184.15 2204.98 1182.71 2207.8 1181.27 2210.6 1178.92 2213.39 1175.67 2216.18 1172.42 2218.78 1168.19 2221.17 1162.99 2223.56 1157.79 2225.24 1151.62 2226.19 1144.46 2226.64 1141.33 2228.09 1138.69 2230.57 1136.56 2233.04 1134.42 2235.92 1133.35 2239.2 1133.35 2242.6 1133.35 2245.48 1134.58 2247.83 1137.05 2250.18 1139.52 2251.47 1142.27 2251.68 1145.31 2251.82 1147.99 2252.11 1151.78 2252.53 1156.69 2252.96 1161.59 2253.88 1166.36 2255.31 1170.98 2256.73 1175.6 2258.63 1179.32 2261.01 1182.15 2263.38 1184.98 2266.55 1186.4 2270.5 1186.4 2273.23 1186.4 2276.05 1185.6 2278.95 1183.99 2281.85 1182.39 2284.83 1180.12 2287.9 1177.18 2290.97 1174.24 2293.96 1170.81 2296.88 1166.89 2299.8 1162.96 2302.43 1159.07 2304.77 1155.21 2307.11 1151.35 2309.33 1147.31 2311.44 1143.1 2313.54 1138.89 2315.03 1135.85 2315.89 1134L2318.49 1130.95 2316.06 1117.62C2314.58 1105.89 2313.58 1094.45 2313.06 1083.3 2312.54 1072.15 2312.28 1062.27 2312.28 1053.64 2312.28 1041.23 2312.69 1028.34 2313.51 1014.98 2314.32 1001.62 2315.61 988.651 2317.36 976.065 2319.11 963.48 2321.36 951.494 2324.09 940.106 2326.82 928.719 2330.13 918.589 2334.03 909.716 2337.92 900.844 2342.6 893.589 2348.07 887.95 2353.53 882.311 2359.95 879.491 2367.32 879.491ZM1615.23 867C1637.26 867 1657.6 869.209 1676.23 873.63 1694.86 878.051 1711.01 884.483 1724.68 892.926 1738.35 901.371 1749.05 911.811 1756.76 924.25 1764.48 936.687 1768.33 950.735 1768.33 966.391 1768.33 987.01 1762.42 1005.72 1750.6 1022.52 1738.78 1039.33 1722.44 1052.25 1701.57 1061.28 1709.02 1065.68 1715.15 1072.65 1719.96 1082.2 1724.76 1091.75 1728.32 1101.28 1730.61 1110.78 1732.91 1120.28 1734.39 1129.34 1735.06 1137.98 1735.73 1146.61 1736.22 1153.82 1736.51 1159.61 1736.8 1167.67 1737.51 1174.11 1738.67 1178.93 1739.82 1183.75 1741.29 1187.31 1743.07 1189.62 1744.86 1191.93 1747.01 1193.5 1749.54 1194.34 1752.07 1195.19 1755.46 1195.61 1759.71 1195.61 1765.53 1195.61 1770.91 1194.21 1775.85 1191.4 1780.8 1188.6 1785.4 1184.96 1789.66 1180.49 1793.92 1176.02 1797.67 1171.18 1800.94 1165.97 1804.2 1160.75 1806.99 1155.79 1809.31 1151.07 1811.62 1146.36 1813.33 1142.6 1814.44 1139.79 1815.54 1136.98 1816.09 1135.51 1816.09 1135.38 1818.5 1129.35 1822.55 1126.33 1828.23 1126.33 1832.11 1126.33 1835.24 1127.65 1837.64 1130.27L1839.19 1134.08 1839.22 1133.89C1842.85 1126.4 1846.98 1120.21 1851.63 1115.33 1856.28 1110.44 1861.1 1106.7 1866.1 1104.12 1871.09 1101.54 1875.02 1100.25 1877.88 1100.25 1881.68 1100.25 1884.66 1101.38 1886.8 1103.65L1889.62 1110.96 1892.18 1102.63C1896.96 1096.36 1903.36 1093.23 1911.37 1093.23 1916.09 1093.23 1920.56 1094.38 1924.78 1096.66 1929 1098.95 1932.63 1102.41 1935.69 1107.04 1938.74 1111.68 1941.12 1117.41 1942.83 1124.25 1944.54 1131.09 1945.39 1139.12 1945.39 1148.34L1943.75 1158.78 1944.43 1158.78C1948.98 1158.78 1953 1158.26 1956.5 1157.22 1959.99 1156.18 1963.12 1154.66 1965.89 1152.65 1968.65 1150.64 1971.22 1147.93 1973.59 1144.54 1975.96 1141.15 1978.24 1137.18 1980.44 1132.61 1981.29 1130.87 1982.83 1129.39 1985.05 1128.17 1987.26 1126.94 1989.48 1126.33 1991.71 1126.33 1994.84 1126.33 1997.72 1127.53 2000.34 1129.93 2002.97 1132.33 2004.28 1135.4 2004.28 1139.13 2004.28 1140.77 2003.85 1142.6 2003 1144.62 2002.15 1146.64 2001.6 1147.91 2001.35 1148.42 1998.52 1153.42 1995.35 1158.06 1991.84 1162.35 1988.34 1166.64 1984.16 1170.42 1979.33 1173.68 1974.49 1176.93 1969.11 1179.49 1963.18 1181.36 1957.25 1183.23 1950.51 1184.09 1942.94 1183.94 1938.98 1183.94 1936.69 1183.65 1936.09 1183.07 1934.84 1186.03 1932.55 1189.54 1929.23 1193.58 1925.91 1197.62 1922.07 1201.14 1917.71 1204.16 1913.36 1207.17 1908.45 1209.56 1903 1211.33 1897.55 1213.09 1891.65 1213.98 1885.32 1213.98 1877.85 1213.98 1870.98 1212.65 1864.73 1210 1858.48 1207.35 1853.02 1203.65 1848.36 1198.91 1843.7 1194.16 1840.11 1188.51 1837.58 1181.94 1835.05 1175.38 1833.79 1168.12 1833.79 1160.18L1834.22 1158.12 1831.07 1164.76C1828.11 1170.31 1824.35 1176.37 1819.77 1182.94 1815.19 1189.52 1809.91 1195.57 1803.93 1201.1 1797.95 1206.64 1791.05 1211.3 1783.25 1215.09 1775.45 1218.88 1766.8 1220.77 1757.3 1220.77 1748.85 1220.77 1741.7 1219.37 1735.86 1216.57 1730.03 1213.78 1725.27 1209.72 1721.6 1204.41 1717.92 1199.09 1715.28 1192.87 1713.67 1185.73 1712.07 1178.6 1711.11 1170.45 1710.81 1161.27 1710.67 1157.79 1710.45 1153.62 1710.17 1148.74 1709.89 1143.87 1709.35 1138.63 1708.55 1133.01 1707.75 1127.39 1706.64 1121.66 1705.21 1115.82 1703.79 1109.98 1701.83 1104.36 1699.34 1098.95 1696.85 1093.54 1693.76 1088.45 1690.09 1083.68 1686.41 1078.91 1682.53 1074.99 1678.46 1071.92 1668.28 1075.71 1657.16 1078.67 1645.12 1080.79 1633.07 1082.91 1621.9 1084.03 1611.6 1084.15L1611.6 1086.3C1611.6 1104.55 1609.76 1121.75 1606.08 1137.91 1602.41 1154.08 1596.36 1168.24 1587.96 1180.4 1579.56 1192.56 1568.66 1202.15 1555.28 1209.16 1541.9 1216.17 1525.69 1219.68 1506.65 1219.68 1497.15 1219.68 1487.79 1218.42 1478.57 1215.9 1469.34 1213.38 1460.75 1209.92 1452.79 1205.51 1444.84 1201.11 1437.69 1195.9 1431.36 1189.86 1425.03 1183.83 1420.04 1177.3 1416.39 1170.3 1415.21 1168.41 1414.62 1166.28 1414.62 1163.91 1414.62 1160.68 1415.8 1157.77 1418.15 1155.19 1420.5 1152.61 1423.58 1151.32 1427.41 1151.32 1432.44 1151.32 1435.63 1152.71 1436.96 1155.49 1441.13 1162.42 1445.59 1168.12 1450.34 1172.61 1455.09 1177.09 1460.51 1180.98 1466.59 1184.28 1472.68 1187.57 1479.08 1190.1 1485.79 1191.86 1492.51 1193.63 1499.46 1194.51 1506.65 1194.51 1520.98 1194.51 1533.14 1192.01 1543.13 1187.01 1553.12 1182.01 1561.27 1174.86 1567.6 1165.56 1573.93 1156.27 1578.58 1144.91 1581.56 1131.48 1584.54 1118.06 1586.03 1103 1586.03 1086.3L1586.03 1081.01C1582.51 1079.84 1578.97 1077.47 1575.4 1073.89 1571.83 1070.32 1570.05 1065.76 1570.05 1060.21 1570.05 1054.88 1571.73 1050.26 1575.1 1046.35 1578.46 1042.45 1582.11 1039.71 1586.03 1038.14 1586.03 1036.69 1586.1 1034.24 1586.26 1030.81 1586.41 1027.37 1586.63 1024.13 1586.9 1021.07 1587.81 1010.21 1589.5 1000.5 1591.97 991.93 1594.45 983.359 1597.39 975.813 1600.8 969.289 1604.21 962.765 1607.78 957.174 1611.5 952.513 1615.22 947.854 1618.68 944.034 1621.89 941.058 1625.09 938.081 1627.85 935.848 1630.16 934.355 1632.48 932.865 1633.86 932.006 1634.3 931.783 1635.71 930.974 1637.53 930.572 1639.75 930.572 1643.17 930.572 1646.19 931.771 1648.82 934.171 1651.44 936.571 1652.75 939.64 1652.75 943.375 1652.75 948.291 1650.61 951.995 1646.32 954.484 1645.55 954.993 1643.7 956.317 1640.75 958.45 1637.8 960.586 1634.42 964.239 1630.62 969.409 1626.82 974.581 1623.08 981.598 1619.39 990.46 1615.71 999.321 1613.37 1010.39 1612.35 1023.66 1612.08 1025.82 1611.91 1028.03 1611.84 1030.3 1611.77 1032.58 1611.69 1033.24 1611.6 1032.29 1610.38 1032.08 1611.46 1031.85 1614.85 1031.58 1618.23 1031.32 1621.35 1031.19 1624.21 1031.19 1635.01 1031.19 1645.51 1032.41 1655.72 1034.85 1665.92 1037.29 1674.64 1040.6 1681.88 1044.79 1700.97 1036.83 1715.86 1026.2 1726.53 1012.87 1737.21 999.54 1742.54 984.777 1742.54 968.584 1742.54 956.63 1739.55 945.987 1733.57 936.661 1727.59 927.335 1719.03 919.376 1707.9 912.784 1696.76 906.194 1683.3 901.108 1667.51 897.531 1651.72 893.951 1634.43 892.163 1615.66 892.163 1599.32 892.163 1582.52 893.429 1565.26 895.958 1548.01 898.488 1531.3 902.292 1515.16 907.368 1499.01 912.444 1483.98 918.677 1470.07 926.067 1456.17 933.458 1444.07 941.911 1433.79 951.43 1423.51 960.946 1415.44 971.505 1409.58 983.102 1403.72 994.702 1400.79 1007.25 1400.79 1020.76 1400.79 1030.71 1402.48 1039.36 1405.85 1046.73 1409.23 1054.09 1413.72 1060.25 1419.34 1065.2 1424.95 1070.14 1431.39 1073.86 1438.64 1076.35 1445.89 1078.84 1453.6 1080.08 1461.77 1080.08 1471.73 1080.08 1480.35 1079.12 1487.62 1077.19 1494.9 1075.26 1501.07 1073.14 1506.13 1070.82 1511.18 1068.5 1514.94 1066.38 1517.38 1064.46 1519.83 1062.54 1521.27 1061.36 1521.7 1060.92 1522.89 1060.1 1524.35 1059.07 1526.08 1057.83 1527.81 1056.59 1529.87 1055.96 1532.26 1055.96 1535.72 1055.96 1538.72 1057.17 1541.25 1059.6 1543.78 1062.02 1545.05 1065 1545.05 1068.55 1545.05 1072.19 1543.76 1075.18 1541.18 1077.53 1541.03 1077.68 1539.1 1079.3 1535.38 1082.39 1531.66 1085.48 1526.46 1088.7 1519.79 1092.04 1513.12 1095.38 1504.97 1098.41 1495.35 1101.15 1485.72 1103.88 1474.68 1105.24 1462.21 1105.24 1450.48 1105.24 1439.39 1103.34 1428.95 1099.52 1418.5 1095.7 1409.24 1090.14 1401.16 1082.83 1393.09 1075.52 1386.71 1066.67 1382.03 1056.29 1377.34 1045.91 1375 1034.07 1375 1020.76 1375 1006.18 1377.95 992.28 1383.84 979.046 1389.73 965.81 1398.03 953.453 1408.74 941.973 1419.45 930.493 1432.19 920.158 1446.97 910.967 1461.74 901.775 1477.96 893.925 1495.6 887.419 1513.25 880.911 1532.2 875.882 1552.45 872.328 1572.7 868.775 1593.63 867 1615.23 867Z" fill="#FFFFFF" fill-rule="evenodd"/>
  </g>
</svg>