<svg width="3300" height="1899" xmlns="http://www.w3.org/2000/svg" xmlns:xlink="http://www.w3.org/1999/xlink" xml:space="preserve" overflow="hidden"><defs><clipPath id="clip0"><rect x="550" y="288" width="3300" height="1899"/></clipPath></defs><g clip-path="url(#clip0)" transform="translate(-550 -288)"><path d="M3282.46 1369.73C3259.65 1369.73 3239.92 1375.89 3223.27 1388.22 3206.63 1400.55 3196.15 1415.34 3191.83 1432.59 3189.98 1439.99 3183.2 1468.96 3171.48 1519.5 3165.93 1549.08 3159.15 1578.36 3151.14 1607.33 3151.14 1630.13 3158.84 1647.85 3174.26 1660.49 3189.67 1673.12 3206.01 1679.44 3223.27 1679.44 3238.07 1679.44 3253.95 1674.2 3270.9 1663.72 3287.86 1653.25 3298.8 1642.46 3303.74 1631.37 3308.67 1606.71 3315.76 1578.67 3325.01 1547.23 3337.34 1505.94 3345.35 1472.66 3349.05 1447.39 3335.49 1430.13 3326.24 1409.17 3321.31 1384.52 3321.31 1382.05 3320.84 1380.05 3319.92 1378.51 3318.99 1376.97 3316.99 1375.89 3313.91 1375.27 3304.66 1371.58 3294.18 1369.73 3282.46 1369.73ZM2015.88 1325.35C2019.58 1325.35 2025.9 1327.2 2034.84 1330.9 2043.78 1334.6 2049.49 1337.68 2051.95 1340.14L2043.63 1369.73C2041.78 1377.12 2037.62 1392.38 2031.14 1415.49 2024.67 1438.6 2018.66 1462.49 2013.11 1487.14 2032.22 1453.86 2052.11 1426.28 2072.76 1404.4 2093.42 1382.52 2112.38 1366.49 2129.64 1356.32 2146.9 1346.15 2160.16 1341.07 2169.41 1341.07 2176.19 1341.07 2184.82 1344.77 2195.3 1352.16 2205.78 1359.56 2211.02 1365.72 2211.02 1370.65 2205.48 1404.55 2197.46 1442.76 2186.98 1485.29 2212.26 1450.78 2242.47 1416.42 2277.61 1382.21 2312.76 1348 2339.58 1330.9 2358.07 1330.9 2366.7 1330.9 2375.95 1334.29 2385.82 1341.07 2395.68 1347.85 2400.92 1355.86 2401.54 1365.1 2381.81 1426.12 2366.55 1476.36 2355.76 1515.8 2344.97 1555.25 2339.58 1590.69 2339.58 1622.12 2339.58 1640.61 2342.66 1654.02 2348.82 1662.34 2354.99 1670.66 2366.09 1674.82 2382.12 1674.82 2419.73 1674.82 2456.1 1654.33 2491.25 1613.34 2508.82 1592.84 2524.31 1570.54 2537.72 1546.43L2564.62 1484.88 2575.69 1436.29C2586.79 1386.37 2593.57 1356.48 2596.03 1346.62 2604.05 1333.06 2615.15 1326.28 2629.33 1326.28 2638.58 1326.28 2643.2 1329.36 2643.2 1335.52 2638.89 1350.93 2632.87 1375.43 2625.17 1409.02 2617.46 1442.61 2611.45 1468.96 2607.13 1488.07 2590.48 1564.49 2579.08 1613.49 2572.91 1635.06 2572.91 1649.24 2577.08 1660.18 2585.4 1667.88 2593.72 1675.59 2604.67 1679.44 2618.23 1679.44 2649.06 1679.44 2680.04 1668.5 2711.18 1646.62 2742.31 1624.74 2769.75 1599.32 2793.49 1570.35L2822.49 1529.51 2844.65 1433.52C2852.04 1400.24 2857.9 1374.35 2862.22 1355.86 2864.68 1346 2868.07 1339.22 2872.39 1335.52 2876.71 1331.82 2883.49 1329.97 2892.74 1329.97 2900.75 1329.97 2908.77 1331.51 2916.78 1334.6L2846.5 1630.44C2846.5 1639.69 2850.35 1648.32 2858.06 1656.33 2865.76 1664.34 2874.24 1668.35 2883.49 1668.35 2897.05 1668.35 2918.02 1659.41 2946.38 1641.54 2974.74 1623.66 2993.85 1608.25 3003.72 1595.31 3017.28 1562.03 3028.38 1528.75 3037.01 1495.46 3045.64 1462.18 3055.51 1419.96 3066.61 1368.8L3075.85 1326.28C3083.87 1326.28 3092.96 1329.51 3103.14 1335.98 3113.31 1342.45 3119.63 1349.7 3122.1 1357.71 3114.7 1382.36 3107.61 1408.25 3100.82 1435.37 3097.74 1445.85 3091.27 1468.81 3081.4 1504.24 3071.54 1539.68 3058.59 1582.98 3042.56 1634.14 3006.8 1746.93 2971.5 1841.08 2936.67 1916.58 2901.83 1992.08 2854.2 2056.03 2793.78 2108.42 2733.36 2160.81 2658.14 2187 2568.12 2187 2523.11 2187 2485.5 2180.22 2455.29 2166.66 2425.08 2153.1 2402.73 2135.54 2388.24 2113.96 2373.75 2092.39 2366.51 2068.66 2366.51 2042.78 2366.51 2034.15 2367.43 2027.52 2369.28 2022.9 2371.13 2018.28 2372.67 2014.12 2373.91 2010.42 2393.02 2049.25 2418.45 2078.68 2450.2 2098.71 2481.96 2118.74 2524.04 2128.76 2576.44 2128.76 2646.73 2128.76 2707.46 2110.73 2758.64 2074.67 2809.81 2038.62 2853.89 1985.92 2890.89 1916.58 2927.88 1847.24 2961.18 1758.95 2990.77 1651.71 2972.27 1668.35 2951.16 1682.68 2927.42 1694.7 2903.68 1706.71 2884.11 1712.72 2868.69 1712.72 2856.98 1712.72 2845.72 1709.02 2834.94 1701.63 2824.15 1694.23 2815.21 1684.83 2808.11 1673.43 2801.02 1662.03 2797.48 1651.4 2797.48 1641.54L2807.39 1597.09 2793.72 1615.42C2775.07 1636.53 2755.41 1655.09 2734.76 1671.12 2693.45 1703.17 2652.14 1719.19 2610.83 1719.19 2589.25 1719.19 2569.98 1711.95 2553.03 1697.47 2536.07 1682.98 2527.6 1661.57 2527.6 1633.22L2534.48 1608.93 2473.68 1673.89C2439.15 1701.01 2405.24 1714.57 2371.94 1714.57 2348.52 1714.57 2329.25 1707.02 2314.14 1691.92 2299.04 1676.82 2291.48 1653.86 2291.48 1623.05 2291.48 1597.78 2295.65 1569.27 2303.97 1537.53 2312.29 1505.79 2323.55 1468.03 2337.73 1424.27 2342.04 1412.56 2346.05 1400.24 2349.75 1387.29 2349.75 1385.44 2348.52 1383.75 2346.05 1382.21 2343.58 1380.67 2341.12 1379.9 2338.65 1379.9 2330.64 1379.9 2314.76 1391.45 2291.02 1414.57 2267.29 1437.68 2243.24 1464.18 2218.89 1494.08 2194.53 1523.97 2178.35 1546.62 2170.33 1562.03 2164.17 1581.13 2153.99 1621.2 2139.81 1682.21 2137.35 1692.69 2135.34 1699.78 2133.8 1703.48 2132.26 1707.18 2129.64 1709.02 2125.94 1709.02 2120.39 1709.02 2114.07 1705.64 2106.98 1698.86 2099.89 1692.08 2096.35 1685.3 2096.35 1678.52 2096.35 1671.74 2099.43 1656.94 2105.59 1634.14 2131.49 1539.22 2152.45 1456.94 2168.48 1387.29 2164.78 1382.36 2160.16 1379.9 2154.61 1379.9 2145.36 1379.9 2129.64 1391.3 2107.44 1414.1 2085.25 1436.91 2062.13 1465.72 2038.08 1500.55 2014.04 1535.37 1994.3 1569.73 1978.89 1603.63 1969.64 1633.83 1961.32 1668.65 1953.92 1708.1 1947.76 1708.1 1939.74 1705.94 1929.87 1701.63 1920.01 1697.31 1915.08 1693 1915.08 1688.69 1915.08 1683.76 1918.16 1669.89 1924.33 1647.08L1928.93 1629.16 1882.29 1678.52C1847.76 1705.64 1813.23 1719.19 1778.71 1719.19 1755.28 1719.19 1736.93 1712.26 1723.68 1698.39 1710.42 1684.53 1703.79 1665.88 1703.79 1642.46 1703.79 1634.45 1704.41 1627.98 1705.64 1623.05 1692.08 1645.23 1674.35 1666.04 1652.47 1685.45 1630.58 1704.87 1609.15 1714.57 1588.19 1714.57 1570.31 1714.57 1552.74 1707.48 1535.47 1693.31 1518.21 1679.13 1507.73 1664.65 1504.03 1649.86 1503.41 1622.12 1507.27 1590.38 1515.59 1554.63 1523.91 1518.88 1542.87 1449.54 1572.47 1346.62 1576.17 1334.9 1580.48 1329.05 1585.42 1329.05 1590.35 1329.05 1596.82 1331.51 1604.84 1336.45 1612.85 1341.38 1616.86 1346.31 1616.86 1351.24 1616.86 1353.7 1616.09 1357.09 1614.55 1361.41 1613.01 1365.72 1611.93 1369.11 1611.31 1371.58 1571.85 1504.71 1551.2 1592.84 1549.35 1635.99 1552.43 1644 1559.06 1652.17 1569.23 1660.49 1579.4 1668.81 1588.19 1672.97 1595.59 1672.97 1603.6 1672.97 1614.7 1668.19 1628.88 1658.64 1643.06 1649.09 1658.17 1633.37 1674.2 1611.49 1690.23 1589.61 1705.03 1561.1 1718.59 1525.97 1734.62 1483.44 1752.5 1421.19 1772.23 1339.22 1773.47 1332.44 1776.86 1329.05 1782.41 1329.05 1787.34 1329.05 1793.97 1331.67 1802.29 1336.91 1810.61 1342.15 1814.77 1348.16 1814.77 1354.94 1814.77 1360.48 1812 1371.58 1806.45 1388.22 1800.9 1404.86 1797.51 1415.34 1796.28 1419.65 1781.48 1462.8 1769.61 1500.85 1760.67 1533.83 1751.73 1566.8 1747.26 1596.23 1747.26 1622.12 1747.26 1662.18 1761.13 1682.21 1788.88 1682.21 1806.76 1682.21 1827.41 1674.66 1850.84 1659.56 1874.27 1644.46 1898.16 1622.74 1922.52 1594.39L1945.62 1564.21 2002.94 1341.07C2004.17 1335.52 2005.71 1331.51 2007.56 1329.05 2009.41 1326.58 2012.19 1325.35 2015.88 1325.35ZM3346.28 1297.62C3352.44 1297.62 3359.53 1298.54 3367.55 1300.39 3364.47 1317.65 3362.92 1332.44 3362.92 1344.77 3362.92 1380.51 3373.71 1410.72 3395.29 1435.37 3416.87 1460.02 3446.16 1472.35 3483.15 1472.35 3510.9 1472.35 3534.79 1464.95 3554.83 1450.16L3570.1 1434.82 3577.29 1402.61C3584 1372.68 3588.27 1354.01 3590.12 1346.62 3598.14 1333.06 3609.23 1326.28 3623.42 1326.28 3632.66 1326.28 3637.29 1329.36 3637.29 1335.52 3632.97 1350.93 3626.96 1375.43 3619.25 1409.02 3611.55 1442.61 3605.54 1468.96 3601.22 1488.07 3584.57 1564.49 3573.17 1613.49 3567 1635.06 3567 1649.24 3571.16 1660.18 3579.49 1667.88 3587.81 1675.59 3598.75 1679.44 3612.32 1679.44 3643.15 1679.44 3674.13 1668.5 3705.26 1646.62 3736.4 1624.74 3763.84 1599.32 3787.57 1570.35 3811.31 1541.38 3829.04 1516.42 3840.75 1495.46 3844.45 1496.69 3846.92 1498.7 3848.15 1501.47 3849.38 1504.24 3850 1509.02 3850 1515.8 3850 1525.05 3846.92 1534.6 3840.75 1544.46 3807.46 1596.85 3770.16 1639.07 3728.85 1671.12 3687.54 1703.17 3646.23 1719.19 3604.92 1719.19 3583.34 1719.19 3564.07 1711.95 3547.12 1697.47 3530.16 1682.98 3521.68 1661.57 3521.68 1633.22 3528.62 1611.03 3539.37 1568.56 3553.94 1505.81L3560.06 1478.92 3542.8 1492.69C3521.53 1503.17 3498.26 1508.41 3472.98 1508.41 3439.07 1508.41 3409.17 1499.16 3383.27 1480.67 3379.57 1498.54 3374.95 1516.73 3369.4 1535.22 3367.55 1542 3363.54 1557.56 3357.37 1581.9 3351.21 1606.25 3346.89 1627.98 3344.43 1647.08 3340.11 1656.94 3331.48 1667.58 3318.53 1678.98 3305.58 1690.38 3290.17 1700.09 3272.29 1708.1 3254.41 1716.11 3236.84 1720.12 3219.57 1720.12 3200.46 1720.12 3181.96 1715.19 3164.08 1705.33 3146.2 1695.47 3131.56 1682.21 3120.16 1665.57 3108.75 1648.93 3103.05 1630.44 3103.05 1610.1 3111.68 1584.22 3118.77 1559.87 3124.32 1537.06 3129.87 1514.26 3135.11 1491.15 3140.04 1467.73L3149.29 1421.5C3152.37 1407.32 3160.69 1393.3 3174.26 1379.44 3187.82 1365.57 3204.32 1354.17 3223.74 1345.23 3243.16 1336.29 3262.73 1331.82 3282.46 1331.82 3289.86 1331.82 3300.34 1333.06 3313.91 1335.52 3315.76 1321.34 3318.99 1311.48 3323.62 1305.94 3328.24 1300.39 3335.8 1297.62 3346.28 1297.62ZM3662.26 1130.28C3672.12 1130.28 3679.37 1133.36 3683.99 1139.52 3688.62 1145.69 3690.93 1153.08 3690.93 1161.71 3690.93 1174.04 3686.77 1185.29 3678.44 1195.46 3670.12 1205.63 3659.79 1210.71 3647.46 1210.71 3638.83 1210.71 3632.05 1207.78 3627.12 1201.93 3622.18 1196.07 3619.72 1188.52 3619.72 1179.28 3619.72 1166.95 3623.72 1155.7 3631.74 1145.53 3639.75 1135.36 3649.93 1130.28 3662.26 1130.28ZM2668.17 1130.28C2678.04 1130.28 2685.28 1133.36 2689.91 1139.52 2694.53 1145.69 2696.84 1153.08 2696.84 1161.71 2696.84 1174.04 2692.68 1185.29 2684.36 1195.46 2676.03 1205.63 2665.7 1210.71 2653.37 1210.71 2644.74 1210.71 2637.96 1207.78 2633.03 1201.93 2628.09 1196.07 2625.63 1188.52 2625.63 1179.28 2625.63 1166.95 2629.64 1155.7 2637.65 1145.53 2645.67 1135.36 2655.84 1130.28 2668.17 1130.28ZM1406.31 1097.92C1361.3 1097.92 1325.39 1108.09 1298.57 1128.43 1285.16 1138.6 1275.1 1150.31 1268.39 1163.56L1261.94 1192.04 1259.62 1211.59 1260.19 1219.07 1264.35 1244.11C1268.35 1255.59 1274.37 1266.49 1282.38 1276.81L1287.82 1282.93 1304.01 1286.48C1323.74 1286.48 1347.33 1278.47 1374.76 1262.44 1402.2 1246.42 1428.25 1224.07 1452.91 1195.41L1488.77 1134 1477.06 1116.87C1461.95 1104.24 1438.37 1097.92 1406.31 1097.92ZM2937.65 961.048C2918.53 961.048 2901.27 966.133 2885.86 976.303 2870.44 986.472 2857.8 998.799 2847.94 1013.28 2838.07 1027.77 2831.91 1040.56 2829.44 1051.65L2792.45 1216.21C2793.68 1231.62 2799.85 1245.49 2810.94 1257.82 2822.04 1270.14 2834.06 1276.31 2847.01 1276.31 2857.49 1276.31 2870.29 1272.61 2885.39 1265.21 2900.5 1257.82 2914.68 1247.19 2927.94 1233.32 2941.19 1219.45 2950.29 1203.58 2955.22 1185.71L2972.79 1109.9C2975.26 1097.57 2979.57 1077.69 2985.74 1050.26 2991.9 1022.84 2996.84 1001.73 3000.53 986.935 2983.27 969.677 2962.31 961.048 2937.65 961.048ZM1190.26 961.048C1171.14 961.048 1153.88 966.133 1138.47 976.303 1123.05 986.472 1110.41 998.799 1100.55 1013.28 1090.68 1027.77 1084.52 1040.56 1082.05 1051.65L1045.06 1216.21C1046.29 1231.62 1052.46 1245.49 1063.56 1257.82 1074.65 1270.14 1086.68 1276.31 1099.62 1276.31 1110.11 1276.31 1122.9 1272.61 1138 1265.21 1153.11 1257.82 1167.29 1247.19 1180.55 1233.32 1193.8 1219.45 1202.9 1203.58 1207.83 1185.71L1225.4 1109.9C1227.87 1097.57 1232.18 1077.69 1238.35 1050.26 1244.51 1022.84 1249.45 1001.73 1253.15 986.935 1235.88 969.677 1214.92 961.048 1190.26 961.048ZM884.79 658.731C920.55 658.731 951.069 664.894 976.348 677.221 1001.63 689.548 1017.97 704.032 1025.36 720.674 1025.36 739.164 1022.59 760.428 1017.04 784.465 1011.49 808.503 1008.1 822.678 1006.87 826.993 998.853 826.993 991.146 825.76 983.746 823.295L986.522 804.805C987.755 793.711 988.371 784.774 988.371 777.993 988.371 749.642 980.818 729.149 965.712 716.513 950.607 703.879 927.024 697.561 894.963 697.561 849.954 697.561 814.04 707.73 787.22 728.07 760.4 748.409 746.99 774.912 746.99 807.578 746.99 832.848 755.005 855.807 771.035 876.455 787.065 897.103 811.728 922.218 845.022 951.802L864.444 969.368C903.903 1005.12 930.877 1034.08 945.366 1056.27 959.855 1078.46 967.1 1104.04 967.1 1133.01 967.1 1174.92 954.307 1210.2 928.719 1238.86 903.132 1267.53 871.071 1288.79 832.537 1302.66 794.002 1316.52 755.313 1323.46 716.47 1323.46 680.71 1323.46 645.566 1318.22 611.039 1307.74 576.512 1297.26 556.166 1285.86 550 1273.53 553.083 1258.74 555.857 1238.56 558.324 1212.98 560.79 1187.4 562.023 1167.83 562.023 1154.27 566.955 1149.96 574.046 1147.8 583.295 1147.8 583.295 1182.93 587.148 1210.36 594.855 1230.08 602.562 1249.81 615.355 1264.13 633.235 1273.07 651.115 1282.01 676.394 1286.48 709.071 1286.48 767.028 1286.48 815.273 1274.3 853.808 1249.96 892.342 1225.61 911.61 1190.94 911.61 1145.95 911.61 1122.53 904.828 1099.26 891.264 1076.15 877.699 1053.04 853.654 1025.46 819.127 993.406L794.156 970.293C762.095 941.325 738.512 916.209 723.406 894.945 708.301 873.681 700.748 847.948 700.748 817.748 700.748 788.163 708.301 761.198 723.406 736.853 738.512 712.507 760.091 693.401 788.145 679.533 816.198 665.665 848.413 658.731 884.79 658.731ZM2007.88 288C2055.97 288 2096.67 302.638 2129.96 331.914 2163.25 361.191 2179.9 405.414 2179.9 464.582 2179.9 467.664 2178.67 470.438 2176.2 472.903 2157.71 429.76 2133.2 398.942 2102.68 380.452 2072.16 361.961 2035.63 352.716 1993.09 352.716 1951.16 352.716 1908.46 371.515 1865 409.112 1821.53 446.709 1779.14 500.485 1737.83 570.44 1696.52 640.395 1657.99 723.139 1622.23 818.672 1604.35 866.131 1588.63 918.058 1575.06 974.454 1564.89 1016.75 1552.81 1069.88 1538.82 1133.85L1529.3 1177.84 1528.39 1184.82C1525.61 1196.84 1523.38 1206.4 1521.68 1213.49L1520.57 1217.92 1515.87 1239.33C1560.26 1178.93 1615.45 1110.2 1681.42 1033.16 1747.39 956.117 1785.31 917.596 1795.17 917.596 1815.52 917.596 1831.86 923.759 1844.19 936.086 1801.65 968.136 1749.55 1018.68 1687.89 1087.71 1698.37 1128.39 1708.7 1161.98 1718.87 1188.48 1729.05 1214.98 1742.46 1237.63 1759.1 1256.43 1775.75 1275.23 1796.4 1284.63 1821.07 1284.63 1837.1 1284.63 1857.91 1273.53 1883.49 1251.35 1909.08 1229.16 1932.97 1200.19 1955.17 1164.44L1980.61 1100.32 1987.26 1075.46C1996.74 1040.79 2008.88 997.72 2023.68 946.256 2027.38 934.545 2031.69 928.69 2036.63 928.69 2041.56 928.69 2048.03 931.156 2056.05 936.086 2064.06 941.017 2068.07 945.947 2068.07 950.878 2068.07 953.344 2067.3 956.734 2065.76 961.048 2064.22 965.362 2063.14 968.753 2062.52 971.217 2023.06 1104.35 2002.41 1192.48 2000.56 1235.63 2003.64 1243.64 2010.27 1251.81 2020.44 1260.13 2030.62 1268.45 2039.4 1272.61 2046.8 1272.61 2054.81 1272.61 2065.91 1267.83 2080.09 1258.28 2094.27 1248.73 2109.38 1233.01 2125.41 1211.13 2141.44 1189.25 2156.24 1160.74 2169.8 1125.61 2185.83 1083.08 2203.71 1020.83 2223.44 938.859 2224.68 932.08 2228.07 928.69 2233.62 928.69 2238.55 928.69 2245.18 931.309 2253.5 936.548 2261.82 941.787 2265.98 947.796 2265.98 954.577 2265.98 960.123 2263.21 971.217 2257.66 987.859 2252.11 1004.5 2248.72 1014.98 2247.49 1019.29 2232.69 1062.44 2220.82 1100.5 2211.88 1133.47 2202.94 1166.44 2198.47 1195.88 2198.47 1221.76 2198.47 1261.82 2212.34 1281.85 2240.09 1281.85 2257.97 1281.85 2278.62 1274.3 2302.05 1259.2 2325.48 1244.1 2349.37 1222.38 2373.73 1194.03 2385.9 1179.85 2397.58 1164.6 2408.76 1148.26L2417.38 1134.2 2435.42 1053.27C2447.6 999.492 2456.46 962.28 2462.01 941.633 2463.24 936.086 2464.63 932.388 2466.17 930.539 2467.71 928.69 2470.33 927.765 2474.03 927.765 2476.5 927.765 2481.74 929.768 2489.75 933.775 2497.77 937.781 2504.24 941.941 2509.17 946.256L2492.53 999.877 2486.98 1018.37C2501.16 996.18 2517.5 978.305 2535.99 964.746 2554.49 951.186 2574.22 944.407 2595.18 944.407 2601.35 944.407 2607.51 945.023 2613.68 946.256 2619.85 947.489 2624.16 949.029 2626.63 950.878 2626.63 981.079 2634.49 1003.42 2650.21 1017.91 2665.93 1032.39 2687.98 1039.63 2716.34 1039.63 2741.62 1039.63 2762.58 1035.32 2779.23 1026.69L2798.99 1011.82 2815.11 984.623C2830.21 967.673 2848.55 953.652 2870.13 942.557 2891.71 931.463 2913.6 925.917 2935.8 925.917 2964.16 925.917 2989.13 935.469 3010.71 954.577 3016.26 939.784 3020.42 930.539 3023.19 926.841 3025.97 923.143 3030.13 920.986 3035.68 920.369L3080.99 915.747 3083.77 917.596C3071.44 927.457 3062.5 942.866 3056.95 963.822 3037.84 1035.32 3024.73 1088.01 3017.64 1121.91 3010.55 1155.81 3007.01 1185.71 3007.01 1211.59 3007.01 1237.48 3010.4 1256.43 3017.18 1268.45 3023.96 1280.47 3035.37 1286.48 3051.4 1286.48 3071.13 1286.48 3094.71 1278.47 3122.15 1262.44 3149.59 1246.42 3175.64 1224.07 3200.3 1195.41 3224.96 1166.75 3243.77 1134.55 3256.71 1098.8 3264.73 1098.8 3268.74 1106.81 3268.74 1122.84 3268.74 1151.19 3256.25 1181.08 3231.28 1212.52 3206.31 1243.95 3176.1 1270.3 3140.65 1291.56 3105.2 1312.83 3072.67 1323.46 3043.08 1323.46 3019.03 1323.46 3000.53 1316.06 2987.59 1301.27 2974.64 1286.48 2966.93 1267.37 2964.47 1243.95 2949.05 1266.14 2929.63 1284.32 2906.2 1298.5 2882.77 1312.67 2861.81 1319.76 2843.31 1319.76 2827.28 1319.76 2811.41 1314.37 2795.68 1303.58 2779.96 1292.8 2767.17 1279.54 2757.3 1263.83 2747.44 1248.11 2742.2 1233.16 2741.58 1218.99L2781.22 1055.66 2766.74 1064.59C2747.32 1071.99 2727.74 1075.69 2708.01 1075.69 2677.19 1075.69 2650.83 1067.68 2628.94 1051.65 2607.05 1035.63 2593.03 1013.13 2586.86 984.161 2559.11 987.242 2533.68 1004.81 2510.56 1036.86 2487.44 1068.91 2471.26 1103.73 2462.01 1141.33 2460.77 1147.49 2456.15 1166.44 2448.14 1198.19 2440.12 1229.93 2432.41 1267.37 2425.01 1310.51 2424.4 1312.36 2423.63 1313.75 2422.7 1314.68 2421.78 1315.6 2419.77 1316.06 2416.69 1316.06 2412.38 1316.06 2405.9 1314.21 2397.27 1310.51 2388.64 1306.82 2384.32 1302.81 2384.32 1298.5 2384.32 1289.87 2385.86 1278.47 2388.95 1264.29L2401.65 1206.04 2333.5 1278.16C2298.97 1305.28 2264.44 1318.84 2229.92 1318.84 2206.49 1318.84 2188.14 1311.9 2174.89 1298.03 2161.63 1284.17 2155 1265.52 2155 1242.1 2155 1234.09 2155.62 1227.62 2156.85 1222.69 2143.29 1244.87 2125.56 1265.68 2103.68 1285.09 2081.79 1304.51 2060.36 1314.21 2039.4 1314.21 2021.52 1314.21 2003.95 1307.12 1986.69 1292.95 1969.42 1278.77 1958.94 1264.29 1955.24 1249.5L1959.47 1214.64 1946.96 1232.39C1933.16 1249.19 1918.17 1264.91 1901.99 1279.54 1869.62 1308.82 1838.64 1323.46 1809.04 1323.46 1771.43 1323.46 1741.38 1307.59 1718.87 1275.85 1696.37 1244.1 1674.02 1195.26 1651.82 1129.31 1596.33 1194.03 1550.71 1253.2 1514.95 1306.82 1506.93 1319.14 1501.38 1325.31 1498.3 1325.31 1493.37 1325.31 1486.74 1321.46 1478.42 1313.75 1470.09 1306.05 1465.62 1299.42 1465.01 1293.87 1464.54 1284.63 1467.9 1261.43 1475.06 1224.27L1475.71 1221.09 1442.51 1255.85C1427.4 1269.03 1410.98 1280.93 1393.26 1291.56 1375.53 1302.19 1358.54 1310.17 1342.28 1315.48L1321.31 1319.07 1356.37 1352.16 1375.79 1369.73C1415.25 1405.48 1442.22 1434.44 1456.71 1456.63 1471.2 1478.82 1478.45 1504.4 1478.45 1533.37 1478.45 1575.28 1465.65 1610.56 1440.07 1639.22 1414.48 1667.88 1382.42 1689.15 1343.88 1703.02 1305.35 1716.88 1266.66 1723.82 1227.82 1723.82 1192.06 1723.82 1156.91 1718.58 1122.39 1708.1 1087.86 1697.62 1067.51 1686.22 1061.35 1673.89 1064.43 1659.1 1067.2 1638.92 1069.67 1613.34 1072.14 1587.76 1073.37 1568.19 1073.37 1554.63 1078.3 1550.32 1085.39 1548.16 1094.64 1548.16 1094.64 1583.29 1098.49 1610.72 1106.2 1630.44 1113.91 1650.16 1126.7 1664.49 1144.58 1673.43 1162.46 1682.37 1187.74 1686.84 1220.42 1686.84 1278.37 1686.84 1326.62 1674.66 1365.15 1650.32 1403.69 1625.97 1422.96 1591.3 1422.96 1546.31 1422.96 1522.89 1416.17 1499.62 1402.61 1476.51 1389.04 1453.4 1365 1425.82 1330.47 1393.76L1305.5 1370.65C1273.44 1341.68 1249.86 1316.57 1234.75 1295.3L1227.88 1281.06 1224.71 1275.85 1224.05 1273.12 1217.76 1260.06 1215.75 1245.19 1158.81 1298.5C1135.38 1312.67 1114.42 1319.76 1095.92 1319.76 1079.89 1319.76 1064.02 1314.37 1048.3 1303.58 1032.57 1292.8 1019.78 1279.54 1009.91 1263.83 1000.05 1248.11 994.81 1233.16 994.193 1218.99L1039.51 1032.24C1043.21 1017.44 1052.61 1001.57 1067.72 984.623 1082.82 967.673 1101.17 953.652 1122.74 942.557 1144.32 931.463 1166.21 925.917 1188.41 925.917 1216.77 925.917 1241.74 935.469 1263.32 954.577 1268.87 939.784 1273.03 930.539 1275.8 926.841 1278.58 923.143 1282.74 920.986 1288.29 920.369L1333.61 915.747 1336.38 917.596C1324.05 927.457 1315.11 942.866 1309.56 963.822 1295.23 1017.44 1284.27 1060.49 1276.7 1092.96L1276.16 1095.39 1299.49 1079.89C1327.54 1066.02 1359.76 1059.09 1396.14 1059.09 1431.9 1059.09 1462.42 1065.25 1487.69 1077.58L1504.52 1088.42 1505.12 1085.74C1513.06 1052.23 1521.73 1017.44 1531.13 981.387 1549.94 909.275 1567.05 851.339 1582.46 807.578 1641.65 641.166 1706.23 512.966 1776.21 422.979 1846.19 332.993 1923.42 288 2007.88 288Z" fill="#FFFFFF" fill-rule="evenodd"/></g></svg>