<svg width="1788" height="1787" xmlns="http://www.w3.org/2000/svg" xmlns:xlink="http://www.w3.org/1999/xlink" xml:space="preserve" overflow="hidden">
    <defs>
        <clipPath id="clip0">
            <rect x="997" y="344" width="1788" height="1787" />
        </clipPath>
    </defs>
    <g clip-path="url(#clip0)" transform="translate(-997 -344)">
        <path d="M1129.95 743.143C1146.79 723.208 1161.97 703.462 1179.09 685.564 1187.8 676.464 1199.24 669.135 1210.72 663.673 1258.87 640.764 1292.53 604.734 1317.16 557.607 1340.21 513.489 1380.96 485.586 1422.44 461.041 1453.15 442.862 1486.68 429.025 1519.88 415.524 1571.62 394.482 1623.71 374.103 1676.56 356.081 1696.67 349.221 1719.49 350.736 1740.7 346.527 1789.29 336.88 1833.34 357.394 1879.29 365.501 1887.08 366.874 1895.63 366.856 1903.35 365.202 1928.65 359.776 1953.45 350.691 1978.98 347.947 2005.53 345.095 2032.74 347.109 2059.59 348.547 2111.58 351.326 2158.61 371.91 2205.47 392.069 2259.56 415.343 2314.87 436.712 2366.27 465.026 2402.81 485.149 2439.18 510.987 2459.35 549.366 2486.91 601.814 2523.97 642.333 2577.78 668.124 2590.97 674.448 2601.84 686.377 2612.56 696.967 2661 744.847 2690.01 804.471 2713.93 867.026 2733.68 918.658 2754.56 969.913 2772.4 1022.2 2779.27 1042.34 2778.11 1065.08 2782.38 1086.27 2792.18 1134.79 2771.89 1178.9 2763.83 1224.83 2762.37 1233.16 2762.26 1242.3 2764.02 1250.53 2770.18 1279.27 2778.77 1307.54 2783.72 1336.46 2786.23 1351.14 2782.94 1366.81 2782.3 1382.03 2779.33 1452.79 2757.22 1517.56 2721.72 1578.35 2718.14 1584.48 2719.62 1593.39 2716.63 1600.06 2698.33 1640.82 2684.21 1684.57 2659.4 1721 2633.37 1759.22 2604.73 1798.48 2559.56 1818.9 2519.83 1836.86 2492.43 1866.42 2472.48 1905.14 2445.06 1958.37 2398.85 1993.03 2347.31 2020.52 2319.86 2035.15 2291.22 2047.82 2262.32 2059.41 2210.47 2080.2 2158.46 2100.75 2105.61 2118.79 2085.49 2125.65 2062.7 2124.26 2041.48 2128.43 1997.92 2136.98 1957.61 2122.33 1916.8 2112.08 1899.05 2107.62 1882.45 2106.83 1864.91 2112.29 1848.65 2117.34 1831.31 2119.13 1815.34 2124.85 1784.36 2135.93 1753.47 2128.41 1722.6 2126.53 1670.7 2123.38 1623.53 2103.32 1576.7 2083.06 1522.65 2059.66 1467.37 2038.27 1415.89 2010.07 1379.26 1990 1342.68 1964.17 1322.72 1925.84 1294.68 1871.99 1256.01 1831.58 1201.35 1805.25 1189.22 1799.4 1179.46 1788.05 1169.56 1778.26 1121.11 1730.37 1092.08 1670.79 1068.15 1608.24 1048.4 1556.61 1027.47 1505.37 1009.72 1453.06 1002.7 1432.37 1003.87 1409.04 999.531 1387.27 989.853 1338.71 1010.48 1294.7 1018.66 1248.81 1019.95 1241.55 1020.24 1233.57 1018.69 1226.43 1013.04 1200.59 1003.78 1175.25 1000.9 1149.16 997.967 1122.65 1000.12 1095.44 1001.56 1068.61 1004.34 1016.61 1025.13 969.661 1045.28 922.821 1068.55 868.719 1093.02 815.132 1117.3 761.474 1120.15 755.189 1125.11 749.866 1129.95 743.143M2200.35 732.628C2202.29 732.617 2204.25 732.607 2206.2 732.596 2205.04 730.946 2203.89 729.299 2201.2 725.817 2181.46 706.386 2161.92 686.746 2141.84 667.677 2137.45 663.514 2131.21 658.843 2125.72 658.719 2090.56 657.91 2055.37 658.307 2020.46 658.307 2021.53 658.758 2023.39 659.776 2025.38 660.351 2085.72 677.841 2142.98 702.905 2200.35 732.628M1581.6 1742.35C1579.65 1742.36 1577.7 1742.37 1575.75 1742.38 1576.9 1744.03 1578.06 1745.68 1580.75 1749.15 1600.92 1768.99 1620.92 1789.01 1641.41 1808.51 1645.35 1812.26 1651.18 1816.21 1656.21 1816.31 1691.38 1816.98 1726.57 1816.66 1761.47 1816.66 1760.41 1816.22 1758.55 1815.2 1756.56 1814.63 1696.22 1797.15 1638.99 1772.02 1581.6 1742.35M2196.56 1744.59C2138.1 1770.01 2079.64 1795.42 2032.53 1815.9 2057.36 1815.9 2094.44 1815.9 2131.52 1815.9 2154.47 1793.98 2177.42 1772.06 2200.36 1750.12 2201.21 1749.31 2201.88 1748.32 2204.3 1746.03 2204.81 1744.7 2205.32 1743.37 2205.82 1742.04 2203.56 1742.72 2201.29 1743.4 2196.56 1744.59M1585.36 730.292C1643.82 704.91 1702.28 679.527 1749.42 659.063 1724.56 659.063 1687.49 659.063 1650.41 659.063 1627.47 680.989 1604.52 702.912 1581.6 724.852 1580.75 725.661 1580.07 726.641 1577.65 728.898 1577.15 730.207 1576.65 731.52 1576.16 732.83 1578.41 732.187 1580.67 731.545 1585.36 730.292M2399.76 924.493C2398.46 923.971 2397.16 923.449 2395.85 922.927 2396.51 925.152 2397.18 927.374 2398.35 932.07 2423.67 990.256 2448.99 1048.44 2469.75 1096.16 2469.75 1070.73 2469.75 1034.15 2469.75 997.56 2447.78 974.513 2425.82 951.462 2403.84 928.428 2403.02 927.577 2402.05 926.881 2399.76 924.493M1379.09 927.566C1359.65 947.316 1340.01 966.875 1320.93 986.959 1316.73 991.371 1311.91 997.578 1311.78 1003.06 1310.96 1038.18 1311.36 1073.33 1311.36 1107.42 1311.3 1107.53 1312.39 1106.29 1312.81 1104.85 1330.71 1044.05 1355.75 986.143 1385.81 928.311 1385.8 926.398 1385.78 924.482 1385.77 922.565 1384.15 923.715 1382.52 924.865 1379.09 927.566M1382.16 1550.46C1383.44 1550.98 1384.72 1551.49 1386.01 1552.01 1385.37 1549.79 1384.74 1547.58 1383.5 1542.93 1358.2 1484.69 1332.9 1426.45 1312.18 1378.74 1312.18 1404.13 1312.18 1440.74 1312.18 1477.35 1334.15 1500.42 1356.12 1523.49 1378.11 1546.55 1378.92 1547.4 1379.9 1548.09 1382.16 1550.46M2402.86 1547.4C2422.36 1527.58 2442.01 1507.91 2461.23 1487.84 2465.11 1483.79 2469.9 1478.26 2470.01 1473.32 2470.76 1437.85 2470.41 1402.36 2470.41 1365.3 2463.06 1388.8 2457.73 1411.77 2448.77 1433.23 2432.96 1471.1 2414.93 1508.05 2396.12 1546.68 2396.12 1548.61 2396.11 1550.53 2396.11 1552.45 2397.76 1551.28 2399.4 1550.12 2402.86 1547.4M1507.79 2035.14C1509.46 2035.22 1511.13 2035.3 1512.81 2035.38 1511.94 2033.65 1511.08 2031.91 1508.7 2028.32 1507.44 2027.08 1506.3 2025.69 1504.91 2024.62 1466.24 1994.95 1436.59 1956.15 1414.65 1914.49 1399.71 1886.13 1380.01 1880.48 1354.57 1876.19 1340.67 1873.84 1326.86 1870.97 1310.5 1867.86 1351.23 1956.54 1424.79 1999.88 1507.79 2035.14M2685.31 858.43C2686.56 858.924 2687.81 859.417 2689.06 859.914 2688.54 857.664 2688 855.418 2686.91 850.648 2664.29 794.285 2634.11 742.324 2589.85 700.466 2571.34 682.952 2547.18 671.407 2525.58 657.15 2524.38 658.354 2523.17 659.56 2521.96 660.767 2524.48 672.755 2527.76 684.645 2529.36 696.758 2533.18 725.718 2536.76 754.408 2572.35 762.479 2573.39 762.713 2574.17 763.966 2575.16 764.601 2615.55 790.502 2652.49 820.459 2685.31 858.43M2274.16 439.832C2272.48 439.754 2270.81 439.672 2269.14 439.594 2270 441.33 2270.86 443.065 2273.23 446.657 2312.18 478.357 2344.83 516.821 2367.32 560.485 2381.57 588.146 2400.48 594.574 2425.61 598.644 2440.12 600.994 2454.52 603.925 2471.42 607.048 2430.72 518.439 2357.15 475.099 2274.16 439.832M2278.03 2032.98C2335.08 2010.29 2387.26 1979.35 2429.55 1934.73 2446.68 1916.67 2457.71 1892.82 2471.51 1871.61 2456.04 1870.58 2444.14 1873.74 2432.03 1875.47 2403.95 1879.45 2375.26 1881.93 2367.39 1917.1 2367.15 1918.14 2365.9 1918.92 2365.25 1919.9 2338.56 1960.39 2308.88 1998.34 2270.24 2031.39 2269.75 2032.64 2269.25 2033.89 2268.76 2035.14 2271.01 2034.61 2273.26 2034.08 2278.03 2032.98M1096.63 1616.55C1095.38 1616.06 1094.13 1615.56 1092.88 1615.07 1093.41 1617.31 1093.95 1619.56 1095.04 1624.32 1117.66 1680.69 1147.85 1732.66 1192.11 1774.52 1210.62 1792.03 1234.79 1803.58 1256.38 1817.83 1257.18 1800.47 1254.01 1786.78 1251.94 1772.92 1248.08 1747.03 1244.58 1721.28 1212.34 1714.7 1210.29 1714.27 1208.77 1711.66 1206.79 1710.4 1166.39 1684.49 1129.48 1654.49 1096.63 1616.55M2682.25 1619.54C2650.82 1657.9 2613.12 1690.58 2569.77 1712.53 2540.17 1727.52 2533.33 1748.03 2529.74 1775.31 2527.97 1788.68 2524.73 1801.87 2521.65 1817.74 2610.1 1776.7 2653.93 1703.54 2689.07 1620.46 2689.15 1618.78 2689.23 1617.11 2689.31 1615.44 2687.57 1616.31 2685.84 1617.17 2682.25 1619.54M1503.92 441.996C1446.95 464.789 1394.61 495.474 1352.4 540.22 1335.31 558.341 1324.24 582.123 1310.43 603.332 1325.31 604.451 1336.65 601.537 1348.18 599.833 1378.02 595.418 1402.2 588.643 1418.14 555.768 1439.12 512.502 1472.98 476.546 1511.71 443.59 1512.2 442.337 1512.69 441.088 1513.19 439.839 1510.94 440.367 1508.69 440.9 1503.92 441.996M1099.7 855.432C1101.74 853.295 1103.89 851.262 1105.79 849.008 1138.13 810.643 1177.98 781.093 1221.16 756.793 1236.69 748.055 1245.85 739.871 1248.16 722.261 1250.9 701.304 1255.78 680.624 1260.19 657.367 1171.53 698.035 1128.15 771.554 1092.88 854.52 1092.8 856.191 1092.72 857.866 1092.64 859.538 1094.38 858.672 1096.12 857.806 1099.7 855.432M1513.49 1289.86C1494.31 1278.25 1474.72 1267.23 1456.12 1254.75 1447.66 1249.07 1441.87 1250.56 1434.33 1255.52 1405.77 1274.26 1376.69 1292.22 1348.35 1311.3 1344.15 1314.13 1340.27 1321.58 1340.72 1326.48 1343 1351.67 1345.56 1376.95 1350.2 1401.79 1362.1 1465.39 1397.81 1516.47 1438.96 1564.25 1441.93 1567.7 1449.14 1570.2 1453.59 1569.28 1486.94 1562.42 1519.93 1553.66 1553.4 1547.52 1565.89 1545.23 1569.15 1539.58 1572.02 1528.57 1584.32 1481.4 1596.9 1434.26 1611.39 1387.72 1616.28 1372 1627.1 1358.12 1636.19 1341.6 1590 1336.54 1552.84 1313.93 1513.49 1289.86M1609.89 1083.79C1597.08 1037.37 1584.02 991.026 1571.68 944.488 1569.14 934.916 1566.04 929.617 1554.95 927.832 1528.31 923.541 1501.74 918.203 1475.65 911.396 1445.11 903.432 1446.24 903.358 1425.24 927.147 1370.17 989.553 1344.53 1063.07 1340.83 1145.05 1340.55 1151.27 1343.81 1160.39 1348.53 1163.63 1376.68 1182.96 1405.87 1200.76 1434.41 1219.55 1442.04 1224.57 1447.59 1225.07 1456.2 1220.21 1514.14 1187.49 1566.15 1142.74 1635.83 1132.95 1626.7 1116.13 1618.63 1101.27 1609.89 1083.79M2141.11 928.716C2155.98 925.149 2171.18 922.537 2185.55 917.547 2191.34 915.538 2198.21 909.043 2199.64 903.351 2206.49 876.059 2210.69 848.099 2217.67 820.843 2225.08 791.858 2225.98 792.089 2202.83 773.435 2201.91 772.693 2201 771.937 2200.12 771.149 2138.51 716.086 2064.99 691.548 1983.72 687.647 1977.47 687.349 1968.24 690.444 1965.02 695.132 1946.05 722.79 1929.02 751.779 1910.07 779.457 1903.3 789.348 1904.33 795.95 1909.93 805.741 1942.37 862.509 1985.68 913.962 1995.57 981.536 2015.22 971.787 2032.8 960.831 2051.87 954.13 2080.09 944.214 2109.37 937.319 2141.11 928.716M1833.44 869.23C1846.52 847.496 1859.16 825.485 1872.88 804.159 1878.34 795.659 1878.55 789.38 1872.86 780.866 1853.9 752.46 1836.01 723.34 1817.05 694.937 1814.42 691.004 1807.82 686.984 1803.47 687.395 1777.69 689.83 1751.82 692.374 1726.38 697.095 1662.72 708.909 1611.72 744.772 1563.89 785.842 1560.47 788.784 1558.15 796.042 1559.07 800.521 1565.92 833.864 1574.62 866.852 1580.77 900.313 1583.07 912.869 1589 915.886 1599.92 918.736 1647.13 931.047 1694.31 943.629 1740.88 958.127 1756.58 963.014 1770.42 973.856 1786.73 982.87 1791.68 940.378 1810.77 905.438 1833.44 869.23M2201.08 1493.2C2204.28 1506.31 2206.4 1519.83 2211.14 1532.36 2213.32 1538.1 2219.96 1544.63 2225.76 1546.08 2252.5 1552.76 2279.94 1556.75 2306.61 1563.67 2336.86 1571.52 2335.7 1571.61 2356.92 1547.59 2412.04 1485.19 2437.29 1411.57 2441.18 1329.67 2441.46 1323.77 2439.02 1314.98 2434.76 1312.08 2405.54 1292.23 2375.71 1273.26 2345.5 1254.95 2340.94 1252.19 2332.15 1252.05 2327.44 1254.61 2268.43 1286.54 2216.15 1331.9 2143.6 1342.48 2179.62 1387.52 2187.87 1439.7 2201.08 1493.2M1666.34 1539.52C1643.52 1545.28 1620.79 1551.44 1597.85 1556.62 1588.15 1558.82 1582.95 1562.2 1581.15 1573.3 1576.86 1599.92 1571.49 1626.47 1564.7 1652.57 1556.75 1683.12 1556.69 1681.99 1580.41 1702.92 1642.82 1757.97 1716.36 1783.58 1798.36 1787.33 1804.6 1787.61 1813.77 1784.45 1816.99 1779.74 1835.97 1752.08 1852.98 1723.08 1871.97 1695.43 1878.83 1685.44 1877.46 1678.83 1871.94 1669.14 1839.58 1612.35 1796.06 1561.01 1786.03 1490.61 1749.74 1517.82 1710.16 1530.18 1666.34 1539.52M2203.41 1584.28C2202.58 1564.74 2191.56 1557.83 2172.97 1553.51 2129.52 1543.42 2086.5 1531.14 2043.96 1517.68 2027.16 1512.36 2012.11 1501.54 1998.09 1494.18 1989.77 1516.97 1983.98 1540.05 1973.27 1560.57 1954.22 1597.08 1932.65 1632.32 1911.14 1667.48 1904.64 1678.11 1902.73 1685.28 1910.83 1696.72 1929.87 1723.6 1946.37 1752.25 1964.71 1779.64 1967.54 1783.87 1974.95 1787.94 1979.79 1787.46 2006.12 1784.87 2032.54 1782 2058.5 1777.05 2121.49 1765.04 2171.6 1728.85 2219.04 1688.4 2222.12 1685.78 2224 1679.09 2223.15 1674.96 2217.11 1645.64 2210.23 1616.51 2203.41 1584.28M2378.85 1198.22C2396.33 1187.33 2414.23 1177.02 2431.04 1165.18 2436.12 1161.6 2441.5 1153.49 2441.06 1147.91 2439.07 1122.72 2436.17 1097.48 2431.53 1072.65 2419.64 1009.02 2383.64 958.137 2342.68 910.246 2339.92 907.024 2333.44 904.369 2329.47 905.203 2295.58 912.323 2262.01 921.075 2228.02 927.605 2216.54 929.809 2212.86 934.71 2210.12 945.194 2197.61 992.922 2184.99 1040.66 2170.39 1087.77 2165.54 1103.43 2154.64 1117.22 2146.32 1132.19 2161.97 1136.24 2176.49 1138.85 2190.13 1143.86 2204.42 1149.11 2218.29 1155.91 2231.6 1163.38 2253.74 1175.79 2277.28 1186.86 2296.6 1202.87 2325.86 1227.12 2351 1225.49 2378.85 1198.22M1841.69 1150.24C1800.7 1178.23 1782.85 1217.44 1793.31 1259.03 1803.77 1300.57 1830.66 1327.48 1872.32 1335.64 1915.25 1344.05 1949.91 1327.14 1974.92 1291.55 1997.92 1258.84 1995.72 1206.87 1970.83 1177.52 1936.17 1136.65 1890.48 1126.34 1841.69 1150.24M2433.11 765.282C2430 753.94 2425.86 742.764 2424.04 731.219 2421.61 715.695 2413.64 708.182 2398.28 704.711 2368.47 697.971 2339.18 688.971 2309.47 681.759 2287.64 676.461 2265.47 672.525 2240.5 667.375 2243.39 691.288 2245.23 711.149 2248.41 730.793 2250.09 741.191 2251.23 753.723 2257.57 760.967 2285.11 792.461 2313.66 823.192 2343.5 852.496 2358.5 867.215 2374.19 882.238 2399.09 881.524 2418.73 880.96 2438.5 885.219 2462.42 887.788 2452.33 845.423 2443.12 806.767 2433.11 765.282M1362.7 1759.57C1368.18 1762.74 1373.29 1767.26 1379.19 1768.85 1412.7 1777.87 1446.32 1786.48 1480.05 1794.64 1499.22 1799.27 1518.66 1802.75 1541.43 1807.47 1538.5 1783.75 1533.52 1763.4 1534.2 1743.25 1534.86 1723.61 1524.72 1711.03 1513.42 1698.91 1487.64 1671.28 1461.32 1644.08 1433.97 1618.02 1419.81 1604.54 1404.16 1592.93 1381.91 1593.26 1362.29 1593.55 1342.61 1589.75 1318.3 1587.29 1333.54 1646.6 1347.71 1701.74 1362.7 1759.57M1449.43 687.523C1427.25 693.389 1405.19 699.788 1382.84 704.92 1369.36 708.019 1361.52 714.52 1358.22 728.543 1350.95 759.441 1341.9 789.916 1334.43 820.775 1329.29 842.044 1325.59 863.662 1320.66 888.026 1344.52 885.244 1364.42 883.511 1384.1 880.378 1394.51 878.724 1407 877.468 1414.29 871.129 1445.44 844.054 1475.47 815.625 1504.9 786.665 1515.68 776.054 1528.61 763.77 1531.85 750.178 1537.99 724.348 1537.85 697.024 1540.67 666.661 1509.22 673.969 1480.77 680.581 1449.43 687.523M2423.84 1743.26C2436.64 1692.4 2449.43 1641.53 2463.21 1586.78 2437.66 1589.72 2417.78 1591.3 2398.19 1594.55 2387.28 1596.36 2374.35 1598.1 2366.61 1604.81 2335.45 1631.84 2305.52 1660.35 2276.09 1689.27 2265.71 1699.47 2253.2 1711.3 2250.18 1724.36 2244.19 1750.24 2244.11 1777.49 2241.47 1805.51 2248.12 1805.14 2252.83 1805.57 2257.17 1804.53 2305.75 1792.84 2354.23 1780.75 2402.84 1769.19 2415.58 1766.16 2421.53 1758.18 2423.84 1743.26M1249.43 1092.1C1246.72 1089.19 1244.03 1086.28 1239.22 1081.09 1217.62 1116.4 1199.88 1152.11 1175.86 1182.94 1145.93 1221.36 1146.61 1254.06 1176.05 1292.28 1199.88 1323.21 1217.72 1358.74 1239.29 1393.98 1258.44 1371.16 1275.51 1351.06 1292.18 1330.64 1294.16 1328.22 1294.59 1324.05 1294.68 1320.66 1295.86 1272.93 1297.4 1225.2 1297.52 1177.46 1297.54 1165.63 1295.67 1152.01 1289.64 1142.34 1278.83 1124.98 1264.2 1110 1249.43 1092.1M2493.74 1334.75C2509.28 1353.77 2524.81 1372.78 2543 1395.04 2573.95 1342.97 2603.62 1293.61 2632.38 1243.73 2634.76 1239.6 2632.55 1231.1 2629.82 1226.06 2618.89 1205.85 2607.2 1186.02 2595.25 1166.38 2578.22 1138.39 2560.71 1110.69 2542.41 1081.26 2523.46 1103.85 2506.4 1123.94 2489.74 1144.36 2487.77 1146.78 2487.33 1150.95 2487.24 1154.34 2486.06 1201.45 2484.49 1248.57 2484.41 1295.68 2484.39 1308.11 2489.09 1320.54 2493.74 1334.75M1745.52 596.298C1760.79 608.326 1775.8 620.698 1791.45 632.201 1797.13 636.374 1804.24 640.856 1810.86 641.119 1856.74 642.936 1902.65 644.047 1948.55 644.501 1960.11 644.615 1974.17 645.105 1982.79 639.188 2004.86 624.052 2024.51 605.405 2048.22 585.577 1996.92 555.119 1948.18 525.648 1898.67 497.553 1893.35 494.536 1882.42 497.557 1875.94 501.127 1846.04 517.616 1816.58 534.946 1787.39 552.677 1770.05 563.203 1753.5 575.032 1733.34 588.441 1738.44 591.56 1740.96 593.104 1745.52 596.298M1951.69 1830.24C1913.27 1830.21 1874.83 1829.54 1836.43 1830.44 1817.48 1830.89 1798.82 1832.14 1783.55 1848.1 1769.55 1862.71 1752.02 1873.95 1733.2 1888.94 1784.39 1919.51 1832.22 1948.66 1880.88 1976.37 1886.83 1979.75 1898.3 1977.65 1905.3 1974.19 1923.78 1965.08 1941.38 1954.11 1959 1943.36 1987.99 1925.67 2016.72 1907.56 2049.05 1887.46 2014.8 1867.74 1995.52 1832.41 1951.69 1830.24M2279.23 478.576C2264.17 464.402 2249.31 449.993 2233.91 436.201 2229.86 432.577 2224.18 428.752 2219.12 428.578 2160.87 426.583 2102.43 422.381 2045.17 438.352 2038.38 440.247 2031.58 442.096 2021.54 444.864 2030.97 451.405 2036.77 455.348 2042.49 459.419 2084.65 489.447 2132.45 511.718 2167.86 551.158 2171.38 555.08 2179.4 555.875 2185.48 556.4 2200.68 557.71 2216.25 556.386 2231.14 559.062 2273.32 566.65 2315.23 575.71 2362.09 585.161 2334.92 546.615 2314.17 508.86 2279.23 478.576M2188.49 1918.38C2179.27 1922.28 2169.03 1924.76 2161.11 1930.45 2150.7 1937.95 2143.09 1949.43 2132.55 1956.66 2100.45 1978.67 2067.49 1999.43 2034.95 2020.8 2031.33 2023.17 2028.2 2026.28 2023.17 2030.43 2030.45 2032.84 2035.24 2034.7 2040.17 2036.02 2099.14 2051.7 2159.25 2048.87 2219.28 2046.48 2223.46 2046.31 2228.35 2044.02 2231.51 2041.17 2275.38 2001.58 2318.39 1961.18 2349.08 1909.82 2352.45 1904.18 2355.19 1898.16 2359.33 1890.17 2347.89 1892.58 2339.38 1894.74 2330.74 1896.14 2284.43 1903.66 2238.09 1910.98 2188.49 1918.38M1495.29 1989.62C1512.97 2006.18 1530.52 2022.89 1548.45 2039.18 1552.1 2042.49 1557.18 2046.28 1561.64 2046.35 1601.08 2046.89 1640.62 2048.31 1679.94 2046.05 1705.73 2044.56 1731.2 2037.41 1761.15 2032.01 1754.31 2026.34 1751.92 2023.95 1749.16 2022.13 1716.59 2000.72 1680.49 1983.15 1652.32 1957.02 1622.54 1929.39 1592.29 1917.38 1551.87 1915.2 1509.09 1912.9 1466.91 1899.41 1424.47 1890.81 1423.22 1892.21 1421.96 1893.61 1420.7 1895.01 1444.95 1925.98 1469.2 1956.95 1495.29 1989.62M1611.37 554.203C1651.95 507.778 1709.35 483.765 1756.85 443.69 1722.51 436.041 1688.31 428.638 1653.75 425.898 1626.28 423.719 1598.31 426.569 1570.67 428.635 1562.19 429.266 1552.5 432.829 1546.09 438.263 1527.19 454.276 1508 470.488 1491.95 489.22 1466.94 518.432 1444.43 549.785 1420.86 580.228 1486.13 574.536 1545.68 552.826 1611.37 554.203M1090.74 1080.28C1092.58 1088.27 1094.42 1096.26 1096.99 1107.46 1101.74 1100.8 1104.05 1097.5 1106.41 1094.24 1138.95 1049.58 1162.37 998.273 1204.51 960.508 1208.4 957.019 1209 948.903 1209.52 942.799 1210.82 927.623 1209.58 912.078 1212.25 897.2 1219.8 855.08 1228.79 813.223 1237.55 769.602 1231.06 772.693 1226.16 774.57 1221.71 777.214 1168.74 808.762 1126.6 852.557 1086.04 898.016 1082.97 901.459 1081.61 907.453 1081.46 912.326 1079.7 967.585 1075.74 1022.99 1090.74 1080.28M1235.33 1694.16C1234.35 1688.95 1233.27 1683.76 1232.41 1678.53 1224.09 1628.18 1206.1 1579.32 1209.32 1527.12 1209.62 1522.18 1205.71 1516.32 1202.39 1511.93 1181.12 1483.83 1159 1456.37 1138.1 1428 1124.26 1409.23 1112.01 1389.31 1097.52 1367.62 1095 1375.86 1093.3 1380.73 1092.02 1385.7 1076.82 1444.71 1078.72 1504.76 1081.53 1564.81 1081.75 1569.49 1084.37 1574.95 1087.6 1578.45 1108.84 1601.47 1128.98 1625.84 1152.51 1646.29 1177.96 1668.4 1206.7 1686.71 1237.74 1709.41 1236.76 1701.16 1236.5 1698.91 1235.33 1694.16M2640.06 1636.59C2657.85 1617.63 2675.85 1598.85 2693.27 1579.54 2696.86 1575.56 2700.42 1569.56 2700.31 1564.57 2699.27 1518.76 2708.31 1472.76 2697.18 1427.11 2692.65 1408.51 2689.87 1389.49 2686.3 1370.66 2670.82 1387.66 2660.2 1404.65 2648.69 1421.01 2630.42 1446.98 2613.48 1474.26 2592.28 1497.63 2578.1 1513.26 2570.12 1527.52 2571.72 1548.82 2572.8 1563.14 2569.77 1578 2567.06 1592.33 2560.02 1629.52 2552.14 1666.54 2544.59 1703.63 2546 1704.78 2547.41 1705.93 2548.82 1707.09 2578.64 1684.18 2608.46 1661.28 2640.06 1636.59M2701.13 951.774C2700.97 938.785 2701.33 925.759 2700.42 912.823 2700.05 907.436 2698.4 900.987 2694.95 897.147 2655.51 853.171 2615 810.274 2563.63 779.592 2558.01 776.235 2552.01 773.502 2544.96 769.843 2545.27 773.818 2545.28 775.543 2545.55 777.225 2554.93 833.871 2575.06 888.775 2572.72 947.405 2572.48 953.254 2577.59 960.079 2581.76 965.2 2592.87 978.828 2606.13 990.849 2616.15 1005.17 2639.02 1037.85 2660.46 1071.52 2685.13 1108.77 2696.64 1055.04 2707.68 1006.17 2701.13 951.774M2024.01 1486.11C2030.62 1489.93 2036.81 1495.15 2043.93 1497.32 2092.54 1512.13 2141.35 1526.3 2193.25 1541.61 2188.83 1523.17 2185.84 1509.02 2182.02 1495.1 2169.49 1449.4 2162.83 1401.79 2134.63 1361.33 2126.67 1349.91 2118.91 1345.51 2105.79 1347.66 2086.08 1350.87 2066.26 1353.41 2046.48 1356.24 2048.27 1382.57 2036.74 1394.2 2009.2 1393.57 2007.3 1409.89 2007.27 1426.74 2003.02 1442.45 1997.5 1462.87 2001.73 1476.73 2024.01 1486.11M2092.04 960.71C2066.37 971.971 2040.78 983.442 2014.99 994.416 2001.68 1000.07 1999.16 1009.97 2001.24 1022.94 2004.4 1042.64 2006.98 1062.43 2009.78 1082.18 2036.03 1080.21 2047.71 1091.73 2047.24 1118.9 2066.47 1121.59 2085.72 1123.98 2104.85 1127.06 2117.62 1129.12 2126 1126.28 2134.08 1114.38 2170.6 1060.64 2174.22 996.875 2193.52 935.395 2158.5 944.264 2126.71 952.31 2092.04 960.71M1773.8 1070.99C1776 1055.22 1777.86 1039.4 1780.48 1023.71 1782.63 1010.91 1781.14 1000.53 1767.51 994.817 1740.54 983.502 1714.34 969.902 1686.66 960.824 1655.28 950.539 1622.61 944.175 1589.11 935.757 1593.15 952.31 1596.21 966.087 1599.88 979.705 1612.56 1026.71 1619.53 1075.67 1649.44 1116.67 1656.03 1125.7 1662.47 1128.99 1672.84 1127.46 1693.74 1124.39 1714.68 1121.65 1735.58 1118.77 1733.84 1094.56 1743.47 1083.28 1766.47 1081.18 1769.09 1080.93 1771.32 1076.43 1773.8 1070.99M1714.4 1507.01C1732.16 1498 1749.75 1488.6 1767.76 1480.1 1780.02 1474.3 1782.78 1465.19 1780.79 1452.8 1777.62 1433.09 1775.06 1413.28 1772.8 1397.49 1762.14 1392.55 1751.3 1390.38 1745.03 1383.84 1738.36 1376.88 1736.02 1365.78 1731.39 1355.63 1715.09 1353.36 1696.51 1349.82 1677.79 1348.61 1669.55 1348.07 1657.93 1349.54 1653.23 1354.86 1643.28 1366.12 1634.04 1379.61 1629.52 1393.78 1614.48 1441.02 1601.65 1488.96 1586.9 1540.4 1631.46 1528.68 1671.56 1518.14 1714.4 1507.01M1867.05 1625.02C1874.69 1637.2 1882.32 1649.38 1891.94 1664.72 1915.4 1623.74 1938.33 1586.69 1958.02 1548 1967.42 1529.53 1971.05 1508.02 1976.35 1487.63 1977.38 1483.64 1975.56 1476.7 1972.52 1474.22 1954.41 1459.47 1935.56 1445.62 1917.11 1431.59 1899.83 1451.18 1882.29 1451.08 1864.5 1431.96 1853.87 1439.99 1843.16 1448.14 1832.4 1456.22 1801.16 1479.68 1798.1 1480.86 1812.42 1517.63 1826.6 1554.06 1847.8 1587.78 1867.05 1625.02M1679.21 1286.64C1684.96 1278.8 1690.71 1270.96 1696.32 1263.31 1677.24 1246 1677.44 1229.66 1696.17 1210.63 1683.42 1193.86 1670.2 1177.27 1657.95 1159.98 1652.38 1152.14 1646.75 1150.39 1637.25 1151.89 1571.35 1162.24 1522.48 1205.64 1461.32 1238.49 1510.9 1265.59 1554.44 1292.76 1600.77 1313.74 1642.96 1332.85 1647.5 1328.92 1675.52 1291.49 1676.23 1290.54 1676.98 1289.63 1679.21 1286.64M1849.92 1032.04C1855.05 1035.68 1860.16 1039.32 1865.15 1042.86 1881.96 1023.89 1899.82 1023.92 1917.48 1043.12 1933.19 1031.11 1948.24 1017.74 1965.1 1007.28 1977.93 999.328 1977.96 990.15 1975.55 977.671 1963.43 914.956 1921.91 867.598 1891.39 810.391 1875.77 836.061 1860.52 857.71 1848.84 881.134 1833.47 911.957 1820.58 944.044 1807.28 975.858 1801.75 989.071 1803.62 1000.17 1818.16 1008.15 1828.91 1014.04 1837.98 1023.01 1849.92 1032.04M2156.06 1319.98C2167.85 1316.54 2180.67 1315.02 2191.24 1309.33 2230.05 1288.42 2268.15 1266.17 2306.43 1244.28 2309.6 1242.47 2312.12 1239.55 2316.21 1236.08 2280.58 1214.93 2247.56 1193.11 2212.48 1175.31 2190.85 1164.34 2166.2 1159.18 2142.67 1152.21 2138.56 1151 2131.24 1152.1 2128.87 1154.98 2113.74 1173.4 2099.59 1192.62 2085.27 1211.37 2104.72 1229.03 2104.51 1245.2 2085.62 1264.53 2097.03 1279.3 2109.88 1293.37 2119.64 1309.33 2128.43 1323.73 2138.83 1326.3 2156.06 1319.98M2048.6 485.316C2035.27 476.578 2022.11 467.55 2008.49 459.288 2004.46 456.846 1998.37 454.351 1994.52 455.661 1969.31 464.235 1944.45 473.849 1919.05 483.283 1920.82 486.058 1921.2 487.378 1922.07 487.914 1970.24 517.698 2018.37 547.531 2066.76 576.953 2070.85 579.437 2077.08 580.949 2081.55 579.834 2103.51 574.369 2125.2 567.867 2148.89 561.191 2121.43 526.989 2083.28 510.522 2048.6 485.316M1176.49 1146.13C1193.52 1119.27 1210.69 1092.5 1227.46 1065.48 1230.41 1060.73 1234.41 1054.33 1233.35 1049.76 1227.99 1026.75 1221.12 1004.1 1213.78 977.796 1202.4 990.54 1192.28 999.707 1184.78 1010.67 1160.16 1046.69 1136.45 1083.33 1112.55 1119.84 1110.07 1123.62 1106.13 1129.03 1107.22 1132.17 1116.26 1158.19 1126.33 1183.85 1137.27 1212.74 1151.29 1188.84 1163.17 1168.57 1176.49 1146.13M2595.37 1467.5C2619.72 1430.59 2644.13 1393.7 2668.34 1356.69 2671.15 1352.4 2675.85 1346.42 2674.66 1342.92 2665.77 1316.83 2655.62 1291.17 2645.46 1264.29 2612.84 1315.89 2581.62 1365.06 2550.81 1414.46 2548.6 1417.99 2547.83 1423.69 2548.87 1427.75 2554.5 1449.68 2560.91 1471.41 2567.88 1496.14 2577.72 1486.15 2585.85 1477.9 2595.37 1467.5M1140.87 1268.08C1138.77 1268.37 1135.14 1268.08 1134.77 1269.04 1125.65 1292.57 1116.51 1316.12 1108.38 1340 1107.06 1343.88 1109.38 1350.1 1111.91 1354.01 1135.92 1391.08 1159.9 1428.18 1184.92 1464.58 1192.58 1475.72 1203.42 1484.69 1214.39 1496.34 1220.75 1472.6 1226.8 1452.93 1230.96 1432.87 1232.43 1425.81 1231.49 1416.46 1227.88 1410.41 1199.81 1363.45 1170.81 1317.05 1140.87 1268.08M2555.92 1020.49C2545.74 1043.44 2550.01 1062.51 2564.93 1083.59 2590.72 1120.04 2612.4 1159.38 2635.85 1197.48 2638.46 1201.73 2641.3 1205.84 2645.31 1211.95 2655.25 1185.06 2664.58 1161.03 2672.78 1136.61 2674.28 1132.16 2672.69 1125.2 2670 1121.03 2645.74 1083.38 2621.31 1045.83 2596.01 1008.88 2588.67 998.174 2578.33 989.521 2567.74 978.182 2563.48 994.064 2560.3 1005.95 2555.92 1020.49M1692.63 512.232C1671.63 526.46 1648.53 538.3 1634.27 561.908 1655.74 567.65 1675.47 573.719 1695.6 577.872 1702.67 579.33 1712.01 578.273 1718.1 574.646 1763.68 547.474 1808.73 519.398 1853.88 491.502 1857.07 489.532 1859.74 486.729 1863.56 483.56 1838.69 474.211 1815.74 464.987 1792.3 457.211 1786.76 455.373 1778.38 456.438 1773.39 459.529 1746.8 476.004 1720.88 493.55 1692.63 512.232M2124.62 1907.09C2113.89 1904.01 2102.82 1901.76 2092.5 1897.66 2078.84 1892.22 2068.44 1896.16 2056.64 1903.8 2018.05 1928.77 1978.62 1952.44 1939.51 1976.62 1932.71 1980.83 1925.93 1985.05 1916.54 1990.88 1944.36 2001.14 1968.84 2010.63 1993.73 2018.92 1998.05 2020.35 2004.88 2017.93 2009.17 2015.16 2045.37 1991.78 2081.54 1968.35 2117.03 1943.93 2128.62 1935.96 2138.18 1925.04 2150.5 1913.8 2139.92 1911.1 2133.66 1909.5 2124.62 1907.09M1771.93 2014.86C1777.14 2016.46 1783.21 2020.64 1787.42 2019.23 1812.67 2010.8 1837.5 2001.1 1863.76 1991.33 1812.33 1958.84 1763.16 1927.64 1713.74 1896.84 1710.22 1894.65 1704.49 1894.02 1700.4 1895.07 1678.49 1900.71 1656.78 1907.11 1632.06 1914.07 1673.05 1957.26 1724.77 1980.82 1771.93 2014.86M2511.34 754.447C2488.97 744.279 2466.59 734.111 2443.52 723.627 2456.5 781.04 2468.43 834.24 2480.67 887.369 2482.07 893.449 2483.49 901.772 2487.8 904.547 2507.79 917.402 2528.79 928.666 2551.07 941.443 2551.51 933.972 2552.56 929.763 2551.87 925.855 2542.34 871.498 2532.68 817.162 2522.54 762.919 2521.98 759.93 2516.94 757.783 2511.34 754.447M1473.22 1812.67C1442.19 1804.91 1411.17 1797.14 1375.95 1788.33 1388.74 1816.33 1399.22 1839.95 1410.52 1863.17 1412.08 1866.39 1417.49 1868.72 1421.53 1869.61 1449.15 1875.71 1476.79 1881.82 1504.6 1886.96 1533.22 1892.24 1562.04 1896.43 1590.78 1901.1 1591.64 1899.2 1592.5 1897.31 1593.37 1895.41 1583.4 1877.67 1574.32 1859.32 1563.01 1842.46 1558.41 1835.59 1549.63 1829.48 1541.6 1827.34 1520.06 1821.58 1497.89 1818.16 1473.22 1812.67M1519.89 651.997C1532.35 648.853 1549.72 649.743 1556.3 641.754 1571.55 623.218 1581.6 600.394 1594.65 577.772 1588.25 577.286 1585.21 576.449 1582.42 576.935 1527.33 586.468 1472.26 596.107 1417.24 605.966 1414.85 606.395 1411.9 608.674 1410.87 610.867 1399.69 634.628 1388.85 658.541 1376.25 686.068 1425.87 674.15 1471.38 663.226 1519.89 651.997M1326.27 777.555C1330.27 760.846 1334.26 744.134 1339.26 723.18 1311.18 735.971 1287.61 746.38 1264.45 757.638 1261.31 759.168 1259.25 764.74 1258.38 768.803 1251.1 802.707 1243.73 836.6 1237.4 870.689 1233.29 892.863 1230.88 915.35 1227.71 937.698 1229.44 938.554 1231.17 939.413 1232.9 940.268 1249.51 930.742 1265.64 920.205 1282.9 912.025 1295.19 906.197 1299.25 897.346 1301.82 885.041 1309.11 850.026 1317.59 815.264 1326.27 777.555M2546.84 1596.06C2549 1576.26 2551.16 1556.45 2553.8 1532.19 2528.9 1546.23 2509.33 1556.83 2490.33 1568.37 2486.45 1570.73 2483.33 1576.34 2482.25 1581 2469.33 1636.6 2456.86 1692.31 2443.58 1751.05 2466.51 1740.75 2488.53 1731.64 2509.7 1720.87 2515.74 1717.79 2522.05 1710.52 2523.58 1704.07 2531.8 1669.22 2538.56 1634.03 2546.84 1596.06M1306.94 1617.26C1305.63 1610.93 1304.6 1604.53 1302.92 1598.3 1300.38 1588.84 1300.35 1575.45 1294.05 1570.87 1274.91 1556.96 1253.28 1546.47 1230.97 1533.71 1230.49 1540.86 1229.41 1545.02 1230.08 1548.88 1239.61 1603.2 1249.32 1657.48 1259.27 1711.73 1259.68 1714.01 1262.38 1716.62 1264.67 1717.68 1288 1728.55 1311.47 1739.13 1338.94 1751.63 1327.96 1705.12 1317.93 1662.62 1306.94 1617.26M2394.87 1813.34C2397.8 1806.39 2400.71 1799.44 2404.2 1791.16 2399 1791.16 2395.47 1790.51 2392.26 1791.26 2339.73 1803.46 2287.21 1815.76 2234.77 1828.33 2230.51 1829.36 2225.1 1831.57 2223.06 1834.94 2211.07 1854.82 2199.92 1875.21 2187.07 1897.92 2199.72 1897.92 2209.22 1899.23 2218.22 1897.68 2248.89 1892.39 2279.16 1883.16 2309.99 1880.88 2353.85 1877.65 2383.6 1860.46 2394.87 1813.34M2198.63 597.814C2205.03 609.064 2210.29 621.205 2218.2 631.256 2223.77 638.329 2232.22 645.421 2240.65 647.582 2284.37 658.79 2328.49 668.436 2372.48 678.572 2382.28 680.829 2392.13 682.856 2405.48 685.752 2393.3 658.904 2383.23 635.81 2372.19 613.185 2370.38 609.487 2364.66 606.445 2360.22 605.476 2316.6 595.943 2272.98 586.333 2229.11 578.102 2216.45 575.728 2202.96 577.741 2187.86 577.741 2191.84 585.346 2194.51 590.453 2198.63 597.814M1984.16 365.916C1965.14 370.586 1946.13 375.257 1923.56 380.804 1950.09 398.315 1973.47 413.995 1997.22 429.092 1999.9 430.796 2004.97 430.125 2008.43 429.021 2060.55 412.405 2113.81 404.671 2168.52 407.511 2174.32 407.812 2180.15 407.553 2185.96 407.553 2122.49 376.031 2056.88 360.17 1984.16 365.916M1633.63 407.092C1681.1 406.556 1727.24 414.438 1772.42 428.723 1776.03 429.866 1781.2 431.346 1783.78 429.713 1807.95 414.381 1831.72 398.404 1856.82 381.801 1757.3 343.546 1650.48 377.241 1595.85 407.096 1607.81 407.096 1618.99 407.096 1633.63 407.092M2755.27 1445.67C2766.97 1388.05 2770.68 1330.79 2746.96 1272.41 2730.63 1297.1 2715 1320.48 2699.79 1344.15 2698.27 1346.51 2698.42 1350.88 2699.4 1353.78 2718.17 1409.21 2724.24 1466.23 2721.44 1524.43 2721.32 1526.96 2721.97 1529.54 2722.26 1532.09 2723.52 1532.32 2724.78 1532.55 2726.04 1532.77 2735.47 1504.66 2744.89 1476.54 2755.27 1445.67M1020.91 1409.17C1023 1453.31 1044.07 1491.64 1056.41 1535.25 1059.22 1531.21 1060.32 1530.37 1060.29 1529.57 1058.13 1469.23 1062.62 1409.78 1083.24 1352.37 1084.08 1350.05 1083.66 1346.37 1082.32 1344.3 1066.81 1320.38 1050.99 1296.63 1034.56 1271.79 1018.51 1317.2 1012.43 1360.88 1020.91 1409.17M1930.19 2096.18C2019.4 2125.44 2103.49 2106.67 2185.67 2069.17 2176.97 2067.72 2168.27 2068.46 2159.73 2067.59 2116.46 2063.18 2072.08 2062.79 2030.42 2052 2005.24 2045.48 1988.62 2048.07 1970.34 2063.09 1956.57 2074.4 1941.9 2084.62 1930.19 2096.18M1634.13 2085.6C1636.38 2086.27 1638.68 2086.81 1640.87 2087.62 1711.18 2113.79 1782.09 2120.07 1856.96 2093.37 1831.46 2076.48 1807.78 2060.44 1783.58 2045.23 1780.67 2043.4 1774.91 2045.94 1770.5 2046.67 1727.79 2053.72 1685.18 2061.44 1642.34 2067.54 1627.26 2069.69 1611.61 2067.88 1596.22 2067.88 1596.05 2069.09 1595.89 2070.3 1595.73 2071.52 1607.64 2075.91 1619.55 2080.31 1634.13 2085.6M2746.65 1002.08C2739.6 982.054 2732.56 962.027 2725.51 942.003 2721.67 951.607 2721.29 960.26 2721.73 968.87 2724.16 1015.75 2716.97 1061.59 2703.86 1106.19 2699.28 1121.79 2698.86 1132.92 2709.02 1146.08 2722.72 1163.82 2734.16 1183.3 2747.55 1203.51 2771.23 1134.81 2769.45 1069.73 2746.65 1002.08M1016.92 1131.77C1022.06 1154.87 1027.19 1177.97 1033.26 1205.25 1051.11 1178.23 1066.82 1154.96 1081.79 1131.21 1083.72 1128.16 1082.76 1122.39 1081.51 1118.38 1065.94 1068.62 1058.01 1017.86 1060.41 965.629 1060.77 958.006 1060.46 950.354 1060.46 942.713 1030.64 1001.9 1015.78 1063.46 1016.92 1131.77M1960.85 427.829C1945.12 417.395 1930.2 405.321 1913.37 397.137 1903.26 392.221 1887.73 388.388 1878.91 392.732 1852.92 405.53 1829.06 422.647 1801.74 439.715 1831.14 450.777 1856.33 460.381 1881.64 469.654 1885.39 471.028 1890.22 472.355 1893.67 471.163 1921.42 461.548 1948.96 451.327 1979.11 440.367 1971.67 435.083 1967.39 432.049 1960.85 427.829M1954.45 2051.51C1962.03 2046.39 1969.6 2041.26 1979.1 2034.85 1950.78 2024.19 1925.6 2014.59 1900.29 2005.31 1896.54 2003.94 1891.71 2002.62 1888.26 2003.81 1860.51 2013.43 1832.96 2023.65 1802.23 2034.82 1827.37 2051.4 1848.77 2065.93 1870.62 2079.77 1885.07 2088.93 1899.83 2087.34 1913.91 2078.24 1926.79 2069.92 1939.56 2061.44 1954.45 2051.51M1124.69 1236.01C1114.71 1208.11 1104.72 1180.21 1093.25 1148.16 1075.82 1175.64 1059.6 1199.26 1045.8 1224.21 1041.95 1231.16 1041.95 1243.86 1045.8 1250.81 1059.62 1275.75 1075.84 1299.36 1093.27 1326.8 1104.73 1294.75 1114.71 1266.85 1124.69 1236.01M2736.26 1252.38C2736.53 1243.28 2740.24 1232.3 2736.46 1225.4 2722.53 1199.93 2706.13 1175.81 2689.08 1148.68 2678.09 1177.77 2668.44 1202.85 2659.26 1228.1 2657.72 1232.33 2656.64 1237.84 2658.02 1241.82 2667.49 1268.96 2677.68 1295.85 2688.77 1325.91 2705.74 1300.04 2720.53 1277.51 2736.26 1252.38M1324.32 1766.36C1305.52 1757.86 1286.72 1749.36 1264.73 1739.42 1271.07 1769.81 1275.85 1796.28 1282.49 1822.28 1284.32 1829.44 1290.5 1839.05 1296.7 1840.94 1325.83 1849.8 1355.67 1856.37 1389.37 1864.79 1378.28 1840.25 1368.63 1821.42 1361.22 1801.74 1354.74 1784.54 1344.42 1772.7 1324.32 1766.36M1377.13 636.977C1380.54 629.645 1383.94 622.313 1389.16 611.059 1357.63 618.086 1329.5 623.264 1302.15 631.157 1294.63 633.325 1286.04 642.635 1283.84 650.35 1276.19 677.181 1271.13 704.753 1264.26 735.744 1276.3 730.356 1284.34 725.519 1293.06 723.059 1336.63 710.766 1364.32 683.097 1377.13 636.977M2467.44 712.803C2482.94 719.975 2498.45 727.148 2517.38 735.907 2510.91 705.091 2506.09 678.608 2499.42 652.604 2497.58 645.449 2491.37 635.859 2485.17 633.982 2456.05 625.17 2426.23 618.65 2392.46 610.267 2401.99 631.065 2410.47 646.02 2415.8 662.027 2424.17 687.168 2439.04 704.633 2467.44 712.803M2469.76 1760.82C2456.86 1767.57 2438.85 1771.08 2432.07 1781.72 2416.64 1805.97 2406.71 1833.72 2392.89 1863.62 2423.79 1856.98 2450.86 1852.19 2477.23 1844.88 2485.12 1842.7 2495.02 1834.62 2497.17 1827.26 2505.27 1799.47 2510.56 1770.86 2517.64 1739.24 2499.87 1747.19 2486.01 1753.38 2469.76 1760.82M1414.32 1246.12C1417.72 1243.29 1421.13 1240.45 1426.08 1236.32 1396.15 1216.61 1367.9 1198 1337.87 1178.22 1326.94 1218.96 1325.8 1256.24 1338.55 1296.44 1364.47 1279.27 1388.38 1263.42 1414.32 1246.12M2390.41 1213.08C2379.46 1220.81 2368.52 1228.55 2355.05 1238.06 2385.57 1258.17 2414.06 1276.93 2444.14 1296.75 2455.16 1255.59 2455.48 1218.7 2444.13 1178.99 2426.04 1190.47 2409.3 1201.09 2390.41 1213.08M1928.19 1794.91C1934.41 1793.92 1940.64 1792.92 1950.9 1791.27 1930.34 1760.09 1911.51 1731.54 1890.96 1700.38 1870.4 1731.56 1851.59 1760.1 1831.11 1791.18 1865.05 1797.3 1894.69 1804.3 1928.19 1794.91M1507.81 1647.15C1518.06 1654.34 1528.31 1661.54 1541.78 1670.99 1549.1 1634.5 1555.69 1601.7 1563.1 1564.8 1525.27 1572.68 1492.42 1579.53 1453.71 1587.59 1473.84 1610.05 1489.8 1627.85 1507.81 1647.15M2251.06 1571.17C2241.48 1569.86 2231.9 1568.54 2218.93 1566.76 2226.34 1602.77 2233.09 1635.59 2240.07 1669.54 2277.29 1649.6 2303.48 1623.8 2322.93 1587.03 2299.37 1581.75 2276.74 1576.67 2251.06 1571.17M2296.21 848.493C2279.11 833.992 2262 819.49 2240.78 801.504 2232.93 840.139 2226.26 872.932 2218.71 910.101 2256.39 902.297 2289.25 895.497 2324.93 888.108 2314.19 873.17 2306.01 861.802 2296.21 848.493M1495.28 896.895C1516.83 900.732 1538.37 904.565 1563.45 909.026 1555.57 871.853 1548.63 839.117 1541.49 805.454 1504.3 825.723 1478.13 851.407 1459.66 887.029 1471.2 890.432 1481.76 893.545 1495.28 896.895M1872.56 746.6C1878.5 755.015 1884.44 763.433 1891.72 773.754 1911.72 743.129 1930.37 714.581 1949.89 684.698 1908.72 673.344 1871.8 672.667 1832.23 685.348 1845.99 706.333 1858.51 725.444 1872.56 746.6M1231.32 969.579C1237.13 989.908 1242.95 1010.24 1248.54 1029.8 1287.85 1006.67 1300.22 974.129 1288.59 928.769 1268.43 942.099 1249.68 954.492 1231.32 969.579M1589.19 1836.16C1588.33 1838.92 1585.9 1842.53 1586.86 1844.32 1595.49 1860.4 1604.45 1876.31 1614.01 1891.86 1615.58 1894.42 1620.94 1896.82 1623.75 1896.11 1643.91 1891.02 1663.87 1885.12 1684.18 1879.39 1662.77 1849.05 1637.94 1828.82 1599.45 1835.76 1597.17 1836.17 1594.73 1835.79 1589.19 1836.16M1678.88 594.105C1658.69 588.458 1638.5 582.812 1617.21 576.857 1605.71 597.136 1594.68 616.602 1583.22 636.835 1587.9 638.127 1589.58 639.001 1591.25 638.99 1604.78 638.894 1618.3 638.759 1631.82 638.386 1646.11 637.992 1677.11 610.619 1678.88 594.105M2112.81 1861.92C2106.36 1865.9 2099.92 1869.88 2093.48 1873.85 2095.15 1875.87 2096.82 1877.88 2098.49 1879.88 2117.77 1885.16 2137.01 1890.65 2156.41 1895.49 2159.63 1896.29 2165.55 1895.43 2166.86 1893.28 2177.75 1875.45 2187.85 1857.14 2199.73 1836.27 2166.22 1836.69 2134.86 1828.53 2112.81 1861.92M2546.25 960.721C2528.57 950.723 2510.88 940.729 2493.04 930.65 2480.51 975.546 2496.26 1006.92 2535.09 1031.48 2539.63 1007.99 2544.06 985.106 2546.25 960.721M2153.9 580.203C2135.27 585.197 2116.63 590.194 2097.5 595.322 2128.11 636.087 2158.98 648.501 2197.69 635.26 2187.76 617.72 2178.27 600.23 2167.86 583.312 2166.21 580.636 2160.38 580.526 2153.9 580.203M2549.61 1502.88C2544.21 1483.38 2538.81 1463.9 2533.49 1444.7 2495.63 1468 2481 1499.79 2492.79 1544.49 2511 1534.19 2528.81 1524.34 2546.28 1513.94 2548.6 1512.56 2549.23 1508.33 2549.61 1502.88M1291.64 1505.99C1295.62 1473.04 1265.17 1463.98 1249.19 1441.39 1242.32 1466.55 1236.35 1488.44 1230.17 1511.04 1250.3 1522.48 1269.42 1533.34 1291.69 1545.99 1291.69 1531.19 1291.69 1520.26 1291.64 1505.99M1933.49 1079.45C1950.35 1105.48 1947.2 1100.84 1979.9 1093.59 1984.23 1092.64 1990.13 1083.97 1989.78 1079.28 1988.34 1059.75 1984.78 1040.38 1981.65 1018.53 1965.33 1030.86 1951.21 1042.17 1936.42 1052.5 1926.05 1059.73 1924.24 1067.37 1933.49 1079.45M1713.93 1274.42C1700.22 1291.68 1686.51 1308.94 1671.33 1328.04 1691.88 1331.05 1709.04 1334.28 1726.35 1335.72 1732.65 1336.24 1744.27 1333.59 1744.94 1330.53 1747.75 1317.67 1751.64 1302.14 1746.74 1291.4 1742.71 1282.56 1726.87 1279.08 1713.93 1274.42M2065.7 1273.25C2032.01 1283.08 2024.83 1295.32 2034.02 1325.85 2036.65 1334.61 2041.17 1338.3 2050.38 1336.84 2069.32 1333.86 2088.31 1331.29 2110.64 1328.06 2095.45 1308.96 2081.73 1291.7 2065.7 1273.25M1802.15 1020.83C1798.86 1038.26 1795.96 1055.77 1792.15 1073.08 1789.12 1086.86 1793.8 1093.17 1807.86 1095.77 1834.86 1100.75 1838.49 1099.22 1851.86 1074.39 1856.35 1066.06 1855.82 1060.6 1848.2 1054.96 1833.55 1044.13 1819.26 1032.81 1802.15 1020.83M2098.71 1162.35C2102.07 1157.4 2105.43 1152.46 2109.31 1146.75 2097.81 1144.89 2089.14 1143.37 2080.43 1142.09 2071.72 1140.81 2063 1139.28 2054.24 1138.8 2048.65 1138.5 2041.43 1137.96 2037.64 1140.95 2029.15 1147.63 2029.14 1179.88 2036.32 1186.18 2059.7 1206.71 2064.73 1206.45 2081.92 1183.91 2086.92 1177.37 2092.02 1170.9 2098.71 1162.35M1687.02 1144.81C1682.75 1145.44 1678.47 1146.07 1672 1147.02 1683.98 1162.87 1693.83 1177.41 1705.4 1190.43 1709.75 1195.33 1720.2 1200.9 1724.17 1198.89 1735.8 1193 1752.72 1189.8 1752.24 1171.68 1751.47 1142.34 1744.99 1137.26 1716.19 1141.09 1707.48 1142.25 1698.77 1143.4 1687.02 1144.81M1799.51 1452.97C1811.43 1445.29 1823.81 1438.21 1835.19 1429.79 1860.35 1411.17 1859.98 1407.9 1840.49 1383.28 1830.8 1371.05 1820.65 1378.39 1810.13 1379.1 1792.6 1380.28 1789.37 1389.27 1792.68 1404.88 1795.83 1419.74 1796.85 1435.04 1799.51 1452.97M1927.07 1406.97C1937.23 1432.14 1963.18 1438.48 1981.65 1456.53 1984.81 1435.2 1987.88 1417.3 1989.86 1399.29 1990.42 1394.14 1989.65 1386.41 1986.34 1383.71 1970.29 1370.61 1946.5 1375.18 1935.32 1392.44 1932.77 1396.37 1930.63 1400.56 1927.07 1406.97M2443.75 942.309C2451.64 950.148 2459.52 957.985 2469.1 967.51 2472.74 909.391 2466.48 903.219 2407.75 902.961 2406.21 904.472 2404.68 905.984 2403.14 907.496 2416.09 918.505 2429.04 929.515 2443.75 942.309M1329.52 1523.67C1325.67 1517.92 1321.82 1512.17 1317.97 1506.42 1304.72 1561.33 1315.78 1572.58 1374.21 1571.87 1375.95 1570.15 1377.68 1568.43 1379.42 1566.71 1363.37 1552.96 1347.31 1539.21 1329.52 1523.67M2434.98 1541.62C2425.43 1551.75 2415.89 1561.87 2404.93 1573.5 2469.49 1566.74 2481.99 1553.38 2466.78 1510.1 2456.76 1520.01 2446.74 1529.92 2434.98 1541.62M2187.53 658.811C2179.66 658.811 2171.79 658.811 2168.89 658.811 2187.18 678.899 2206.65 700.289 2227.37 723.042 2225.9 709.513 2225.37 697.9 2223.25 686.589 2218.84 662.995 2214.5 659.688 2187.53 658.811M1597.46 658.801C1561.61 659.287 1557.28 665.785 1556.04 722.719 1576.51 700.701 1596.14 679.591 1615.48 658.783 1611.9 658.783 1606.19 658.783 1597.46 658.801M1366.39 902.25C1354.8 903.886 1342.52 903.723 1331.84 907.769 1324.28 910.633 1315.1 918.275 1313.36 925.415 1310.34 937.823 1312.53 951.494 1312.53 961.331 1332.04 943.53 1352.33 925.035 1372.44 906.343 1372.59 906.208 1370.2 903.354 1366.39 902.25M2163.75 1813.02C2207.71 1827.88 2220.57 1815.84 2226.81 1753.91 2225.7 1754.15 2224.23 1754.02 2223.52 1754.7 2203.96 1773.37 2184.48 1792.12 2163.75 1813.02M1574 1769.03C1568.17 1763.51 1562.33 1757.99 1554.82 1750.9 1561.42 1815.93 1573.83 1827.57 1616.6 1813.59 1603.34 1799.69 1589.56 1785.24 1574 1769.03M2514.3 1084.64C2531.55 1059.23 2526.88 1045.94 2492.16 1022.66 2492.16 1051.62 2492.16 1080.28 2492.16 1112.13 2500.35 1101.91 2506.49 1094.24 2514.3 1084.64M1290.83 1094.97C1290.83 1070.71 1290.83 1046.45 1290.83 1019.69 1248.26 1057.06 1248.81 1077.96 1290.82 1108.88 1290.82 1104.85 1290.82 1101.35 1290.83 1094.97M2498.8 1371.04C2497.03 1369.12 2495.26 1367.2 2492.28 1363.97 2492.28 1395.13 2492.28 1423.86 2492.28 1453.69 2533.1 1420.02 2533.62 1415.53 2502.61 1375.56 2501.89 1374.63 2501.15 1373.72 2498.8 1371.04M2090.25 637.858C2095.72 637.591 2101.2 637.325 2108.4 636.977 2070.67 596.047 2067.08 589.711 2018.67 637.843 2042.3 637.843 2064.65 637.843 2090.25 637.858M1258.4 1408.49C1258.91 1413.31 1257.73 1419.42 1260.24 1422.72 1268.56 1433.62 1278.2 1443.5 1290.89 1457.76 1290.89 1437.9 1290.89 1423.53 1290.89 1409.15 1290.89 1394.8 1290.89 1380.45 1290.89 1366.09 1289.53 1365.62 1288.18 1365.15 1286.82 1364.68 1277.49 1378.43 1268.16 1392.17 1258.4 1408.49M1732.48 1837.29C1713.41 1837.29 1694.34 1837.29 1672.86 1837.29 1711.33 1878.89 1714.76 1885.29 1763.17 1837.29 1753.27 1837.29 1744.54 1837.29 1732.48 1837.29M2082.5 1863.9C2090.85 1856.11 2099.21 1848.32 2110.05 1838.21 2077.22 1838.21 2048.45 1838.21 2015.68 1838.21 2029.76 1848.98 2040.48 1857.87 2051.92 1865.71 2061.06 1871.97 2071.05 1874.55 2082.5 1863.9M1712.5 603.02C1699.56 613.164 1686.62 623.307 1673.69 633.45 1674.51 634.482 1675.33 635.519 1676.15 636.555 1704.91 636.555 1733.66 636.555 1762.42 636.555 1762.99 635.164 1763.55 633.773 1764.11 632.385 1747.76 622.728 1731.4 613.067 1712.5 603.02M1895.97 1409.06C1891.35 1410.52 1886.27 1411.3 1882.41 1413.89 1881.36 1414.59 1883.1 1421.49 1885.25 1424.21 1886.79 1426.15 1891.16 1425.85 1894.26 1426.56 1895.39 1421.27 1896.52 1415.99 1895.97 1409.06M1885.97 1065.91C1890.6 1064.45 1895.68 1063.67 1899.54 1061.08 1900.59 1060.38 1898.85 1053.48 1896.7 1050.76 1895.15 1048.82 1890.79 1049.12 1887.69 1048.41 1886.56 1053.7 1885.43 1058.99 1885.97 1065.91M2072.42 1246.23C2075.15 1242.53 2078.86 1239.12 2080.05 1234.98 2080.45 1233.62 2073.76 1227.95 2071.33 1228.52 2066.69 1229.62 2062.78 1233.8 2056.69 1237.99 2062.97 1242.36 2066.67 1244.92 2072.42 1246.23M1717.66 1230.82C1712.37 1231.95 1707.09 1233.07 1701.8 1234.2 1702.5 1237.3 1702.21 1241.66 1704.15 1243.2 1706.87 1245.35 1713.77 1247.09 1714.47 1246.05 1717.06 1242.18 1717.84 1237.11 1717.66 1230.82M1764.92 1120.18C1767.77 1116.47 1770.62 1112.76 1773.47 1109.06 1768.52 1106.24 1763.58 1103.42 1758.64 1100.6 1757.06 1102.27 1755.47 1103.95 1753.9 1105.63 1756.57 1110.42 1759.24 1115.22 1764.92 1120.18M2009.45 1105.57C2008.43 1112.21 2004.9 1120.85 2016.83 1119.73 2020.2 1119.42 2025.39 1114.03 2025.76 1110.54 2027.13 1097.75 2017.89 1103.05 2009.45 1105.57M2008.51 1366.49C2013.64 1369 2018.77 1371.51 2023.9 1374.02 2025.37 1372.2 2026.83 1370.38 2028.28 1368.56 2025.34 1364.02 2022.4 1359.47 2019.46 1354.93 2015.76 1357.78 2012.05 1360.63 2008.51 1366.49M1767.91 1354.87C1754.08 1353.88 1754.8 1362 1756.9 1372.12 1771.04 1373.6 1778.08 1370.44 1767.91 1354.87Z" fill="#fff" fill-rule="evenodd" />
    </g>
</svg>