<svg width="1646" height="1223" xmlns="http://www.w3.org/2000/svg" xmlns:xlink="http://www.w3.org/1999/xlink" xml:space="preserve" overflow="hidden">
    <defs>
        <clipPath id="clip0">
            <rect x="518" y="626" width="1646" height="1223" />
        </clipPath>
    </defs>
    <g clip-path="url(#clip0)" transform="translate(-518 -626)">
        <path d="M1212.11 1792.67C1201.81 1792.29 1192.31 1795.54 1183.7 1803 1177.68 1808.22 1171.26 1812.97 1165.04 1817.96 1162.57 1819.93 1160.11 1821.91 1158.17 1824.52 1173.66 1832.39 1207.08 1836.7 1235.38 1834.23 1268.25 1831.37 1299.15 1821.5 1328.66 1806.61 1309.69 1805.07 1290.72 1803.53 1271.14 1801.96 1254.34 1800.72 1238.39 1798.21 1222.67 1794.24 1219.06 1793.33 1215.54 1792.8 1212.11 1792.67ZM1055.11 1790.24C1053.93 1790.09 1052.7 1790.18 1051.38 1790.41 1030.73 1794.04 1010.07 1797.53 988.822 1801.17 983.277 1802.01 978.317 1802.73 973.36 1803.47 968.405 1804.21 963.476 1805.24 958.494 1805.67 953.28 1806.11 948.011 1805.86 942.777 1806.12 938.015 1806.36 933.065 1804.6 928.33 1806.91 929.096 1808.79 930.431 1809.23 931.701 1809.69 948.408 1815.73 965.03 1822.02 982.163 1826.79 1020.87 1837.57 1059.54 1837.97 1098.1 1826.09 1100.54 1825.34 1103.36 1825.12 1105.22 1822.98 1104.76 1822.32 1104.57 1821.83 1104.23 1821.61 1089.01 1811.58 1073.77 1801.57 1058.54 1791.54 1057.42 1790.8 1056.29 1790.4 1055.11 1790.24ZM1129.98 1761.83C1128.32 1761.98 1126.65 1762.43 1124.97 1763.05 1115.37 1766.61 1105.69 1769.96 1095.55 1773.61 1086.95 1776.79 1078.83 1779.74 1070.75 1782.69 1071.39 1785.1 1073.25 1785.74 1074.71 1786.71 1087.83 1795.36 1101.08 1803.81 1114.07 1812.64 1124.82 1819.94 1135.35 1819.66 1145.94 1812.72 1159.08 1804.1 1172.15 1795.38 1185.21 1786.64 1186.58 1785.72 1188.58 1785.17 1188.55 1782.44 1170.76 1775.8 1152.88 1769.08 1134.96 1762.47 1133.31 1761.86 1131.65 1761.69 1129.98 1761.83ZM1263.46 1688.13C1256.64 1687.2 1250.26 1689.19 1243.86 1693.21 1214.14 1711.9 1184.25 1730.32 1154.44 1748.89 1152.57 1750.06 1150.23 1750.74 1149.21 1753.15 1149.81 1753.52 1150.33 1753.97 1150.93 1754.19 1166.75 1760.01 1182.6 1765.79 1198.42 1771.62 1202.65 1773.18 1206.53 1772.36 1210.18 1770.12 1215.22 1767 1220.21 1763.8 1225.16 1760.52 1245.31 1747.17 1265.51 1733.89 1285.53 1720.35 1293.42 1715.01 1299.94 1708.06 1307.36 1700.44 1298.78 1698.1 1291.36 1696.08 1283.41 1693.92 1278.72 1692.56 1274.41 1691.71 1270.44 1690.06 1268.05 1689.07 1265.73 1688.44 1263.46 1688.13ZM1002.19 1687.34C1000.02 1687.39 997.904 1687.88 995.792 1688.48 983.065 1692.03 970.342 1695.59 957.626 1699.19 956.386 1699.54 954.936 1699.68 954.336 1701.14 954.507 1702.42 955.458 1703.14 956.266 1703.9 960.245 1707.65 964.102 1711.56 968.303 1715.04 993.307 1735.78 1022.16 1750.86 1048.73 1769.3 1053.59 1772.67 1058.92 1773.07 1064.89 1770.64 1078.39 1765.16 1092.2 1760.45 1105.87 1755.4 1107.25 1754.88 1109.08 1754.93 1109.77 1752.24 1076.4 1731.3 1042.86 1710.25 1008.88 1688.91 1006.57 1687.7 1004.35 1687.3 1002.19 1687.34ZM1449.32 1685.24C1442.97 1685.07 1437.62 1687.29 1432.05 1688.14 1400.52 1693.03 1368.98 1697.87 1337.51 1703.09 1325.85 1705.02 1315.21 1709.66 1307.17 1718.81 1301.85 1724.87 1295.69 1729.83 1288.94 1734.18 1282.43 1738.38 1276.02 1742.74 1269.14 1747.3 1255.73 1756.01 1242.7 1764.4 1229.77 1772.96 1226.88 1774.87 1223.45 1776.45 1222.11 1780.53 1237.7 1786.43 1253.65 1789.01 1269.74 1790.6 1297.27 1793.34 1324.85 1792.41 1352.43 1791.18 1357.52 1790.96 1361.55 1789.11 1365.26 1785.71 1380.06 1772.18 1394.84 1758.62 1408.46 1743.87 1421.63 1729.59 1433.67 1714.45 1443.61 1697.74 1445.87 1693.94 1448.24 1690.13 1449.32 1685.24ZM812.524 1684.96C811.406 1684.89 810.346 1685.16 809.531 1686.34 807.702 1688.98 810.53 1690.47 811.787 1692.09 824.397 1708.27 837.267 1724.25 849.762 1740.52 863.344 1758.2 880.807 1771.9 896.781 1787.14 899.716 1789.94 903.281 1791 907.382 1791.05 926.533 1791.26 945.676 1792.05 965.477 1791.67 991.085 1791.7 1015.35 1787.12 1039.89 1780.99 1037.01 1777.18 1033.68 1774.83 1030.21 1772.68 1022.85 1768.13 1015.47 1763.6 1008.05 1759.14 992.981 1750.09 978.165 1740.71 965.219 1728.69 947.129 1711.89 925.692 1703.05 901.086 1701.57 890.846 1700.97 880.661 1699.81 870.555 1697.92 852.18 1694.48 834.116 1689.69 815.871 1685.69 814.82 1685.46 813.643 1685.04 812.524 1684.96ZM1525.37 1671.66C1520.08 1671.26 1514.68 1671.7 1509.28 1672.72 1498.99 1674.65 1488.46 1675.19 1478.4 1678.35 1467.91 1681.65 1460.62 1688.2 1457.38 1698.91 1456.72 1701.07 1455.84 1703.12 1454.55 1705.06 1439.23 1728.06 1422.52 1749.9 1402.22 1769.46 1398.1 1773.96 1393.14 1776.97 1389.7 1781.86 1394.41 1782.16 1394.5 1782.21 1397.8 1780.86 1423.38 1770.3 1447.77 1757.61 1469.75 1740.66 1487.15 1727.24 1503.35 1712.63 1514.47 1693.27 1517.76 1687.55 1521.23 1681.93 1524.52 1676.21 1525.25 1674.94 1526.74 1673.72 1525.37 1671.66ZM736.506 1669.52C735.642 1669.34 734.764 1669.36 733.879 1670.06 733.701 1671.8 734.741 1673.1 735.426 1674.5 746.511 1697.1 761.792 1716.44 780.831 1732.86 796.436 1746.32 813.734 1757.22 832.425 1766.94 844.794 1773.07 856.649 1779.14 869.985 1783.9 869.716 1778.88 866.662 1776.94 864.175 1774.98 838.715 1754.87 819.252 1729.91 804.309 1701.31 796.926 1687.18 785.519 1678.81 769.953 1675.91 759.657 1673.98 749.364 1672.04 739.045 1670.24 738.218 1670.1 737.369 1669.7 736.506 1669.52ZM1218 1649.03C1226.27 1656.87 1234.46 1664.35 1244.25 1669.62 1249.55 1672.47 1254.96 1671.37 1259.53 1667.54 1263.53 1664.17 1267.25 1660.48 1271.45 1656.61 1273.98 1654.1 1276.83 1652.53 1278.47 1649.03 1257.95 1649.03 1237.97 1649.03 1218 1649.03ZM1005.86 1648.02C998.285 1647.99 990.79 1648.03 983.297 1648.44 983.133 1648.44 982.94 1648.66 982.834 1648.83 982.718 1649.02 982.686 1649.26 982.506 1649.82 987.748 1655.53 992.983 1661.51 999.193 1666.49 1004.06 1670.39 1009.55 1672.46 1015.66 1669.7 1025.75 1665.13 1033.18 1657.31 1040.18 1648.06 1036.64 1648.06 1033.11 1648.06 1028.93 1648.06 1021.1 1648.17 1013.44 1648.06 1005.86 1648.02ZM1327.5 1647.02C1322.29 1647.03 1317.71 1646.82 1313.17 1647.14 1304.11 1647.77 1295.52 1650.11 1288.95 1656.79 1283.69 1662.15 1278.74 1667.7 1271.87 1671.21 1269.15 1672.61 1269.28 1674.65 1271.83 1676.37 1273.11 1677.24 1274.67 1677.81 1276.19 1678.22 1287.4 1681.28 1298.6 1684.34 1309.85 1687.22 1316.21 1688.85 1317.92 1688.15 1321.12 1682.7 1327.11 1672.49 1332.97 1662.2 1338.84 1651.91 1339.58 1650.6 1340.86 1649.31 1339.4 1647.04 1335.87 1647.04 1332.02 1647.04 1327.5 1647.02ZM944.649 1646.12C939.363 1645.59 934.228 1646.68 929.023 1647.02 921.772 1647.5 920.405 1649.9 923.938 1656.52 927.464 1663.14 931.23 1669.62 935.162 1676.58 936.596 1678.96 937.701 1680.95 938.932 1682.86 942.31 1688.1 944.292 1688.93 950.301 1687.38 956.901 1685.68 963.504 1683.98 970.031 1682.03 975.857 1680.28 981.892 1679.16 987.859 1676.45 984.828 1671.03 980.821 1666.69 976.734 1662.5 967.92 1653.45 957.513 1647.4 944.649 1646.12ZM1111 1642.99C1100.74 1643.02 1090.48 1642.89 1080.26 1644.16 1072.14 1645.16 1064.56 1647.63 1058.69 1653.49 1049.61 1662.55 1039.37 1670.14 1029.2 1677.86 1027.08 1679.45 1024.44 1680.61 1023.22 1683.87 1030.56 1688.33 1037.92 1692.8 1045.74 1697.5 1070.7 1712.22 1095.26 1726.64 1119.71 1741.25 1125.27 1744.57 1130.81 1745.03 1136.7 1742.85 1139.04 1741.98 1141.37 1740.99 1143.55 1739.79 1175.18 1722.5 1205.23 1702.64 1235.87 1683.73 1236.38 1683.42 1236.63 1682.69 1237.24 1681.82 1225.86 1674.74 1216.5 1665.35 1206.08 1657.24 1203.93 1655.57 1201.69 1653.98 1199.41 1652.48 1189.81 1646.21 1179.3 1643.03 1167.79 1643.06 1148.86 1643.11 1129.93 1642.95 1111 1642.99ZM1474.99 1616.45C1473.11 1616.54 1471.33 1616.94 1469.57 1617.33 1464.24 1618.52 1458.92 1619.81 1453.6 1621.07 1424.77 1627.88 1395.94 1634.7 1367.1 1641.5 1362.8 1642.52 1358.79 1643.92 1356.42 1648.1 1349.12 1660.99 1341.77 1673.85 1334.48 1686.73 1334.18 1687.26 1334.24 1688 1334.05 1689.09 1341.91 1689.75 1349.52 1690.26 1357.16 1688.75 1379.95 1684.25 1402.56 1679.03 1425.79 1676.64 1446.01 1674.56 1462.07 1664.89 1470.71 1644.74 1474.25 1635.36 1476.85 1626.21 1481.06 1617.41 1478.86 1616.58 1476.87 1616.37 1474.99 1616.45ZM779.686 1615.11C778.493 1616.83 778.943 1617.65 779.312 1618.45 785.958 1632.93 792.719 1647.35 799.205 1661.9 801.364 1666.75 804.75 1669.31 809.854 1670.35 821.672 1672.76 833.426 1675.49 845.23 1677.97 869.747 1683.12 894.503 1686.91 919.251 1690.73 921.132 1691.02 923.343 1692.07 924.995 1690.06 926.917 1687.72 925.192 1685.74 924.127 1683.83 919.026 1674.69 913.759 1665.64 908.708 1656.48 903.656 1647.31 896.11 1642.1 885.814 1639.81 867.598 1635.78 849.126 1632.91 830.566 1627.8 813.101 1623.46 796.192 1619.23 779.686 1615.11ZM1359.1 1591.57C1345.86 1602.24 1334.25 1614.29 1321.92 1626.28 1320.41 1628.17 1318.19 1629.06 1318.53 1631.66 1324.27 1634.06 1330.25 1635.25 1336.47 1635.17 1342.56 1635.09 1347.59 1632.78 1350.85 1627.47 1357.58 1616.47 1358.54 1604.15 1359.1 1591.57ZM900.15 1589.51C901.271 1602.43 902.787 1613.42 907.253 1623.78 909.295 1628.52 912.463 1632.33 918.039 1634.41 926.396 1636.07 933.798 1634.78 941.845 1631.45 928.111 1617.33 915.85 1602.87 900.15 1589.51ZM1341.82 1584C1309.85 1596.67 1278.69 1611.23 1246.56 1624.85 1240.94 1627.53 1235.37 1629.17 1229.31 1633.36 1251.19 1633.36 1271.47 1633.32 1291.74 1633.4 1294.89 1633.41 1296.74 1631.57 1298.71 1629.68 1312.69 1616.26 1326.69 1602.87 1340.62 1589.4 1342.16 1587.91 1344.35 1586.74 1344.55 1584.24 1343.6 1583.46 1342.62 1583.68 1341.82 1584ZM919.436 1583.53C918.351 1583.03 917.173 1582.83 915.777 1583.55 915.746 1586.11 917.527 1587.37 918.936 1588.76 932.43 1602.04 945.94 1615.29 959.519 1628.49 962.142 1631.03 965.08 1633.26 969.615 1633.46 992.33 1633.87 1014.44 1634.15 1037.66 1633.56 1035.17 1631.33 1033.33 1631.15 1031.66 1630.59 1021.73 1627.23 1011.71 1624.1 1001.87 1620.5 974.656 1610.54 948.403 1598.38 922.533 1585.35 921.511 1584.84 920.521 1584.03 919.436 1583.53ZM1555.75 1582.4C1555 1582.62 1554.31 1583.01 1553.61 1583.31 1539.46 1589.58 1525.57 1596.42 1511.17 1602.11 1505.18 1604.47 1501.02 1608.71 1497.87 1614.29 1489.12 1629.79 1482.59 1646.31 1475.45 1662.55 1475.19 1663.12 1475.35 1663.88 1476 1664.81 1494.85 1661.88 1512.92 1658.2 1530.69 1653.29 1538.7 1651.08 1543.97 1645.88 1546.19 1637.58 1550.06 1623.06 1553.19 1608.38 1556.33 1593.7 1557.12 1589.98 1558.42 1586.33 1558.27 1582.47 1557.33 1582.12 1556.51 1582.18 1555.75 1582.4ZM702.013 1581.92C702.556 1589.23 704.337 1595.79 705.732 1602.41 708.175 1613.98 710.576 1625.57 713.368 1637.07 715.197 1644.6 719.539 1649.74 727.656 1651.9 745.04 1656.52 762.467 1660.94 779.976 1665.04 781.665 1665.44 783.353 1666.67 785.372 1665.25 785.085 1664.24 784.917 1663.11 784.457 1662.12 777.885 1647.85 771.332 1633.59 765.318 1619.07 761.891 1610.8 755.511 1604.95 747.159 1601.39 738.788 1597.81 730.462 1594.13 721.656 1590.25 714.978 1587.4 709.061 1584.05 702.013 1581.92ZM1130.18 1554.52C1126.19 1560.44 1122.77 1565.44 1119.41 1570.49 1116.14 1575.42 1112.93 1580.39 1109.66 1585.33 1106.28 1590.46 1102.76 1595.51 1099.47 1600.7 1096.28 1605.73 1092.34 1610.37 1090.12 1616.06 1117.26 1623.49 1143.49 1624.2 1170.07 1615.79 1167.09 1609.3 1162.37 1603.76 1158.33 1597.23 1148.93 1583 1139.83 1569.17 1130.18 1554.52ZM583.643 1497.33C591.27 1519.23 601.631 1539.56 614.15 1559.42 616.061 1562.3 617.666 1564.8 619.375 1567.21 634.334 1588.36 650.898 1607.9 673.649 1621.25 679.344 1624.59 684.955 1628.06 690.639 1631.42 691.935 1632.19 693.088 1633.65 694.929 1632.74 695.099 1632.33 695.422 1631.9 695.413 1631.48 695.012 1614.57 692.669 1597.91 687.451 1581.81 685.03 1574.34 679.66 1568.74 672.097 1566.32 666.073 1564.39 661.143 1560.92 656.05 1557.54 631.08 1540.95 608.214 1521.94 588.379 1499.38 587.41 1498.28 586.624 1496.65 583.643 1497.33ZM1675.86 1497.28C1671.92 1499.13 1671.89 1499.11 1669.03 1502.45 1647.54 1527.69 1622.65 1548.68 1592.89 1563.69 1578.81 1570.79 1571.3 1582.73 1568.64 1598.02 1567.04 1607.21 1565.35 1616.39 1563.73 1625.58 1563.31 1627.98 1562.98 1630.4 1562.41 1634.04 1581 1625.81 1596.53 1615.05 1610.95 1601.72 1626.69 1587.24 1639.23 1570.8 1649.96 1552.96 1664 1529.63 1675.85 1503.93 1675.86 1497.28ZM739.211 1477.57C738.419 1480.19 739.397 1482.09 739.901 1484.04 748.79 1518.69 757.811 1553.29 766.437 1587.99 767.792 1593.44 770.612 1596.8 775.267 1599.22 777.716 1600.49 780.291 1601.3 782.956 1601.98 803.484 1607.22 823.946 1612.72 844.531 1617.73 857.809 1620.95 871.242 1623.55 884.637 1626.28 890.34 1627.44 890.602 1627.08 889.835 1621.53 888.773 1613.86 887.669 1606.19 886.54 1597.91 886.237 1593.65 885.577 1590 885.796 1586.39 886.519 1574.44 882.126 1564.59 874.061 1556.1 864.8 1546.35 855.568 1536.57 846.288 1526.84 835.119 1515.12 823.652 1503.69 811.51 1492.98 802.459 1485 792.036 1480.63 779.693 1481.02 772.405 1481.25 765.157 1480 757.896 1479.32 751.639 1478.72 745.443 1476.87 739.211 1477.57ZM900.689 1462.49C899.791 1462.63 898.921 1462.94 898.029 1463.12 881.086 1466.61 864.119 1470 847.212 1473.66 842.192 1474.75 836.903 1475.05 831.367 1477.9 850.22 1497.65 865.474 1520.39 891.114 1533.31 893.939 1519.25 896.666 1505.68 899.53 1491.55 900.056 1488.97 900.439 1486.96 900.842 1484.95 902.096 1478.71 903.472 1472.48 904.577 1466.21 905.276 1462.24 904.758 1461.88 900.689 1462.49ZM678.972 1440.86C677.085 1445.2 677.295 1449.14 678.034 1453.24 681.069 1470.04 683.951 1486.87 686.957 1503.68 690.204 1521.84 693.511 1539.99 696.827 1558.14 697.402 1561.28 697.93 1564.52 701.81 1566.3 718.274 1573.93 734.193 1581.49 750.324 1588.26 751.476 1586.49 751.159 1585.34 750.91 1584.26 742.354 1546.98 732.602 1509.99 725.002 1472.49 724.348 1469.27 722.752 1466.58 719.966 1464.64 707.04 1455.67 693.072 1448.53 678.972 1440.86ZM737.819 1423.02C735.143 1430.97 734.192 1438.59 734.523 1446.36 734.92 1455.71 739.015 1460.97 748.104 1463.75 756.488 1466.31 765.161 1466.37 773.828 1466.37 775.839 1466.37 777.474 1465.63 778.321 1463.86 779.425 1461.55 777.221 1460.63 775.978 1459.55 766.534 1451.33 757.015 1443.2 747.175 1434.7 743.465 1431.1 741.973 1426.27 737.819 1423.02ZM1056.88 1412.18C1056.43 1412.39 1055.77 1412.59 1055.23 1412.98 1035.75 1426.74 1014 1435.2 990.982 1440.79 970.829 1445.67 950.725 1450.77 930.549 1455.57 923.412 1457.27 918.576 1460.52 917.757 1468.5 917.154 1474.37 915.739 1480.16 914.698 1485.99 911.934 1501.49 907.956 1516.7 904.129 1531.95 902.427 1538.72 904.312 1543.99 909.204 1548.59 928.274 1566.54 949.365 1581.52 973.292 1592.35 1001.25 1605 1030.71 1611.3 1061.22 1613.61 1071.13 1614.36 1078.14 1611.63 1083.53 1602.85 1094.38 1585.18 1105.96 1567.96 1117.53 1550.1 1121.17 1544.44 1120.44 1539.24 1117.68 1534.1 1116.51 1531.89 1115.23 1529.72 1113.92 1527.59 1104.93 1513.05 1095.82 1498.58 1086.94 1483.97 1073.73 1462.21 1062.91 1439.45 1058.72 1414.03 1058.59 1413.18 1058.21 1412.28 1056.88 1412.18ZM1467.93 1411.4 1467.93 1411.4 1467.92 1411.44ZM1712.66 1410.58C1712.66 1410.58 1712.79 1410.68 1712.9 1410.79 1713.03 1410.9 1712.97 1410.77 1712.93 1410.83 1712.9 1410.89 1712.66 1410.58 1712.66 1410.58ZM691.014 1378.42C688.45 1382.86 688.086 1387.45 686.556 1392.21 684.011 1401.53 681.551 1410.31 679.18 1419.11 677.691 1424.64 677.721 1424.71 682.852 1427.65 693.325 1433.66 703.817 1439.63 714.351 1445.54 715.819 1446.36 717.228 1447.95 719.827 1446.65 719.827 1437.35 719.689 1427.79 719.873 1418.25 720.011 1411.03 717.904 1404.59 712.966 1399.5 706.032 1392.36 698.62 1385.68 691.014 1378.42ZM1390.64 1364.87C1384.77 1365.35 1379.73 1367.98 1375.22 1371.57 1360.15 1383.58 1349.04 1398.6 1341.51 1416.29 1340.96 1417.61 1339.86 1419.05 1341.23 1421.19 1349.09 1419.45 1356.73 1416.84 1364.49 1412.93 1375.04 1407.28 1384.3 1400.78 1391.63 1391.82 1395.72 1386.81 1398.8 1381.29 1399.78 1374.8 1400.84 1367.85 1397.6 1364.31 1390.64 1364.87ZM1654.91 1364.8C1645.58 1364.56 1638.24 1369.05 1631.82 1375.08 1614.99 1390.91 1603.92 1410.27 1597.97 1432.51 1596.19 1439.17 1596 1446.02 1597.9 1452.76 1600.33 1461.38 1606.49 1464.8 1615.11 1462.49 1621.73 1460.71 1626.81 1456.58 1631.92 1451.58 1648.08 1434.92 1658.97 1415.66 1665.93 1394.16 1667.89 1388.09 1669.26 1381.84 1667.78 1375.37 1666.09 1367.99 1662.48 1365 1654.91 1364.8ZM1132.23 1355.79C1129.66 1355.58 1127.38 1356.5 1125.34 1357.87 1123.37 1359.19 1124.4 1361.05 1124.91 1362.72 1125.4 1364.3 1126.38 1365.46 1128.43 1366.26 1131.41 1366.81 1132.84 1365.82 1133.06 1363.3 1133.27 1360.88 1133.96 1358.43 1132.75 1356.08 1132.67 1355.93 1132.41 1355.8 1132.23 1355.79ZM734.126 1338.14C733.957 1339.19 733.757 1339.85 733.757 1340.51 733.736 1359.43 733.79 1378.35 733.677 1397.26 733.657 1400.51 734.852 1402.8 737.041 1405.07 750.956 1419.51 764.751 1434.07 778.627 1448.55 779.836 1449.81 780.857 1451.52 782.956 1451.5 783.584 1450.96 783.641 1450.27 783.393 1449.65 769.161 1413.89 752.91 1379 737.694 1343.14 736.257 1341.4 736.838 1338.64 734.126 1338.14ZM1317.16 1333.84C1319.95 1334.77 1320.03 1337.57 1321.5 1339.87 1324.99 1348.05 1327.79 1355.94 1330.3 1363.94 1331.2 1366.79 1331.24 1369.05 1328.37 1370.98 1325.79 1372.72 1323.6 1375.03 1321.08 1377.21 1313.02 1363.22 1314.54 1348.76 1317.16 1333.84ZM1082.91 1332.91C1079.83 1333.69 1076.65 1334.13 1073.5 1334.63 1063.8 1336.19 1060.6 1340.48 1062.45 1350.29 1063.6 1356.34 1064.43 1362.42 1065.39 1368.5 1066.19 1373.58 1065.79 1378.91 1068.14 1384.25 1078.09 1378.6 1087.44 1372.62 1096.64 1365.48 1098.21 1364.11 1099.45 1363.09 1100.58 1361.97 1105.88 1356.65 1106.41 1353.15 1102.41 1346.87 1100.22 1343.42 1097.66 1340.18 1095.09 1337 1091.95 1333.11 1087.93 1331.64 1082.91 1332.91ZM1540.29 1332.5C1542.42 1334.44 1541.44 1336.55 1541.68 1338.86 1541.2 1343.8 1538.12 1343 1534.89 1342.61 1535.71 1338.63 1538.6 1336.04 1540.29 1332.5ZM586.264 1328.71C585.199 1332.07 584.113 1335.5 582.9 1339.48 579.297 1353.97 577.12 1368.13 575.877 1382.45 573.644 1408.16 574.566 1433.89 575.785 1459.61 576.013 1464.43 577.725 1468.43 580.97 1471.89 582.372 1473.38 583.729 1474.92 585.111 1476.43 599.079 1491.74 612.474 1507.61 628.602 1520.81 644.846 1534.1 662.339 1545.68 679.377 1557.88 680.102 1558.4 680.892 1558.92 681.911 1558.6 682.809 1557.38 682.409 1556.02 682.154 1554.74 679.367 1540.67 676.777 1526.56 673.675 1512.57 668.105 1487.43 661.94 1462.41 663.321 1436.33 663.473 1433.48 662.394 1430.97 660.823 1428.67 659.02 1426.05 657.172 1423.45 655.229 1420.91 632.729 1391.67 609.417 1363.01 590.048 1331.47 589.311 1330.27 588.822 1328.47 586.264 1328.71ZM717.824 1325.52C716.155 1325.07 715.371 1326.32 714.558 1327.42 714.017 1328.15 713.486 1328.9 712.989 1329.66 708.51 1336.51 703.937 1343.32 699.598 1350.26 695.696 1356.51 696.015 1361.52 700.567 1367.13 703.861 1371.2 707.311 1375.14 710.841 1379 713.19 1381.57 715.3 1384.47 719.415 1387.16 719.415 1378.31 719.415 1370.66 719.415 1362.33 719.407 1350.71 719.414 1339.79 719.37 1328.86 719.365 1327.58 719.606 1326 717.824 1325.52ZM1217.27 1318.91C1216.71 1319.09 1216.12 1319.55 1215.48 1320.07 1210.29 1325.74 1210.29 1325.74 1216.29 1328.69 1217.11 1329.09 1217.95 1329.45 1218.75 1329.88 1220.09 1330.6 1221.28 1330.71 1222.33 1329.33 1223.21 1328.17 1223.85 1327.02 1222.95 1325.63 1221.6 1323.53 1220.31 1321.37 1218.78 1319.41 1218.32 1318.81 1217.82 1318.72 1217.27 1318.91ZM1043.69 1317.84C1042.73 1317.84 1041.73 1318.17 1040.76 1318.52 1038.23 1319.41 1037.52 1321.58 1037.51 1323.96 1037.49 1325.96 1037.25 1328.28 1039.52 1329.34 1041.44 1330.22 1043.57 1329.83 1045.56 1329.4 1047.85 1328.91 1048.99 1327.33 1048.87 1324.48 1048.35 1322.18 1047.69 1320.5 1046.44 1319.11 1045.59 1318.16 1044.66 1317.84 1043.69 1317.84ZM982.347 1313.49C974.716 1313.15 968.26 1315.53 963.439 1322.27 957.545 1330.51 952.647 1339.06 949.652 1348.8 940.276 1379.29 931.772 1410.03 923.125 1440.73 922.836 1441.76 922.101 1442.85 923.17 1443.81 924.65 1444.46 925.893 1443.67 927.174 1443.33 953.418 1436.48 979.659 1429.63 1005.9 1422.75 1007.43 1422.35 1009.01 1421.95 1010.42 1421.24 1022.25 1415.35 1034.1 1409.49 1045.84 1403.42 1053.44 1399.49 1055.83 1394.56 1054.81 1386.02 1054.4 1382.63 1053.82 1379.25 1053.21 1375.28 1052.07 1367.7 1050.56 1360.74 1050.17 1353.72 1049.86 1348.18 1047.39 1345.62 1042.37 1344.26 1032.53 1341.6 1026.33 1335.15 1023.59 1325.34 1023.29 1324.24 1022.62 1323.25 1022.36 1322.15 1021.68 1319.24 1019.64 1318.19 1016.95 1317.79 1005.45 1316.06 993.973 1314.01 982.347 1313.49ZM1807.48 1301.12C1809.2 1300.85 1810.92 1300.87 1812.56 1301.22 1819.39 1302.69 1824.24 1308.68 1823.97 1315.31 1823.67 1322.63 1817.61 1329.16 1810.25 1329.88 1806.6 1330.24 1803.01 1329.84 1799.26 1327.73 1792.92 1322.04 1791.64 1316.33 1794.87 1309.96 1797.24 1305.31 1802.32 1301.93 1807.48 1301.12ZM1343.84 1283.79C1344.51 1286.69 1344.34 1289.17 1343.88 1291.63 1343.05 1296.12 1341.14 1299.61 1336.16 1300.8 1331.81 1301.84 1327.78 1304.06 1323.25 1304.67 1322.77 1296.36 1325.91 1290.99 1333.26 1287.92 1336.74 1286.46 1339.49 1283.39 1343.84 1283.79ZM1560.48 1264.07C1530.97 1311.75 1501.59 1358.56 1470.95 1405.11L1470.68 1405.96 1471.86 1406.57 1471.38 1407.23 1471.78 1406.78C1480.17 1399.08 1487.07 1390.22 1495.63 1382.97 1502.77 1376.92 1510 1371.02 1518.42 1366.73 1523.77 1364.01 1529.42 1362.34 1535.32 1361.42 1544.75 1359.96 1552.46 1362.96 1556.29 1369.5 1560.21 1376.19 1558.85 1387.25 1553.27 1393.89 1550.74 1396.9 1547.58 1399.06 1544.11 1400.91 1535.4 1405.56 1526.04 1408.47 1516.67 1411.35 1514.71 1411.96 1512.66 1412.24 1510.91 1413.38 1511.02 1414.44 1511.87 1414.87 1512.6 1415.36 1519.57 1420.07 1522.13 1426.57 1521.03 1434.85 1520.51 1438.72 1519.66 1442.46 1518.64 1446.2 1517.62 1449.93 1516.6 1453.69 1515.95 1457.49 1514.65 1465.22 1517.53 1467.56 1525.23 1465.25 1529.87 1463.86 1534.12 1461.65 1538.01 1458.83 1549.69 1450.35 1559.96 1440.32 1569.51 1429.53 1570.24 1428.7 1570.99 1427.71 1571.26 1426.67 1576.75 1405.71 1590.54 1390.82 1607.11 1378.09 1618.49 1369.36 1631.19 1363.35 1645.61 1361.49 1649.71 1360.97 1653.77 1360.96 1657.87 1361.67 1664.57 1362.84 1669.66 1366.29 1673.36 1371.92 1674.59 1373.79 1675.83 1375.66 1677 1377.44 1678.52 1376.91 1679.3 1375.98 1679.66 1374.97 1682.06 1368.23 1687.36 1366.88 1693.72 1366.86 1700.24 1366.84 1706.77 1365.98 1714.52 1366.45 1712.08 1370.46 1710.18 1373.73 1708.15 1376.9 1696.11 1395.72 1682.83 1413.74 1671.88 1433.26 1668.41 1439.45 1665.38 1445.82 1663.52 1452.69 1663.04 1454.43 1662.78 1456.27 1662.69 1458.09 1662.41 1464.02 1665.74 1467.1 1671.64 1466.08 1675.92 1465.34 1679.91 1463.58 1683.65 1461.3 1697 1453.15 1708.03 1442.29 1719.03 1431.3 1732.79 1417.56 1741.43 1400.35 1752.02 1384.45 1755.05 1379.89 1757.95 1375.25 1760.85 1370.61 1761.97 1368.81 1763.15 1367.23 1765.54 1367.14 1774.14 1366.77 1782.73 1366.37 1792.07 1365.94 1791.32 1369.36 1789.66 1371.22 1788.4 1373.23 1775.72 1393.53 1762.2 1413.3 1750.33 1434.11 1747.74 1438.65 1745.45 1443.38 1743.18 1448.1 1741.68 1451.2 1740.89 1454.53 1740.97 1458.03 1741.12 1464.42 1744.04 1466.71 1750.28 1464.88 1753.09 1464.05 1755.8 1462.71 1758.39 1461.3 1767.88 1456.11 1775.83 1448.9 1783.57 1441.46 1798.71 1426.89 1812.46 1411.05 1826.3 1395.29 1827.54 1393.88 1828.79 1390.57 1830.7 1392.12 1833.37 1394.31 1829.79 1396.08 1828.59 1397.52 1811.76 1417.64 1794.44 1437.34 1774.47 1454.48 1765.59 1462.1 1755.96 1468.6 1744.1 1470.86 1742.54 1471.15 1740.96 1471.48 1739.38 1471.58 1725 1472.44 1716.6 1463.71 1717.57 1449.35 1717.89 1444.56 1720.57 1440.37 1720.78 1435.11 1717.45 1436.39 1715.81 1438.91 1713.81 1440.95 1704.23 1450.79 1694.05 1459.89 1681.96 1466.61 1674.46 1470.78 1666.51 1473.31 1657.83 1473.24 1653.62 1473.22 1649.67 1472.16 1646.16 1469.87 1642.13 1467.24 1639.79 1463.49 1639.26 1458.6 1639.02 1456.38 1639.63 1454.04 1638.47 1451.85 1635.83 1452 1634.77 1454.31 1633.15 1455.77 1624.19 1463.78 1614.46 1470.32 1602.33 1472.53 1598.92 1473.16 1595.53 1473.42 1592.11 1473.11 1583 1472.32 1576.23 1468.19 1572.33 1459.58 1569.23 1452.75 1568.11 1445.68 1568.86 1438.3 1565.87 1437.41 1564.94 1439.77 1563.65 1441.07 1557.04 1447.71 1550.06 1453.92 1542.61 1459.59 1534.14 1466.03 1524.85 1470.67 1514.29 1472.62 1495.66 1476.04 1485.53 1465.04 1490.59 1446.75 1492.73 1439.03 1496.42 1431.92 1499.66 1424.64 1500.85 1421.96 1502.59 1419.48 1502.83 1416.27 1499.94 1414.93 1497.51 1416.89 1494.99 1417.44 1491.64 1418.16 1488.33 1419.12 1484.89 1419.14 1482.53 1419.16 1480.29 1418.39 1479.82 1415.56 1479.28 1412.34 1481.35 1410.93 1483.98 1410.31 1489.42 1409.01 1494.9 1409.89 1500.31 1410.64 1515.92 1412.79 1531.71 1399.65 1532.03 1384.1 1532.24 1373.61 1526.43 1369.48 1516.53 1373.12 1510.44 1375.36 1505.31 1379.16 1500.4 1383.28 1487.57 1394.03 1476.83 1406.75 1466.51 1419.84 1455.63 1433.64 1445.48 1447.97 1436.67 1463.18 1434.76 1466.47 1432.6 1468.11 1428.63 1467.94 1421.6 1467.65 1414.55 1467.86 1406.57 1467.86 1410.57 1459.35 1416.06 1451.88 1420.58 1443.39L1420.1 1442.18 1419.71 1441.95 1419.92 1441.72 1419.84 1441.53C1411.71 1447.65 1404.27 1454.06 1395.74 1458.98 1379.43 1468.43 1362.03 1473.99 1342.99 1473.16 1323.07 1472.29 1310.03 1458.62 1309.7 1438.73 1309.55 1429.6 1311.67 1420.86 1316.3 1413.2 1333.5 1384.78 1358.11 1366.72 1391.36 1361.44 1397.97 1360.38 1404.57 1361.04 1410.93 1363.28 1422.18 1367.23 1426.34 1377.15 1421.29 1387.94 1419.62 1391.5 1417.19 1394.47 1414.15 1397 1407.96 1402.17 1401.03 1406.04 1393.62 1409.12 1378.18 1415.51 1362.08 1419.63 1345.79 1423.12 1338.68 1424.64 1338.68 1424.68 1337.89 1431.84 1337.27 1437.39 1338.06 1442.8 1340.11 1447.94 1344.49 1458.89 1355.63 1464.79 1368.63 1463.16 1375.69 1462.27 1382.44 1460.19 1388.87 1457.14 1401.99 1450.9 1413.19 1442.07 1423.67 1432.08 1432.37 1423.78 1438.77 1413.97 1444.9 1403.77 1471.69 1359.25 1498.73 1314.87 1525.5 1270.33 1527.78 1266.54 1530.22 1264.82 1534.7 1264.92 1542.86 1265.1 1551 1263.41 1560.48 1264.07ZM1009.26 1263.84C1007.97 1264.22 1006.82 1265.19 1005.63 1266.74 998.204 1276.51 990.397 1285.98 982.791 1295.62 982.024 1296.59 980.694 1297.47 981.465 1299.51 990.818 1301.37 1000.46 1302.77 1010.75 1304.01 1016.34 1304.99 1021.29 1305.15 1026.19 1303.54 1028.23 1302.87 1029.96 1301.98 1030.43 1299.62 1031.6 1293.61 1033.2 1287.65 1032.96 1281.45 1032.72 1275.13 1029.69 1270.65 1023.92 1268.18 1020.58 1266.75 1017.04 1265.8 1013.71 1264.37 1011.97 1263.63 1010.55 1263.45 1009.26 1263.84ZM543.652 1262.72C541.834 1265.45 541.205 1268.57 540.257 1271.52 527.841 1310.13 529.982 1348.87 540.536 1387.31 545.228 1404.4 551.917 1420.94 557.72 1437.72 558.005 1438.54 558.362 1439.45 561.041 1438.83 560.426 1407.93 561.342 1376.68 568.566 1345.47 570.469 1336.43 572.704 1328.05 575.802 1319.97 577.627 1315.22 577.125 1311.41 574.276 1307.21 565.443 1294.21 556.937 1280.99 548.242 1267.89 547.027 1266.06 546.225 1263.78 543.652 1262.72ZM614.46 1258.52C613.595 1258.61 612.772 1259.21 612.064 1260.27 611.319 1261.39 610.911 1262.74 610.434 1264.02 605.582 1277.02 601.027 1290.14 595.786 1302.98 593.316 1309.03 594.422 1313.92 597.764 1318.97 603.793 1328.09 609.695 1337.29 615.923 1346.86 626.052 1362.05 635.879 1376.84 645.773 1391.58 651.361 1399.91 658.675 1406.6 665.702 1413.31 668.04 1411.96 668.008 1410.18 668.39 1408.77 671.475 1397.35 674.362 1385.88 677.448 1374.45 679.594 1366.51 678.356 1359.38 673.98 1352.31 655.769 1322.89 637.816 1293.32 619.76 1263.8 618.929 1262.45 618.166 1261 617.116 1259.83 616.236 1258.85 615.326 1258.43 614.46 1258.52ZM1349.37 1257.87C1357.44 1258.23 1365.17 1259.92 1372.4 1263.65 1384.53 1269.91 1390.33 1283.77 1386.12 1296.67 1384.74 1300.89 1382.4 1304.5 1378.56 1306.93 1371.63 1311.32 1364.1 1313.4 1355.67 1312.98 1355.41 1309.98 1357.34 1308.09 1358.28 1305.9 1362.13 1296.91 1364.27 1287.75 1362 1277.94 1359.67 1267.91 1352.38 1261.45 1342.21 1261.25 1330.82 1261.03 1321.28 1265.1 1314.46 1274.62 1307.38 1284.5 1304.05 1295.79 1301.62 1307.48 1297.76 1326.07 1296.57 1344.97 1294.74 1363.79 1293.64 1375.13 1293.1 1386.57 1290.77 1397.74 1285.31 1423.75 1273.13 1445.46 1250.1 1460.09 1235.76 1469.19 1219.74 1472.18 1203.18 1473.13 1187.63 1474.02 1172.63 1471.56 1158.81 1464.14 1139.35 1453.68 1129.47 1437.44 1130.25 1415.1 1130.46 1409.29 1132.1 1403.91 1135.11 1398.91 1140 1390.83 1147.3 1387.5 1156.49 1388.29 1162.26 1388.78 1167.06 1391.15 1169.08 1397.15 1171 1402.85 1169.11 1409.07 1164.2 1413.12 1161.52 1415.34 1158.42 1416.84 1154.95 1417.22 1151.96 1417.55 1150.54 1419.16 1150.01 1421.95 1146.47 1440.37 1150.21 1454.75 1168.97 1463.31 1186.73 1471.41 1205.2 1472.37 1223.48 1465.07 1238.27 1459.18 1247.55 1447.38 1254.09 1433.37 1262.21 1416 1265.44 1397.4 1267.47 1378.49 1269.05 1363.76 1268.65 1348.87 1271.28 1334.22 1273.13 1323.87 1275.61 1313.71 1279.76 1303.46 1283.58 1294.82 1287.9 1287.11 1293.76 1280.27 1308.42 1263.13 1327.43 1256.91 1349.37 1257.87ZM825.388 1247.3C822.599 1247.25 819.833 1248.18 816.938 1250.19 812.258 1253.44 807.381 1256.41 802.592 1259.51 788.992 1268.29 775.482 1277.22 761.752 1285.81 755.381 1289.78 752.663 1295 753.703 1302.41 754.4 1307.38 754.736 1312.38 755.202 1317.38 758.043 1347.83 764.295 1377.31 779.898 1404.67 790.915 1424.55 804.432 1442.03 818.714 1458.97 822.583 1463.56 827.085 1465.31 833.237 1464.01 855.531 1459.27 877.602 1453.52 900.036 1449.42 905.712 1448.38 909.384 1444.93 910.953 1439.34 911.506 1437.37 912.03 1435.38 912.569 1433.4 919.047 1409.66 925.564 1385.92 931.99 1362.17 936.591 1345.16 942.091 1328.56 952.543 1314.05 953.527 1312.68 954.791 1311.2 954.109 1309.01 953.026 1308.72 951.953 1308.31 950.844 1308.14 931.338 1305.34 913.583 1297.71 896.649 1288.08 875.446 1276.03 854.449 1263.58 833.976 1250.32 830.989 1248.39 828.177 1247.35 825.388 1247.3ZM1008.42 1233.63C1007.32 1233.75 1005.9 1234.08 1004.1 1234.57 1000.7 1235.49 999.909 1237.57 1001.73 1240.44 1003.53 1243.27 1006.55 1243.61 1010.35 1240.89 1012.02 1234.99 1011.7 1233.3 1008.42 1233.63ZM1253.05 1232.01C1249.41 1232.16 1247.27 1235.57 1244.47 1237.64 1245.95 1240.12 1248.14 1240.84 1250.07 1241.88 1252.13 1242.99 1254.24 1243.97 1255.99 1241.41 1257.63 1238.99 1261.1 1236.91 1257.26 1233.11 1255.63 1232.27 1254.26 1231.96 1253.05 1232.01ZM1536.7 1226.49C1537.49 1232.58 1536.85 1238.14 1536.89 1243.67 1536.9 1245.43 1535.73 1246.01 1534.34 1246.29 1533 1246.57 1531.62 1246.81 1530.27 1246.81 1524.35 1246.82 1519.27 1249.04 1513.86 1254.07 1514.17 1247.32 1514.37 1242.19 1514.64 1237.07 1514.75 1235.05 1516.47 1234.64 1517.95 1234.11 1521.17 1232.96 1524.4 1231.87 1528.09 1230.54 1531 1229.18 1533.45 1228.02 1536.7 1226.49ZM1400.53 1216.1C1403.68 1220.16 1406.38 1224.1 1410.2 1227.05 1420.31 1234.88 1431.81 1237.28 1444.31 1236.05 1446.67 1235.81 1449.66 1234.17 1449.96 1238.9 1450.03 1240.04 1452.68 1241.07 1454.2 1242.07 1468.85 1251.7 1483.53 1261.3 1498.14 1270.98 1499.53 1271.89 1502.15 1272.6 1501.21 1274.82 1499.91 1277.89 1498.7 1281.35 1495.6 1283.09 1494.16 1283.92 1492.75 1282.08 1491.46 1281.26 1480.32 1274.16 1469.23 1267 1457.71 1259.59 1452.82 1256.58 1448.32 1253.91 1443.93 1251.05 1438.2 1247.32 1432.43 1247.14 1426.57 1250.55 1419.88 1254.46 1413.21 1258.38 1406.56 1262.35 1401.19 1265.56 1401.23 1265.58 1397.6 1260.83 1396.23 1259.03 1394.78 1257.3 1393.06 1255.14 1401.53 1248.15 1412.48 1245.11 1420.89 1236.66 1412.06 1231.16 1403.84 1226.03 1395.65 1220.93 1396.23 1217.93 1398.61 1217.5 1400.53 1216.1ZM1631.64 1213.9C1632.16 1214.19 1632.59 1214.76 1632.99 1215.32 1638.1 1222.26 1644.55 1227.56 1652.4 1231.14 1654.25 1231.98 1655.37 1233.11 1655.03 1235.33 1654.56 1238.37 1655.51 1241.21 1656.53 1243.99 1662.54 1260.48 1668.57 1276.96 1674.62 1293.44 1674.99 1294.44 1675.61 1295.35 1676.29 1296.64 1678.81 1294.98 1679.85 1292.64 1681.17 1290.62 1688.51 1279.34 1695.52 1267.84 1703.18 1256.79 1707.52 1250.53 1710.16 1243.99 1709.84 1236.46 1709.67 1232.56 1711.1 1230.71 1714.79 1229.68 1718.91 1228.54 1722.86 1226.79 1726.61 1225.41 1727.64 1225.96 1727.97 1226.53 1727.84 1227.25 1725.97 1238.1 1728.06 1248.56 1730.71 1259.01 1733.57 1270.28 1736.12 1281.62 1738.91 1292.9 1741.5 1303.39 1742.56 1313.91 1741.37 1324.74 1739.77 1339.24 1739.68 1353.88 1737.15 1368.29 1736.32 1373.07 1735.06 1377.52 1732.24 1381.59 1725.75 1390.95 1720.66 1401.24 1713.16 1410.51 1712.94 1410.6 1712.99 1410.31 1713.03 1410.46 1711.7 1406.42 1714.18 1403.04 1716.33 1399.6 1720.92 1392.25 1725.62 1384.97 1730.19 1377.61 1735.5 1369.08 1735.46 1360.75 1728.53 1353.12 1726.47 1350.86 1726.97 1348.61 1727.16 1346.13 1728.56 1327.19 1728.6 1308.31 1724.68 1289.61 1722.77 1280.49 1720.15 1271.6 1716.66 1262.99 1714.14 1263.69 1713.55 1265.59 1712.58 1267.03 1703.97 1279.93 1695.56 1292.96 1686.8 1305.75 1683.39 1310.75 1682.89 1315.42 1684.87 1321.16 1687.56 1328.88 1689.31 1336.94 1691.49 1344.84 1692.21 1347.42 1691.46 1348.81 1688.62 1348.76 1687.71 1348.74 1686.8 1348.83 1685.89 1348.9 1678.2 1349.54 1678.22 1349.54 1676.89 1341.58 1676.36 1338.43 1675.77 1335.3 1675.17 1332.16 1675.09 1331.77 1674.72 1331.43 1674.16 1330.56 1670.93 1331.88 1669.01 1334.74 1667.39 1337.47 1664.43 1342.45 1660.48 1344.22 1654.88 1343.02 1652.91 1342.59 1650.82 1342.74 1648.86 1342.63 1647.48 1340.39 1649.2 1339.03 1650.11 1337.62 1654.44 1330.92 1658.73 1324.18 1663.34 1317.67 1666.21 1313.6 1666.97 1309.85 1665.06 1304.98 1659.41 1290.55 1654.23 1275.94 1648.78 1261.44 1648.25 1260.04 1648.05 1258.23 1645.76 1257.53 1639.94 1266.62 1634.01 1275.79 1628.19 1285.01 1613.83 1307.77 1599.64 1330.62 1585.13 1353.27 1581.34 1359.18 1579.01 1364.95 1581.64 1371.86 1582.74 1374.74 1581.61 1376.69 1578.97 1378.13 1576.9 1376.86 1577.37 1374.63 1577.07 1372.76 1575.55 1363.31 1571.11 1355.6 1563.37 1349.93 1561.11 1348.29 1559.32 1346.37 1557.71 1344.11 1554.14 1339.1 1550.46 1334.15 1546.59 1329.38 1544.92 1327.32 1544.31 1325.65 1546.06 1323.41 1547.98 1320.93 1549.02 1317.8 1551.95 1315.34 1560 1325.13 1567.93 1334.76 1575.81 1344.34 1578.25 1343.24 1578.91 1341.21 1579.93 1339.48 1598.28 1308.49 1616.44 1277.39 1635.1 1246.58 1638.98 1240.17 1638.67 1234.7 1635.38 1228.69 1633.41 1225.09 1631.44 1221.49 1629.45 1217.9 1628.74 1216.61 1628.34 1215.35 1629.71 1214.26 1630.5 1213.63 1631.12 1213.62 1631.64 1213.9ZM751.364 1197.5C744.018 1224.7 743.054 1250.82 751.937 1277.21 770.848 1267.06 806.266 1242.27 810.626 1236.04 804.393 1231.91 798.167 1227.79 791.534 1223.39 777.957 1214.85 765.44 1205.55 751.364 1197.5ZM1282.13 1192.75C1282.41 1192.99 1282.68 1193.22 1282.95 1193.45 1280.8 1196.29 1278.63 1199.12 1276.1 1202.21L1275.88 1202.05 1275.92 1201.99 1275.55 1201.82 1274.6 1201.13C1276.95 1198.16 1279.54 1195.46 1282.13 1192.75ZM1693.38 1183.03C1694.35 1182.86 1695.32 1183 1696.28 1183.69 1697.54 1184.6 1698.48 1185.94 1698.72 1188.03 1696.18 1189.18 1693.72 1188.95 1690.9 1187.31 1689.9 1186.03 1689.11 1185 1690.57 1184.17 1691.47 1183.66 1692.42 1183.2 1693.38 1183.03ZM959.728 1178.81C957.237 1179.02 954.729 1179.22 952.278 1179.68 931.618 1183.57 912.917 1192.35 894.471 1203.06 875.121 1214.87 856.201 1226.41 836.871 1238.21 838.328 1239.28 839.007 1239.89 839.787 1240.33 861.251 1252.33 882.616 1264.52 904.238 1276.25 916.841 1283.07 929.646 1289.62 943.154 1294.56 957.082 1299.65 962.896 1298.18 972.702 1286.94 980.192 1278.36 986.658 1268.96 993.394 1259.78 996.501 1255.54 996.436 1255.5 993.02 1251.4 985.275 1242.09 985.08 1233.94 992.379 1224.15 993.06 1223.24 993.67 1222.22 994.521 1221.51 996.662 1219.68 995.878 1218.07 994.497 1216.26 986.222 1205.38 978 1194.45 969.754 1183.55 967.242 1180.23 963.96 1178.46 959.728 1178.81ZM583.744 1177.82C583.023 1178.46 582.402 1178.82 582.059 1179.36 572.362 1194.49 562.403 1209.45 553.313 1224.98 548.311 1233.52 548.372 1241.61 553.303 1250.07 562.133 1265.23 571.869 1279.8 581.31 1294.56 581.898 1295.48 582.421 1296.53 583.814 1296.79 584.196 1296.33 584.808 1295.89 585.012 1295.3 591.477 1276.84 597.885 1258.36 604.347 1239.89 605.321 1237.11 604.72 1234.59 603.76 1231.94 599.184 1219.33 594.708 1206.68 590.001 1193.54 587.824 1188.02 586.744 1182.63 583.744 1177.82ZM1730.75 1171.89C1731.03 1171.92 1731.22 1172.11 1731.05 1172.7 1730.91 1173.23 1730.09 1173.57 1729.32 1174.21 1728.45 1174.67 1727.79 1175.18 1727.23 1175.08 1726.44 1174.94 1726.36 1174.05 1726.95 1173.61 1727.83 1172.96 1728.86 1172.49 1729.88 1172.1 1730.09 1172.01 1730.46 1171.87 1730.75 1171.89ZM1022.88 1170.82C1020.06 1170.5 1016.64 1170.67 1012.48 1171.25 1006.16 1172.12 999.82 1172.79 993.503 1173.66 989.531 1174.2 985.583 1174.92 980.405 1175.76 983.854 1180.49 986.547 1184.33 989.405 1188.05 993.704 1193.65 997.889 1199.36 1002.54 1204.66 1008.53 1211.48 1013.18 1212.31 1021.17 1208.76 1023.04 1207.93 1024.85 1206.96 1027.13 1205.79 1033.58 1201.97 1035.28 1196.61 1034.92 1189.85 1034.26 1177.31 1031.32 1171.81 1022.88 1170.82ZM1305.11 1166.22C1306.2 1165.86 1307.47 1165.95 1309.01 1166.4 1313.72 1167.78 1313.98 1167.65 1312.24 1172.29 1311.24 1174.98 1311.61 1178.63 1308.97 1180.19 1306.53 1181.63 1303.84 1179.16 1301.16 1179 1300.04 1178.93 1298.9 1178.99 1297.4 1179.01 1296.08 1178.97 1294.91 1178.84 1295.8 1177.55 1297.86 1174.58 1300.29 1171.86 1302.21 1168.8 1303.09 1167.42 1304.01 1166.59 1305.11 1166.22ZM1218.07 1145.22C1215.59 1145.95 1212.47 1145.68 1211.09 1148.75 1209.77 1151.7 1210.2 1154.98 1212.31 1156.18 1215.09 1157.78 1217.57 1156.9 1219.76 1154.84 1221.3 1153.38 1222.28 1151.63 1222.31 1148.9 1221.95 1145.86 1220.47 1144.51 1218.07 1145.22ZM1041.79 1145.11C1036.6 1145.63 1035.83 1146.56 1037.76 1149.83 1039.29 1152.43 1040.87 1155.12 1043.98 1156.69 1045.92 1154.35 1047.91 1152.55 1048.8 1149.92 1047.08 1147.51 1044.33 1146.83 1041.79 1145.11ZM683.464 1131.77C681.242 1134.07 679.918 1137 678.32 1139.75 665.351 1161.98 652.986 1184.6 637.032 1204.96 634.223 1208.54 632.008 1212.56 630.128 1216.73 624.973 1228.17 623.581 1239.82 627.751 1251.94 630.532 1260.03 634.807 1267.22 639.885 1274 644.942 1280.75 649.965 1287.54 654.29 1294.79 662.808 1309.07 671.258 1323.4 679.74 1337.71 683.834 1344.62 683.885 1344.66 689.178 1338.36 698.699 1327.01 708.082 1315.55 717.691 1304.28 720.523 1300.96 721.866 1297.36 721.936 1293.09 722.071 1284.89 722.295 1276.68 722.449 1268.48 722.937 1242.27 724.261 1216.08 723.462 1189.25 722.494 1179.73 718.787 1172.09 713.348 1165.07 705.1 1154.43 696.152 1144.4 687.329 1134.25 686.328 1133.1 685.473 1131.56 683.464 1131.77ZM1647.54 1125.63C1647.52 1125.69 1647.41 1125.77 1647.62 1125.66 1647.83 1125.55 1647.75 1125.98 1647.75 1125.98 1647.75 1125.98 1647.57 1125.57 1647.54 1125.63ZM1653.69 1117.88C1653.3 1122.14 1650.47 1123.32 1647.87 1125.39 1649.47 1123.54 1649.91 1120.04 1653.69 1117.88ZM1917.58 1109.17C1914.18 1109.73 1911.01 1110.95 1908.06 1112.74 1904.54 1114.87 1901.23 1117.28 1898.31 1120.19 1883.49 1134.98 1873.4 1152.58 1867.62 1172.64 1865.77 1179.03 1865 1185.62 1865.84 1192.25 1867.12 1202.26 1873.75 1206.92 1883.67 1205.09 1886.63 1204.55 1889.31 1203.35 1892.39 1201.73 1896.74 1199.05 1900.25 1196.14 1903.4 1192.84 1918.64 1176.88 1929.14 1158.22 1934.75 1136.89 1935.67 1133.38 1936.25 1129.73 1936.46 1126.11 1937.17 1114.08 1929.45 1107.23 1917.58 1109.17ZM1498.99 1108.91C1493.1 1108.52 1487.76 1110.1 1482.76 1113.15 1476.06 1117.24 1470.72 1122.8 1465.35 1129.07 1454.8 1142.17 1447.12 1156.29 1442.25 1171.88 1439.56 1180.48 1438.42 1189.24 1441.31 1198.05 1443.78 1205.58 1449.64 1208.68 1457.36 1206.77 1462.81 1205.43 1467.57 1202.65 1471.53 1198.87 1490.93 1180.32 1503.75 1157.87 1510.51 1131.95 1511.61 1127.72 1511.58 1123.34 1510.77 1119.06 1509.52 1112.44 1505.78 1109.35 1498.99 1108.91ZM1722.94 1108.84C1719.91 1108.88 1717.12 1109.82 1714.41 1111.02 1709.36 1113.27 1705.01 1116.53 1701.01 1120.29 1690.64 1130.03 1682.21 1141.23 1675.6 1154.41 1673.84 1158 1672.32 1161.15 1671.68 1165.32 1680.46 1163.68 1687.86 1160.97 1694.96 1157.42 1706.27 1151.76 1716.41 1144.54 1724.18 1134.42 1727.96 1129.48 1730.81 1124.04 1731.35 1117.72 1731.86 1111.79 1728.87 1108.77 1722.94 1108.84ZM2076.99 1108.82C2074.4 1108.65 2071.45 1109.1 2068.22 1110.21 2062.48 1112.18 2057.64 1115.51 2053.47 1119.79 2035.2 1138.54 2024.15 1161.19 2017.59 1186.27 2016.3 1191.16 2015.79 1196.12 2016.17 1201.15 2016.85 1210.34 2022.05 1214.51 2031.26 1213.48 2036.86 1212.84 2041.68 1210.4 2046.11 1207.05 2053.84 1201.19 2059.66 1193.63 2065.38 1185.33 2073.99 1171.79 2080.7 1157.91 2085.24 1143.01 2086.97 1137.33 2088.36 1131.56 2088.7 1125.64 2089.29 1115.36 2084.76 1109.32 2076.99 1108.82ZM1129.08 1108.58C1128.55 1108.69 1128.1 1108.96 1127.84 1109.61 1126.69 1112.36 1126.21 1115.25 1126.79 1118.21 1126.88 1118.67 1127.86 1119.4 1128.23 1119.3 1131.09 1118.51 1134.81 1119.2 1135.87 1114.63 1135.25 1111.26 1134.06 1108.98 1130.77 1108.62 1130.2 1108.55 1129.6 1108.48 1129.08 1108.58ZM1069.61 1090.19C1067.76 1094.7 1067.69 1099.26 1066.5 1104.16 1064.98 1111.86 1063.46 1118.96 1062.24 1126.11 1060.87 1134.19 1063.43 1138.07 1071.36 1140.09 1074.44 1140.87 1077.61 1141.25 1080.74 1141.79 1089.16 1143.25 1095.39 1140.25 1099.41 1132.67 1100.57 1130.47 1101.94 1128.37 1103.08 1126.16 1106.44 1119.67 1105.84 1116.55 1100.05 1112.11 1092.13 1106.03 1084.08 1100.1 1076.07 1094.13 1074.11 1092.67 1072.23 1091.04 1069.61 1090.19ZM717.786 1089.88C709.864 1097.11 701.722 1104.2 698.31 1115.04 696.979 1119.27 697.156 1123.61 698.931 1127.74 702.841 1136.84 710.08 1142.75 719.252 1149.2 719.252 1140.58 719.252 1133.4 719.252 1125.54 719.252 1113.35 719.252 1101.85 719.252 1090.35 718.763 1090.19 718.275 1090.04 717.786 1089.88ZM665.487 1061.52C661.098 1064.67 657.979 1069.25 653.769 1073.42 648.964 1078.39 645.477 1083.76 641.948 1089.07 626.921 1111.66 612.007 1134.33 597.07 1156.98 594.668 1160.62 592.659 1164.03 594.618 1168.97 600.755 1184.42 606.39 1200.08 612.261 1215.65 612.696 1216.8 612.687 1218.51 614.743 1218.38 616.876 1216.61 617.857 1213.98 619.238 1211.66 628.669 1195.79 637.779 1179.73 647.718 1164.16 656.918 1149.74 665.824 1135.13 675.268 1120.89 679.388 1114.67 680.367 1108.71 678.139 1101.58 674.405 1089.62 671.329 1077.46 667.921 1065.4 667.521 1063.98 667.762 1062.08 665.487 1061.52ZM1540.25 1058.07C1542.31 1064.5 1544.78 1070.73 1548.67 1076.24 1552.51 1081.68 1557.37 1086.12 1562.66 1090.75 1560.98 1092.08 1559.16 1091.29 1557.55 1091.39 1548.74 1091.91 1539.92 1092.27 1531.11 1092.87 1527.63 1093.11 1525.91 1091.99 1526.28 1088.34 1526.38 1087.44 1526.3 1086.52 1526.29 1085.61 1526.22 1074.8 1526.22 1074.8 1521.28 1066.72 1523.17 1064.91 1525.85 1064.98 1528.54 1063.83 1532.47 1061.95 1535.92 1060.23 1540.25 1058.07ZM1697.3 1046.39C1699.69 1047.44 1698.68 1049.25 1698.74 1050.62 1699.36 1062.65 1699.11 1074.68 1698.54 1086.72 1698.35 1090.82 1697.05 1093.54 1692.81 1094.74 1690.03 1095.53 1687.45 1097 1683.97 1098.51 1684.5 1091.9 1684.95 1086.13 1685.41 1080.36 1685.65 1077.19 1686.26 1073.99 1686.05 1070.85 1685.71 1065.8 1687.04 1061.46 1690.46 1057.15 1692.9 1053.28 1695.09 1049.85 1697.3 1046.39ZM1849.93 1045.08C1853.12 1045.36 1856.11 1046.66 1858.52 1048.93 1866.09 1056.08 1863.27 1068.64 1853.15 1072.95 1851.24 1073.76 1849.22 1073.97 1846.66 1074.05 1837.23 1072.62 1833.55 1069.76 1832.34 1063.3 1831.16 1057.04 1834.31 1050.67 1840.21 1047.33 1843.37 1045.54 1846.75 1044.81 1849.93 1045.08ZM1483.44 1042.28C1490.03 1057.36 1496.25 1071.59 1502.65 1086.23 1500.38 1087.52 1498.37 1086.91 1495.9 1086.93 1490.3 1087.94 1487.53 1085.85 1485.58 1081.1 1482.48 1073.53 1478.23 1066.47 1473.79 1059.59 1472.13 1057 1472.3 1055.13 1474.27 1052.95 1477.16 1049.78 1479.88 1046.44 1483.44 1042.28ZM560.323 1038.36C550.972 1056.96 544.336 1075.19 539.418 1094.67 536.043 1108.76 533.634 1122.45 532.592 1136.33 531.774 1147.23 530.518 1158.24 532.561 1169.05 535.14 1182.7 538.514 1196.2 541.565 1209.76 541.854 1211.04 541.711 1212.57 543.447 1213.37 545.046 1212.54 545.842 1210.86 546.81 1209.39 555.362 1196.46 563.638 1183.35 572.501 1170.64 576.567 1164.81 577.023 1159.45 574.955 1152.74 564.605 1119.16 559.583 1084.82 561.392 1049.6 561.56 1046.34 562.025 1042.93 560.323 1038.36ZM1316.16 1033.64C1315.83 1036.33 1314.16 1036.55 1312.68 1036.93 1306.11 1038.63 1299.54 1040.32 1292.95 1041.95 1291.66 1042.27 1290.2 1042.73 1289 1041.87 1287.23 1040.6 1287.97 1039.74 1290.09 1039.09 1298.93 1036.81 1307.25 1034.2 1316.16 1033.64ZM925.122 1031.79C924.867 1031.74 924.475 1032.29 923.733 1032.9 931.307 1061.27 936.996 1090.37 946.31 1118.51 950.553 1131.32 956.528 1143.35 964.372 1154.42 968.943 1160.87 974.745 1163.36 982.667 1162.04 994.582 1160.07 1006.57 1158.53 1018.56 1157.05 1022.15 1156.61 1023.54 1155.38 1023.73 1151.56 1024.37 1138.73 1029.01 1133.23 1041.39 1131.15 1046.05 1130.37 1048.16 1127.81 1049.45 1123.99 1050.17 1121.85 1050.43 1119.54 1050.75 1117.29 1052.01 1108.49 1053.01 1099.66 1054.51 1090.9 1056.07 1081.76 1053.87 1074.59 1044.04 1070.83 1031.27 1065.21 1019.07 1059.56 1006.66 1054.39 980.445 1043.46 952.677 1037.98 925.122 1031.79ZM1709.7 1028.08C1711.18 1028.03 1711.21 1029.59 1711.57 1030.56 1717.96 1047.63 1724.39 1064.69 1730.64 1081.81 1732.35 1086.47 1732.11 1086.57 1726.99 1086.92 1725.62 1087.02 1724.23 1086.93 1722.89 1087.14 1720.41 1087.52 1719.13 1086.47 1718.35 1084.17 1713.4 1069.72 1708.44 1055.28 1703.35 1040.89 1701.91 1036.82 1705.04 1034.59 1706.73 1031.25 1707.8 1029.82 1708.11 1028.13 1709.7 1028.08ZM717.151 1027.51C715.378 1027.3 714.231 1028.56 712.942 1029.4 703.799 1035.36 694.687 1041.38 686.121 1048.15 676.617 1055.65 678.2 1052.21 681.262 1064.12 683.896 1073.38 686.33 1082.13 688.938 1090.83 690.145 1094.86 690.742 1095.13 694.051 1092.92 697.441 1090.65 700.718 1088.15 703.763 1085.44 718.351 1072.45 725.304 1050.7 717.151 1027.51ZM783.296 1023.38C781.116 1023.75 779.898 1025.19 778.647 1026.46 765.39 1039.96 752.143 1053.46 738.954 1067.03 735.161 1070.93 733.274 1075.51 733.313 1081.18 733.453 1101.46 733.258 1121.75 733.235 1142.03 733.234 1143 732.728 1144.26 734.518 1145.13 735.643 1141.62 736.737 1138.21 738.023 1134.31 744.138 1115.36 751.049 1097.28 758.693 1079.47 765.886 1062.72 773.76 1046.29 781.976 1030.02 782.978 1028.04 785.078 1026.03 783.296 1023.38ZM827.33 1011.79C823.957 1012.56 820.818 1014.39 817.816 1017.59 776.869 1061.24 756.252 1113.18 753.612 1172.63 753.276 1180.18 756.045 1185.58 762.582 1189.7 780.318 1200.89 797.947 1212.27 815.332 1223.98 822.122 1228.56 828.035 1228.62 834.849 1224.32 851.805 1213.61 868.895 1203.11 886.073 1192.76 904.903 1181.42 924.611 1172.08 946.332 1167.57 955.321 1165.7 955.469 1165.54 950.629 1157.25 941.962 1142.41 934.888 1126.96 931.457 1110 930.962 1107.56 930.07 1105.19 929.24 1102.24 923.227 1080.17 917.237 1058.67 911.507 1037.09 909.644 1030.07 905.76 1026.14 898.358 1025.34 892.484 1024.7 886.688 1023.33 880.864 1022.25 866.52 1019.57 852.318 1016.27 838.251 1012.41 834.311 1011.33 830.703 1011.03 827.33 1011.79ZM769.919 1008.26C762.296 1009.29 754.43 1008.99 747.158 1011.99 741.77 1014.22 736.872 1017.46 735.009 1023.19 732.523 1030.84 733.136 1038.74 734.479 1048.05 746.124 1037.43 756.786 1027.71 767.795 1017.65 769.468 1016.06 770.81 1014.84 772.113 1013.57 773.044 1012.67 774.602 1011.92 773.888 1010.31 773.181 1008.71 771.559 1008.04 769.919 1008.26ZM1509.13 1004.9C1513.78 1005.1 1518.16 1006.28 1522.35 1008.09 1533.43 1012.86 1537.81 1024.16 1533.16 1035.4 1531.43 1039.59 1528.63 1042.68 1524.53 1044.68 1518.69 1047.52 1513.62 1048.39 1507.22 1047.35 1507.49 1043.92 1509.07 1040.85 1510.11 1037.66 1511.99 1031.95 1512.97 1026.15 1512.52 1020.17 1511.88 1011.75 1505.89 1007.05 1497.5 1008.37 1490.97 1009.4 1485.55 1012.63 1480.85 1017.18 1473.62 1024.16 1466.83 1031.55 1460.56 1039.38 1450.99 1051.34 1440.64 1062.57 1429.33 1072.86 1412.34 1088.31 1392.96 1099.47 1370.23 1104.19 1364.42 1105.4 1358.56 1106.23 1352.62 1106.55 1350.49 1106.67 1348.1 1106 1346.17 1107.82 1347.03 1109.83 1349.11 1109.96 1350.75 1111.42L1350.59 1111.69 1359.75 1118.37C1367.44 1126.22 1370.43 1137.25 1368.29 1149.98 1366.77 1159.06 1363.1 1167.41 1359.78 1175.91 1356.97 1183.12 1353.41 1190.05 1351.81 1197.72 1350.84 1202.3 1349.98 1207.09 1354.04 1210.44 1357.93 1213.64 1362.38 1211.74 1366.31 1209.93 1377.81 1204.61 1387.81 1197.07 1397.08 1188.54 1399.94 1185.91 1402.64 1183.13 1405.43 1180.44 1410.35 1175.67 1413.97 1170.43 1416.56 1163.75 1424.31 1143.71 1439.01 1129.15 1456.75 1117.57 1466.22 1111.39 1476.53 1107.31 1487.8 1105.66 1502.63 1103.5 1510.72 1107.17 1518.7 1120.04 1519.05 1120.59 1519.61 1121.01 1520.03 1121.47 1521.62 1121.07 1522.44 1119.83 1522.9 1118.62 1525.21 1112.6 1529.86 1111.02 1535.82 1110.97 1542.58 1110.9 1549.33 1110.08 1556.14 1110.42 1556.52 1113.27 1554.96 1114.79 1553.9 1116.42 1542.98 1133.25 1531.94 1150 1521.07 1166.87 1516.62 1173.77 1512.57 1180.92 1509.37 1188.51 1507.41 1193.13 1505.6 1197.85 1505.63 1202.97 1505.65 1208.02 1508.37 1210.49 1513.41 1210.25 1516.9 1210.09 1520.05 1208.65 1523.13 1207.18 1529.33 1204.2 1534.83 1200.11 1540.16 1195.8 1551.89 1186.29 1562.18 1175.31 1572.04 1163.92 1573.23 1162.55 1574.23 1161 1575.17 1159.45 1604.18 1111.72 1633.25 1064.03 1662.03 1016.16 1664.77 1011.61 1667.77 1009.82 1672.81 1009.77 1680.72 1009.68 1688.62 1009.09 1698 1008.64 1695.19 1013.24 1693.15 1016.66 1691.04 1020.03 1659.69 1070.07 1628.28 1120.07 1597.01 1170.16 1593.28 1176.14 1590.11 1182.49 1586.93 1188.8 1584.78 1193.08 1583.21 1197.66 1583.28 1202.56 1583.38 1208.85 1586.49 1211.36 1592.58 1209.89 1597.97 1208.6 1602.75 1205.9 1607.31 1202.84 1620.48 1193.97 1631.38 1182.63 1641.97 1170.95 1642.89 1169.93 1643.66 1168.82 1643.97 1167.43 1646.04 1158.01 1651.24 1150.28 1657.35 1143.11 1671.1 1126.95 1687.84 1115.07 1708.17 1108.6 1718.05 1105.46 1728.13 1103.86 1738.5 1106.23 1741.19 1106.84 1743.78 1107.66 1746.19 1109.01 1753.1 1112.91 1756.14 1119.9 1754.24 1127.59 1752.77 1133.6 1749.24 1138.24 1744.44 1142.03 1735.91 1148.76 1726.13 1153.05 1716 1156.68 1702.87 1161.39 1689.36 1164.72 1675.72 1167.44 1671.56 1168.27 1670.06 1170.08 1669.53 1174.05 1668.84 1179.16 1669.24 1184.11 1670.56 1188.96 1674.01 1201.69 1685.51 1208.86 1699.63 1207.26 1707.18 1206.4 1714.33 1204.12 1721.14 1200.79 1734.19 1194.41 1745.17 1185.33 1755.76 1175.47 1769.16 1163.01 1779.02 1148.11 1788.32 1132.66 1791.85 1126.8 1795.61 1121.08 1799.26 1115.3 1800.63 1113.12 1802.09 1111.2 1805.04 1111.09 1813.44 1110.79 1821.83 1110.41 1830.18 1110.06 1831.12 1112.77 1829.35 1113.98 1828.48 1115.37 1816.02 1135.27 1803.41 1155.08 1791.01 1175.02 1787.16 1181.2 1783.53 1187.56 1781.18 1194.53 1780.08 1197.79 1779.15 1201.1 1779.98 1204.58 1780.9 1208.42 1782.99 1209.9 1786.93 1209.43 1791.35 1208.91 1795.17 1206.8 1798.86 1204.52 1810.98 1197.01 1821.17 1187.22 1831 1177.01 1836.7 1171.09 1840.97 1164.4 1844.9 1157.06 1859.39 1130.01 1881.1 1111.69 1912.05 1105.89 1925.56 1103.35 1938.26 1106.55 1945.4 1120.9 1945.57 1121.24 1946.06 1121.44 1946.79 1122.01 1948.78 1120.58 1949.76 1118.24 1951 1116.2 1970.96 1083.52 1991 1050.88 2010.67 1018.02 2013.85 1012.69 2017.29 1010.25 2023.56 1010.46 2031.02 1010.71 2038.51 1009.88 2046.29 1009.5 2046.37 1013.14 2044.17 1015.33 2042.66 1017.69 2028.48 1039.75 2014.26 1061.78 1999.98 1083.77 1979.99 1114.56 1959.53 1145.04 1941.71 1177.17 1937.83 1184.17 1934.24 1191.3 1931.89 1198.96 1930.7 1202.84 1929.13 1207.25 1932.96 1210.46 1936.31 1213.29 1940.31 1211.87 1944 1210.53 1951.84 1207.7 1958.52 1202.95 1964.87 1197.7 1974.92 1189.37 1983.65 1179.75 1992.2 1169.94 1993.1 1168.91 1994 1167.88 1994.31 1166.49 1997.56 1151.78 2006.53 1140.62 2017.21 1130.8 2032.36 1116.88 2050.04 1107.94 2070.74 1105.49 2076.95 1104.75 2083.09 1105.07 2089.05 1106.8 2100.9 1110.24 2108.63 1118.04 2112.24 1129.83 2112.97 1132.23 2113.27 1134.74 2113.93 1137.16 2117.73 1150.95 2129.32 1156.75 2142.68 1151.47 2149.2 1148.89 2154.18 1144.19 2158.93 1139.21 2160.22 1137.86 2161.05 1135.7 2163.47 1135.91 2163.72 1136.59 2164.11 1137.18 2163.97 1137.39 2157.86 1145.92 2150.4 1152.76 2140.06 1155.77 2131.27 1158.33 2123.39 1156.54 2116.56 1150.33 2115.42 1149.29 2114.56 1147.77 2112.67 1147.63 2110.62 1149.65 2110.6 1152.56 2109.65 1155.06 2097.78 1185.78 2076.71 1206.56 2044.5 1215.16 2035.84 1217.47 2026.94 1218.27 2018.06 1216.5 2001.17 1213.13 1991.2 1200.54 1991.53 1183.37 1991.56 1181.44 1992.42 1179.42 1990.92 1176.71 1988.42 1179.38 1986.11 1181.77 1983.87 1184.21 1974.75 1194.19 1964.74 1203.14 1953.17 1210.21 1946.03 1214.58 1938.25 1216.98 1929.87 1217.27 1917.39 1217.69 1907.02 1211.76 1907.81 1196.64 1907.83 1196.23 1907.53 1195.81 1907.23 1194.95 1904.22 1196.18 1902.27 1198.72 1899.96 1200.69 1890.71 1208.54 1880.42 1214.01 1868.16 1215.33 1863.79 1215.8 1859.5 1215.63 1855.25 1214.56 1849.18 1213.04 1844.51 1209.64 1841.65 1204.01 1838.17 1197.14 1836.35 1189.98 1838.01 1182.22 1838.39 1180.47 1838.84 1178.64 1838.17 1176.6 1835.44 1176.25 1834.39 1178.66 1832.94 1180.12 1824.56 1188.52 1816.24 1196.98 1806.53 1203.91 1799.04 1209.25 1791.1 1213.67 1781.86 1215.16 1779.63 1215.52 1777.31 1215.74 1775.06 1215.59 1762.1 1214.75 1754.79 1205.81 1756.51 1192.93 1757.05 1188.85 1758.3 1184.94 1759.85 1181.11 1760.49 1179.53 1762.1 1178.14 1761.21 1175.7 1758.65 1176.93 1757.15 1179.16 1755.31 1180.98 1738.62 1197.46 1719.7 1210.12 1696.4 1215.24 1687.21 1217.25 1677.93 1218.3 1668.57 1216.45 1652.14 1213.19 1641.86 1201.04 1641.2 1184.36 1641.12 1182.42 1641.81 1180.37 1640.54 1178.12 1638.31 1179.14 1637 1181 1635.46 1182.57 1627.28 1190.85 1618.81 1198.81 1609.18 1205.44 1601.74 1210.56 1593.71 1214.18 1584.68 1215.34 1581.27 1215.78 1577.88 1215.82 1574.47 1215.19 1563.99 1213.24 1559.18 1207.11 1559.87 1196.43 1560.14 1192.3 1561.32 1188.39 1562.7 1184.5 1563.42 1182.47 1565.18 1180.58 1564.12 1178.09 1561.7 1178.87 1560.64 1181.06 1559.09 1182.67 1547.8 1194.37 1535.97 1205.39 1521.11 1212.53 1514.88 1215.53 1508.32 1217.38 1501.33 1217.29 1488.92 1217.12 1482.48 1210.75 1482.16 1198.37 1482.15 1197.69 1482.05 1197.01 1481.96 1196.1 1479.12 1195.64 1478.11 1198.15 1476.57 1199.52 1467.39 1207.63 1457.57 1214.46 1445.16 1216.63 1442.22 1217.15 1439.27 1217.4 1436.3 1217.25 1425.33 1216.73 1417.79 1211.26 1414.12 1200.97 1411.71 1194.22 1410.91 1187.27 1412.5 1180.05 1409.94 1179.72 1409.07 1181.53 1407.99 1182.74 1399.15 1192.73 1388.94 1201.07 1377.75 1208.23 1369.76 1213.34 1361.21 1216.99 1351.56 1217.28 1334.95 1217.77 1324.56 1206.02 1326.82 1189.6 1328.25 1179.23 1332.87 1170.08 1337.4 1160.87 1341.32 1152.89 1345.51 1145.04 1349.09 1136.91 1352.29 1129.63 1353.39 1122.02 1349.59 1113.9L1350.29 1112.17 1349.72 1113.11C1345.05 1108.71 1339.55 1107.18 1333.32 1107.66 1331.96 1107.76 1330.57 1107.98 1329.22 1107.86 1327.61 1107.73 1324.91 1108.71 1325.05 1105.98 1325.16 1103.91 1327.59 1103.7 1329.47 1103.71 1331.29 1103.73 1333.14 1103.71 1334.93 1103.96 1349.75 1105.98 1362.86 1101.82 1374.85 1093.28 1386.46 1085.02 1396.23 1074.86 1405.92 1064.54 1416.21 1053.57 1426.12 1042.19 1437.67 1032.47 1451.21 1021.06 1465.74 1011.37 1483.33 1007.25 1491.82 1005.25 1500.41 1004.52 1509.13 1004.9ZM1429.86 1001.98C1432.6 1001.85 1435.33 1001.7 1438.04 1002.25 1439.66 1002.59 1441.26 1003.01 1441.5 1004.97 1441.76 1007.17 1440.34 1008.39 1438.52 1009.01 1436.36 1009.75 1434.1 1010.08 1431.78 1009.94 1425.41 1009.55 1419.01 1009.42 1412.67 1008.7 1409.13 1008.29 1405.92 1008.71 1402.64 1009.88 1390.39 1014.27 1380.12 1021.6 1370.65 1030.41 1353.1 1046.78 1339.69 1066.25 1327.8 1086.85 1317.66 1104.42 1308.15 1122.35 1298 1139.9 1286.03 1160.59 1271.79 1179.44 1252.11 1193.56 1227.06 1211.55 1199.15 1218.4 1168.64 1214.41 1156.88 1212.88 1146.09 1208.8 1137.78 1199.74 1129.32 1190.52 1127.62 1174.63 1134.05 1164.75 1139.54 1156.31 1151.33 1154.99 1158.31 1162.04 1165.04 1168.81 1163.67 1178.96 1155.07 1183.02 1151.67 1184.64 1150.92 1186.45 1151.42 1189.84 1153.35 1203.21 1160.92 1210.62 1174.48 1211.72 1189.97 1212.97 1204.41 1209.62 1217.43 1200.94 1230.5 1192.21 1241.08 1181 1250.25 1168.33 1263.27 1150.36 1273.53 1130.77 1284.2 1111.4 1295.11 1091.6 1306.98 1072.45 1322.06 1055.44 1337.97 1037.49 1357.61 1024.99 1379.61 1015.92 1385.27 1013.58 1390.97 1011.35 1397.11 1008.89 1395.21 1006.29 1392.79 1007.05 1390.8 1007.11 1367.31 1007.85 1343.9 1009.34 1320.63 1013.02 1298.24 1016.57 1276.37 1021.79 1255.57 1031 1244.64 1035.84 1234.76 1042.32 1226.27 1050.81 1215.89 1061.19 1210.96 1073.83 1211.18 1088.44 1211.48 1107.54 1225.47 1118.65 1244.13 1114.72 1262.39 1110.87 1277.66 1092.61 1278.04 1074.08 1278.13 1069.45 1276.84 1065.07 1275.23 1060.78 1274.84 1059.75 1274.09 1058.8 1274.73 1057.2 1276.95 1056.54 1277.62 1058.36 1278.29 1059.94 1283.38 1071.9 1282.34 1083.68 1276.27 1094.86 1264.96 1115.69 1235.21 1127.65 1212.4 1120.92 1193.89 1115.46 1183.62 1097.94 1187.15 1078.08 1189.4 1065.37 1195.82 1055.25 1205.59 1047.01 1216.89 1037.47 1229.77 1030.78 1243.54 1025.67 1265.66 1017.46 1288.58 1012.49 1311.89 1009.25 1321.6 1007.9 1331.36 1006.91 1341.73 1005.68 1355.11 1004.83 1367.83 1003.55 1380.62 1003.66 1397.06 1003.79 1413.45 1002.77 1429.86 1001.98ZM890.878 942.484C879.222 947.48 865.885 957.521 853.462 970.538 846.194 978.982 839.695 987.347 835.422 997.276 848.367 1002.73 897.602 1012.49 905.492 1011.19 900.629 988.324 895.77 965.481 890.878 942.484ZM681.764 918.324C675.406 919.945 670.496 923.277 665.55 926.435 632.354 947.638 605.28 975.582 579.403 1004.83 577.056 1007.48 576.025 1010.74 575.898 1014.25 574.899 1041.79 573.325 1069.33 576.266 1097.48 578.174 1114.54 582.05 1130.53 586.346 1146.62 588.951 1145.51 589.76 1143.81 590.827 1142.36 598.261 1132.27 605.081 1121.76 611.747 1111.15 625.695 1088.96 639.566 1066.72 659.139 1048.8 661.255 1046.86 662.185 1044.35 662.778 1041.61 663.607 1037.79 663.534 1033.91 663.699 1030.05 664.087 1020.96 664.084 1011.85 665.718 1002.83 669.899 979.754 674.658 956.794 679.347 933.817 680.358 928.869 682.159 923.948 681.764 918.324ZM750.299 886.434C735.624 893.177 721.038 900.127 706.228 906.561 700.317 909.127 697.507 913.139 696.339 919.266 693.995 931.566 691.189 943.777 688.582 956.028 683.508 979.881 679.385 1003.89 676.579 1028.12 676.375 1029.89 675.621 1031.69 677.695 1033.01 679.684 1034.28 681.207 1033.1 682.743 1032.24 685.721 1030.56 688.622 1028.75 691.99 1026.75 698.853 1022.6 705.289 1018.67 712.18 1015.64 720.171 1012.13 724.631 1006.1 726.409 997.697 733.866 962.489 742.305 927.506 750.666 892.508 751.101 890.686 752.169 888.69 750.299 886.434ZM1065.58 861.41C1053.62 863.016 1041.57 864.048 1029.61 865.666 1008.91 868.463 989.161 874.349 970.423 883.738 948.448 894.749 929.081 909.432 910.155 924.891 903.836 930.053 902.02 935.592 903.798 943.427 908.48 964.073 913.701 984.61 917.379 1005.47 918.728 1013.13 922.842 1017.39 930.435 1019.3 947.88 1023.68 965.207 1028.54 983.11 1033.37 993.05 1036.25 1002.41 1039.15 1011.89 1041.61 1026.35 1045.35 1039.96 1050.87 1052.28 1059.47 1054.03 1060.69 1055.82 1062.44 1058.85 1061.88 1061.67 1038.97 1071.03 1018.33 1082.71 998.641 1093.98 979.64 1105.39 960.716 1117.09 941.981 1120.96 935.799 1121.29 930.496 1117.23 924.343 1105.17 906.094 1093.33 887.701 1081.57 869.255 1077.74 863.242 1072.86 860.435 1065.58 861.41ZM1120.43 853.601C1111.58 854.344 1102.79 855.694 1094.29 858.393 1090.34 859.643 1090.29 859.962 1092.36 863.533 1092.58 863.926 1092.86 864.294 1093.11 864.674 1104.37 881.514 1115.11 898.699 1127.02 915.098 1128.04 916.502 1128.71 918.398 1131.41 918.779 1142.13 902.45 1152.98 885.941 1164.1 869.025 1165.89 865.458 1168.82 862.975 1169.36 858.949 1153.09 854.637 1136.96 852.213 1120.43 853.601ZM887.334 847.724C886.534 847.79 885.477 848.01 884.091 848.319 849.863 855.943 815.797 864.229 781.878 873.135 772.778 875.524 767.293 880.762 765.073 889.925 756.604 924.87 746.154 959.348 740.286 995.482 740.475 998.5 742.255 998.105 743.803 997.915 759.626 995.968 775.521 994.61 791.233 991.755 797.275 990.658 802.397 988.226 806.898 984.064 815.259 976.331 823.941 968.942 832.21 961.115 846.601 947.494 861.206 934.09 874.794 919.64 880.593 913.472 884.07 906.354 885.473 897.964 887.96 883.095 888.682 868.088 889.568 853.088 889.826 848.717 889.734 847.526 887.334 847.724ZM697.331 841.804C696.484 841.933 695.793 841.913 695.207 842.151 693.734 842.753 692.289 843.432 690.866 844.147 669.207 855.031 650.627 869.858 634.346 888.4 612.588 913.797 597.74 942.69 584.79 972.695 584.099 974.298 583.38 975.925 584.848 977.773 588.462 976.52 590.622 973.802 592.783 971.251 613.508 946.786 638.604 927.716 666.133 911.623 670.064 909.325 674.046 907.091 677.815 904.547 684.555 899.997 688.534 893.762 689.819 885.538 691.611 874.071 694.06 862.708 696.051 851.27 696.586 848.199 697.94 845.178 697.331 841.804ZM968.941 841.682C965.892 841.666 963.834 843.026 961.791 844.99 947.502 858.729 933.139 872.391 918.881 886.161 917.564 887.434 915.58 888.584 915.994 891.845 926.039 888.777 935.076 883.982 944.965 879.966 973.299 867.641 1001.16 855.537 1029.04 843.429 1028.21 841.653 1027.23 841.769 1026.39 841.769 1007.24 841.741 988.09 841.786 968.941 841.682ZM926.364 841.475C921.785 841.671 917.446 842.251 913.151 843.501 908.97 844.717 906.114 847.722 904.607 851.75 900.807 861.905 901.398 872.525 900.64 884.648 909.875 876.1 916.823 867.775 924.591 859.577 929.933 853.795 934.938 848.359 941.017 841.757 935.762 841.469 930.943 841.279 926.364 841.475ZM1328.3 841.388C1325.9 841.762 1323.65 840.507 1321.88 843.182 1334.2 856.673 1346.54 870.185 1358.88 883.697 1359.27 872.705 1358.58 862.39 1355.63 852.343 1353.87 846.378 1349.79 843.178 1343.86 842.439 1338.89 841.822 1333.86 841.719 1328.3 841.388ZM1565.2 841.198C1564.67 841.126 1564.14 841.24 1563.65 841.658 1562.24 842.87 1562.53 844.566 1562.94 846.12 1566.32 859.157 1567.32 872.644 1570.34 885.736 1572.51 895.11 1576.92 903.206 1586.11 908.488 1590.84 911.334 1595.93 911.979 1600.22 914.808 1626.4 932.086 1650.64 951.602 1671.43 975.22 1672.38 976.292 1673.12 978.093 1675.39 977.199 1676.01 974.395 1674.66 971.928 1673.66 969.449 1668.86 957.615 1663.45 946.061 1657.37 934.838 1644.13 910.432 1628.1 888.134 1607.62 869.201 1595.44 857.945 1580.59 850.692 1566.8 841.857 1566.28 841.529 1565.74 841.27 1565.2 841.198ZM1224.67 840.955C1223.95 840.995 1223.25 841.198 1222.66 841.85 1223.84 843.43 1225.28 843.448 1226.57 843.839 1245.78 849.656 1264.62 856.502 1283.11 864.284 1301.59 872.064 1319.71 880.628 1337.6 889.7 1339.63 890.729 1341.69 892.842 1345.27 890.406 1334.95 880.088 1324.85 869.992 1314.41 859.556 1310.26 855.613 1306.29 852.156 1302.68 848.374 1297.8 843.277 1292.06 841.04 1284.97 841.098 1265.59 841.257 1246.21 841.056 1226.82 841.039 1226.14 841.039 1225.4 840.916 1224.67 840.955ZM782.477 809.675C765.402 813.624 748.182 816.907 731.21 821.349 722.718 823.572 717.074 828.268 714.066 836.968 709.007 855.643 705.148 874.017 701.286 894.041 714.245 886.756 727.444 884.367 739.125 878.188 752.366 871.186 762.689 861.104 769.704 847.854 775.994 835.975 779.528 822.921 785.123 810.736 785.205 810.557 785.099 810.293 785.08 810.072 784.276 809.518 783.391 809.464 782.477 809.675ZM1477.12 809.266C1476.28 809.143 1475.48 809.185 1474.65 809.699 1474.75 810.318 1474.71 811.043 1474.99 811.606 1481.41 824.457 1487.06 837.624 1492.39 850.975 1497.14 862.892 1506.02 871.489 1518.14 876.055 1529.26 880.248 1539.81 885.617 1550.66 890.394 1552.83 891.353 1554.89 892.992 1557.45 892.553 1557.69 891.856 1558.01 891.411 1557.95 891.031 1554.76 872.385 1551.14 853.818 1546 835.607 1544.18 829.134 1539.66 825.016 1532.73 823.149 1515.34 818.463 1497.82 814.291 1479.86 809.822 1478.85 809.677 1477.96 809.389 1477.12 809.266ZM1007.82 804.192C1006.75 804.345 1005.73 804.917 1004.64 805.806 999.711 809.833 994.656 813.71 989.651 817.648 988.042 818.913 986.408 820.147 984.832 821.452 983.815 822.295 982.253 823.098 982.678 824.6 983.246 826.613 985.264 825.946 986.753 826.084 987.881 826.188 989.026 826.115 990.164 826.116 1001.54 826.117 1012.92 826.117 1024.98 826.117 1030.21 826.103 1034.76 826.123 1039.31 826.051 1040.38 826.034 1041.72 826.196 1042.23 824.856 1042.89 823.099 1041.33 822.559 1040.32 821.755 1039.97 821.473 1039.57 821.247 1039.17 821.022 1029.89 815.728 1020.56 810.523 1011.36 805.09 1010.03 804.305 1008.9 804.039 1007.82 804.192ZM1251.02 803.968C1248.62 803.8 1246.2 804.311 1243.77 805.521 1234.44 810.174 1227.18 817.465 1220.15 824.927 1218.52 826.655 1220.58 826.969 1222.45 827.125 1232.08 827.133 1241.19 827.217 1250.31 827.113 1259.26 827.01 1268.28 827.637 1278.4 826.36 1271.55 818.457 1265.72 811.55 1258.05 806.489 1255.77 804.983 1253.41 804.136 1251.02 803.968ZM1309.44 788.015C1297.95 790.812 1286.57 794.073 1275.14 797.107 1272.61 797.779 1272.29 799.123 1273.84 801.024 1282.55 811.722 1292.09 821.456 1305.5 826.173 1316.82 830.157 1328.1 829.537 1339.93 825.172 1335.62 817.513 1331.62 810.403 1327.39 802.844 1325.43 799.455 1323.73 796.498 1321.95 793.578 1318.86 788.472 1315.33 786.58 1309.44 788.015ZM946.787 786.509C943.456 785.533 941.552 786.604 940.076 790.019 933.158 802.285 926.46 814.085 919.788 825.835 922.556 827.683 924.782 828.038 927.09 827.987 935.52 827.804 943.949 827.626 952.377 827.37 953.721 827.33 955.157 827.139 956.377 826.615 968.085 821.577 977.043 813.407 983.152 802.271 985.303 798.35 984.67 797.223 980.313 795.968 969.156 792.751 957.93 789.774 946.787 786.509ZM1352.37 785.686C1346.55 785.52 1340.73 785.832 1334.9 786.496 1334.82 787.466 1334.6 787.996 1334.77 788.323 1340.57 799.404 1345.96 810.729 1353.04 821.079 1357.99 828.307 1364.79 832.886 1373.45 834.872 1400.29 841.023 1427.09 847.351 1454.45 853.783 1463.59 855.548 1471.98 858.297 1481.3 859.25 1480.9 857.478 1480.85 856.558 1480.49 855.777 1474.36 842.319 1467.94 828.986 1462.15 815.386 1459.34 808.781 1454.79 805.538 1448 804.149 1421.91 798.809 1395.86 793.313 1369.83 787.74 1364 786.494 1358.18 785.851 1352.37 785.686ZM918.712 785.595C916.322 785.781 913.983 786.329 911.651 786.732 886.307 791.108 860.972 795.539 835.052 800.049 825.742 801.754 817.031 803.472 808.276 804.919 804.298 805.576 801.782 807.469 800.107 811.184 793.653 825.493 786.964 839.696 780.461 853.983 779.767 855.509 778.339 857.022 779.453 859.434 781.766 858.969 784.169 858.537 786.549 858 821.164 850.174 855.349 840.451 890.378 834.474 896.383 833.449 900.787 830.628 904.272 825.62 910.926 816.057 916.403 805.835 921.84 795.583 923.37 792.698 925.663 790.084 926.078 786.628 923.542 785.585 921.101 785.409 918.712 785.595ZM1132.55 730.55C1130.83 730.284 1129.05 730.389 1127.15 730.915 1123.82 731.836 1120.67 733.038 1117.69 734.769 1101.33 744.267 1084.93 753.728 1068.13 763.472 1052.43 772.737 1037.79 782.68 1022.73 793.122 1027.1 796.38 1030.75 799.026 1034.32 801.785 1043.7 809.039 1053.03 816.358 1062.41 823.616 1067.02 827.188 1072.13 829.434 1078.1 829.606 1111.17 830.556 1144.23 831.667 1177.33 831.613 1184.94 831.601 1191.53 829.469 1197.63 824.832 1210.9 814.74 1223.3 803.632 1235.91 792.77 1236.33 792.407 1236.38 791.611 1236.59 791.06 1236.11 790.664 1235.78 790.324 1235.4 790.094 1202.93 770.644 1170.47 751.211 1137.61 732.414 1135.94 731.454 1134.27 730.816 1132.55 730.55ZM1055.79 703.343C1052.4 703.802 1049.13 705.185 1045.84 707.378 1028.77 718.753 1011.53 729.869 994.4 741.143 987.167 745.902 979.892 750.615 972.876 755.681 965.849 760.755 959.544 766.63 954.999 774.493 956.052 775.14 956.738 775.804 957.545 776.019 969.867 779.307 982.166 782.702 994.556 785.714 1001.7 787.449 1008.4 786.122 1014.82 782.133 1037.66 767.942 1060.65 754.01 1084.04 739.752 1088.93 736.758 1093.44 734.094 1097.81 731.2 1102.04 728.402 1107.09 726.573 1109.8 722.113 1109.01 720.445 1107.78 720.34 1106.75 719.957 1093.32 714.932 1079.79 710.138 1066.46 704.846 1062.68 703.347 1059.17 702.884 1055.79 703.343ZM1204.31 702.83C1201.55 702.515 1198.69 702.954 1195.63 704.166 1183.98 708.781 1172.14 712.934 1160.39 717.286 1157.83 718.235 1155.22 719.111 1152.72 720.206 1149.58 721.58 1149.45 722.785 1152.13 724.925 1153.19 725.773 1154.41 726.43 1155.57 727.146 1183.34 744.233 1211.1 761.316 1239.28 778.676 1242.43 780.605 1245.23 782.153 1247.88 783.932 1253.13 787.467 1258.54 788.308 1264.75 786.432 1276.74 782.814 1288.89 779.715 1300.95 776.32 1302.55 775.871 1304.43 775.654 1305.55 774.028 1304.1 771.313 1302.14 769.401 1300.26 767.442 1293.43 760.345 1285.76 754.238 1277.58 748.805 1262.95 739.098 1248.24 729.52 1233.57 719.895 1226.51 715.269 1219.39 710.739 1212.4 706.015 1209.74 704.213 1207.08 703.145 1204.31 702.83ZM870.296 692.525C866.45 692.243 863.401 693.827 860.316 695.089 848.92 699.75 837.813 705.04 826.965 710.862 804.119 723.123 783.353 738.209 764.938 756.497 751.804 769.541 743.402 785.796 734.205 801.513 733.934 801.977 734.17 802.737 734.17 803.743 746.113 803.906 757.447 801.143 769.441 799.19 787.01 795.557 799.325 786.155 806.717 770.301 809.701 763.9 813.352 757.84 817.223 751.911 830.682 731.291 847.836 714.032 866.174 697.832 867.787 696.406 869.946 695.348 870.296 692.525ZM1392.86 691.983C1391.91 691.814 1390.81 691.971 1389.44 692.937 1396.05 700.832 1404.51 706.648 1411.87 714.222 1430.07 732.697 1445.36 752.717 1456.93 775.462 1464 789.36 1475.79 796.635 1490.74 799.414 1501.03 801.329 1511.34 803.21 1521.66 805.016 1523.08 805.264 1524.75 806.036 1525.91 804.551 1525.91 803.942 1526.03 803.459 1525.89 803.062 1525.59 802.206 1525.2 801.381 1524.8 800.565 1512.21 774.97 1494.36 753.661 1471.99 736.09 1448.69 717.79 1422.51 704.549 1395.41 692.982 1394.62 692.646 1393.82 692.152 1392.86 691.983ZM1310.93 682.501C1282.06 682.12 1253.52 684.649 1225.79 693.356 1224.22 693.852 1222.39 694.039 1220.8 695.63 1222.44 696.896 1223.64 697.881 1224.91 698.791 1237.87 708.13 1251.27 716.785 1264.79 725.275 1282.57 736.436 1300.41 747.608 1314.9 763.046 1320.12 768.607 1325.84 771.159 1333.41 771.568 1343.42 772.109 1353.48 771.539 1363.43 773.335 1388.56 777.87 1413.53 783.166 1438.56 788.197 1442.46 788.983 1446.35 790.627 1450.49 789.934 1450.8 787.61 1449.3 786.325 1448.31 784.866 1441.42 774.666 1434.53 764.462 1427.52 754.337 1419.2 742.301 1409.88 731.104 1399.12 721.126 1387.93 710.736 1376.82 700.244 1365.3 689.473 1360.47 685.091 1355.21 683.663 1349.23 683.585 1336.46 683.421 1323.7 682.669 1310.93 682.501ZM963.768 681.966C946.406 681.055 929.119 682.518 911.837 683.866 905.598 684.353 899.597 686.026 894.716 690.081 882.791 699.988 870.777 709.836 860.446 721.468 842.71 741.436 827.117 763.102 810.93 784.296 810.389 785.005 809.679 785.671 810.033 786.798 811.649 788.01 813.471 787.274 815.178 787.059 827.17 785.544 839.091 783.593 850.965 781.321 878.946 775.967 906.804 769.662 935.535 769.855 937.804 769.87 939.341 768.959 940.839 767.354 956.379 750.695 975.01 737.962 993.974 725.647 1006.6 717.45 1019.26 709.297 1031.11 699.988 1033.02 698.485 1035.52 697.469 1036.05 694.46 1033.77 692.76 1031.39 692.851 1029.19 692.366 1007.6 687.595 985.937 683.13 963.768 681.966ZM1127.4 658.475C1123.92 658.777 1120.49 659.83 1117.03 661.756 1102.26 669.971 1088.23 679.312 1074.05 688.453 1072.84 689.23 1071.01 689.56 1070.89 692.263 1086.28 698.034 1101.8 703.857 1117.82 709.866 1125.46 713.916 1132.41 713.398 1139.93 710.428 1154.54 704.653 1169.46 699.656 1184.22 694.242 1185.78 693.668 1187.79 693.556 1189.18 690.746 1188.54 690.409 1187.68 690.058 1186.93 689.549 1175.98 682.132 1165.11 674.598 1154.08 667.306 1149.14 664.04 1143.84 661.383 1138.08 659.696 1134.41 658.621 1130.88 658.173 1127.4 658.475ZM1207.68 640.205C1197.6 640.543 1187.57 641.898 1177.65 645.021 1171.79 646.863 1165.7 647.96 1159.74 649.443 1157.88 649.904 1156.07 650.514 1154.14 651.081 1154.68 652.078 1154.79 652.622 1155.11 652.837 1170.51 663.018 1185.94 673.161 1201.34 683.333 1204.27 685.267 1207.33 685.163 1210.52 684.212 1215.32 682.779 1220.13 681.386 1225.49 679.82 1241.94 675.578 1258.02 672.461 1274.38 670.746 1289.85 669.124 1305.33 669.034 1320.84 669.583 1323.36 669.672 1326.05 670.33 1328.7 668.851 1326.83 666.568 1324.57 665.96 1322.54 665.026 1295.63 652.622 1267.53 644.243 1237.99 641.488 1227.88 640.545 1217.75 639.867 1207.68 640.205ZM1040.92 640.161C1033.67 640.191 1026.38 640.61 1019.05 641.379 988.352 644.601 959.101 653.031 931.886 668.414 964.427 668.5 996.653 669.897 1028.73 678.264 1035.64 680.202 1042.09 681.74 1048.32 683.904 1053.12 685.57 1057.01 684.796 1061.14 682.006 1074.37 673.079 1087.79 664.434 1101.1 655.617 1102.51 654.682 1104.43 654.123 1104.99 651.383 1084.1 643.468 1062.69 640.069 1040.92 640.161ZM1041.42 626.068C1054.38 625.579 1067.18 627.762 1079.92 630.735 1093.02 633.789 1105.92 637.63 1119.14 640.193 1126.42 641.604 1133.62 641.802 1140.83 639.977 1148.79 637.965 1156.77 636.031 1164.69 633.899 1176.18 630.808 1187.79 628.377 1199.71 628.085 1232.68 627.277 1265.4 628.562 1296.99 639.598 1313.14 645.242 1328.9 651.857 1344.6 658.604 1371.83 670.297 1399.35 681.293 1426.16 693.931 1441.65 701.228 1456.86 709.03 1471.33 718.187 1492.9 731.835 1510.31 749.158 1522.46 772.089 1540.11 805.397 1565.66 831.155 1599.97 847.726 1611.32 853.207 1619.45 862.66 1627.98 871.506 1652.56 896.994 1669.76 927.192 1683.63 959.463 1687.85 969.283 1692.01 979.133 1695.56 989.77 1687.14 990.716 1679.21 991.209 1671.26 991.485 1668.21 991.59 1666.82 989.445 1665.15 987.677 1655.61 977.548 1645.96 967.529 1635.62 958.191 1620.18 944.242 1603.94 931.4 1585.59 921.406 1583.45 920.239 1581.45 918.559 1578.48 918.754 1577.68 923.879 1579.38 928.707 1580.38 933.526 1584.22 952.048 1588.43 970.489 1592.27 989.01 1595.57 1004.9 1597.41 1020.97 1597 1037.23 1596.9 1041.08 1597.97 1044.46 1600.29 1047.41 1603.39 1051.35 1606.49 1055.32 1609.93 1058.95 1611.98 1061.12 1612.77 1062.9 1610.75 1065.39 1609.08 1067.47 1608.43 1070.32 1605.63 1072.14 1601.89 1068.62 1598.12 1065.07 1594.43 1061.6 1592.4 1062.54 1592.38 1064.25 1591.98 1065.7 1589.33 1075.37 1586.84 1085.09 1583.39 1094.52 1582.2 1097.78 1581.24 1101.3 1581.81 1104.58 1583.06 1111.64 1579.77 1116.87 1575.7 1122.43L1574.04 1121.71 1575.12 1122.48C1566.94 1136.95 1560.1 1152.24 1546.96 1163.21 1555.22 1149.06 1564.98 1135.85 1573.6 1121.4L1573.8 1121.54 1576.79 1109.37C1576.67 1105.45 1575.31 1101.68 1572.36 1098.02 1570.86 1096.15 1571.48 1094.14 1571.89 1092.14 1574.19 1080.97 1576.09 1069.74 1577.6 1058.43 1577.88 1056.4 1577.97 1054.35 1578.29 1052.32 1578.79 1049.19 1577.61 1047.32 1574.74 1045.83 1568.67 1042.67 1562.85 1039.05 1556.84 1035.8 1554.29 1034.42 1553.28 1032.73 1553.6 1029.78 1553.95 1026.65 1553.68 1023.45 1553.68 1018.99 1563.33 1024.34 1572.13 1029.22 1581.62 1034.48 1582.83 1029.3 1582.8 1025.06 1582.05 1020.85 1575.79 986.091 1569.45 951.345 1563.26 916.571 1562.6 912.863 1560.99 910.367 1557.68 908.598 1548.41 903.654 1538.69 899.698 1529.15 895.369 1522.96 892.563 1517.01 889.179 1510.24 887.268 1508.65 889.936 1509.9 892.328 1510.41 894.619 1517.23 924.851 1524.11 955.069 1531 985.287 1531.39 987.049 1531.89 988.783 1531.52 991.305 1527.89 990.201 1524.55 989.162 1521.18 988.171 1518.47 987.37 1518.23 985.064 1517.69 982.82 1513.3 964.424 1508.63 946.091 1504.5 927.637 1501.51 914.282 1496.95 901.361 1494.26 887.925 1492.48 879.044 1485.79 874.997 1477.45 872.888 1459.55 868.361 1441.72 863.565 1423.83 858.988 1406.4 854.526 1388.71 851.193 1370.86 847.785 1369.2 850.537 1370.07 853.269 1370.39 855.829 1372.05 869.17 1373.9 882.488 1375.62 895.822 1376.6 903.511 1379.64 909.975 1384.94 915.863 1401.28 933.997 1417.77 951.976 1435.06 969.207 1444.09 978.204 1452.91 987.429 1465.26 992.365 1460.03 996.627 1459.92 996.716 1456.71 992.675 1451.43 986.041 1444.18 983.757 1436.2 983.432 1431.21 983.229 1426.18 983.692 1421.17 983.995 1418.78 984.14 1416.6 984.153 1415.19 981.793 1407.46 968.93 1394.76 961.161 1384.01 951.402 1380.8 948.494 1377.44 945.751 1374.06 943.034 1369.92 939.686 1369.68 939.755 1368.48 945.33 1366.2 956.026 1364.05 966.75 1361.84 977.462 1361.56 978.801 1361.12 980.127 1361.01 981.479 1360.75 984.76 1359.21 986.068 1355.78 986.225 1345.25 986.711 1346.03 987.637 1348.18 977.701 1350.58 966.568 1353.02 955.434 1355.82 944.397 1357.82 936.504 1356.05 930.574 1349.83 924.928 1317 895.166 1279.57 874.604 1235.74 866.325 1222.28 863.781 1208.73 862.006 1195.04 861.353 1187.49 860.993 1182.08 863.823 1177.96 870.357 1166.63 888.281 1155.06 906.055 1143.28 923.685 1138.81 930.383 1139.59 936.495 1143.49 942.814 1150.55 954.263 1157.59 965.725 1164.73 977.129 1174.16 992.215 1183.34 1007.43 1190.49 1023.79 1194.24 1032.39 1194.3 1032.38 1187.75 1038.71 1186.65 1039.77 1185.84 1041.28 1183.32 1041.59 1171.19 1007.07 1148.26 978.371 1130.72 946.022 1127.81 948.876 1126.54 951.799 1124.76 954.35 1102.24 986.583 1087.36 1022.62 1072.79 1058.79 1068.78 1068.73 1070.85 1074.93 1079.88 1080.25 1089.58 1085.97 1097.35 1094.17 1106.74 1100.25 1107.89 1100.99 1109 1101.8 1110.08 1102.64 1111.6 1103.81 1112.8 1103.5 1114.33 1102.39 1128.75 1091.97 1131.62 1091.95 1146.08 1102.46 1147.98 1103.84 1149.26 1103.7 1150.88 1102.4 1153.71 1100.1 1156.55 1097.8 1159.46 1095.61 1161.99 1093.72 1164.16 1091.31 1167.81 1089.88 1168.62 1093.96 1169.37 1097.87 1170.17 1101.77 1170.62 1103.96 1169.32 1105.14 1167.77 1106.25 1165.17 1108.1 1162.5 1109.87 1160.01 1111.86 1154.62 1116.18 1153.74 1120.33 1157.22 1126.18 1159.66 1130.29 1162.46 1134.2 1165.23 1138.09 1168 1141.97 1171.68 1143.91 1176.5 1142.35 1182.69 1140.36 1189.8 1141.05 1194.94 1136 1196.13 1134.82 1197.38 1135.29 1198.69 1135.9 1209.07 1140.68 1219.98 1142.5 1231.35 1141.58 1233.75 1141.39 1235.23 1142.28 1235.84 1144.72 1237.26 1150.42 1237.67 1155.47 1233.29 1160.67 1226.2 1169.09 1218.92 1177.19 1210.08 1183.78 1203.17 1188.92 1195.5 1192.16 1186.88 1193.13 1180.01 1193.89 1177.15 1190.46 1179.43 1184.08 1185.22 1167.8 1178.44 1150.39 1163.33 1142.74 1147.99 1134.98 1128.6 1140.03 1119.04 1154.3 1116.48 1158.11 1114.2 1162.19 1113.45 1166.69 1112.78 1170.75 1110.47 1172.18 1107.02 1173.48 1084.54 1181.98 1069.83 1198.18 1063.47 1220.98 1053.01 1258.52 1079.11 1297.17 1117.85 1304.93 1160.15 1313.4 1197.24 1278.27 1198.45 1241.17 1198.48 1240.26 1198.67 1239.33 1198.55 1238.44 1198.09 1235.06 1199.33 1233.71 1202.91 1233.28 1212.88 1232.07 1222.65 1229.76 1232.07 1226.14 1247.34 1220.25 1260.97 1211.64 1273.94 1201.04L1275.55 1201.82 1275.88 1202.05 1266.47 1215.14C1264.22 1217.97 1262.88 1220.43 1266.57 1223.07 1267.1 1223.45 1267.47 1224.09 1267.88 1224.63 1274.5 1233.26 1274.71 1240.65 1268.57 1249.75 1263.88 1256.72 1263.88 1256.72 1269.05 1263.11 1276.64 1272.51 1276.64 1272.52 1269.83 1282.3 1269.59 1282.66 1269.17 1282.9 1268.5 1283.49 1266.8 1283.03 1265.97 1281.31 1264.86 1280.04 1261.59 1276.24 1258.45 1272.32 1255.21 1268.49 1249.32 1261.55 1249.27 1261.48 1241.08 1265.05 1238.17 1266.32 1235.33 1267.86 1232.72 1269.65 1228.33 1272.67 1226.01 1277 1225.71 1282.36 1225.37 1288.63 1226.67 1294.63 1229.07 1300.35 1230.9 1304.7 1233.8 1305.97 1239.13 1305.44 1245.87 1304.77 1252.49 1302.96 1259.71 1302.88 1259.67 1306.96 1257.86 1310.18 1256.99 1313.63 1256.35 1316.2 1254.15 1316.33 1252.16 1316.65 1248.11 1317.3 1244.04 1317.88 1239.97 1318.37 1237.8 1318.64 1236.7 1319.58 1236.77 1321.88 1236.82 1323.23 1236.59 1324.61 1236.44 1325.96 1235.15 1336.81 1230.62 1341.53 1219.82 1343.82 1217 1344.41 1213.07 1343.01 1211.56 1345.7 1210.11 1348.29 1210.24 1351.87 1210.05 1355.05 1209.54 1363.26 1208.36 1371.35 1206.47 1379.36 1203.29 1392.9 1206.76 1400.26 1219.3 1406.77 1225.54 1410.01 1231.01 1414.75 1238.1 1416.37 1240.03 1416.81 1240.43 1418.39 1239.74 1420.15 1238.98 1422.06 1238.06 1423.9 1237.37 1425.83 1236.29 1428.8 1234.66 1429.45 1231.61 1428.18 1225.07 1425.45 1218.89 1422.05 1212.77 1418.52 1203.37 1413.09 1203.4 1413.1 1199.96 1423.24 1197.47 1430.58 1195.01 1437.93 1192.33 1445.2 1190.35 1450.61 1189.82 1450.75 1184.31 1449.29 1183.43 1449.06 1182.57 1448.75 1181.68 1448.53 1178.6 1447.77 1177.75 1446.21 1179.02 1443.06 1182.76 1433.72 1184.58 1423.82 1187.19 1414.14 1190.56 1401.62 1189.27 1390.22 1180.61 1380.13 1180.39 1379.89 1180.47 1379.4 1180.36 1378.71 1184.55 1380.37 1187.38 1383.82 1190.96 1385.82 1192.85 1385.18 1192.77 1383.6 1192.96 1382.39 1194.48 1372.48 1195.89 1362.55 1197.32 1352.62 1197.45 1351.72 1197.49 1350.8 1197.56 1349.89 1198.37 1338.51 1194.1 1333.35 1182.65 1332.54 1173.81 1331.91 1166.62 1335.46 1161.26 1342.48 1153.64 1352.45 1153.94 1356.26 1162.83 1365.13 1165.05 1367.34 1167.43 1369.39 1169.88 1371.65 1167.75 1372.55 1166.22 1371.23 1164.56 1370.83 1152.83 1368.06 1141.91 1370.07 1131.78 1376.45 1125.58 1380.36 1124.69 1380.22 1118.46 1376.45 1115.89 1374.9 1114.65 1370.48 1110.94 1371.79 1108.26 1372.72 1106.1 1375.12 1103.73 1376.9 1096.61 1382.25 1089.49 1387.57 1082.43 1392.99 1080.09 1394.79 1077.85 1396.75 1075.7 1398.79 1071.4 1402.89 1069.82 1407.8 1071.25 1413.71 1073.73 1423.97 1077.65 1433.71 1082.29 1443.09 1096.25 1471.29 1110.98 1499.1 1128.07 1525.57 1128.68 1526.51 1129.14 1527.6 1130.49 1528.12 1132.36 1528.1 1132.68 1526.31 1133.43 1525.04 1140.37 1513.24 1147.25 1501.43 1154.18 1489.64 1157.16 1484.57 1157.2 1484.56 1162.63 1486.38 1164.75 1487.1 1167.06 1487.45 1169.03 1489.2 1167.23 1494.1 1164.11 1498.33 1161.49 1502.81 1156.2 1511.86 1151.03 1521.02 1145.12 1529.67 1139.2 1538.33 1139.16 1545.73 1145.42 1554.61 1156.84 1570.8 1167.3 1587.7 1177.83 1604.52 1182.36 1611.75 1187.9 1614.52 1196.63 1613.41 1214.96 1611.08 1233.37 1609.39 1251.42 1605.27 1277.88 1599.24 1301.23 1586.59 1323.15 1571 1333.01 1563.99 1342.36 1556.32 1351.72 1548.67 1356.67 1544.63 1358.43 1540.08 1356.84 1533.65 1353.93 1521.93 1351.63 1510.06 1349.11 1498.24 1347.89 1492.56 1347.92 1492.56 1353.39 1492.19 1360.6 1491.7 1360.6 1491.7 1362.03 1498.78 1363.99 1508.39 1365.9 1518 1367.96 1527.58 1369.11 1532.91 1369.41 1533.04 1374.04 1530.38 1390.46 1520.92 1404.75 1508.96 1415.44 1493.24 1418.67 1488.48 1422.24 1486.29 1427.81 1486.97 1429.15 1487.14 1430.54 1486.88 1431.91 1486.93 1441.06 1487.27 1447.58 1483.28 1451.91 1475.24 1456.8 1466.2 1462.64 1457.75 1468.57 1449.36 1469.08 1448.63 1469.59 1447.9 1471.34 1447.6 1470.1 1459.5 1471.49 1470.77 1479.66 1480.51 1477.22 1482.24 1474.77 1482.38 1472.41 1482.72 1464.55 1483.88 1457.79 1486.93 1451.7 1492.34 1431.57 1510.23 1412.48 1529.2 1392.71 1547.45 1380.59 1558.63 1373.91 1571.66 1373.03 1588.02 1372.43 1599.16 1371.24 1610.28 1370.41 1621.43 1370.08 1626 1370.28 1626.05 1374.73 1626.14 1377.97 1626.2 1381.09 1625.49 1384.18 1624.74 1415.87 1617.1 1447.53 1609.33 1479.24 1601.74 1487.41 1599.78 1492.31 1595.06 1494.33 1586.87 1501.63 1557.22 1509.25 1527.64 1516.35 1497.95 1517.55 1492.91 1519.79 1490.46 1524.64 1489.81 1526.41 1489.57 1528.15 1488.99 1530.85 1488.33 1527.93 1505.42 1523.53 1521.59 1520 1537.94 1516.45 1554.34 1512.65 1570.69 1508.97 1587.03 1511.75 1587.99 1513.3 1586.78 1514.85 1586.09 1526.29 1580.97 1537.61 1575.57 1549.13 1570.63 1557.82 1566.88 1562.75 1560.79 1564.59 1551.38 1568.3 1532.37 1572.72 1513.5 1576.6 1494.53 1577.44 1490.42 1578.48 1488.61 1582.95 1490.78 1583.74 1491.16 1584.74 1491.11 1585.63 1491.32 1590.57 1492.49 1590.65 1492.51 1589.61 1497.66 1586.05 1515.31 1582.39 1532.95 1578.85 1550.6 1578.38 1552.93 1576.74 1555.86 1579.41 1557.51 1582.17 1559.22 1583.91 1556.15 1585.75 1554.75 1600.99 1543.14 1616.03 1531.25 1631.36 1519.75 1640.35 1513.01 1648.44 1505.35 1655.8 1496.93 1658.53 1493.8 1661.44 1492.3 1665.63 1491.87 1676.2 1490.81 1685.9 1486.82 1694.83 1481.47 1696.57 1482.87 1696 1484.24 1695.48 1485.42 1685.46 1507.89 1677.71 1531.41 1665.53 1552.88 1651.39 1577.76 1634.94 1600.99 1612.87 1619.69 1605.69 1625.77 1597.85 1630.88 1589.26 1634.69 1563.91 1645.95 1544.28 1663.8 1531.84 1688.3 1513.54 1724.34 1485.18 1749.57 1450.61 1768.95 1430.68 1780.12 1409.96 1789.58 1388.83 1798.16 1354.39 1812.12 1319.8 1825.69 1284.73 1838.01 1275.22 1841.35 1265.6 1843.86 1255.49 1844.59 1245.94 1845.29 1236.48 1846.78 1226.99 1848.13 1209.51 1850.6 1192.48 1847.44 1175.55 1843.35 1162.48 1840.19 1149.75 1835.73 1136.33 1834 1128.94 1833.05 1121.74 1833.62 1114.66 1835.63 1100.62 1839.59 1086.15 1841.82 1072.29 1846.52 1065.8 1848.73 1058.82 1848.9 1051.96 1848.75 1035.52 1848.4 1019.19 1846.5 1002.87 1844.68 984.645 1842.64 967.092 1837.5 950.153 1830.61 906.244 1812.74 862.279 1794.97 819.698 1774.05 800.022 1764.38 781.004 1753.54 764.658 1738.61 755.49 1730.23 747.584 1720.87 741.74 1709.88 734.229 1695.74 725.726 1682.28 715.306 1670.07 700.917 1653.2 684.1 1639.22 664.195 1629.53 650.62 1622.93 640.623 1612.53 630.617 1601.93 606.477 1576.37 589.257 1546.38 576.027 1514.11 559.256 1473.21 543.244 1431.99 528.456 1390.32 524.992 1380.55 523.02 1370.57 522.307 1360.28 521.629 1350.49 519.428 1340.89 518.459 1331.15 516.741 1313.86 520.095 1297.09 524.369 1280.46 527.264 1269.2 530.41 1258.01 532.571 1246.57 533.772 1240.22 533.941 1233.91 532.248 1227.6 530.418 1220.78 528.929 1213.86 526.879 1207.11 519.817 1183.84 519.476 1160.09 520.053 1136 520.925 1099.63 531.902 1066.18 546.133 1033.34 563.167 994.026 580.771 954.972 598.394 915.925 600.562 911.123 603.148 906.603 606.492 902.504 617.733 888.727 628.796 874.807 640.866 861.725 647.147 854.917 654.422 849.488 662.764 845.593 695.44 830.339 719.318 806.052 735.924 774.391 745.879 755.411 759.943 740.104 776.97 727.397 799.369 710.68 823.555 697.035 849.291 686.139 892.536 667.832 936.206 650.625 980.576 635.206 989.067 632.255 997.815 630.887 1006.69 630.173 1013.97 629.588 1021.22 628.881 1028.41 627.518 1032.76 626.692 1037.1 626.232 1041.42 626.068Z" fill="#fff" fill-rule="evenodd" />
    </g>
</svg>