<svg width="1650" height="959"
  xmlns="http://www.w3.org/2000/svg"
  xmlns:xlink="http://www.w3.org/1999/xlink" xml:space="preserve" overflow="hidden">
  <defs>
    <clipPath id="clip0">
      <rect x="1375" y="758" width="1650" height="959"/>
    </clipPath>
  </defs>
  <g clip-path="url(#clip0)" transform="translate(-1375 -758)">
    <path d="M1737.61 1627.22C1739.62 1626.81 1741.46 1628.02 1743.31 1628.81 1790.44 1648.97 1840.02 1659.69 1890.42 1667.73 1928.11 1673.74 1965.99 1678.26 2003.96 1681.64 2021.23 1683.19 2038.57 1684.82 2055.93 1685.91 2131.99 1690.7 2208.09 1689.38 2284.16 1688.32 2316.12 1687.87 2348.15 1686.07 2380.1 1682.96 2411.44 1679.91 2442.82 1676.98 2474.09 1673.4 2497.12 1670.76 2519.96 1666.3 2542.75 1661.99 2576.19 1655.67 2609.32 1648.01 2641.11 1635.52 2646.52 1633.4 2651.83 1631.04 2657.23 1628.89 2659.48 1628 2662.15 1626.38 2664.05 1628.97 2666.32 1632.05 2663.4 1634.03 2661.62 1635.97 2655.03 1643.16 2647.58 1649.25 2638.82 1653.7 2607.73 1669.5 2574.44 1678.83 2540.63 1686.3 2515.27 1691.89 2489.87 1697.45 2463.99 1700.37 2448.9 1702.07 2433.89 1704.49 2418.12 1706.75 2401.99 1708.14 2386.67 1710.21 2371.23 1711.39 2319.06 1715.37 2266.82 1717.53 2214.55 1716.89 2172.25 1716.37 2129.89 1718.19 2087.62 1714.62 2064.21 1712.65 2040.65 1712.16 2017.31 1709.59 1967.09 1704.04 1916.83 1698.93 1867.37 1687.67 1835.74 1680.47 1804.34 1673.01 1774.64 1659.77 1761.75 1654.03 1749.17 1647.51 1739.48 1636.76 1737.32 1634.36 1734.53 1632.15 1735.56 1628.26 1736.26 1627.68 1736.95 1627.36 1737.61 1627.22ZM1828.64 1105.38C1827.84 1105.32 1826.98 1105.46 1826.03 1105.87 1822.57 1107.36 1823.01 1110.82 1822.9 1113.8 1822.26 1130.38 1819.76 1146.75 1817.17 1164.54 1812.96 1188.22 1807.43 1211.53 1799.77 1234.39 1794.76 1249.34 1788.31 1263.7 1783.09 1278.54 1779.24 1289.49 1781.04 1291.69 1792.23 1292.64 1808.31 1294.01 1824.17 1293.05 1840.12 1290.62 1886.42 1283.55 1928.17 1265.71 1966.06 1238.5 1975.69 1231.59 1975.67 1229.37 1966.09 1222.07 1920.08 1187.02 1875.83 1149.92 1834.63 1109.26 1832.84 1107.5 1831.03 1105.55 1828.64 1105.38ZM2571.84 1102.68C2569.33 1103.24 2567.57 1105.88 2565.71 1107.68 2526.85 1145.59 2485.57 1180.66 2441.36 1214.15 2438.76 1216.21 2436.15 1218.26 2433.56 1220.33 2425.95 1226.4 2426.06 1229.88 2434.12 1235.64 2485.62 1272.45 2542.46 1292.41 2606.36 1290.38 2620.23 1289.94 2622.18 1287.41 2617.19 1274.48 2597 1222.26 2578.71 1169.61 2579.87 1112.48 2579.95 1108.42 2578.66 1104.39 2574.62 1102.91 2573.59 1102.53 2572.67 1102.49 2571.84 1102.68ZM2200.75 758C2231.46 758.059 2257.74 777.12 2264.17 805.41 2271.25 836.549 2260.08 867.293 2230.18 882.664 2216.63 889.634 2215.28 893.441 2220.18 907.881 2243.82 977.52 2273.23 1044.48 2313.77 1106.12 2332.03 1133.88 2351.63 1160.69 2375.41 1184.15 2383.29 1191.91 2385.8 1191.99 2394.35 1184.99 2442.57 1145.54 2490.13 1105.36 2532.11 1059.11 2547.93 1041.69 2562.95 1023.59 2576.57 1004.39 2583.44 994.716 2582.93 990.423 2574.74 980.928 2544.75 946.191 2561.35 889.279 2605.89 878.202 2642.36 869.131 2675.48 881.779 2686.16 919.158 2696.47 955.262 2684.33 988.129 2644.46 1002.23 2622.27 1010.08 2622.01 1009.8 2622.65 1033.02 2624.86 1112.88 2639.78 1189.94 2673.83 1262.71 2679.63 1275.13 2681.14 1275.68 2694.29 1270.53 2737.86 1253.44 2776.03 1227.73 2811.02 1197.04 2847.38 1165.14 2878.83 1128.74 2908.28 1090.54 2916.35 1080.08 2916.53 1076.85 2907.85 1066.62 2888.85 1044.22 2891.65 997.834 2915.25 978.049 2941.23 956.281 2981.69 956.512 3005.46 979.984 3039.68 1013.77 3027.11 1071.92 2982.11 1088.13 2976.52 1090.15 2970.79 1091.08 2964.98 1090.48 2953.69 1089.31 2945.95 1094.36 2939.93 1103.36 2916.7 1138.08 2892.96 1172.46 2870.16 1207.46 2817.11 1288.85 2768.2 1372.7 2722.16 1458.23 2716 1469.68 2710.02 1481.22 2703.84 1492.65 2702.49 1495.14 2701.76 1498.66 2697.55 1498.09 2694.47 1495.41 2696.25 1492.45 2697.16 1489.72 2715.51 1434.28 2736.66 1379.93 2760.7 1326.7 2766.16 1314.6 2771.57 1302.48 2776.82 1290.28 2777.92 1287.72 2780.95 1284.61 2777.7 1282.07 2774.78 1279.79 2772.01 1282.81 2769.45 1284.2 2735.5 1302.69 2700.02 1317.07 2662.05 1325.13 2632.23 1331.47 2602.13 1331.13 2571.95 1330.14 2568.91 1330.03 2565.87 1329.76 2562.07 1329.54 2519.95 1325.15 2481.52 1311.76 2445.28 1291.77 2382.39 1257.08 2332.82 1207.99 2292.39 1149.32 2255.59 1095.93 2226.77 1038.49 2207.01 976.63 2205.87 973.051 2205.19 969.007 2200.85 966.961 2195.66 969.005 2195.45 974.233 2194.08 978.436 2174.06 1039.84 2146.49 1097.57 2109.45 1150.55 2074.93 1199.93 2034.09 1243.41 1983.81 1277.07 1931.46 1312.11 1874.33 1332.09 1810.34 1333.39 1747.22 1334.68 1689.57 1318.14 1634.88 1288.36 1632.21 1286.9 1629.48 1285.57 1626.71 1284.31 1625.77 1283.88 1624.64 1283.85 1623.59 1283.64 1620.52 1287.54 1623 1290.69 1624.42 1293.79 1651.15 1352.13 1675.78 1411.33 1697.06 1471.89 1700.91 1482.84 1704.72 1493.81 1708.38 1504.82 1709.11 1507.03 1710.76 1509.37 1708.73 1512.28 1704.08 1512.86 1703.29 1508.78 1701.8 1505.87 1683.79 1470.97 1665.57 1436.18 1646.37 1401.9 1623.39 1360.87 1599.66 1320.28 1575.1 1280.17 1539.11 1221.41 1500.98 1164.07 1462.09 1107.2 1455.97 1098.25 1448.75 1093.62 1437.45 1093.47 1399.35 1092.96 1378.46 1064.26 1375.34 1033.18 1371.67 996.542 1398.05 972.735 1422.58 966.716 1469.48 955.209 1506.43 988.031 1506.32 1027.24 1506.27 1044.57 1501.67 1059.34 1490.29 1072.08 1485.27 1077.71 1484.87 1082.84 1489.55 1089.06 1524.09 1135 1561.65 1178.09 1606.88 1213.97 1637.17 1238.01 1669.86 1258.08 1705.58 1273.09 1717.08 1277.92 1722.43 1276.07 1727.46 1264.84 1743.68 1228.65 1756.63 1191.27 1764.88 1152.54 1774.1 1109.24 1778.61 1065.3 1777.67 1020.93 1777.45 1011 1774.33 1007.51 1763.86 1005.73 1736.58 1001.08 1715.26 980.19 1711.8 954.699 1707.48 922.909 1721.24 895.781 1748.15 883.045 1774.02 870.794 1807.82 878.116 1826.09 899.925 1844.62 922.049 1845.89 957.123 1829 980.286 1816.91 996.863 1816.84 996.916 1829.62 1013.92 1864.2 1059.92 1904.09 1100.91 1947.78 1138.24 1967.13 1154.78 1986.84 1170.92 2006.58 1187 2016.07 1194.73 2018.3 1194.46 2026.73 1185.55 2063.88 1146.27 2093.83 1101.85 2119.32 1054.38 2145.31 1006.01 2165.6 955.187 2182.99 903.176 2185.91 894.425 2184.07 889.914 2174.99 886.197 2141.91 872.658 2129.22 839.006 2136.57 807.767 2143.07 780.145 2171.76 757.945 2200.75 758Z" fill="#FFFFFF" fill-rule="evenodd"/>
  </g>
</svg>