<svg width="1320" height="1320" xmlns="http://www.w3.org/2000/svg" xmlns:xlink="http://www.w3.org/1999/xlink" xml:space="preserve" overflow="hidden"><defs><clipPath id="clip0"><rect x="1540" y="578" width="1320" height="1320"/></clipPath></defs><g clip-path="url(#clip0)" transform="translate(-1540 -578)"><path d="M2701.99 619.102C2706.93 618.863 2711.89 619.044 2716.8 619.677 2764.02 625.756 2808.01 673.577 2805.93 792.87 2802.92 965.375 2496 1441.55 1791.03 1758.48 1722.01 1822.19 1632.8 1892.5 1619.16 1834.28 1605.51 1776.06 1709.46 1731.01 1758.29 1725.52 1980.1 1521.74 2235.25 977.979 2059.49 857.683 1982.08 804.704 1600.18 1009.48 1666.63 1319.06 1724.51 1588.76 2069.31 1177.9 1925.26 1007.08 2102.23 1119.32 1915.19 1424.01 1741.93 1434.41 1568.66 1444.81 1493.47 1160.61 1823.77 891.737 2127.96 644.119 2676.61 941.172 1836.87 1699.16 2250.46 1476.16 2640.05 1228.99 2652.06 799.46 2556.78 720.61 2627.89 622.683 2701.99 619.102Z" fill="#66A898" fill-rule="evenodd"/><path d="M2538.78 1683.01C2539.28 1682.98 2539.8 1683.05 2540.31 1683.22 2630.65 1713.58 2615.43 1723.94 2658 1766.97 2700.57 1723.94 2685.35 1713.58 2775.69 1683.22 2777.72 1682.53 2779.95 1683.52 2780.79 1685.49 2795.64 1720.04 2792.06 1745.8 2746.2 1758.38 2763.84 1758.26 2782.37 1760.43 2802.3 1762.42 2802.3 1762.42 2802.31 1762.42 2802.32 1762.42 2804.58 1762.66 2806.22 1764.67 2805.98 1766.92 2803.29 1792.32 2776.19 1828.81 2713.65 1808.9 2714.9 1811.71 2715.63 1814.69 2715.63 1817.86 2715.63 1839.85 2673.12 1852.48 2661.13 1855.61 2659.08 1856.13 2656.92 1856.13 2654.87 1855.61 2642.88 1852.48 2600.37 1839.85 2600.37 1817.86 2600.39 1814.77 2601.06 1811.71 2602.35 1808.89 2539.8 1828.81 2512.7 1792.32 2510.02 1766.92 2510.02 1766.91 2510.02 1766.9 2510.02 1766.9 2509.79 1764.65 2511.44 1762.64 2513.7 1762.41 2533.63 1760.42 2552.17 1758.26 2569.8 1758.38 2523.94 1745.8 2520.36 1720.04 2535.21 1685.48 2535.84 1684.01 2537.25 1683.08 2538.78 1683.01Z" fill="#B770BE" fill-rule="evenodd"/><path d="M2694.25 1642.02C2695.23 1641.92 2696.25 1642.17 2697.11 1642.8 2704.21 1648.02 2721 1664.13 2721 1699.75 2721 1734.6 2702.87 1758 2680.49 1758 2658.14 1758 2662.5 1734.12 2662.5 1699.26 2662.5 1677.48 2684.25 1651.52 2691.6 1643.36 2692.31 1642.58 2693.26 1642.12 2694.25 1642.02ZM2621.75 1642.02C2622.74 1642.12 2623.69 1642.58 2624.4 1643.36 2631.75 1651.52 2653.5 1677.48 2653.5 1699.26 2653.5 1734.12 2657.86 1758 2635.51 1758 2613.13 1758 2595 1734.6 2595 1699.75 2595 1664.13 2611.79 1648.02 2618.89 1642.8 2619.75 1642.17 2620.77 1641.92 2621.75 1642.02Z" fill="#9B4AA4" fill-rule="evenodd"/><path d="M2658.01 1651C2658.72 1651 2659.43 1651.19 2660.07 1651.56 2667.67 1656.01 2693.7 1673.48 2693.7 1703.77 2693.7 1703.96 2693.66 1704.13 2693.66 1704.32L2697.15 1704.33 2723.81 1663.47C2724.14 1662.96 2724.57 1662.53 2725.07 1662.19 2727.16 1660.76 2730.01 1661.3 2731.43 1663.41 2743.02 1680.59 2751.38 1701.9 2746.66 1724.96 2737.67 1768.82 2698.66 1790.4 2658.01 1780.72 2617.34 1790.4 2578.33 1768.81 2569.35 1724.96 2564.62 1701.91 2572.97 1680.6 2584.57 1663.42 2584.9 1662.92 2585.33 1662.49 2585.84 1662.16 2587.95 1660.75 2590.79 1661.34 2592.18 1663.47L2618.86 1704.33 2622.34 1704.32C2622.34 1704.13 2622.3 1703.96 2622.3 1703.77 2622.3 1673.48 2648.35 1656.01 2655.95 1651.56 2656.59 1651.19 2657.3 1651 2658.01 1651Z" fill="#793A80" fill-rule="evenodd"/><path d="M2613 1709 2703 1709 2681.58 1771 2634.42 1771Z" fill="#F4900C" fill-rule="evenodd"/><path d="M2658 1695C2682.85 1695 2703 1701.04 2703 1708.5 2703 1715.96 2682.85 1722 2658 1722 2633.15 1722 2613 1715.96 2613 1708.5 2613 1701.04 2633.15 1695 2658 1695Z" fill="#FFDC5D" fill-rule="evenodd"/><path d="M2658.01 1705C2658.75 1705 2659.49 1705.2 2660.15 1705.59 2667.88 1710.27 2694 1728.34 2694 1759.64 2694 1787.97 2677.88 1807 2658.01 1807 2638.12 1807 2622 1787.97 2622 1759.63 2622 1728.34 2648.13 1710.26 2655.87 1705.59 2656.53 1705.2 2657.27 1705 2658.01 1705Z" fill="#793A80" fill-rule="evenodd"/><path d="M2768.88 1710.01C2771.16 1710.02 2773 1711.87 2773 1714.16 2772.83 1734.33 2764.79 1806.98 2658.02 1807L2657.98 1807C2551.21 1806.98 2543.17 1734.33 2543 1714.16 2543 1713.81 2543.04 1713.46 2543.12 1713.13 2543.66 1710.93 2545.88 1709.58 2548.08 1710.12 2570.01 1715.42 2657.72 1740.73 2658.01 1806.69 2658.29 1740.73 2746 1715.42 2767.93 1710.12 2768.24 1710.05 2768.56 1710.01 2768.88 1710.01Z" fill="#9B4AA4" fill-rule="evenodd"/><path d="M2161.78 1683.01C2162.28 1682.98 2162.8 1683.05 2163.31 1683.22 2253.65 1713.58 2238.43 1723.94 2281 1766.97 2323.57 1723.94 2308.35 1713.58 2398.69 1683.22 2400.72 1682.53 2402.95 1683.52 2403.79 1685.49 2418.64 1720.04 2415.06 1745.8 2369.2 1758.38 2386.84 1758.26 2405.37 1760.43 2425.3 1762.42 2425.3 1762.42 2425.31 1762.42 2425.32 1762.42 2427.58 1762.66 2429.22 1764.67 2428.98 1766.92 2426.29 1792.32 2399.19 1828.81 2336.65 1808.9 2337.9 1811.71 2338.63 1814.69 2338.63 1817.86 2338.63 1839.85 2296.12 1852.48 2284.13 1855.61 2282.08 1856.13 2279.92 1856.13 2277.87 1855.61 2265.88 1852.48 2223.37 1839.85 2223.37 1817.86 2223.39 1814.77 2224.06 1811.71 2225.35 1808.89 2162.8 1828.81 2135.7 1792.32 2133.02 1766.92 2133.02 1766.91 2133.02 1766.9 2133.02 1766.9 2132.79 1764.65 2134.44 1762.64 2136.7 1762.41 2156.63 1760.42 2175.17 1758.26 2192.8 1758.38 2146.94 1745.8 2143.36 1720.04 2158.21 1685.48 2158.84 1684.01 2160.25 1683.08 2161.78 1683.01Z" fill="#A2CAC0" fill-rule="evenodd"/><path d="M2317.25 1642.02C2318.23 1641.92 2319.25 1642.17 2320.11 1642.8 2327.21 1648.02 2344 1664.13 2344 1699.75 2344 1734.6 2325.87 1758 2303.49 1758 2281.14 1758 2285.5 1734.12 2285.5 1699.26 2285.5 1677.48 2307.25 1651.52 2314.6 1643.36 2315.31 1642.58 2316.26 1642.12 2317.25 1642.02ZM2244.75 1642.02C2245.74 1642.12 2246.69 1642.58 2247.4 1643.36 2254.75 1651.52 2276.5 1677.48 2276.5 1699.26 2276.5 1734.12 2280.86 1758 2258.51 1758 2236.13 1758 2218 1734.6 2218 1699.75 2218 1664.13 2234.79 1648.02 2241.89 1642.8 2242.75 1642.17 2243.77 1641.92 2244.75 1642.02Z" fill="#80B6A9" fill-rule="evenodd"/><path d="M2281.51 1651C2282.22 1651 2282.94 1651.19 2283.58 1651.56 2291.22 1656.01 2317.4 1673.48 2317.4 1703.77 2317.4 1703.96 2317.36 1704.13 2317.36 1704.32L2320.87 1704.33 2347.68 1663.47C2348.01 1662.96 2348.44 1662.53 2348.94 1662.19 2351.04 1660.76 2353.91 1661.3 2355.34 1663.41 2367 1680.59 2375.4 1701.9 2370.65 1724.96 2361.62 1768.82 2322.39 1790.4 2281.51 1780.72 2240.62 1790.4 2201.39 1768.81 2192.35 1724.96 2187.6 1701.91 2196 1680.6 2207.66 1663.42 2208 1662.92 2208.43 1662.49 2208.93 1662.16 2211.06 1660.75 2213.92 1661.34 2215.32 1663.47L2242.14 1704.33 2245.64 1704.32C2245.64 1704.13 2245.6 1703.96 2245.6 1703.77 2245.6 1673.48 2271.8 1656.01 2279.44 1651.56 2280.08 1651.19 2280.8 1651 2281.51 1651Z" fill="#66A898" fill-rule="evenodd"/><path d="M2236 1709 2326 1709 2304.58 1771 2257.42 1771Z" fill="#F4900C" fill-rule="evenodd"/><path d="M2281 1695C2305.85 1695 2326 1701.04 2326 1708.5 2326 1715.96 2305.85 1722 2281 1722 2256.15 1722 2236 1715.96 2236 1708.5 2236 1701.04 2256.15 1695 2281 1695Z" fill="#FFDC5D" fill-rule="evenodd"/><path d="M2281.01 1705C2281.75 1705 2282.49 1705.2 2283.14 1705.59 2290.88 1710.27 2317 1728.34 2317 1759.64 2317 1787.97 2300.88 1807 2281.01 1807 2261.12 1807 2245 1787.97 2245 1759.63 2245 1728.34 2271.13 1710.26 2278.87 1705.59 2279.53 1705.2 2280.27 1705 2281.01 1705Z" fill="#66A898" fill-rule="evenodd"/><path d="M2391.88 1710.01C2394.16 1710.02 2396 1711.87 2396 1714.16 2395.83 1734.33 2387.79 1806.98 2281.02 1807L2280.98 1807C2174.21 1806.98 2166.17 1734.33 2166 1714.16 2166 1713.81 2166.04 1713.46 2166.12 1713.13 2166.66 1710.93 2168.88 1709.58 2171.08 1710.12 2193.01 1715.42 2280.72 1740.73 2281.01 1806.69 2281.29 1740.73 2369 1715.42 2390.93 1710.12 2391.24 1710.05 2391.56 1710.01 2391.88 1710.01Z" fill="#80B6A9" fill-rule="evenodd"/><path d="M2538.78 1388.01C2539.28 1387.98 2539.8 1388.05 2540.31 1388.22 2630.65 1418.58 2615.43 1428.94 2658 1471.97 2700.57 1428.94 2685.35 1418.58 2775.69 1388.22 2777.72 1387.53 2779.95 1388.52 2780.79 1390.49 2795.64 1425.04 2792.06 1450.8 2746.2 1463.38 2763.84 1463.26 2782.37 1465.43 2802.3 1467.42 2802.3 1467.42 2802.31 1467.42 2802.32 1467.42 2804.58 1467.66 2806.22 1469.67 2805.98 1471.92 2803.29 1497.32 2776.19 1533.81 2713.65 1513.9 2714.9 1516.71 2715.63 1519.69 2715.63 1522.86 2715.63 1544.85 2673.12 1557.48 2661.13 1560.61 2659.08 1561.13 2656.92 1561.13 2654.87 1560.61 2642.88 1557.48 2600.37 1544.85 2600.37 1522.86 2600.39 1519.77 2601.06 1516.71 2602.35 1513.89 2539.8 1533.81 2512.7 1497.32 2510.02 1471.92 2510.02 1471.91 2510.02 1471.9 2510.02 1471.9 2509.79 1469.65 2511.44 1467.64 2513.7 1467.41 2533.63 1465.42 2552.17 1463.26 2569.8 1463.38 2523.94 1450.8 2520.36 1425.04 2535.21 1390.48 2535.84 1389.01 2537.25 1388.08 2538.78 1388.01Z" fill="#F5C3C3" fill-rule="evenodd"/><path d="M2694.25 1348.02C2695.23 1347.92 2696.25 1348.17 2697.11 1348.79 2704.21 1353.97 2721 1369.94 2721 1405.25 2721 1439.8 2702.87 1463 2680.49 1463 2658.14 1463 2662.5 1439.33 2662.5 1404.77 2662.5 1383.17 2684.25 1357.44 2691.6 1349.35 2692.31 1348.57 2693.26 1348.12 2694.25 1348.02ZM2621.75 1348.02C2622.74 1348.12 2623.69 1348.57 2624.4 1349.35 2631.75 1357.44 2653.5 1383.17 2653.5 1404.77 2653.5 1439.33 2657.86 1463 2635.51 1463 2613.13 1463 2595 1439.8 2595 1405.25 2595 1369.94 2611.79 1353.97 2618.89 1348.79 2619.75 1348.17 2620.77 1347.92 2621.75 1348.02Z" fill="#F0A9A9" fill-rule="evenodd"/><path d="M2658.01 1356C2658.72 1356 2659.43 1356.19 2660.07 1356.56 2667.67 1361.01 2693.7 1378.48 2693.7 1408.77 2693.7 1408.96 2693.66 1409.13 2693.66 1409.32L2697.15 1409.33 2723.81 1368.47C2724.14 1367.96 2724.57 1367.53 2725.07 1367.19 2727.16 1365.76 2730.01 1366.3 2731.43 1368.41 2743.02 1385.59 2751.38 1406.9 2746.66 1429.96 2737.67 1473.82 2698.66 1495.4 2658.01 1485.72 2617.34 1495.4 2578.33 1473.81 2569.35 1429.96 2564.62 1406.91 2572.97 1385.6 2584.57 1368.42 2584.9 1367.92 2585.33 1367.49 2585.84 1367.16 2587.95 1365.75 2590.79 1366.34 2592.18 1368.47L2618.86 1409.33 2622.34 1409.32C2622.34 1409.13 2622.3 1408.96 2622.3 1408.77 2622.3 1378.48 2648.35 1361.01 2655.95 1356.56 2656.59 1356.19 2657.3 1356 2658.01 1356Z" fill="#E98383" fill-rule="evenodd"/><path d="M2613 1414 2703 1414 2681.58 1476 2634.42 1476Z" fill="#F4900C" fill-rule="evenodd"/><path d="M2658 1400C2682.85 1400 2703 1406.04 2703 1413.5 2703 1420.96 2682.85 1427 2658 1427 2633.15 1427 2613 1420.96 2613 1413.5 2613 1406.04 2633.15 1400 2658 1400Z" fill="#FFDC5D" fill-rule="evenodd"/><path d="M2658.01 1410C2658.75 1410 2659.49 1410.2 2660.15 1410.59 2667.88 1415.27 2694 1433.35 2694 1464.64 2694 1492.97 2677.88 1512 2658.01 1512 2638.12 1512 2622 1492.97 2622 1464.63 2622 1433.35 2648.13 1415.26 2655.87 1410.59 2656.53 1410.2 2657.27 1410 2658.01 1410Z" fill="#E98383" fill-rule="evenodd"/><path d="M2768.88 1415.01C2771.16 1415.02 2773 1416.87 2773 1419.16 2772.83 1439.33 2764.79 1511.98 2658.02 1512L2657.98 1512C2551.21 1511.98 2543.17 1439.33 2543 1419.16 2543 1418.81 2543.04 1418.46 2543.12 1418.13 2543.66 1415.93 2545.88 1414.58 2548.08 1415.12 2570.01 1420.42 2657.72 1445.73 2658.01 1511.69 2658.29 1445.73 2746 1420.42 2767.93 1415.12 2768.24 1415.05 2768.56 1415.01 2768.88 1415.01Z" fill="#F0A9A9" fill-rule="evenodd"/></g></svg>